<?xml version="1.0" encoding="utf-8"?>
<!-- Generator: Adobe Illustrator 25.2.0, SVG Export Plug-In . SVG Version: 6.00 Build 0)  -->
<svg version="1.1" id="Layer_1" xmlns="http://www.w3.org/2000/svg" xmlns:xlink="http://www.w3.org/1999/xlink" x="0px" y="0px"
	 viewBox="0 0 566.9 566.9" style="enable-background:new 0 0 566.9 566.9;" xml:space="preserve">
<style type="text/css">
	.st0{fill:none;}
	.st1{opacity:0.542;fill:url(#SVGID_1_);enable-background:new    ;}
	.st2{fill-rule:evenodd;clip-rule:evenodd;fill:#96999F;}
	.st3{fill-rule:evenodd;clip-rule:evenodd;fill:#5975B5;}
	.st4{fill-rule:evenodd;clip-rule:evenodd;fill:#39497E;}
	.st5{fill-rule:evenodd;clip-rule:evenodd;fill:#252921;}
	.st6{fill-rule:evenodd;clip-rule:evenodd;fill:#EAE9E8;}
	.st7{fill-rule:evenodd;clip-rule:evenodd;fill:#759D70;}
	.st8{fill-rule:evenodd;clip-rule:evenodd;fill:url(#SVGID_2_);}
	.st9{fill-rule:evenodd;clip-rule:evenodd;fill:#B0AFAD;}
	.st10{clip-path:url(#SVGID_4_);fill-rule:evenodd;clip-rule:evenodd;fill:#626262;}
	.st11{fill-rule:evenodd;clip-rule:evenodd;fill:#441111;}
	.st12{clip-path:url(#SVGID_6_);fill-rule:evenodd;clip-rule:evenodd;fill:#9F9F9F;}
	.st13{clip-path:url(#SVGID_8_);fill-rule:evenodd;clip-rule:evenodd;fill:#606060;}
	.st14{fill-rule:evenodd;clip-rule:evenodd;fill:#444342;}
	.st15{fill-rule:evenodd;clip-rule:evenodd;fill:url(#SVGID_9_);}
	.st16{fill-rule:evenodd;clip-rule:evenodd;fill:url(#SVGID_10_);}
	.st17{fill-rule:evenodd;clip-rule:evenodd;fill:url(#SVGID_11_);}
	.st18{fill-rule:evenodd;clip-rule:evenodd;fill:#AA531F;}
	.st19{fill-rule:evenodd;clip-rule:evenodd;fill:#C1C2C9;}
	.st20{fill-rule:evenodd;clip-rule:evenodd;fill:url(#SVGID_12_);}
	.st21{fill-rule:evenodd;clip-rule:evenodd;fill:#242F65;}
	.st22{fill-rule:evenodd;clip-rule:evenodd;fill:#3D4B6F;}
	.st23{fill-rule:evenodd;clip-rule:evenodd;fill:#652424;}
	.st24{fill-rule:evenodd;clip-rule:evenodd;fill:#DEDEDE;}
	.st25{opacity:0.424;clip-path:url(#SVGID_14_);fill-rule:evenodd;clip-rule:evenodd;fill:#A3A3A3;enable-background:new    ;}
	.st26{opacity:0.479;clip-path:url(#SVGID_16_);fill-rule:evenodd;clip-rule:evenodd;fill:#838383;enable-background:new    ;}
	.st27{opacity:0.708;clip-path:url(#SVGID_18_);fill-rule:evenodd;clip-rule:evenodd;fill:#838383;enable-background:new    ;}
	.st28{opacity:0.6483;clip-path:url(#SVGID_20_);fill-rule:evenodd;clip-rule:evenodd;fill:#838383;enable-background:new    ;}
	.st29{opacity:0.758;clip-path:url(#SVGID_22_);fill-rule:evenodd;clip-rule:evenodd;fill:#373737;enable-background:new    ;}
	.st30{opacity:0.585;clip-path:url(#SVGID_24_);fill-rule:evenodd;clip-rule:evenodd;fill:#A8A8A8;enable-background:new    ;}
	.st31{opacity:0.47;clip-path:url(#SVGID_26_);fill-rule:evenodd;clip-rule:evenodd;fill:#676767;enable-background:new    ;}
	.st32{clip-path:url(#SVGID_28_);fill-rule:evenodd;clip-rule:evenodd;fill:#DEDEDE;}
	.st33{fill-rule:evenodd;clip-rule:evenodd;fill:#773520;}
	.st34{opacity:0.915;fill:url(#SVGID_29_);enable-background:new    ;}
	.st35{fill:url(#SVGID_30_);}
	.st36{fill:url(#SVGID_31_);}
	.st37{opacity:6.400000e-02;fill-rule:evenodd;clip-rule:evenodd;fill:#9D9DA9;enable-background:new    ;}
	.st38{opacity:0.475;fill-rule:evenodd;clip-rule:evenodd;fill:#F2A457;fill-opacity:0.2681;enable-background:new    ;}
	.st39{opacity:0.572;fill-rule:evenodd;clip-rule:evenodd;fill:#EAE9E8;enable-background:new    ;}
	.st40{fill-rule:evenodd;clip-rule:evenodd;fill:#EAE9E8;fill-opacity:0.2681;}
	.st41{opacity:0.356;fill-rule:evenodd;clip-rule:evenodd;fill:#B58043;enable-background:new    ;}
	.st42{opacity:0.657;fill-rule:evenodd;clip-rule:evenodd;fill:#6C9781;enable-background:new    ;}
	.st43{opacity:0.11;fill-rule:evenodd;clip-rule:evenodd;fill:#B58043;enable-background:new    ;}
	.st44{opacity:0.381;fill-rule:evenodd;clip-rule:evenodd;fill:#57F26B;fill-opacity:0.2681;enable-background:new    ;}
	.st45{opacity:0.144;fill-rule:evenodd;clip-rule:evenodd;fill:#57F26B;fill-opacity:0.2681;enable-background:new    ;}
	.st46{fill-rule:evenodd;clip-rule:evenodd;fill:url(#SVGID_32_);}
	.st47{fill-rule:evenodd;clip-rule:evenodd;fill:url(#SVGID_33_);}
	.st48{opacity:0.572;fill-rule:evenodd;clip-rule:evenodd;fill:#10D52A;fill-opacity:0.2681;enable-background:new    ;}
	.st49{opacity:0.436;fill:#1C1C1C;fill-opacity:0.2681;enable-background:new    ;}
	.st50{opacity:0.983;fill:#FFFFFF;fill-opacity:0.2681;enable-background:new    ;}
	.st51{fill-rule:evenodd;clip-rule:evenodd;fill:#E8DD70;fill-opacity:0.2681;}
	.st52{opacity:0.35;fill-rule:evenodd;clip-rule:evenodd;fill:url(#SVGID_34_);enable-background:new    ;}
</style>
<pattern  y="566.9" width="566.9" height="566.9" patternUnits="userSpaceOnUse" id="bo" viewBox="0 -566.9 566.9 566.9" style="overflow:visible;">
	<g>
		<rect y="-566.9" class="st0" width="566.9" height="566.9"/>
	</g>
</pattern>
<pattern  y="566.9" width="566.9" height="566.9" patternUnits="userSpaceOnUse" id="bp" viewBox="0 -566.9 566.9 566.9" style="overflow:visible;">
	<g>
		<rect y="-566.9" class="st0" width="566.9" height="566.9"/>
	</g>
</pattern>
<linearGradient id="SVGID_1_" gradientUnits="userSpaceOnUse" x1="213.2393" y1="-33.5056" x2="332.4419" y2="-33.5056" gradientTransform="matrix(3.115 0 0 -3.115 -559.3484 -2.0715)">
	<stop  offset="0" style="stop-color:#DCDDE0"/>
	<stop  offset="0.2542" style="stop-color:#E3E4E6"/>
	<stop  offset="0.7436" style="stop-color:#D8DBDE"/>
	<stop  offset="1" style="stop-color:#E1E1E5"/>
</linearGradient>
<path class="st1" d="M290.6,55.9c-102.5,0-185.7,20.8-185.7,46.4l0.3,2.7c0,0,0,0,0,0c5.5,24.4,86.4,43.7,185.3,43.7
	c99,0,179.8-19.4,185.3-43.8l0.3-2.7C476.2,76.7,393.1,55.9,290.6,55.9L290.6,55.9z"/>
<g>
	<g>
		<path class="st2" d="M366,100.3l5.6-15.2l17.4,13.6l3.6,23.5l-8.7,5l-28.8,30.4l-16.2-1l18.5-32.5L366,100.3z"/>
		<path class="st3" d="M344.7,132.2c3.5-8.9,2.8-10.3,4.7-11.2c2-1,3.4-4.9,5.6-5.7c2.3-0.8,0.6-7.3,1.9-8c1.3-0.7,5.9-0.9,7-3.5
			c1.1-2.6-0.5-4.6-0.5-4.6l-19.8,0.3l-14.4,28.1C329.3,127.6,339.1,146.6,344.7,132.2L344.7,132.2z"/>
		<path class="st4" d="M365.4,100c9.1-6.3,10.5-7.2,12.8-1.5c2.4,5.6-4.8,18.3-4.8,18.3l-15.5-1.2c0,0-2.9-12.1-0.1-13.4
			C360.6,100.9,365.4,100,365.4,100L365.4,100z"/>
		<path class="st5" d="M353.4,101.3c7.3,2,11.6,0.1,13.8-1.6c2.2-1.7,3.7-11.4,5.2-11.6c1.5-0.3-7.1-2.6-7.1-2.6L353.4,101.3z"/>
		<path class="st6" d="M314.3,83.1l16.1-0.6c0,0,24.5,4.2,30.1,5.5c5.6,1.3,10.9-1.3,10.9-1.3l-39.8-25.3L314.3,83.1z"/>
		<path class="st7" d="M273.1,153c3.8,12,21.5,12.8,21.7,8.9c0.2-3.9,0.6-11.3,0.6-11.3s3.5-20.5-0.9-19.9
			C290.1,131.2,273.1,153,273.1,153L273.1,153z"/>
		
			<linearGradient id="SVGID_2_" gradientUnits="userSpaceOnUse" x1="49.0226" y1="421.2353" x2="52.6211" y2="421.2353" gradientTransform="matrix(11.8057 0 0 -11.8057 -322.9722 5115.6001)">
			<stop  offset="0" style="stop-color:#99662E"/>
			<stop  offset="1" style="stop-color:#B67937"/>
		</linearGradient>
		<path class="st8" d="M263,166.6c9,1.4,32.5-31.3,34.5-38.7c2-7.5,0.1-9.5-7.8-9.3C281.9,118.8,239,151.6,263,166.6L263,166.6z"/>
		<path class="st9" d="M157.5,136.3c-13.8-8.2-31.4-23.4-31.4-46.4c0-13.8,8.9-20.2,8.9-20.2c-0.7,7.3-8.4,21.2,1.5,29.3
			c2.4,3.6,5.2,3.9,13.1,3.6c7.9-0.3,6.3,2.1,6.3,2.1s2-8.8,3.9-11c2-2.2,10.2-20.1,10.2-20.1s39.2-19.9,42-21.2
			c2.8-1.3,14.1-2.9,14.1-2.9s40,14.1,42,16c2,2,4.5,14.9,4.5,14.9l-5,19.4l-36.4,13.7l18.5,39.9l-39.6,2.6
			C210.1,155.9,166.9,152.4,157.5,136.3L157.5,136.3z"/>
	</g>
	<g>
		<defs>
			<path id="SVGID_3_" d="M157.5,136.3c-13.8-8.2-31.4-23.4-31.4-46.4c0-13.8,8.9-20.2,8.9-20.2c-0.7,7.3-8.4,21.2,1.5,29.3
				c2.4,3.6,5.2,3.9,13.1,3.6c7.9-0.3,6.3,2.1,6.3,2.1s2-8.8,3.9-11c2-2.2,10.2-20.1,10.2-20.1s39.2-19.9,42-21.2
				c2.8-1.3,14.1-2.9,14.1-2.9s40,14.1,42,16c2,2,4.5,14.9,4.5,14.9l-5,19.4l-36.4,13.7l18.5,39.9l-39.6,2.6
				C210.1,156,166.9,152.5,157.5,136.3L157.5,136.3z"/>
		</defs>
		<clipPath id="SVGID_4_">
			<use xlink:href="#SVGID_3_"  style="overflow:visible;"/>
		</clipPath>
		<path class="st10" d="M158.1,133.6c14-4.3,12.1-3.5,13.4-8.4c7.3-20.2,10.9-26,14.7-26.6c3.7-0.6,36.1,9.5,46.1,18.3
			c10.1,8.9,20.6,40.3,20.6,40.3l-65,5.5C188,162.8,154.9,148.2,158.1,133.6L158.1,133.6z"/>
	</g>
	<path class="st11" d="M186.5,119.9c4.8,4.3,11.8,11,13.7,9.6c1.9-1.5,14.2-8,14.2-8s18.6,22.6,21.9,24.3c3.3,1.7,6.8,0.5,6.8,0.5
		l-17.2-33.4l-17.6-3.4c0,0-13-0.8-18.7,5.3C183.9,120.8,186.5,119.9,186.5,119.9L186.5,119.9z"/>
	<g>
		<defs>
			<path id="SVGID_5_" d="M157.5,136.3c-13.8-8.2-31.4-23.4-31.4-46.4c0-13.8,8.9-20.2,8.9-20.2c-0.7,7.3-8.4,21.2,1.5,29.3
				c2.4,3.6,5.2,3.9,13.1,3.6c7.9-0.3,6.3,2.1,6.3,2.1s2-8.8,3.9-11c2-2.2,10.2-20.1,10.2-20.1s39.2-19.9,42-21.2
				c2.8-1.3,14.1-2.9,14.1-2.9s40,14.1,42,16c2,2,4.5,14.9,4.5,14.9l-5,19.4l-36.4,13.7l18.5,39.9l-39.6,2.6
				C210.1,156,166.9,152.5,157.5,136.3L157.5,136.3z"/>
		</defs>
		<clipPath id="SVGID_6_">
			<use xlink:href="#SVGID_5_"  style="overflow:visible;"/>
		</clipPath>
		<path class="st12" d="M123.2,99.6c15.5,4.6,23.8,9.2,28.9,13.7c5,4.5,21.1,14.8,21.1,14.8L163,140.9l-36.4-12.3L123.2,99.6z"/>
	</g>
	<g>
		<defs>
			<path id="SVGID_7_" d="M157.5,136.3c-13.8-8.2-31.4-23.4-31.4-46.4c0-13.8,8.9-20.2,8.9-20.2c-0.7,7.3-8.4,21.2,1.5,29.3
				c2.4,3.6,5.2,3.9,13.1,3.6c7.9-0.3,6.3,2.1,6.3,2.1s2-8.8,3.9-11c2-2.2,10.2-20.1,10.2-20.1s39.2-19.9,42-21.2
				c2.8-1.3,14.1-2.9,14.1-2.9s40,14.1,42,16c2,2,4.5,14.9,4.5,14.9l-5,19.4l-36.4,13.7l18.5,39.9l-39.6,2.6
				C210.1,156,166.9,152.5,157.5,136.3L157.5,136.3z"/>
		</defs>
		<clipPath id="SVGID_8_">
			<use xlink:href="#SVGID_7_"  style="overflow:visible;"/>
		</clipPath>
		<path class="st13" d="M126,103.7c18.2,20,41.2,35.2,41.2,35.2l-3.5,5.1c0,0-37.4-9.1-37.8-16.3C125.6,120.6,126,103.7,126,103.7
			L126,103.7z"/>
	</g>
	<g>
		<path class="st14" d="M229.3,56.1c6.1,2.8,14.4,43.9,14.4,43.9l10.3-2.5c0,0-7-37.6-14.9-40.6C231.2,54,229.3,56.1,229.3,56.1
			L229.3,56.1z"/>
		
			<linearGradient id="SVGID_9_" gradientUnits="userSpaceOnUse" x1="49.794" y1="425.2197" x2="53.3262" y2="422.8698" gradientTransform="matrix(11.8057 0 0 -11.8057 -322.9722 5115.6001)">
			<stop  offset="0" style="stop-color:#77D743"/>
			<stop  offset="1" style="stop-color:#254A12"/>
		</linearGradient>
		<path class="st15" d="M233.3,94.2c9.6-4,24.6-7.9,30.9-5.2c0,0,5.7-4,10.6-4.7c4.9-0.7,9.5,6.3,9.1,6.4
			c-0.4,0.1-10.9,18.6-14.9,18.1C265.1,108.3,233.3,94.2,233.3,94.2L233.3,94.2z"/>
		
			<linearGradient id="SVGID_10_" gradientUnits="userSpaceOnUse" x1="48.0654" y1="424.657" x2="48.0133" y2="423.547" gradientTransform="matrix(11.8057 0 0 -11.8057 -322.9722 5115.6001)">
			<stop  offset="0" style="stop-color:#3CD0F2"/>
			<stop  offset="1" style="stop-color:#0EACD0"/>
		</linearGradient>
		<path class="st16" d="M222.9,110.8c-7.6-8.6,2.9-16.6,13.2-17.8c10.3-1.3,32.2,14.5,32.2,14.5S237,120.8,222.9,110.8L222.9,110.8z
			"/>
		
			<linearGradient id="SVGID_11_" gradientUnits="userSpaceOnUse" x1="50.044" y1="422.9541" x2="52.621" y2="422.9541" gradientTransform="matrix(11.8057 0 0 -11.8057 -322.9722 5115.6001)">
			<stop  offset="0" style="stop-color:#872C1F"/>
			<stop  offset="1" style="stop-color:#BF3F2D"/>
		</linearGradient>
		<path class="st17" d="M267.9,141.2c9,1.4,28.7-19.3,30.7-26.8c2-7.5-0.9-11.2-8.8-11C281.9,103.6,267.3,131.4,267.9,141.2
			L267.9,141.2z"/>
		<path class="st18" d="M332.7,129.1c7.5-9.6,15.1-8.6,15.7-10.5c0.6-1.9,0.2-4.4-1.5-6.9c-1.7-2.5,2.3-8.9,5.7-8.7
			c3.5,0.2,6.3-7.1,6.3-7.1L345.5,90l-22.2,7.8l-3.4,14.2l0.3,15.5L332.7,129.1z"/>
		<path class="st19" d="M339.7,135.1c9.3-7.6,17.9-6.2,17.9-6.2l-15.1,12.2L339.7,135.1z"/>
		
			<linearGradient id="SVGID_12_" gradientUnits="userSpaceOnUse" x1="54.1166" y1="421.4977" x2="55.4572" y2="422.8477" gradientTransform="matrix(11.8057 0 0 -11.8057 -322.9722 5115.6001)">
			<stop  offset="0" style="stop-color:#3C4533"/>
			<stop  offset="0.3242" style="stop-color:#3C4533"/>
			<stop  offset="0.5756" style="stop-color:#414A37"/>
			<stop  offset="0.8051" style="stop-color:#3C4533"/>
			<stop  offset="1" style="stop-color:#3C4533"/>
		</linearGradient>
		<path class="st20" d="M304.8,118.8c10.3,0.3,14.8-1.4,21.8,1.4c7,2.8,6.6,5,8.8,7.3c2.2,2.2,5.7-0.4,7.7,13.5
			c2,13.9-38.2,6.1-38.2,6.1L304.8,118.8z"/>
		<path class="st21" d="M306.2,119.4c-0.3,15.5-0.7,14.8,3.8,15.3c4.5,0.6-0.7,6.4,0.4,9.2c1.1,2.8,3.6,2.6,3.6,2.6l1.5,5l-13.2-1.1
			c0,0-1.5-1.7-2.1-2.9c-0.6-1.3,0.3-28.7,0.3-30.1C300.5,116,306.2,119.4,306.2,119.4L306.2,119.4z"/>
		<path class="st3" d="M331.5,80.9c0.2-3.8,8.6-7.8,12.6-5.6c4,2.2,2,5.8,6.8,7.9c4.8,2.1,18.9,5.5,17.4,7.8
			c-1.6,2.3-4.7,8.1-9.1,6.8c-4.3-1.3-4.2-5.1-10-5.1c-5.7,0-10.2,0.5-10.2,0.5L331.5,80.9z"/>
		<path class="st5" d="M330.2,98.5c2.7,3.4,5,3.5,10,0.3c4.9-3.3,7.1-7.6,0-7.4c-7.1,0.2-22-5.3-22-5.3s-5,1.6-4.9,4.4
			c0.1,2.9,3.9,6,3.9,6L330.2,98.5z"/>
		<path class="st22" d="M317.7,121.5c13.2-3.9,6.6-12,5.1-14.1c-1.5-2.1,1.6-8.1,8.1-8.3c6.5-0.2-3.5-2.6-9.5-2.8
			c-5.9-0.2-8.4-4.3-5.8-6c2.6-1.7,6-1.9,8.9,1.6c2.9,3.5,14.7,3.5,16.9,1.6c2.2-2,5.9-3.6,5.9-3.6s-9.9-3.9-11.8-7.1
			c-2-3.2-5.5-6.7-9.9-4.2c-4.3,2.5-12.9,3.5-12.9,3.5l-10.6,17.6l5.8,22.9L317.7,121.5z"/>
		<path class="st23" d="M303.7,120.6c-1.8,10,0.4,27.5,1.4,27.3c1-0.1,4.2,1.7,8.8-1.3c15.9-0.3,11.9,18.3,11.9,18.3l-32.5-3.6
			c0,0,2-40.2,4.9-41.7C301,118,303.7,120.6,303.7,120.6L303.7,120.6z"/>
	</g>
	<g transform="matrix(4.1648 0 0 4.1648 126.22 -812.53)">
		<path class="st24" d="M14.2,218.9c12.2,4.6,12.4,12.2,15,12.2c2.6,0,2.4,1.4,3.7-0.5c1.4-1.9,4.6-5.2,4.9-8.2
			c0.3-3,2.9-1.6,2.9-0.4c0,1.2-0.9,9.5-0.6,10.1c0.3,0.6,0.7,1,1-1.2c0.3-2.2,0.3-5.6,0.9-6.1c0.6-0.4,4.1-2.5,4.7-5
			c0,0,0.1-1.2-1.9-1.9c-2-0.7,4.9-6.5,4.9-6.5s9.9,4.6,12.4,7.2c0,0-1,3.5,0.2,3.5c1.2,0,1.7,3.1-0.9,2.5c-2.6-0.6-4.6-1.8-6.2,0
			c-1.6,1.8-2.3,3.5-3.2,3.8c-0.9,0.3-2,0.9-1.9-1.5c0-2.4-0.3,2-1,1.9c-0.7-0.1-0.4,1.1-4.8,1.3c0,0,2.6,1,2.7,2.5
			c0.2,1.5,0.3,1.6,0.3,1.6s5.4,0.5,5.7-1.1c0.2-1.6,1.6-3.7,2.1-4.4c0.6-0.7,3.1-3.6,5.5-3.3c0,0-4.4,2.8-6.2,6.7
			C52.8,236,67,235,67,235s7.6-2,8.4-4.7s1-13.1-0.6-14.8c-2.6-2.1-5.9-4.2-10-1.5c-4.1,2.6-0.7,3.9-6.3-1
			c-5.6-4.9-10.6-7.1-10.6-7.1s-6.5,8.8-6.6,7.8c-0.1-0.9-1.6-5.8-2.3-2.2c0,0-2.1-0.8-1.9,1.1c0.2,1.9-2.9-2-2.9-2s0.3,5.4-1.1,6
			c0,0,5.6-1.5,3.5,1.5c-2.1,3-4.4,3.2-8,3.4c-3.6,0.2-6-1.9-7.8-2.4S17.5,216.9,14.2,218.9L14.2,218.9z"/>
		<path class="st24" d="M7.5,230.9c0,0-0.7-4.2,0.3-5.5c0,0,0.8,1.7,4.4,2.6c3.5,0.9-2.6,4.2-2.6,4.2c7.2-1.9,9.2,4.2,3.3,2.5
			C7,233,7.5,230.9,7.5,230.9L7.5,230.9z"/>
		<path class="st24" d="M10.8,226.2c-1.2-3-1-5.6,2.8-7c0,0,0,1.1,0.9,1.3c0.8,0.2,1.4,2.4,2.6,2.4c0,0-2.2,0.4-2.5,3.2
			C14.6,226.2,12.7,226.6,10.8,226.2L10.8,226.2z"/>
		<path class="st24" d="M7.8,218.3c7.4-3,6.5-3.6,6.5-3.6s-5.6,0.7-2.7-1.2s8.2-2.7,9.3-6c0,0-3.6-1.5-16,5.4
			C5,212.8,5.9,217,7.8,218.3L7.8,218.3z"/>
		<path class="st24" d="M23.1,209.4c-0.6,0.9-1.1,1.4-0.9-2.2c0.2-3.6,2-3,3.9-1.2c1.9,1.8,3.1,0.7,4.4,1.5c1.3,0.8,3.8,1.4,3.8,3.7
			c0,0-2.3,1.1-5.2-1.6C27.9,208.8,23.8,208.4,23.1,209.4L23.1,209.4z"/>
	</g>
	<g>
		<defs>
			<path id="SVGID_13_" d="M185.3,99.1c50.8,19,51.6,50.9,62.6,50.9c11,0,9.9,5.9,15.6-2c5.7-7.8,19-21.6,20.4-34.2
				c1.4-12.6,12.1-6.8,12-1.7c-0.1,5.2-3.6,39.6-2.4,42.3s3.1,4,4.2-5.2c1.1-9.2,1.4-23.4,3.8-25.2c2.4-1.8,16.9-10.6,19.7-20.6
				c0,0,0.4-5-8.1-7.9c-8.5-2.9,20.2-27.1,20.2-27.1s41.1,19,51.6,29.8c0,0-4,14.5,1,14.5c4.9,0,7.1,12.8-3.7,10.3
				s-19.1-7.3-25.8,0.2c-6.7,7.5-9.7,14.6-13.2,16s-8.3,3.7-8.1-6.3c0.2-10.1-1.4,8.3-4.3,7.9c-3-0.4-1.8,4.7-19.9,5.3
				c0,0,10.6,4.1,11.4,10.5c0.8,6.3,1.4,6.5,1.4,6.5s22.7,2,23.7-4.5c1-6.5,6.5-15.4,8.9-18.3c2.4-3,13-15.2,23.1-13.8
				c0,0-18.3,11.6-25.6,27.8c-7.3,16.2,51.9,11.8,51.9,11.8s31.6-8.3,35.1-19.5s4.3-54.6-2.6-61.7c-10.6-8.9-24.6-17.3-41.6-6.4
				c-17,10.9-3.1,16.2-26.2-4.2c-23.1-20.4-44.3-29.6-44.3-29.6s-27.1,36.5-27.6,32.6c-0.6-3.9-6.7-24.3-9.8-9.2
				c0,0-8.9-3.3-8.1,4.5c0.8,7.8-12-8.4-12-8.4s1.1,22.3-4.5,25.1c0,0,23.4-6.1,14.8,6.4c-8.6,12.5-18.4,13.4-33.5,14.2
				c-15.1,0.8-24.8-7.8-32.4-10S199.1,90.9,185.3,99.1L185.3,99.1z"/>
		</defs>
		<clipPath id="SVGID_14_">
			<use xlink:href="#SVGID_13_"  style="overflow:visible;"/>
		</clipPath>
		<path class="st25" d="M227.8,138.3c19.1-29.6,20.9-28.4,27.6-25.8c6.7,2.6-1.8,32.5-10.5,40C236.3,160,227.8,138.3,227.8,138.3
			L227.8,138.3z"/>
	</g>
	<g transform="matrix(4.1648 0 0 4.1648 126.22 -812.53)">
		<g>
			<defs>
				<path id="SVGID_15_" d="M14.2,218.9c12.2,4.6,12.4,12.2,15,12.2c2.6,0,2.4,1.4,3.7-0.5c1.4-1.9,4.6-5.2,4.9-8.2
					c0.3-3,2.9-1.6,2.9-0.4c0,1.2-0.9,9.5-0.6,10.1c0.3,0.6,0.7,1,1-1.2c0.3-2.2,0.3-5.6,0.9-6.1c0.6-0.4,4.1-2.5,4.7-5
					c0,0,0.1-1.2-1.9-1.9c-2-0.7,4.9-6.5,4.9-6.5s9.9,4.6,12.4,7.2c0,0-1,3.5,0.2,3.5s1.7,3.1-0.9,2.5c-2.6-0.6-4.6-1.8-6.2,0
					c-1.6,1.8-2.3,3.5-3.2,3.8s-2,0.9-1.9-1.5c0-2.4-0.3,2-1,1.9c-0.7-0.1-0.4,1.1-4.8,1.3c0,0,2.6,1,2.7,2.5
					c0.2,1.5,0.3,1.6,0.3,1.6s5.4,0.5,5.7-1.1c0.2-1.6,1.6-3.7,2.1-4.4c0.6-0.7,3.1-3.6,5.5-3.3c0,0-4.4,2.8-6.2,6.7
					C52.8,236,67,235,67,235s7.6-2,8.4-4.7c0.9-2.7,1-13.1-0.6-14.8c-2.6-2.1-5.9-4.2-10-1.5c-4.1,2.6-0.7,3.9-6.3-1
					c-5.6-4.9-10.6-7.1-10.6-7.1s-6.5,8.8-6.6,7.8c-0.1-0.9-1.6-5.8-2.3-2.2c0,0-2.1-0.8-1.9,1.1c0.2,1.9-2.9-2-2.9-2s0.3,5.4-1.1,6
					c0,0,5.6-1.5,3.5,1.5c-2.1,3-4.4,3.2-8,3.4c-3.6,0.2-6-1.9-7.8-2.4S17.5,216.9,14.2,218.9L14.2,218.9z"/>
			</defs>
			<clipPath id="SVGID_16_">
				<use xlink:href="#SVGID_15_"  style="overflow:visible;"/>
			</clipPath>
			<path class="st26" d="M29.2,232.3c6.9-12.3,8.6-17.4,9.2-17c0.7,0.4,3.8,4.8,2.9,6.1c-0.9,1.3-2.3,3.1-2.5,3.1
				c-0.2,0-3.9,10.9-3.9,10.9L29.2,232.3z"/>
		</g>
		<g>
			<defs>
				<path id="SVGID_17_" d="M14.2,218.9c12.2,4.6,12.4,12.2,15,12.2c2.6,0,2.4,1.4,3.7-0.5c1.4-1.9,4.6-5.2,4.9-8.2
					c0.3-3,2.9-1.6,2.9-0.4c0,1.2-0.9,9.5-0.6,10.1c0.3,0.6,0.7,1,1-1.2c0.3-2.2,0.3-5.6,0.9-6.1c0.6-0.4,4.1-2.5,4.7-5
					c0,0,0.1-1.2-1.9-1.9c-2-0.7,4.9-6.5,4.9-6.5s9.9,4.6,12.4,7.2c0,0-1,3.5,0.2,3.5s1.7,3.1-0.9,2.5c-2.6-0.6-4.6-1.8-6.2,0
					c-1.6,1.8-2.3,3.5-3.2,3.8s-2,0.9-1.9-1.5c0-2.4-0.3,2-1,1.9c-0.7-0.1-0.4,1.1-4.8,1.3c0,0,2.6,1,2.7,2.5
					c0.2,1.5,0.3,1.6,0.3,1.6s5.4,0.5,5.7-1.1c0.2-1.6,1.6-3.7,2.1-4.4c0.6-0.7,3.1-3.6,5.5-3.3c0,0-4.4,2.8-6.2,6.7
					C52.8,236,67,235,67,235s7.6-2,8.4-4.7c0.9-2.7,1-13.1-0.6-14.8c-2.6-2.1-5.9-4.2-10-1.5c-4.1,2.6-0.7,3.9-6.3-1
					c-5.6-4.9-10.6-7.1-10.6-7.1s-6.5,8.8-6.6,7.8c-0.1-0.9-1.6-5.8-2.3-2.2c0,0-2.1-0.8-1.9,1.1c0.2,1.9-2.9-2-2.9-2s0.3,5.4-1.1,6
					c0,0,5.6-1.5,3.5,1.5c-2.1,3-4.4,3.2-8,3.4c-3.6,0.2-6-1.9-7.8-2.4S17.5,216.9,14.2,218.9L14.2,218.9z"/>
			</defs>
			<clipPath id="SVGID_18_">
				<use xlink:href="#SVGID_17_"  style="overflow:visible;"/>
			</clipPath>
			<path class="st27" d="M37.3,217.1c1.7,2.7,2.7,4.6,3.8,3.9c1.1-0.7,0.5-3.6-1-4.5C38.6,215.5,37.7,215.4,37.3,217.1L37.3,217.1z"
				/>
		</g>
		<g>
			<defs>
				<path id="SVGID_19_" d="M14.2,218.9c12.2,4.6,12.4,12.2,15,12.2c2.6,0,2.4,1.4,3.7-0.5c1.4-1.9,4.6-5.2,4.9-8.2
					c0.3-3,2.9-1.6,2.9-0.4c0,1.2-0.9,9.5-0.6,10.1c0.3,0.6,0.7,1,1-1.2c0.3-2.2,0.3-5.6,0.9-6.1c0.6-0.4,4.1-2.5,4.7-5
					c0,0,0.1-1.2-1.9-1.9c-2-0.7,4.9-6.5,4.9-6.5s9.9,4.6,12.4,7.2c0,0-1,3.5,0.2,3.5s1.7,3.1-0.9,2.5c-2.6-0.6-4.6-1.8-6.2,0
					c-1.6,1.8-2.3,3.5-3.2,3.8s-2,0.9-1.9-1.5c0-2.4-0.3,2-1,1.9c-0.7-0.1-0.4,1.1-4.8,1.3c0,0,2.6,1,2.7,2.5
					c0.2,1.5,0.3,1.6,0.3,1.6s5.4,0.5,5.7-1.1c0.2-1.6,1.6-3.7,2.1-4.4c0.6-0.7,3.1-3.6,5.5-3.3c0,0-4.4,2.8-6.2,6.7
					C52.8,236,67,235,67,235s7.6-2,8.4-4.7c0.9-2.7,1-13.1-0.6-14.8c-2.6-2.1-5.9-4.2-10-1.5c-4.1,2.6-0.7,3.9-6.3-1
					c-5.6-4.9-10.6-7.1-10.6-7.1s-6.5,8.8-6.6,7.8c-0.1-0.9-1.6-5.8-2.3-2.2c0,0-2.1-0.8-1.9,1.1c0.2,1.9-2.9-2-2.9-2s0.3,5.4-1.1,6
					c0,0,5.6-1.5,3.5,1.5c-2.1,3-4.4,3.2-8,3.4c-3.6,0.2-6-1.9-7.8-2.4S17.5,216.9,14.2,218.9L14.2,218.9z"/>
			</defs>
			<clipPath id="SVGID_20_">
				<use xlink:href="#SVGID_19_"  style="overflow:visible;"/>
			</clipPath>
			<path class="st28" d="M43.7,235.2c-0.1-6.6,0.9-8.9,6.6-12.7c5.7-3.8,3.6,1.9,4.5,2.4s2.9,3.4,3.9,2.4c1-1,3.2-2.7,4.1-2.4
				c0.8,0.3,7.9,7.9,7.9,7.9l-19.2,1.9l-7.6,0.6L43.7,235.2z"/>
		</g>
	</g>
	<g>
		<defs>
			<path id="SVGID_21_" d="M185.3,99.1c50.8,19,51.6,50.9,62.6,50.9c11,0,9.9,5.9,15.6-2c5.7-7.8,19-21.6,20.4-34.2
				c1.4-12.6,12.1-6.8,12-1.7c-0.1,5.2-3.6,39.6-2.4,42.3s3.1,4,4.2-5.2c1.1-9.2,1.4-23.4,3.8-25.2c2.4-1.8,16.9-10.6,19.7-20.6
				c0,0,0.4-5-8.1-7.9c-8.5-2.9,20.2-27.1,20.2-27.1s41.1,19,51.6,29.8c0,0-4,14.5,1,14.5c4.9,0,7.1,12.8-3.7,10.3
				s-19.1-7.3-25.8,0.2c-6.7,7.5-9.7,14.6-13.2,16s-8.3,3.7-8.1-6.3c0.2-10.1-1.4,8.3-4.3,7.9c-3-0.4-1.8,4.7-19.9,5.3
				c0,0,10.6,4.1,11.4,10.5c0.8,6.3,1.4,6.5,1.4,6.5s22.7,2,23.7-4.5c1-6.5,6.5-15.4,8.9-18.3c2.4-3,13-15.2,23.1-13.8
				c0,0-18.3,11.6-25.6,27.8c-7.3,16.2,51.9,11.8,51.9,11.8s31.6-8.3,35.1-19.5s4.3-54.6-2.6-61.7c-10.6-8.9-24.6-17.3-41.6-6.4
				c-17,10.9-3.1,16.2-26.2-4.2c-23.1-20.4-44.3-29.6-44.3-29.6s-27.1,36.5-27.6,32.6c-0.6-3.9-6.7-24.3-9.8-9.2
				c0,0-8.9-3.3-8.1,4.5c0.8,7.8-12-8.4-12-8.4s1.1,22.3-4.5,25.1c0,0,23.4-6.1,14.8,6.4c-8.6,12.5-18.4,13.4-33.5,14.2
				c-15.1,0.8-24.8-7.8-32.4-10S199.1,90.9,185.3,99.1L185.3,99.1z"/>
		</defs>
		<clipPath id="SVGID_22_">
			<use xlink:href="#SVGID_21_"  style="overflow:visible;"/>
		</clipPath>
		<path class="st29" d="M386,127.1c5.9-6.3,3.9-7.3,10.9-4c7,3.2,10.7,15.8,15.6,16.3c4.9,0.6,20.8-3.9,23.4-9.3
			c2.6-5.4-2.8-27.2-1.7-29c1.1-1.8,17.8-16.6,25.7-5.7c7.8,10.9,21.6,76.3-2.1,81C434.1,181.1,398.8,125.8,386,127.1L386,127.1z"/>
	</g>
	<g>
		<defs>
			<path id="SVGID_23_" d="M185.3,99c50.8,19,51.6,50.9,62.6,50.9c11,0,9.9,5.9,15.6-2c5.7-7.8,19-21.6,20.4-34.2
				c1.4-12.5,12.1-6.8,12-1.7c-0.1,5.2-3.6,39.6-2.4,42.3c1.3,2.6,3.1,4,4.2-5.2c1.1-9.2,1.4-23.4,3.8-25.2
				c2.4-1.8,16.9-10.6,19.7-20.6c0,0,0.4-5-8.1-7.9c-8.5-2.9,20.2-27.1,20.2-27.1s41.1,19,51.6,29.8c0,0-4,14.5,1,14.5
				c4.9,0,7.1,12.8-3.7,10.3c-10.8-2.6-19.1-7.3-25.8,0.2s-9.7,14.6-13.2,16c-3.5,1.4-8.3,3.7-8.1-6.3c0.2-10.1-1.4,8.3-4.3,7.9
				c-3-0.4-1.8,4.7-19.9,5.3c0,0,10.6,4.1,11.4,10.5c0.8,6.3,1.4,6.5,1.4,6.5s22.7,2,23.7-4.5c1-6.5,6.5-15.4,8.9-18.3
				c2.4-3,13-15.2,23.1-13.8c0,0-18.3,11.6-25.6,27.8c-7.3,16.2,51.9,11.8,51.9,11.8s31.6-8.3,35.1-19.5c3.5-11.2,4.3-54.6-2.6-61.7
				c-10.6-8.9-24.6-17.3-41.6-6.4c-17,10.9-3.1,16.2-26.2-4.2c-23.1-20.4-44.3-29.6-44.3-29.6S298.7,81,298.1,77.1
				c-0.6-3.9-6.7-24.3-9.8-9.2c0,0-8.9-3.3-8.1,4.5c0.8,7.8-12-8.4-12-8.4s1.1,22.3-4.5,25.1c0,0,23.4-6.1,14.8,6.4
				c-8.6,12.5-18.4,13.4-33.5,14.2c-15.1,0.8-24.8-7.8-32.4-10C205.2,97.5,199.1,90.8,185.3,99L185.3,99z"/>
		</defs>
		<clipPath id="SVGID_24_">
			<use xlink:href="#SVGID_23_"  style="overflow:visible;"/>
		</clipPath>
		<path class="st30" d="M420.5,69.4c0,0-20.2,4-22.6,20.4c-2.4,16.3,0.7,19.9,0.7,19.9c2.9,5.7,10.6,15.6,15.5,15.2
			c4.9-0.4,13.7-1.9,15.5-7.4c1.8-5.4,2.4-19.5-4.2-22.3c-6.6-2.8-9.5-4.3-2.5-3.9c7,0.4,10.7,1.7,8.2-2.1
			C428.6,85.5,420.5,69.4,420.5,69.4L420.5,69.4z M415.1,108.3c5.9-0.2,6.7,6.5-0.4,8.6c-5.2-1.1-7.8-7.2-0.8-8.5
			C414.3,108.4,414.7,108.4,415.1,108.3L415.1,108.3z"/>
	</g>
	<g>
		<defs>
			<path id="SVGID_25_" d="M185.3,99.1c50.8,19,51.6,50.9,62.6,50.9c11,0,9.9,5.9,15.6-2c5.7-7.8,19-21.6,20.4-34.2
				c1.4-12.6,12.1-6.8,12-1.7c-0.1,5.2-3.6,39.6-2.4,42.3s3.1,4,4.2-5.2c1.1-9.2,1.4-23.4,3.8-25.2c2.4-1.8,16.9-10.6,19.7-20.6
				c0,0,0.4-5-8.1-7.9c-8.5-2.9,20.2-27.1,20.2-27.1s41.1,19,51.6,29.8c0,0-4,14.5,1,14.5c4.9,0,7.1,12.8-3.7,10.3
				s-19.1-7.3-25.8,0.2c-6.7,7.5-9.7,14.6-13.2,16s-8.3,3.7-8.1-6.3c0.2-10.1-1.4,8.3-4.3,7.9c-3-0.4-1.8,4.7-19.9,5.3
				c0,0,10.6,4.1,11.4,10.5c0.8,6.3,1.4,6.5,1.4,6.5s22.7,2,23.7-4.5c1-6.5,6.5-15.4,8.9-18.3c2.4-3,13-15.2,23.1-13.8
				c0,0-18.3,11.6-25.6,27.8c-7.3,16.2,51.9,11.8,51.9,11.8s31.6-8.3,35.1-19.5s4.3-54.6-2.6-61.7c-10.6-8.9-24.6-17.3-41.6-6.4
				c-17,10.9-3.1,16.2-26.2-4.2c-23.1-20.4-44.3-29.6-44.3-29.6s-27.1,36.5-27.6,32.6c-0.6-3.9-6.7-24.3-9.8-9.2
				c0,0-8.9-3.3-8.1,4.5c0.8,7.8-12-8.4-12-8.4s1.1,22.3-4.5,25.1c0,0,23.4-6.1,14.8,6.4c-8.6,12.5-18.4,13.4-33.5,14.2
				c-15.1,0.8-24.8-7.8-32.4-10S199.1,90.9,185.3,99.1L185.3,99.1z"/>
		</defs>
		<clipPath id="SVGID_26_">
			<use xlink:href="#SVGID_25_"  style="overflow:visible;"/>
		</clipPath>
		<path class="st31" d="M420.4,103.5c-20.8-2.4-20.9-12.1-13.7-16.3c7.3-4.2,14.6-6.6,20.2-1.3c5.6,5.3,8.6,6.4,2.4,6.8
			c-6.3,0.4-7.5,0.1-7.4-2.9c0.1-3.1-4.6-4.9-9.6-1.3c-5,3.6-4.9,7.8,2.9,8.2c7.8,0.4,12.3,4.5,11.6,9.2
			C426.1,110.7,420.4,103.5,420.4,103.5L420.4,103.5z"/>
	</g>
	<g>
		<defs>
			<path id="SVGID_27_" d="M157.5,136.3c-13.8-8.2-31.4-23.4-31.4-46.4c0-13.8,8.9-20.2,8.9-20.2c-0.7,7.3-8.4,21.2,1.5,29.3
				c2.4,3.6,5.2,3.9,13.1,3.6c7.9-0.3,6.3,2.1,6.3,2.1s2-8.8,3.9-11c2-2.2,10.2-20.1,10.2-20.1s39.2-19.9,42-21.2
				c2.8-1.3,14.1-2.9,14.1-2.9s40,14.1,42,16c2,2,4.5,14.9,4.5,14.9l-5,19.4l-36.4,13.7l18.5,39.9l-39.6,2.6
				C210.1,156,166.9,152.5,157.5,136.3L157.5,136.3z"/>
		</defs>
		<clipPath id="SVGID_28_">
			<use xlink:href="#SVGID_27_"  style="overflow:visible;"/>
		</clipPath>
		<path class="st32" d="M130.4,113.8c-2.4-37,8.7-44.8,8.7-44.8l-5.2-2.2C134,66.8,100.6,104.4,130.4,113.8L130.4,113.8z"/>
	</g>
	<path class="st33" d="M342.6,133.8l8.5-0.8c0,0,20.9-11,24.8-12.3c3.9-1.3,8-6.5,8.2-10.6c0.2-4-6.5-12.7-6.5-12.7s0.6,11-2.4,13.5
		c-3,2.5-5.7,6.2-15.9-5C349.2,94.6,342.6,133.8,342.6,133.8L342.6,133.8z"/>
</g>
<g>
	
		<linearGradient id="SVGID_29_" gradientUnits="userSpaceOnUse" x1="213.243" y1="-100.8434" x2="332.454" y2="-100.8434" gradientTransform="matrix(3.115 0 0 -3.115 -559.3484 -2.0715)">
		<stop  offset="0" style="stop-color:#D9DADD"/>
		<stop  offset="0.2542" style="stop-color:#E3E4E6"/>
		<stop  offset="0.7436" style="stop-color:#D8DBDE"/>
		<stop  offset="1" style="stop-color:#F7F7F8"/>
	</linearGradient>
	<path class="st34" d="M104.9,102.3l44.5,361.9c0,33.5,63.3,60.6,141.4,60.6c78.1,0,141.4-27.1,141.4-60.6l44.1-361.9
		c0,25.6-83.1,46.4-185.7,46.4C188,148.7,104.9,127.9,104.9,102.3L104.9,102.3z M476.2,102.3c0-1-0.2-2-0.4-3
		C476.1,100.3,476.2,101.3,476.2,102.3z"/>
	<pattern  id="SVGID_30_" xlink:href="#bo" patternTransform="matrix(0.75 0 0 -0.75 -1935.6443 -15454.4131)">
	</pattern>
	<rect x="104.9" y="397.5" class="st35" width="371.3" height="127.3"/>
	<pattern  id="SVGID_31_" xlink:href="#bp" patternTransform="matrix(0.75 0 0 -0.75 -1799.448 -15487.6348)">
	</pattern>
	<rect x="241.1" y="430.7" class="st36" width="226.4" height="94.1"/>
</g>
<path class="st37" d="M143,524.4c41.2-136.8-53.2-483-49-444.8L143,524.4z"/>
<g transform="matrix(4.1647,0,0,4.1647,133.96,-803.3)">
	<path class="st38" d="M56.7,250c1.5-5.6,6.8-10.3,11.8-10.7s8.8,10,1.3,10.8C62.4,251,58.8,254.8,56.7,250L56.7,250z"/>
	<path class="st39" d="M2.7,236.2c-1.3,11.4,5.7,11.9,5.7,11.9l1.9-5.8C10.3,242.3,5.5,234.5,2.7,236.2L2.7,236.2z"/>
	<path class="st40" d="M8.9,238.8c5.9,4.6,8.4,8.1,11.3,8.1c2.9,0,8.6-0.9,8.3-1.1c-0.3-0.3-9.5-5.6-9.5-5.4c0,0.3-1.1-4.4-1.1-4.4
		l-12.3-6.6L8.9,238.8z"/>
	<path class="st41" d="M33.9,236.8c0,0-2.3,3.7-6.1,5.4l0.4,1.8l5.6-0.5c1.9-3.3,3.4-5,4.1-5.8L33.9,236.8z"/>
	<path class="st42" d="M33.7,243.7c2.9-5.2,4.8-6.5,4.8-6.5l2.5,0.3c0,0,0.9,4.5-1.9,6C36.3,245.1,34.7,244.9,33.7,243.7L33.7,243.7
		z"/>
	<path class="st43" d="M46.6,239.6c0,0-2.3,3.7-6.1,5.4l0.4,1.8l5.6-0.5c1.9-3.3,3.4-5,4.1-5.8L46.6,239.6z"/>
	<g>
		<path class="st38" d="M5,266.8c1.5-5.6,6.8-10.3,11.8-10.7c5-0.4,8.8,10,1.3,10.8C10.7,267.7,7.1,271.6,5,266.8L5,266.8z"/>
		<path class="st44" d="M4.1,262.6c-3.2-2.3-6.9-9.9-2.8-11C5.3,250.6,12.2,258.6,4.1,262.6z"/>
		<path class="st45" d="M36.5,272.9c-1-3.8,1.3-12,5-10.2C45.3,264.6,45.3,275.2,36.5,272.9z"/>
		<path class="st38" d="M55.4,268.9c1.5-5.6,6.8-10.3,11.8-10.7s8.8,10,1.3,10.8C61,269.9,57.4,273.8,55.4,268.9L55.4,268.9z"/>
	</g>
	
		<linearGradient id="SVGID_32_" gradientUnits="userSpaceOnUse" x1="-19.3029" y1="291.1753" x2="-21.9723" y2="297.3653" gradientTransform="matrix(11.8054 0 0 -11.8054 275.2861 3704.5168)">
		<stop  offset="0" style="stop-color:#FFFFFF"/>
		<stop  offset="1" style="stop-color:#FFFFFF;stop-opacity:0"/>
	</linearGradient>
	<path class="st46" d="M43.4,258.3c9.2-2.5,15-7.3,16.2-10.6c1.2-3.3-2.4-5.9-2.4-5.9s-16.8,9.1-37.1,12.4
		C32.9,259.4,34.2,260.8,43.4,258.3L43.4,258.3z"/>
	
		<radialGradient id="SVGID_33_" cx="-16.6978" cy="292.7392" r="1.1949" gradientTransform="matrix(18.5617 21.0326 9.0115 -7.9529 -2269.1309 2919.3137)" gradientUnits="userSpaceOnUse">
		<stop  offset="0" style="stop-color:#FFFFFF"/>
		<stop  offset="1" style="stop-color:#FFFFFF;stop-opacity:0"/>
	</radialGradient>
	<path class="st47" d="M60,241.9c0,0-1.1-1.2,0.5-1.3s4,1.8,5.6,1.3c1.7-0.6-5.9,4.6-5.6,3.9C60.4,243.6,60,241.9,60,241.9z"/>
</g>
<g transform="matrix(4.1647,0,0,4.1647,133.96,-803.3)">
	<g>
		<path class="st48" d="M33.8,285.9c-0.7-2.9,0.9-9,3.8-7.6C40.4,279.7,40.3,287.7,33.8,285.9z"/>
		<path class="st38" d="M17.1,285.5c5.3-2.3,12.3-0.9,15.7,2.7c3.4,3.7-2.5,13.1-7.7,7.7C19.8,290.5,14.5,290,17.1,285.5L17.1,285.5
			z"/>
		<path class="st48" d="M15.2,302.6c-0.7-2.9,0.9-9,3.8-7.6C21.8,296.4,21.8,304.4,15.2,302.6z"/>
		<path class="st38" d="M50.8,290.1c3.6-1.5,8.3-0.6,10.6,1.8c2.3,2.5-1.7,8.8-5.2,5.2C52.6,293.5,49.1,293.2,50.8,290.1L50.8,290.1
			z"/>
	</g>
	<rect x="30.5" y="273.6" class="st49" width="19.9" height="6.2"/>
	<rect x="31.7" y="288" class="st50" width="19.9" height="6.2"/>
	<rect x="32.3" y="293.7" class="st49" width="19.9" height="6.2"/>
	
		<rect x="28.9" y="293.2" transform="matrix(0.3532 -0.9356 0.9356 0.3532 -262.9319 226.0703)" class="st49" width="6.2" height="19.9"/>
	<path class="st51" d="M16.4,306.1c3.9,7.9,11.1,14.5,20.8,13.8c9.6-0.7-3.2-10.2-3.2-10.2S23.9,299.7,16.4,306.1L16.4,306.1z"/>
	
		<rect x="51.3" y="302.1" transform="matrix(0.927 -0.375 0.375 0.927 -109.9926 45.2353)" class="st49" width="19.9" height="6.2"/>
	
		<rect x="56.4" y="277.7" transform="matrix(0.2282 -0.9736 0.9736 0.2282 -222.2368 281.3101)" class="st49" width="19.9" height="6.2"/>
</g>
<linearGradient id="SVGID_34_" gradientUnits="userSpaceOnUse" x1="48.1981" y1="403.6562" x2="45.5287" y2="409.8461" gradientTransform="matrix(11.8053 0 0 -11.8053 -308.6871 5134.0239)">
	<stop  offset="0" style="stop-color:#FFFFFF"/>
	<stop  offset="1" style="stop-color:#FFFFFF;stop-opacity:0"/>
</linearGradient>
<path class="st52" d="M243.6,332.3c38.3-10.3,62.3-30.4,67.4-44.2c5.1-13.8-9.9-24.5-9.9-24.5s-69.8,37.9-154.6,51.5
	C199.8,337.1,205.3,342.6,243.6,332.3L243.6,332.3z"/>
<rect x="126.2" y="39.3" class="st0" width="316.9" height="109.4"/>
</svg>
