<?xml version="1.0" encoding="utf-8"?>
<!-- Generator: Adobe Illustrator 25.2.0, SVG Export Plug-In . SVG Version: 6.00 Build 0)  -->
<svg version="1.1" id="Layer_1" xmlns="http://www.w3.org/2000/svg" xmlns:xlink="http://www.w3.org/1999/xlink" x="0px" y="0px"
	 viewBox="0 0 48 48" style="enable-background:new 0 0 48 48;" xml:space="preserve">
<style type="text/css">
	.st0{fill:url(#SVGID_1_);}
	.st1{fill:url(#SVGID_2_);}
	.st2{fill:url(#SVGID_3_);}
	.st3{opacity:0.452;fill:url(#SVGID_4_);enable-background:new    ;}
	
		.st4{opacity:0.15;fill:none;stroke:#000000;stroke-width:0.5;stroke-linecap:round;stroke-linejoin:round;enable-background:new    ;}
	.st5{opacity:0.668;fill:#E3E8EA;stroke:#909296;stroke-width:2.237600e-03;enable-background:new    ;}
	.st6{opacity:0.15;enable-background:new    ;}
</style>
<g>
	
		<linearGradient id="SVGID_1_" gradientUnits="userSpaceOnUse" x1="282.4399" y1="-524.5696" x2="395.0656" y2="-524.5696" gradientTransform="matrix(0.4173 0 0 -0.4103 -117.3505 -171.9355)">
		<stop  offset="0" style="stop-color:#1A1A1A"/>
		<stop  offset="0.1105" style="stop-color:#2C2C2E"/>
		<stop  offset="0.29" style="stop-color:#2B2B2D"/>
		<stop  offset="0.5119" style="stop-color:#2A2B2D"/>
		<stop  offset="0.7517" style="stop-color:#2B2B2D"/>
		<stop  offset="0.8966" style="stop-color:#323232"/>
		<stop  offset="1" style="stop-color:#171717"/>
	</linearGradient>
	<path class="st0" d="M0.5,39.4L0.9,46c0,0.7,0.6,1.2,1.3,1.2h43.7c0.7,0,1.3-0.5,1.3-1.2l0.4-6.6H0.5z"/>
	
		<linearGradient id="SVGID_2_" gradientUnits="userSpaceOnUse" x1="370.9972" y1="-359.251" x2="371.1172" y2="-336.9109" gradientTransform="matrix(1.6796 0 0 -1.6796 -599.1281 -564.62)">
		<stop  offset="0" style="stop-color:#B6B9BF"/>
		<stop  offset="1" style="stop-color:#DDDFE2"/>
	</linearGradient>
	<path class="st1" d="M4.3,0.8h39.1c0.7,0,1.3,0.5,1.3,1.2l2.9,37.1c0,0.7-0.6,1.2-1.3,1.2H1.8c-0.7,0-1.3-0.5-1.3-1.2L3,2
		C3,1.3,3.6,0.8,4.3,0.8L4.3,0.8z"/>
	
		<linearGradient id="SVGID_3_" gradientUnits="userSpaceOnUse" x1="484.7787" y1="-362.6485" x2="484.7787" y2="-361.5885" gradientTransform="matrix(0.8489 0 0 -1.6796 -387.4484 -564.54)">
		<stop  offset="0" style="stop-color:#3EC896"/>
		<stop  offset="1" style="stop-color:#66D9AF"/>
	</linearGradient>
	<path class="st2" d="M15.1,43.4h18c0.4,0,0.6,0.3,0.6,0.6v0c0,0.4-0.3,0.6-0.6,0.6h-18c-0.4,0-0.6-0.3-0.6-0.6v0
		C14.4,43.6,14.7,43.4,15.1,43.4z"/>
	
		<linearGradient id="SVGID_4_" gradientUnits="userSpaceOnUse" x1="388.2043" y1="-365.3484" x2="388.2043" y2="-363.2184" gradientTransform="matrix(1.6796 0 0 -1.6796 -610.348 -567.9901)">
		<stop  offset="0" style="stop-color:#040404"/>
		<stop  offset="1" style="stop-color:#121212;stop-opacity:0.9082"/>
	</linearGradient>
	<circle class="st3" cx="41.7" cy="44.1" r="1.8"/>
</g>
<ellipse class="st4" cx="24" cy="20.5" rx="16.3" ry="11.2"/>
<path class="st5" d="M41.7,44.2c0,0,0.1,0,0.1,0c0,0,0-0.1,0-0.1v-0.7c0,0,0-0.1,0-0.1c0,0-0.1,0-0.1,0s-0.1,0-0.1,0
	c0,0,0,0.1,0,0.1V44c0,0,0,0.1,0,0.1S41.6,44.2,41.7,44.2z"/>
<path class="st5" d="M42.5,43.7c-0.1-0.1-0.1-0.2-0.3-0.3c0,0-0.1,0-0.1,0c0,0-0.1,0-0.1,0.1c0,0,0,0.1,0,0.1c0,0,0,0.1,0.1,0.1
	c0.1,0.1,0.1,0.1,0.2,0.2c0,0.1,0.1,0.2,0.1,0.3c0,0.1,0,0.2,0,0.2c0,0.1-0.1,0.1-0.1,0.2c-0.1,0.1-0.1,0.1-0.2,0.1
	c-0.1,0-0.1,0-0.2,0s-0.2,0-0.2,0c-0.1,0-0.1-0.1-0.2-0.1c-0.1-0.1-0.1-0.1-0.1-0.2c0-0.1,0-0.1,0-0.2c0-0.1,0-0.2,0.1-0.3
	c0-0.1,0.1-0.2,0.2-0.2c0,0,0.1-0.1,0.1-0.1c0,0,0-0.1,0-0.1c0,0-0.1-0.1-0.1-0.1c0,0-0.1,0-0.1,0c-0.1,0.1-0.2,0.2-0.3,0.3
	s-0.1,0.3-0.1,0.4c0,0.1,0,0.2,0.1,0.3c0,0.1,0.1,0.2,0.2,0.3c0.1,0.1,0.2,0.1,0.3,0.2c0.1,0,0.2,0.1,0.3,0.1s0.2,0,0.3-0.1
	s0.2-0.1,0.3-0.2c0.1-0.1,0.1-0.2,0.2-0.3c0-0.1,0.1-0.2,0.1-0.3C42.6,44,42.5,43.8,42.5,43.7L42.5,43.7z"/>
<path class="st6" d="M24,9.5c-0.5,0-1,0-1.4,0.1C23,9.6,23.5,9.6,24,9.5L24,9.5L24,9.5z M25.5,9.6c0.1,0,0.1,0.1,0.1,0.2
	c0.1,0.1,0.2,0.1,0.2,0.2c0,0.2-0.3,0.3-0.3,0.5c-0.1,0.1-0.3,0.1-0.2,0.2c0,0.2,0.5,0.1,0.6,0.2c0.1,0.1,0,0.2-0.1,0.3
	c0.2,0.1,0.2,0.3-0.1,0.3c-0.2,0-0.2-0.1-0.4-0.2c-0.1,0-0.2,0-0.3,0c-0.1,0-0.2,0-0.3,0c-0.3,0-0.5,0-0.7-0.1
	c0.2-0.2,0.6-0.4,0.9-0.6c0.1-0.1,0.3-0.1,0.2-0.2c-0.2-0.1-0.4,0-0.6,0.1c-0.2,0.1-0.4,0.2-0.6,0.2c-0.3,0-0.8-0.1-1.1,0.1
	c0,0.1,0.3,0.1,0.3,0.2c-0.1,0-0.3,0-0.4,0c-0.1-0.1,0-0.1-0.1-0.2c-0.1-0.1-0.5-0.1-0.7-0.1c-0.2,0-0.4,0.1-0.4,0.2
	c0.3,0.1,0.7-0.1,0.8,0.1c-0.1,0.2-0.5,0.3-0.4,0.5c0,0.1,0.2,0.2,0.3,0.2c0.1,0,0.2-0.1,0.3-0.1c0.1,0,0.1,0.1,0.2,0.1
	c0.2-0.1,0.3-0.3,0.5-0.2c0.3,0.2-0.2,0.3-0.5,0.4c-0.3,0.1-0.8,0.1-1,0.2c-0.1,0-0.6,0.4-0.7,0.1c-0.1-0.2,0.2-0.1,0.3-0.3
	c-0.3,0-0.6,0.1-0.9,0.2c-0.4,0.1-1.1,0.2-1.2,0.5c0,0.1,0,0.2,0,0.2c0,0-0.3,0-0.5,0.1c-0.2,0-0.4,0.1-0.5,0.2c-0.1,0-0.2,0-0.3,0
	c-0.2,0-0.2,0.2-0.4,0.3c-0.1,0-0.2,0.1-0.3,0.1c-0.1,0.1-0.1,0.3-0.3,0.3c-0.1,0-0.2-0.1-0.3,0c0,0.2,0.1,0.4,0,0.6
	c-0.2,0.1-0.5,0.2-0.8,0.4c-0.2,0.1-0.3,0.1-0.5,0.2c-0.1,0.1-0.3,0.2-0.5,0.2c-0.4,0.2-0.9,0.3-0.9,0.7c0,0.1,0.1,0.2,0.1,0.3
	c0,0.1,0,0.1,0,0.2c0,0.1,0.2,0.3,0,0.4c-0.3-0.1-0.6-0.1-0.8-0.2c-0.1-0.1,0.1-0.3,0.1-0.4c0-0.1-0.2-0.3-0.4-0.3
	c-0.1,0-0.2,0.1-0.4,0.1c-0.2,0-0.3-0.2-0.5-0.2c-0.3,0-0.5,0-0.8,0c-0.3,0.1-0.4,0.3-0.8,0.3c-0.1,0-0.3-0.1-0.4-0.1
	c-0.2,0-0.4-0.1-0.6-0.1c-0.6,0.9-1,2-1.3,3c0,0,0.1,0,0.1,0C8.4,19,8.6,19,8.7,19c0.2,0,0.4,0,0.5-0.1c0.4-0.1,0.4-0.5,0.8-0.6
	c0.2-0.1,0.4-0.1,0.8-0.1c0.1,0.1,0.2,0.2,0.1,0.3c0,0.1-0.1,0.1-0.2,0.2c0,0.1-0.1,0.2-0.1,0.3c-0.1,0.1-0.2,0.2-0.2,0.3
	c0,0.1,0,0.1,0,0.2c0,0.1-0.2,0.2-0.1,0.3c0.4,0.1,1,0,1.4,0c0.2,0,0.5,0.2,0.5,0.3c0,0.1-0.1,0.2-0.2,0.4c0,0.2-0.1,0.4-0.1,0.5
	c0,0.2,0.5,0.6,0.9,0.6c0.4,0,0.6-0.3,1.1-0.1c0.2,0,0.3,0.2,0.5,0.2c0.1,0,0.4-0.2,0.5-0.3c0.1-0.1,0.1-0.3,0.3-0.3
	c0.2-0.1,0.4,0,0.7-0.1c0.1,0,0.2-0.1,0.3-0.1c0.1,0,0.2-0.2,0.3-0.1c0.2,0.1-0.2,0.2-0.1,0.3c0.3,0.1,0.4-0.2,0.6-0.2
	c0.1,0,0.3,0.1,0.4,0.1c0.2,0.1,0.2,0.2,0.4,0.2c0.1,0,0.3,0,0.5,0c0.2,0,0.3,0.2,0.5,0.1c0.2,0,0.3-0.1,0.5-0.2
	c0.4,0,0.5,0,0.7,0.2c0.2,0,0.2-0.1,0.3-0.1c-0.1,0.1,0,0.2,0.1,0.3c0,0.1,0,0.1,0.1,0.1c0.1,0.1,0.3,0.1,0.4,0.1
	c0.2,0.1,0.2,0.2,0.4,0.3c0.2,0.1,0.5,0.3,0.7,0.3c0.2,0,0.4,0,0.6,0c0.4,0,0.7,0.2,1,0.3c0.2,0.1,0.3,0.1,0.4,0.3
	c0,0.1,0,0.2,0.1,0.3c0.1,0.2,0.5,0.3,0.3,0.6c0.1,0.1,0.2,0.1,0.4,0.2c0.1,0,0.2,0.2,0.4,0.2c0.1,0,0.2,0,0.2,0
	c0.2,0,0.4,0.1,0.6,0.1c0.1,0,0.3,0,0.4,0.1c0.1,0,0.1,0.2,0.2,0.3c0.1,0,0.3,0,0.4,0c0.2,0,0.5,0.1,0.7,0.1c0.1,0,0.2,0,0.3,0
	c0.5,0,0.8,0.4,1.3,0.6c0.2,0,0.4,0,0.5,0c0.2,0.1,0.3,0.4,0.4,0.6c0,0.5-0.5,0.7-0.9,1c-0.1,0.1-0.1,0.2-0.2,0.3
	c-0.2,0.2-0.4,0.2-0.4,0.6c0,0.1,0.1,0.2,0.1,0.3c0,0.1,0,0.3-0.1,0.4c0,0.1-0.1,0.2-0.2,0.3c0,0.1,0,0.2,0,0.2
	c0,0.1-0.1,0.2-0.2,0.3c-0.2,0.2-0.2,0.5-0.6,0.6c-0.2,0.1-0.5,0-0.8,0.1c-0.1,0-0.2,0.1-0.4,0.1c-0.4,0.1-0.9,0.3-1,0.5
	c-0.1,0.2,0.1,0.4,0.1,0.7c-0.1,0.1-0.1,0.2-0.2,0.2c0,0,0,0-0.1,0.1c-0.4,0-0.8,0-1.3,0c0,0,0,0,0,0c7.9,0,14.6-4,15.8-9.3
	c-0.2,0-0.5,0.1-0.6,0.2c-0.2,0.1-0.5,0.2-0.7,0.2c-0.2,0-0.4-0.1-0.6-0.1c-0.2,0-0.6,0-0.8,0c-0.2,0-0.4,0.1-0.7,0.2
	c-0.4,0-0.8-0.2-1-0.4c-0.2-0.1-0.3-0.1-0.5-0.2c-0.2-0.1-0.4-0.1-0.5-0.2c-0.2-0.1-0.2-0.3-0.2-0.4c-0.1-0.2-0.4-0.3-0.6-0.4
	c-0.2-0.1-0.6-0.3-0.6-0.5c0-0.1,0-0.2,0-0.3c0-0.1-0.1-0.2-0.1-0.3c0-0.1,0.2-0.2,0.3-0.3c0-0.1,0-0.1,0-0.2
	c0.1-0.1,0.2-0.2,0.2-0.4c0-0.1-0.1-0.2-0.1-0.3c0-0.1,0.1-0.1,0.1-0.2c0-0.1-0.2-0.1-0.3-0.3c0-0.1,0.2-0.3,0.3-0.4
	c0.1-0.1,0.1-0.2,0.1-0.2c0.1-0.1,0.3-0.2,0.4-0.3c0.1-0.1,0.1-0.2,0.1-0.3c0.1-0.1,0.2-0.1,0.4-0.2c0.1-0.1,0.2-0.2,0.2-0.2
	c0.1-0.1,0.3-0.1,0.4-0.1c0.4-0.1,0.7-0.3,0.8-0.5c-0.1-0.2,0-0.3,0.2-0.5c0.1-0.1,0.2-0.3,0.4-0.4c0.3-0.1,0.5-0.1,0.7-0.3
	c0.1-0.1,0.2-0.2,0.2-0.3c-0.1-0.1-0.3-0.3-0.4-0.4c-0.2,0-0.4,0.1-0.5,0c0,0,0-0.1,0-0.2c0-0.1-0.1-0.2-0.1-0.2c0,0,0-0.1,0-0.1
	C33.6,11.3,29.7,9.9,25.5,9.6L25.5,9.6z M22.2,9.6c-0.4,0-0.7,0.1-1.1,0.1C21.5,9.7,21.8,9.7,22.2,9.6z M20.6,9.8
	c-0.3,0-0.6,0.1-1,0.2C19.9,9.9,20.3,9.9,20.6,9.8z M18.3,10.3c-0.1,0-0.3,0.1-0.4,0.1c0,0,0,0,0,0C18,10.4,18.1,10.4,18.3,10.3
	L18.3,10.3z M15.3,11.3c-0.2,0.1-0.4,0.2-0.6,0.3c0.2,0,0.5,0,0.6,0C15.4,11.6,15.4,11.4,15.3,11.3L15.3,11.3z M15.7,11.8
	c-0.2,0-0.3,0-0.4,0.1c0,0.1,0.1,0.1,0.1,0.2c-0.2,0.1-0.1,0.4,0.1,0.4c0.2,0,0.3-0.4,0.6-0.4c0.1,0,0.2,0,0.3,0
	c0.2-0.1,0.1-0.3-0.1-0.3c-0.1,0-0.2,0-0.3,0C15.9,11.9,15.8,11.8,15.7,11.8L15.7,11.8L15.7,11.8L15.7,11.8z M14.8,11.8
	c-0.2,0-0.5,0.1-0.6,0.1c-0.1,0-0.2,0.1-0.2,0.2c-0.1,0.1-0.2,0.1-0.3,0.2c-0.1,0.1-0.5,0.5-0.2,0.5c0.1,0,0.4-0.2,0.5-0.3
	c0.1-0.3,0.3-0.4,0.6-0.6c0.2-0.1,0.3-0.1,0.4-0.2C14.9,11.8,14.8,11.8,14.8,11.8L14.8,11.8z M17.2,12.3c-0.1,0-0.2,0-0.3,0
	c-0.1,0-0.3,0-0.3,0.1c0.2,0.1,0.8,0.1,0.9-0.1C17.4,12.3,17.3,12.3,17.2,12.3L17.2,12.3z M15.9,12.7L15.9,12.7
	c-0.2,0-0.4,0.1-0.6,0.1c-0.1,0-0.4,0-0.4,0.1c0,0.1,0.3,0.1,0.5,0c0.3-0.1,0.5-0.1,0.7-0.2C16,12.7,16,12.7,15.9,12.7L15.9,12.7z
	 M36.5,13.6c0.1,0.1,0.3,0.2,0.4,0.4C36.7,13.8,36.6,13.7,36.5,13.6z M37.5,14.5c0.1,0.1,0.1,0.2,0.2,0.2
	C37.6,14.7,37.5,14.6,37.5,14.5z M38.2,15.4c0.1,0.1,0.1,0.2,0.2,0.2C38.3,15.6,38.3,15.5,38.2,15.4z M39.5,17.5
	c0,0.1,0,0.1,0.1,0.2C39.5,17.7,39.5,17.6,39.5,17.5z M39.8,18.5c0,0.1,0,0.1,0.1,0.2C39.8,18.7,39.8,18.6,39.8,18.5z M8.1,19.6
	C8,19.9,8,20.2,8,20.5c0,4.3,3.7,8.2,9.4,10c0-0.1,0-0.1,0-0.1c0-0.1-0.1-0.3-0.1-0.4c0-0.3,0-0.5,0-0.7c0-0.2-0.1-0.5-0.2-0.6
	c-0.1-0.1-0.5-0.4-0.8-0.4c-0.1-0.1-0.3-0.1-0.5-0.1c-0.3-0.1-1-0.4-1.1-0.6c0-0.1,0-0.2-0.1-0.2c-0.1-0.1-0.3-0.3-0.4-0.4
	c-0.3-0.3-0.5-0.6-0.7-0.9c-0.1-0.1-0.2-0.3-0.4-0.4c-0.1-0.1-0.4-0.1-0.4-0.2c0-0.1-0.2-0.3-0.2-0.4c0-0.1,0.4-0.2,0.4-0.4
	c0-0.1-0.2-0.2-0.2-0.3c-0.1-0.2,0.1-0.3,0.2-0.5c0-0.1,0.1-0.2,0.1-0.2c0.1-0.1,0.2-0.1,0.3-0.2c0.1,0,0.1-0.1,0.2-0.2
	c0.2-0.1,0.4-0.2,0.5-0.3c0.1-0.1,0.1-0.6,0-0.8c0-0.1-0.2-0.2-0.2-0.3c-0.1-0.2-0.1-0.4-0.4-0.4c-0.2,0-0.3,0.1-0.4,0.2
	c0,0.1,0,0.2-0.2,0.2c-0.2,0-0.3-0.2-0.6-0.2c-0.1,0-0.3,0-0.3,0c-0.2-0.1-0.3-0.3-0.5-0.3c-0.2-0.1-0.3,0-0.4-0.1
	c0-0.1,0-0.2,0-0.3c-0.2-0.1-0.4-0.4-0.7-0.5c-0.2-0.1-0.4,0-0.7-0.1c-0.1,0-0.2-0.1-0.3-0.1c-0.1,0-0.3,0-0.4-0.1
	C8.7,20,8.4,19.7,8.1,19.6L8.1,19.6z M16.3,21.2C16.3,21.2,16.3,21.2,16.3,21.2c-0.2,0.1-0.1,0.2,0,0.2
	C16.5,21.4,16.5,21.2,16.3,21.2L16.3,21.2L16.3,21.2z M40,21.6c0,0.1,0,0.2,0,0.2C40,21.7,40,21.6,40,21.6z M19.2,31
	c0.1,0,0.3,0.1,0.4,0.1C19.5,31.1,19.4,31.1,19.2,31z M20.8,31.3c0.2,0,0.5,0.1,0.7,0.1C21.2,31.4,21,31.3,20.8,31.3z M22.4,31.5
	c0.4,0,0.9,0,1.3,0.1C23.2,31.5,22.8,31.5,22.4,31.5z"/>
</svg>
