<?xml version="1.0" encoding="utf-8"?>
<!-- Generator: Adobe Illustrator 25.2.0, SVG Export Plug-In . SVG Version: 6.00 Build 0)  -->
<svg version="1.1" id="Background" xmlns="http://www.w3.org/2000/svg" xmlns:xlink="http://www.w3.org/1999/xlink" x="0px" y="0px"
	 viewBox="0 0 64 64" style="enable-background:new 0 0 64 64;" xml:space="preserve">
<style type="text/css">
	.st0{fill:#1E0240;}
	.st1{fill:#D797FA;}
	.st2{fill:#ECD3FF;}
</style>
<g id="Background_1_">
	<g>
		<path class="st0" d="M14,61.8C7.5,61.8,2.2,56.5,2.2,50V14C2.2,7.5,7.5,2.2,14,2.2h36c6.5,0,11.8,5.3,11.8,11.8v36
			c0,6.5-5.3,11.8-11.8,11.8H14z"/>
		<path class="st1" d="M50,3.5c5.8,0,10.5,4.7,10.5,10.5v36c0,5.8-4.7,10.5-10.5,10.5H14C8.2,60.5,3.5,55.8,3.5,50V14
			C3.5,8.2,8.2,3.5,14,3.5H50 M50,1H14C6.8,1,1,6.8,1,14v36c0,7.2,5.8,13,13,13h36c7.2,0,13-5.8,13-13V14C63,6.8,57.2,1,50,1L50,1z"
			/>
	</g>
</g>
<g>
	<path d="M21.2,19.8h5.4L35,45.7h-4.9l-3.9-13.8c-0.8-2.7-1.6-5.7-2.3-8.5h-0.2c-0.7,2.9-1.5,5.8-2.3,8.5l-4,13.8h-4.7L21.2,19.8z
		 M17.7,35.1h12.2v3.6H17.7V35.1z"/>
	<path d="M34.3,36c0-6.3,4.4-10.2,9-10.2c5.3,0,8,3.8,8,9.2c0,0.9-0.1,1.7-0.2,2.2H38.7c0.4,3.5,2.6,5.4,5.7,5.4
		c1.7,0,3.1-0.5,4.5-1.4l1.6,2.8c-1.9,1.3-4.2,2.1-6.7,2.1C38.5,46.2,34.3,42.4,34.3,36z M47.3,34.1c0-3-1.3-4.8-4-4.8
		c-2.3,0-4.3,1.7-4.7,4.8H47.3z"/>
</g>
<g>
	<path class="st2" d="M21.2,18.8h5.4L35,44.7h-4.9l-3.9-13.8c-0.8-2.7-1.6-5.7-2.3-8.5h-0.2c-0.7,2.9-1.5,5.8-2.3,8.5l-4,13.8h-4.7
		L21.2,18.8z M17.7,34.1h12.2v3.6H17.7V34.1z"/>
	<path class="st2" d="M34.3,35c0-6.3,4.4-10.2,9-10.2c5.3,0,8,3.8,8,9.2c0,0.9-0.1,1.7-0.2,2.2H38.7c0.4,3.5,2.6,5.4,5.7,5.4
		c1.7,0,3.1-0.5,4.5-1.4l1.6,2.8c-1.9,1.3-4.2,2.1-6.7,2.1C38.5,45.2,34.3,41.4,34.3,35z M47.3,33.1c0-3-1.3-4.8-4-4.8
		c-2.3,0-4.3,1.7-4.7,4.8H47.3z"/>
</g>
</svg>
