<?xml version="1.0" encoding="utf-8"?>
<!-- Generator: Adobe Illustrator 25.2.0, SVG Export Plug-In . SVG Version: 6.00 Build 0)  -->
<svg version="1.1" id="Background" xmlns="http://www.w3.org/2000/svg" xmlns:xlink="http://www.w3.org/1999/xlink" x="0px" y="0px"
	 viewBox="0 0 64 64" style="enable-background:new 0 0 64 64;" xml:space="preserve">
<style type="text/css">
	.st0{fill:#00261E;}
	.st1{fill:#01E5B8;}
	.st2{opacity:0.5;}
	.st3{fill:#BEFCEE;}
</style>
<g id="Background_1_">
	<g>
		<path class="st0" d="M14,61.8C7.5,61.8,2.2,56.5,2.2,50V14C2.2,7.5,7.5,2.2,14,2.2h36c6.5,0,11.8,5.3,11.8,11.8v36
			c0,6.5-5.3,11.8-11.8,11.8H14z"/>
		<path class="st1" d="M50,3.5c5.8,0,10.5,4.7,10.5,10.5v36c0,5.8-4.7,10.5-10.5,10.5H14C8.2,60.5,3.5,55.8,3.5,50V14
			C3.5,8.2,8.2,3.5,14,3.5H50 M50,1H14C6.8,1,1,6.8,1,14v36c0,7.2,5.8,13,13,13h36c7.2,0,13-5.8,13-13V14C63,6.8,57.2,1,50,1L50,1z"
			/>
	</g>
</g>
<g class="st2">
	<path d="M21,19.8h5.4l8.4,25.9H30L26,31.9c-0.8-2.7-1.6-5.7-2.3-8.5h-0.2c-0.7,2.9-1.5,5.8-2.3,8.5l-4,13.8h-4.7L21,19.8z
		 M17.6,35.1h12.2v3.6H17.6V35.1z"/>
	<path d="M35,38.5V26.3h4.6v11.6c0,3.2,0.9,4.4,3,4.4c1.7,0,2.8-0.8,4.3-2.7V26.3h4.6v19.5h-3.7l-0.3-2.9h-0.1
		c-1.7,2-3.6,3.3-6.3,3.3C36.8,46.2,35,43.4,35,38.5z"/>
</g>
<g>
	<path class="st3" d="M21,18.8h5.4l8.4,25.9H30L26,30.9c-0.8-2.7-1.6-5.7-2.3-8.5h-0.2c-0.7,2.9-1.5,5.8-2.3,8.5l-4,13.8h-4.7
		L21,18.8z M17.6,34.1h12.2v3.6H17.6V34.1z"/>
	<path class="st3" d="M35,37.5V25.3h4.6v11.6c0,3.2,0.9,4.4,3,4.4c1.7,0,2.8-0.8,4.3-2.7V25.3h4.6v19.5h-3.7l-0.3-2.9h-0.1
		c-1.7,2-3.6,3.3-6.3,3.3C36.8,45.2,35,42.4,35,37.5z"/>
</g>
</svg>
