<?xml version="1.0" encoding="utf-8"?>
<!-- Generator: Adobe Illustrator 25.2.0, SVG Export Plug-In . SVG Version: 6.00 Build 0)  -->
<svg version="1.1" xmlns="http://www.w3.org/2000/svg" xmlns:xlink="http://www.w3.org/1999/xlink" x="0px" y="0px"
	 viewBox="0 0 64 64" style="enable-background:new 0 0 64 64;" xml:space="preserve">
<style type="text/css">
	.st0{fill:url(#SVGID_1_);}
	.st1{fill:#05C5FA;}
	.st2{opacity:0.5;}
	.st3{fill:#C5F6FC;}
</style>
<g id="Background">
	<g id="Background_1_">
		<g>
			<linearGradient id="SVGID_1_" gradientUnits="userSpaceOnUse" x1="32" y1="3.4573" x2="32" y2="60.787">
				<stop  offset="0" style="stop-color:#031C28"/>
				<stop  offset="1" style="stop-color:#011E24"/>
			</linearGradient>
			<path class="st0" d="M14,61.8C7.5,61.8,2.2,56.5,2.2,50V14C2.2,7.5,7.5,2.2,14,2.2h36c6.5,0,11.8,5.3,11.8,11.8v36
				c0,6.5-5.3,11.8-11.8,11.8H14z"/>
			<path class="st1" d="M50,3.5c5.8,0,10.5,4.7,10.5,10.5v36c0,5.8-4.7,10.5-10.5,10.5H14C8.2,60.5,3.5,55.8,3.5,50V14
				C3.5,8.2,8.2,3.5,14,3.5H50 M50,1H14C6.8,1,1,6.8,1,14v36c0,7.2,5.8,13,13,13h36c7.2,0,13-5.8,13-13V14C63,6.8,57.2,1,50,1L50,1z
				"/>
		</g>
	</g>
</g>
<g id="Icon">
	<g class="st2">
		<g>
			<path d="M15.6,19.9h8.1c5.7,0,10,2,10,8c0,5.7-4.3,8.4-9.8,8.4h-3.7v9.5h-4.6V19.9z M23.5,32.5c3.8,0,5.7-1.5,5.7-4.7
				c0-3.2-2-4.3-5.8-4.3h-3.2v9H23.5z"/>
			<path d="M33.6,43.4l2.1-2.9c1.7,1.3,3.4,2.2,5.3,2.2c2.1,0,3.1-1,3.1-2.3c0-1.6-2.1-2.3-4.2-3.1c-2.5-1-5.4-2.4-5.4-5.6
				c0-3.4,2.7-5.8,7.1-5.8c2.7,0,4.9,1.1,6.4,2.3L46,30.9c-1.4-1-2.7-1.7-4.2-1.7c-1.9,0-2.9,0.9-2.9,2.1c0,1.5,2,2.1,4.1,2.9
				c2.6,1,5.6,2.2,5.6,5.9c0,3.3-2.6,6-7.5,6C38.3,46.1,35.5,45,33.6,43.4z"/>
		</g>
	</g>
	<g>
		<g>
			<path class="st3" d="M15.6,18.9h8.1c5.7,0,10,2,10,8c0,5.7-4.3,8.4-9.8,8.4h-3.7v9.5h-4.6V18.9z M23.5,31.5
				c3.8,0,5.7-1.5,5.7-4.7c0-3.2-2-4.3-5.8-4.3h-3.2v9H23.5z"/>
			<path class="st3" d="M33.6,42.4l2.1-2.9c1.7,1.3,3.4,2.2,5.3,2.2c2.1,0,3.1-1,3.1-2.3c0-1.6-2.1-2.3-4.2-3.1
				c-2.5-1-5.4-2.4-5.4-5.6c0-3.4,2.7-5.8,7.1-5.8c2.7,0,4.9,1.1,6.4,2.3L46,29.9c-1.4-1-2.7-1.7-4.2-1.7c-1.9,0-2.9,0.9-2.9,2.1
				c0,1.5,2,2.1,4.1,2.9c2.6,1,5.6,2.2,5.6,5.9c0,3.3-2.6,6-7.5,6C38.3,45.1,35.5,44,33.6,42.4z"/>
		</g>
	</g>
</g>
</svg>
