<?xml version="1.0" encoding="utf-8"?>
<!-- Generator: Adobe Illustrator 25.2.0, SVG Export Plug-In . SVG Version: 6.00 Build 0)  -->
<svg version="1.1" xmlns="http://www.w3.org/2000/svg" xmlns:xlink="http://www.w3.org/1999/xlink" x="0px" y="0px"
	 viewBox="0 0 64 64" style="enable-background:new 0 0 64 64;" xml:space="preserve">
<style type="text/css">
	.st0{fill:url(#SVGID_1_);}
	.st1{opacity:0.1;}
	.st2{stroke:#000000;stroke-miterlimit:10;}
	.st3{stroke:#000000;stroke-width:0.5;stroke-miterlimit:10;}
	.st4{fill:url(#SVGID_2_);}
	.st5{fill:url(#SVGID_3_);}
</style>
<g id="Background">
	<linearGradient id="SVGID_1_" gradientUnits="userSpaceOnUse" x1="32" y1="0.9032" x2="32" y2="62.9032">
		<stop  offset="1.248699e-02" style="stop-color:#FFB72E"/>
		<stop  offset="0.1592" style="stop-color:#FB9315"/>
		<stop  offset="0.317" style="stop-color:#FB8E17"/>
		<stop  offset="0.5052" style="stop-color:#FC7F1D"/>
		<stop  offset="0.7088" style="stop-color:#FC6726"/>
		<stop  offset="0.9219" style="stop-color:#FE4633"/>
		<stop  offset="1" style="stop-color:#FE3838"/>
	</linearGradient>
	<path class="st0" d="M50,63H14C6.8,63,1,57.2,1,50V14C1,6.8,6.8,1,14,1h36c7.2,0,13,5.8,13,13v36C63,57.2,57.2,63,50,63z"/>
</g>
<g id="Icon">
	<g>
		<g class="st1">
			<path class="st2" d="M32,44.6c-2.7,0-8.6,3.1-8.6,3.9c0,0,0,0.9,0,1c0,0.8,5.9,7.3,8.6,7.3s8.6-6.5,8.6-7.3c0-0.1,0-1,0-1
				C40.6,47.7,34.7,44.6,32,44.6z"/>
			<path class="st2" d="M46.6,13.1c-1.3,0-6.6,4-10.6,1.3c-1.3-0.9-2.7-1.3-4-1.3c-1.3,0-2.6,0.5-4,1.3c-4,2.6-9.3-1.3-10.6-1.3
				c-1.3,0-9.3,8.7-9.3,12.3c0,0,0,0.1,0,0.1c0,0,0,0,0,0s0,0.2,0,0.8c0,2.5,8.7,8,9.8,10.2c-0.4,1-1.9,1.8-1.9,4.2c0,0,0,0.8,0,1
				c0,1.8,2.6,5.2,5.3,5.2c2.6,0,9.3-5.2,9.3-6.5v-0.8c0,0,0-0.1,0-0.1c0,0,0-0.1,0-0.1v-0.8c0-1.5-5.4-3.4-5.9-6.2
				c0.3-2.2,1.9-3.3,1.9-6.1c0-0.1,0-0.3,0-0.4c0-0.2,0-0.4,0-0.6c0-2.4-4.8-3.2-8.7-3.9c1.6-1,5.7-2,10.7,1.2
				c0.2,0.2,0.4,0.4,0.5,0.7c-0.3,1.9-2,5-1.8,8c0,0.5,0,1.1,0.1,1.6c1,0.9,2.8,1.4,4.6,1.4c1.8,0,3.6-0.5,4.6-1.4
				c0.1-0.5,0.1-1.1,0.1-1.6c0.2-3-1.5-6.1-1.8-8c0.1-0.3,0.2-0.5,0.5-0.7c5-3.2,9.1-2.2,10.7-1.2c-3.9,0.6-8.7,1.4-8.7,3.9
				c0,0.2,0,0.4,0,0.6c0,0.1,0,0.2,0,0.4c0,2.8,1.7,3.8,1.9,6.1c-0.5,2.8-5.9,4.7-5.9,6.2v0.8c0,0,0,0.1,0,0.1c0,0,0,0.1,0,0.1v0.8
				c0,1.3,6.6,6.5,9.3,6.5c2.7,0,5.3-3.3,5.3-5.2c0-0.4,0-1,0-1c0-2.4-1.4-3.2-1.9-4.2c1.1-2.2,9.8-7.7,9.8-10.2c0-0.2,0-1,0-1
				C55.8,21.8,47.9,13.1,46.6,13.1z"/>
		</g>
		<g class="st1">
			<path class="st3" d="M32,44.1c-2.7,0-8.6,3.1-8.6,3.9c0,0,0,0.9,0,1c0,0.8,5.9,7.3,8.6,7.3s8.6-6.5,8.6-7.3c0-0.1,0-1,0-1
				C40.6,47.2,34.7,44.1,32,44.1z"/>
			<path class="st3" d="M46.6,12.6c-1.3,0-6.6,4-10.6,1.3c-1.3-0.9-2.7-1.3-4-1.3c-1.3,0-2.6,0.5-4,1.3c-4,2.6-9.3-1.3-10.6-1.3
				c-1.3,0-9.3,8.7-9.3,12.3c0,0,0,0.1,0,0.1c0,0,0,0,0,0s0,0.2,0,0.8c0,2.5,8.7,8,9.8,10.2c-0.4,1-1.9,1.8-1.9,4.2c0,0,0,0.8,0,1
				c0,1.8,2.6,5.2,5.3,5.2c2.6,0,9.3-5.2,9.3-6.5v-0.8c0,0,0-0.1,0-0.1c0,0,0-0.1,0-0.1v-0.8c0-1.5-5.4-3.4-5.9-6.2
				c0.3-2.2,1.9-3.3,1.9-6.1c0-0.1,0-0.3,0-0.4c0-0.2,0-0.4,0-0.6c0-2.4-4.8-3.2-8.7-3.9c1.6-1,5.7-2,10.7,1.2
				c0.2,0.2,0.4,0.4,0.5,0.7c-0.3,1.9-2,5-1.8,8c0,0.5,0,1.1,0.1,1.6c1,0.9,2.8,1.4,4.6,1.4c1.8,0,3.6-0.5,4.6-1.4
				c0.1-0.5,0.1-1.1,0.1-1.6c0.2-3-1.5-6.1-1.8-8c0.1-0.3,0.2-0.5,0.5-0.7C40.3,19,44.4,20,46,21c-3.9,0.6-8.7,1.4-8.7,3.9
				c0,0.2,0,0.4,0,0.6c0,0.1,0,0.2,0,0.4c0,2.8,1.7,3.8,1.9,6.1c-0.5,2.8-5.9,4.7-5.9,6.2v0.8c0,0,0,0.1,0,0.1c0,0,0,0.1,0,0.1v0.8
				c0,1.3,6.6,6.5,9.3,6.5c2.7,0,5.3-3.3,5.3-5.2c0-0.4,0-1,0-1c0-2.4-1.4-3.2-1.9-4.2c1.1-2.2,9.8-7.7,9.8-10.2c0-0.2,0-1,0-1
				C55.8,21.3,47.9,12.6,46.6,12.6z"/>
		</g>
		<linearGradient id="SVGID_2_" gradientUnits="userSpaceOnUse" x1="32" y1="11.476" x2="32" y2="56.4638">
			<stop  offset="0" style="stop-color:#DBDBDB"/>
			<stop  offset="0.3256" style="stop-color:#C8C8C8"/>
			<stop  offset="0.6946" style="stop-color:#B9B9B9"/>
			<stop  offset="1" style="stop-color:#B4B4B4"/>
		</linearGradient>
		<path class="st4" d="M32,55.9c-2.7,0-8.6-6.5-8.6-7.3c0-0.1,0-1,0-1s6.3-3.9,8.6-3.9c2.3,0,8.6,3.9,8.6,3.9s0,0.8,0,1
			C40.6,49.4,34.7,55.9,32,55.9z M45.9,36.1c0,1.2,2,3.8,2,3.8s0,0.6,0,1c0,1.8-2.6,5.2-5.3,5.2c-2.6,0-9.3-5.2-9.3-6.5v-0.8
			c0-1.6,6-3.6,6-6.6c0-2.7-2-3.6-2-6.6c0-2.6,5.3-3.3,9.3-4c1.3,0-4-4.4-11.2,0.3c-1.8,1.2,2,5.9,1.3,10.2c-1,0.9-2.8,1.4-4.6,1.4
			c-1.8,0-3.6-0.5-4.6-1.4c-0.7-4.3,3.2-9,1.3-10.2c-7.3-4.7-12.6-0.3-11.2-0.3c4,0.7,9.3,1.4,9.3,4c0,3-2,4-2,6.6c0,3,6,5,6,6.6
			v0.8c0,1.3-6.6,6.5-9.3,6.5c-2.7,0-5.3-3.3-5.3-5.2c0-0.2,0-1,0-1s2-2.6,2-3.8c0-1.8-9.9-7.9-9.9-10.6c0-0.6,0-0.8,0-0.8
			s8.1-12.4,9.3-12.4c1.3,0,6.6,4,10.6,1.3c1.3-0.9,2.7-1.3,4-1.3c1.3,0,2.6,0.5,4,1.3c4,2.6,9.3-1.3,10.6-1.3
			c1.2,0,9.3,12.3,9.3,12.3s0,0.7,0,1C55.8,28.1,45.9,34.2,45.9,36.1z"/>
		<linearGradient id="SVGID_3_" gradientUnits="userSpaceOnUse" x1="32" y1="10.5129" x2="32" y2="55.5007">
			<stop  offset="6.899449e-02" style="stop-color:#F5F5F5"/>
			<stop  offset="0.4293" style="stop-color:#F0F0F0"/>
			<stop  offset="0.8649" style="stop-color:#E1E1E1"/>
			<stop  offset="1" style="stop-color:#DBDBDB"/>
		</linearGradient>
		<path class="st5" d="M32,54.9c-2.7,0-8.6-6.5-8.6-7.3c0-0.8,5.9-4.9,8.6-4.9s8.6,4.1,8.6,4.9C40.6,48.5,34.7,54.9,32,54.9z
			 M45.9,35.1c0,1.3,2,2,2,4.8c0,1.8-2.6,5.2-5.3,5.2c-2.6,0-9.3-5.2-9.3-6.5v-0.8c0-1.6,6-3.6,6-6.6c0-2.7-2-3.6-2-6.6
			c0-2.6,5.3-3.3,9.3-4c1.3,0-4-4.4-11.2,0.3c-1.8,1.2,2,5.9,1.3,10.2c-1,0.9-2.8,1.4-4.6,1.4c-1.8,0-3.6-0.5-4.6-1.4
			c-0.7-4.3,3.2-9,1.3-10.2c-7.3-4.7-12.6-0.3-11.2-0.3c4,0.7,9.3,1.4,9.3,4c0,3-2,4-2,6.6c0,3,6,5,6,6.6v0.8c0,1.3-6.6,6.5-9.3,6.5
			c-2.7,0-5.3-3.3-5.3-5.2c0-2.8,2-3.4,2-4.8c0-1.8-9.9-7.9-9.9-10.6c0-3.6,7.9-13.2,9.3-13.2c1.3,0,6.6,4,10.6,1.3
			c1.3-0.9,2.7-1.3,4-1.3c1.3,0,2.6,0.5,4,1.3c4,2.6,9.3-1.3,10.6-1.3s9.3,9.6,9.3,13.2C55.8,27.2,45.9,33.2,45.9,35.1z"/>
	</g>
</g>
</svg>
