<?xml version="1.0" encoding="utf-8"?>
<!-- Generator: Adobe Illustrator 25.2.0, SVG Export Plug-In . SVG Version: 6.00 Build 0)  -->
<svg version="1.1" id="Layer_1" xmlns="http://www.w3.org/2000/svg" xmlns:xlink="http://www.w3.org/1999/xlink" x="0px" y="0px"
	 viewBox="0 0 64 64" style="enable-background:new 0 0 64 64;" xml:space="preserve">
<style type="text/css">
	.st0{fill:url(#SVGID_1_);}
	.st1{opacity:0.15;enable-background:new    ;}
	.st2{fill:url(#circle45_1_);}
	.st3{fill:url(#path47_1_);}
	.st4{fill:url(#path49_1_);}
	.st5{fill:url(#circle53_1_);}
	.st6{fill:url(#circle55_1_);}
</style>
<g id="Background">
	
		<linearGradient id="SVGID_1_" gradientUnits="userSpaceOnUse" x1="32" y1="64.6129" x2="32" y2="3.3525" gradientTransform="matrix(1 0 0 -1 0 66)">
		<stop  offset="0" style="stop-color:#FAFAFA"/>
		<stop  offset="0.1574" style="stop-color:#F5F5F5"/>
		<stop  offset="0.4487" style="stop-color:#F0F0F0"/>
		<stop  offset="0.7095" style="stop-color:#ECECEC"/>
		<stop  offset="0.8509" style="stop-color:#E6E6E6"/>
		<stop  offset="0.9055" style="stop-color:#E0E0E0"/>
		<stop  offset="0.982" style="stop-color:#CDCDCD"/>
		<stop  offset="1" style="stop-color:#C8C8C8"/>
	</linearGradient>
	<path class="st0" d="M50,63H14C6.8,63,1,57.2,1,50V14C1,6.8,6.8,1,14,1h36c7.2,0,13,5.8,13,13v36C63,57.2,57.2,63,50,63z"/>
</g>
<path id="Shadow_1_" class="st1" d="M32,7.8C18.1,7.8,6.8,19.1,6.8,33S18.1,58.2,32,58.2S57.2,46.9,57.2,33S45.9,7.8,32,7.8L32,7.8z
	"/>
<g>
	
		<linearGradient id="circle45_1_" gradientUnits="userSpaceOnUse" x1="529.2792" y1="-733.6171" x2="529.2792" y2="-857.6282" gradientTransform="matrix(0.3 0 0 -0.3 -128.9 -200.0935)">
		<stop  offset="0" style="stop-color:#35C130"/>
		<stop  offset="0.3483" style="stop-color:#34BD30"/>
		<stop  offset="0.6809" style="stop-color:#31B231"/>
		<stop  offset="1" style="stop-color:#2C9F32"/>
	</linearGradient>
	<path id="circle45" class="st2" d="M33.2,8.6C47.1,8.6,53,18.1,53,32c0,11.4-3.3,21-13.7,24.1c-2.3,0.7-4.7,1.1-7.3,1.1
		C18.1,57.2,6.8,45.9,6.8,32c0-6.7,2.6-12.9,7-17.4C18.3,9.8,26,8.6,33.2,8.6z"/>
	
		<linearGradient id="path47_1_" gradientUnits="userSpaceOnUse" x1="520.6023" y1="-655.4344" x2="520.6023" y2="-766.5232" gradientTransform="matrix(0.3252 0 0 -0.3252 -126.6769 -192.9977)">
		<stop  offset="0" style="stop-color:#FFCE00"/>
		<stop  offset="1" style="stop-color:#E6BC00"/>
	</linearGradient>
	<path id="path47" class="st3" d="M48.2,12.7C43,13.9,18.5,20,32.1,21.5c15.2,1.6,9.4,17,9.4,17L30.4,57.1c0.5,0,1.1,0.1,1.6,0.1
		c13.9,0,25.2-11.3,25.2-25.2l0,0C57.2,24.5,53.9,17.5,48.2,12.7L48.2,12.7z"/>
	
		<linearGradient id="path49_1_" gradientUnits="userSpaceOnUse" x1="538.2075" y1="-682.079" x2="538.2075" y2="-865.9351" gradientTransform="matrix(0.3 0 0 -0.3 -128.9 -200.0935)">
		<stop  offset="0" style="stop-color:#F6503B"/>
		<stop  offset="0.2174" style="stop-color:#F24735"/>
		<stop  offset="0.5719" style="stop-color:#E62F25"/>
		<stop  offset="1" style="stop-color:#D4090D"/>
	</linearGradient>
	<path id="path49" class="st4" d="M32,6.8c-8.5,0-16.5,4.3-21.1,11.5l11.3,19c0,0-0.3-9.1,0.5-10c0.8-0.9,4.5-4.4,4.5-4.4l5.1-1.5
		l-0.3-1l22.4-0.1C49.9,12,41.3,6.8,32,6.8L32,6.8z"/>
	
		<linearGradient id="circle53_1_" gradientUnits="userSpaceOnUse" x1="1264.5374" y1="-1920.2466" x2="1264.5374" y2="-2097.6223" gradientTransform="matrix(0.1384 0 0 -0.1384 -142.931 -245.8705)">
		<stop  offset="0" style="stop-color:#FFFFFF"/>
		<stop  offset="1" style="stop-color:#D7D7D7"/>
	</linearGradient>
	<circle id="circle53" class="st5" cx="32" cy="32" r="11.6"/>
	
		<linearGradient id="circle55_1_" gradientUnits="userSpaceOnUse" x1="1618.9514" y1="-2526.9006" x2="1618.9514" y2="-2691.6643" gradientTransform="matrix(0.1096 0 0 -0.1096 -145.4317 -254.005)">
		<stop  offset="0" style="stop-color:#47B9FF"/>
		<stop  offset="1" style="stop-color:#3D8AFF"/>
	</linearGradient>
	<circle id="circle55" class="st6" cx="32" cy="32" r="9.2"/>
</g>
</svg>
