<?xml version="1.0" encoding="utf-8"?>
<!-- Generator: Adobe Illustrator 25.2.0, SVG Export Plug-In . SVG Version: 6.00 Build 0)  -->
<svg version="1.1" xmlns="http://www.w3.org/2000/svg" xmlns:xlink="http://www.w3.org/1999/xlink" x="0px" y="0px"
	 viewBox="0 0 64 64" style="enable-background:new 0 0 64 64;" xml:space="preserve">
<style type="text/css">
	.st0{fill:url(#SVGID_1_);}
	.st1{opacity:0.8;}
	.st2{fill:url(#SVGID_2_);}
	.st3{fill:url(#SVGID_3_);}
	.st4{fill:url(#SVGID_4_);}
	.st5{fill:url(#circle45_2_);}
	.st6{fill:url(#path47_1_);}
	.st7{fill:url(#path49_1_);}
	.st8{fill:url(#circle45_3_);}
	.st9{fill:url(#path47_2_);}
	.st10{fill:url(#path49_3_);}
	.st11{opacity:0.17;fill:url(#SVGID_5_);}
	.st12{opacity:0.1;fill:url(#SVGID_6_);}
	.st13{fill:#DFE7EF;}
	.st14{fill:#FFFFFF;}
	.st15{fill:url(#circle55_2_);}
</style>
<g id="Layer_1">
	<g id="Background">
		
			<linearGradient id="SVGID_1_" gradientUnits="userSpaceOnUse" x1="32" y1="635.3871" x2="32" y2="696.6475" gradientTransform="matrix(1 0 0 1 0 -634)">
			<stop  offset="0" style="stop-color:#FAFAFA"/>
			<stop  offset="0.1574" style="stop-color:#F5F5F5"/>
			<stop  offset="0.4487" style="stop-color:#F0F0F0"/>
			<stop  offset="0.7095" style="stop-color:#ECECEC"/>
			<stop  offset="0.8509" style="stop-color:#E6E6E6"/>
			<stop  offset="0.9055" style="stop-color:#E0E0E0"/>
			<stop  offset="0.982" style="stop-color:#CDCDCD"/>
			<stop  offset="1" style="stop-color:#C8C8C8"/>
		</linearGradient>
		<path class="st0" d="M50,63H14C6.8,63,1,57.2,1,50V14C1,6.8,6.8,1,14,1h36c7.2,0,13,5.8,13,13v36C63,57.2,57.2,63,50,63z"/>
	</g>
	<g id="Background_1_" class="st1">
		
			<radialGradient id="SVGID_2_" cx="32.7419" cy="17" r="23.7451" gradientTransform="matrix(0.9998 1.948905e-02 -1.234174e-02 0.6331 0.216 5.5984)" gradientUnits="userSpaceOnUse">
			<stop  offset="0.5323" style="stop-color:#F25E4F;stop-opacity:0.32"/>
			<stop  offset="0.9559" style="stop-color:#EE5646;stop-opacity:0"/>
		</radialGradient>
		<path class="st2" d="M50,63H14C6.8,63,1,57.2,1,50V14C1,6.8,6.8,1,14,1h36c7.2,0,13,5.8,13,13v36C63,57.2,57.2,63,50,63z"/>
	</g>
	<g id="Background_2_" class="st1">
		
			<radialGradient id="SVGID_3_" cx="43.2903" cy="39.6129" r="23.3688" gradientTransform="matrix(-0.6161 0.7877 -0.6907 -0.5402 97.3197 26.912)" gradientUnits="userSpaceOnUse">
			<stop  offset="0.3849" style="stop-color:#FFDC4E;stop-opacity:0.65"/>
			<stop  offset="0.9559" style="stop-color:#FFDB4B;stop-opacity:0"/>
		</radialGradient>
		<path class="st3" d="M50,63H14C6.8,63,1,57.2,1,50V14C1,6.8,6.8,1,14,1h36c7.2,0,13,5.8,13,13v36C63,57.2,57.2,63,50,63z"/>
	</g>
	<g id="Background_3_" class="st1">
		
			<radialGradient id="SVGID_4_" cx="22.6774" cy="38.0323" r="22.7163" gradientTransform="matrix(0.5369 0.8437 -0.7413 0.4718 38.6968 0.9584)" gradientUnits="userSpaceOnUse">
			<stop  offset="0.4819" style="stop-color:#0DC263;stop-opacity:0.44"/>
			<stop  offset="0.9559" style="stop-color:#02AB46;stop-opacity:0"/>
		</radialGradient>
		<path class="st4" d="M50,63H14C6.8,63,1,57.2,1,50V14C1,6.8,6.8,1,14,1h36c7.2,0,13,5.8,13,13v36C63,57.2,57.2,63,50,63z"/>
	</g>
</g>
<g id="Icon">
	<g>
		<linearGradient id="circle45_2_" gradientUnits="userSpaceOnUse" x1="26.1529" y1="42.804" x2="17.8303" y2="56.6427">
			<stop  offset="0" style="stop-color:#01AC47"/>
			<stop  offset="1" style="stop-color:#00822D"/>
		</linearGradient>
		<path id="circle45_1_" class="st5" d="M51.7,32.5c0,10.7-3.1,19.7-12.8,22.6c-2.2,0.7-4.4,1-6.8,1c-13,0-23.6-10.6-23.6-23.6v-2
			l0.7,0.2"/>
		<linearGradient id="path47_1_" gradientUnits="userSpaceOnUse" x1="41.538" y1="40.6301" x2="46.2477" y2="48.8882">
			<stop  offset="0" style="stop-color:#FCBC05"/>
			<stop  offset="1" style="stop-color:#EFA600"/>
		</linearGradient>
		<path id="path47_4_" class="st6" d="M32,56.1c13,0,23.6-10.6,23.6-23.6v-2l-14.7,8.1L30.5,54v2C31,56.1,31.5,56.1,32,56.1
			c13,0,23.6-10.6,23.6-23.6l0,0"/>
	</g>
	
		<linearGradient id="path49_1_" gradientUnits="userSpaceOnUse" x1="939.7598" y1="2127.6296" x2="939.7598" y2="2299.6711" gradientTransform="matrix(0.3 0 0 0.3 -259.8 -631.9935)">
		<stop  offset="0" style="stop-color:#F6503B"/>
		<stop  offset="0.2174" style="stop-color:#F24735"/>
		<stop  offset="0.5719" style="stop-color:#E62F25"/>
		<stop  offset="1" style="stop-color:#D4090D"/>
	</linearGradient>
	<path id="path49_2_" class="st7" d="M32,8.4L32,8.4c-8,0-15.4,4-19.7,10.8L22.8,37c0,0-0.3-8.5,0.5-9.4c0.7-0.8,4.2-4.1,4.2-4.1"/>
	<linearGradient id="circle45_3_" gradientUnits="userSpaceOnUse" x1="30.0349" y1="16.6129" x2="30.0349" y2="51.2342">
		<stop  offset="0" style="stop-color:#01DA76"/>
		<stop  offset="0.1555" style="stop-color:#01CC67"/>
		<stop  offset="0.4154" style="stop-color:#01BA55"/>
		<stop  offset="0.6898" style="stop-color:#01AF4B"/>
		<stop  offset="1" style="stop-color:#01AC47"/>
	</linearGradient>
	<path id="circle45" class="st8" d="M33.1,9.1c13,0,18.5,8.9,18.5,21.9c0,10.7-4.1,17.4-13.9,20.3c-2.2,0.7-2.8,2.7-5.2,2.7
		c-0.5,0-1.5,0.5-2,0.5C18.2,53.8,8.4,43.5,8.4,31c0-6.3,2.4-12.1,6.6-16.3C19.2,10.2,26.4,9.1,33.1,9.1z"/>
	<linearGradient id="path47_2_" gradientUnits="userSpaceOnUse" x1="41.9378" y1="19" x2="41.9378" y2="50.2477">
		<stop  offset="0" style="stop-color:#FFDF4B"/>
		<stop  offset="0.2712" style="stop-color:#FFCF2B"/>
		<stop  offset="0.5402" style="stop-color:#FFC313"/>
		<stop  offset="0.7896" style="stop-color:#FFBC05"/>
		<stop  offset="1" style="stop-color:#FFB900"/>
	</linearGradient>
	<path id="path47" class="st9" d="M47.2,12.9c-4.9,1.1-27.8,6.8-15.1,8.2c14.2,1.5,9.5,15,9.5,15L30.5,54.5c0.6,0,1,0,1.5,0
		C45,54.6,55.6,44,55.6,31l0,0C55.6,24,52.5,17.4,47.2,12.9L47.2,12.9z"/>
	<linearGradient id="path49_3_" gradientUnits="userSpaceOnUse" x1="32.3835" y1="8.8354" x2="32.7706" y2="26.5451">
		<stop  offset="0" style="stop-color:#FF6B53"/>
		<stop  offset="1.867247e-02" style="stop-color:#FE6A52"/>
		<stop  offset="0.3598" style="stop-color:#F25442"/>
		<stop  offset="0.6913" style="stop-color:#EB4738"/>
		<stop  offset="1" style="stop-color:#E94335"/>
	</linearGradient>
	<path id="path49" class="st10" d="M32,7.4c-8,0-15.4,4-19.7,10.8L22.8,36c0,0-0.3-8.5,0.5-9.4c0.7-0.8,4.2-4.1,4.2-4.1l4.8-1.4
		L32,20.1l21-0.1C48.7,12.3,40.7,7.4,32,7.4L32,7.4z"/>
	<linearGradient id="SVGID_5_" gradientUnits="userSpaceOnUse" x1="31.8674" y1="57.3872" x2="32.1255" y2="7.1937">
		<stop  offset="0" style="stop-color:#552500"/>
		<stop  offset="5.018120e-02" style="stop-color:#4D1F00;stop-opacity:0.8177"/>
		<stop  offset="0.1541" style="stop-color:#421700;stop-opacity:0.44"/>
		<stop  offset="0.2753" style="stop-color:#3F1500;stop-opacity:0"/>
		<stop  offset="0.653" style="stop-color:#FFFFFF;stop-opacity:0"/>
		<stop  offset="1" style="stop-color:#FFFFFF"/>
	</linearGradient>
	<path class="st11" d="M55.6,30.6c-0.1-3.7-1-7.3-2.7-10.5l0.1,0c-0.9-1.6-1.9-3-3-4.3c-0.1-0.1-0.2-0.2-0.3-0.4
		c-0.2-0.2-0.4-0.4-0.5-0.6c-0.6-0.6-1.2-1.2-1.9-1.8c0,0,0,0,0,0C42.9,9.5,37.6,7.5,32,7.5c-6.5,0-12.7,2.7-17.1,7.4
		c-3.9,4.1-6.3,9.7-6.4,15.7l0,0v2c0,12.5,9.8,22.8,22.1,23.5v0c0.1,0,0.1,0,0.2,0c0.1,0,0.2,0,0.3,0c0.4,0,0.7,0,1.1,0
		c0.5,0,1.1,0,1.6-0.1c0.1,0,0.2,0,0.3,0c12.1-1,21.6-11.1,21.6-23.5L55.6,30.6L55.6,30.6z"/>
	<radialGradient id="SVGID_6_" cx="32.0968" cy="37" r="29.0715" gradientUnits="userSpaceOnUse">
		<stop  offset="0.6351" style="stop-color:#FFFFFF;stop-opacity:0"/>
		<stop  offset="1" style="stop-color:#FFFFFF"/>
	</radialGradient>
	<path class="st12" d="M55.6,30.5c-0.1-3.7-1-7.3-2.7-10.5l0.1,0c-0.9-1.6-1.9-3-3-4.3c-0.1-0.1-0.2-0.2-0.3-0.4
		c-0.2-0.2-0.4-0.4-0.5-0.6c-0.6-0.6-1.2-1.2-1.9-1.8c0,0,0,0,0,0C42.9,9.4,37.6,7.4,32,7.4c-6.5,0-12.7,2.7-17.1,7.4
		c-3.9,4.1-6.3,9.7-6.4,15.7l0,0v2C8.4,45,18.2,55.3,30.5,56v0c0.1,0,0.1,0,0.2,0c0.1,0,0.2,0,0.3,0c0.4,0,0.7,0,1.1,0
		c0.5,0,1.1,0,1.6-0.1c0.1,0,0.2,0,0.3,0C46,55,55.6,44.9,55.6,32.5L55.6,30.5L55.6,30.5z"/>
	<circle id="circle53" class="st13" cx="32" cy="31" r="10.9"/>
	<circle id="circle53_1_" class="st14" cx="32" cy="30.1" r="10.9"/>
	<linearGradient id="circle55_2_" gradientUnits="userSpaceOnUse" x1="32" y1="21.7903" x2="32" y2="38.4357">
		<stop  offset="0" style="stop-color:#51A4FF"/>
		<stop  offset="1" style="stop-color:#4385F5"/>
	</linearGradient>
	<circle id="circle55_1_" class="st15" cx="32" cy="30.1" r="8.6"/>
</g>
</svg>
