<?xml version="1.0" encoding="utf-8"?>
<!-- Generator: Adobe Illustrator 25.2.0, SVG Export Plug-In . SVG Version: 6.00 Build 0)  -->
<svg version="1.1" xmlns="http://www.w3.org/2000/svg" xmlns:xlink="http://www.w3.org/1999/xlink" x="0px" y="0px"
	 viewBox="0 0 64 64" style="enable-background:new 0 0 64 64;" xml:space="preserve">
<style type="text/css">
	.st0{fill:url(#SVGID_1_);}
	.st1{display:none;}
	.st2{display:inline;}
	.st3{opacity:0.5;}
	.st4{opacity:0.15;enable-background:new    ;}
	.st5{fill:#FFFFFF;}
</style>
<g id="Background">
	<linearGradient id="SVGID_1_" gradientUnits="userSpaceOnUse" x1="32" y1="1.0968" x2="32" y2="62.1763">
		<stop  offset="0" style="stop-color:#93B2FC"/>
		<stop  offset="0.3435" style="stop-color:#7B94E3"/>
		<stop  offset="0.5391" style="stop-color:#7289DA"/>
		<stop  offset="0.6643" style="stop-color:#6D85D4"/>
		<stop  offset="0.8316" style="stop-color:#5F79C3"/>
		<stop  offset="1" style="stop-color:#4B68AB"/>
	</linearGradient>
	<path class="st0" d="M50,63H14C6.8,63,1,57.2,1,50V14C1,6.8,6.8,1,14,1h36c7.2,0,13,5.8,13,13v36C63,57.2,57.2,63,50,63z"/>
</g>
<g id="Guides" class="st1">
	<g class="st2">
		<g class="st3">
			<g>
			</g>
		</g>
	</g>
</g>
<g id="Icon">
	<path class="st4" d="M39.6,45.2c2.6-0.8,4.8-2.1,6.6-4.3c-9.5,5.5-18.9,5.4-28.3,0c0.8,1.1,1.7,2,2.7,2.5c1.1,0.7,2.2,1.1,3.4,1.7
		c-0.5,0.7-1.1,1.3-1.5,2c-0.4,0.7-1,1-1.9,0.9c-3.2-0.3-6.1-1.4-8.4-3.7c-0.1-0.1-0.1-0.1-0.2-0.2c-1-0.9-1.4-1.9-1.3-3.3
		c0.4-6.7,2.1-13,5-19c0.1-0.3,0.4-0.5,0.7-0.8c2.3-1.6,4.9-2.8,7.8-3.3c0.5-0.1,1.1-0.2,1.6-0.2c0.2,0,0.4,0.1,0.7,0.3
		C23,19,19.8,20.4,17,22.6c9.7-4.6,19.3-4.8,28.9-0.1c-2.6-2.1-5.6-3.4-8.6-4.4c0.2-0.4,0.5-0.5,1.1-0.5c3.4,0.3,6.3,1.5,9.2,3.5
		c0.2,0.2,0.5,0.4,0.7,0.8c2.2,4.4,3.6,8.8,4.4,13.7c0.3,2.2,0.5,4.5,0.7,6.7c0,0.3-0.1,0.7-0.3,1c-1.7,2.3-4.2,3.8-7,4.5
		c-1.1,0.3-2.2,0.3-3.4,0.5c-0.2,0-0.4,0-0.5-0.1C41.1,47.1,40.4,46.2,39.6,45.2L39.6,45.2z M24.6,39.3c1.2,0,2-0.2,2.6-0.8
		c1.1-0.9,1.4-2.1,1.5-3.4c0.1-1.5-0.4-2.6-1.7-3.4s-2.6-0.9-3.9,0c-2.1,1.3-2.5,4.4-0.8,6.3C23.1,38.8,24,39.2,24.6,39.3L24.6,39.3
		z M38.3,39.3c0.4-0.1,0.9-0.1,1.3-0.3c2.5-1,3.3-4.3,1.5-6.4c-1.3-1.7-3.8-1.9-5.4-0.3c-1,1-1.3,2.3-1.2,3.7
		C34.9,37.8,36.6,39.2,38.3,39.3L38.3,39.3z"/>
	<path class="st5" d="M39.7,44.4c2.6-0.8,4.8-2.1,6.6-4.3c-9.5,5.5-18.9,5.4-28.3,0c0.8,1.1,1.8,2,2.7,2.5c1.1,0.7,2.2,1.1,3.4,1.8
		c-0.5,0.7-1.1,1.3-1.5,2c-0.4,0.7-1,1-1.9,0.9c-3.2-0.3-6.1-1.4-8.4-3.7c-0.1-0.1-0.1-0.1-0.2-0.2c-1-0.9-1.4-1.9-1.3-3.3
		c0.4-6.7,2.1-13,5-19c0.1-0.3,0.4-0.5,0.7-0.8c2.3-1.6,4.9-2.8,7.8-3.3c0.5-0.1,1.1-0.2,1.6-0.2c0.2,0,0.4,0.1,0.7,0.3
		c-3.4,1.1-6.6,2.5-9.4,4.7c9.7-4.6,19.4-4.8,29-0.1c-2.6-2.1-5.6-3.4-8.6-4.4c0.2-0.4,0.5-0.5,1.1-0.5c3.4,0.3,6.3,1.5,9.2,3.5
		c0.2,0.2,0.5,0.4,0.7,0.8c2.2,4.4,3.6,8.9,4.4,13.7c0.3,2.2,0.5,4.5,0.7,6.7c0,0.3-0.1,0.7-0.3,1c-1.8,2.3-4.2,3.8-7,4.5
		c-1.1,0.3-2.2,0.3-3.4,0.5c-0.2,0-0.4,0-0.5-0.1C41.2,46.2,40.4,45.4,39.7,44.4L39.7,44.4z M24.7,38.5c1.2,0,2-0.2,2.6-0.8
		c1.1-0.9,1.4-2.1,1.5-3.4c0.1-1.5-0.4-2.6-1.8-3.4c-1.3-0.8-2.6-0.9-3.9,0c-2.1,1.3-2.5,4.4-0.8,6.3C23.1,37.9,24,38.3,24.7,38.5
		L24.7,38.5z M38.4,38.5c0.4-0.1,0.9-0.1,1.3-0.3c2.5-1,3.3-4.3,1.5-6.5c-1.3-1.8-3.8-1.9-5.4-0.3c-1,1-1.3,2.3-1.2,3.7
		C35,36.9,36.6,38.3,38.4,38.5L38.4,38.5z"/>
</g>
</svg>
