<?xml version="1.0" encoding="utf-8"?>
<!-- Generator: Adobe Illustrator 25.2.0, SVG Export Plug-In . SVG Version: 6.00 Build 0)  -->
<svg version="1.1" xmlns="http://www.w3.org/2000/svg" xmlns:xlink="http://www.w3.org/1999/xlink" x="0px" y="0px"
	 viewBox="0 0 64 64" style="enable-background:new 0 0 64 64;" xml:space="preserve">
<style type="text/css">
	.st0{fill:url(#SVGID_1_);}
	.st1{fill:url(#SVGID_2_);}
	.st2{fill:url(#SVGID_3_);}
	.st3{fill:#191919;}
	.st4{fill:url(#SVGID_4_);}
	.st5{display:none;}
	.st6{display:inline;}
	.st7{opacity:0.5;}
	.st8{fill:url(#SVGID_5_);}
	.st9{fill:url(#SVGID_6_);}
	.st10{fill:url(#SVGID_7_);}
	.st11{fill:url(#SVGID_8_);}
	.st12{fill:url(#SVGID_9_);}
	.st13{fill:url(#SVGID_10_);}
	.st14{fill:url(#SVGID_11_);}
	.st15{fill:url(#SVGID_12_);}
	.st16{fill:url(#SVGID_13_);}
</style>
<g id="Background">
	<g id="Background_4_">
		
			<linearGradient id="SVGID_1_" gradientUnits="userSpaceOnUse" x1="32" y1="-570.8524" x2="32" y2="-629.1805" gradientTransform="matrix(1 0 0 -1 0 -568)">
			<stop  offset="0" style="stop-color:#FAFAFA"/>
			<stop  offset="0.1574" style="stop-color:#F5F5F5"/>
			<stop  offset="0.4487" style="stop-color:#F0F0F0"/>
			<stop  offset="0.7095" style="stop-color:#ECECEC"/>
			<stop  offset="0.8509" style="stop-color:#E6E6E6"/>
			<stop  offset="0.9055" style="stop-color:#E0E0E0"/>
			<stop  offset="0.982" style="stop-color:#CDCDCD"/>
			<stop  offset="1" style="stop-color:#C8C8C8"/>
		</linearGradient>
		<path class="st0" d="M49.1,61.5H14.9C8,61.5,2.5,56,2.5,49.1V14.9C2.5,8,8,2.5,14.9,2.5h34.3C56,2.5,61.5,8,61.5,14.9v34.3
			C61.5,56,56,61.5,49.1,61.5z"/>
	</g>
	<g id="Background_2_">
		<radialGradient id="SVGID_2_" cx="32.3548" cy="32.3548" r="37.0403" gradientUnits="userSpaceOnUse">
			<stop  offset="0" style="stop-color:#FFFFFF"/>
			<stop  offset="0.282" style="stop-color:#FBFBFB;stop-opacity:0.718"/>
			<stop  offset="0.5421" style="stop-color:#F0F0F0;stop-opacity:0.4579"/>
			<stop  offset="0.7927" style="stop-color:#DEDEDE;stop-opacity:0.2073"/>
			<stop  offset="1" style="stop-color:#C8C8C8;stop-opacity:0"/>
		</radialGradient>
		<path class="st1" d="M49.1,61.5H14.9C8,61.5,2.5,56,2.5,49.1V14.9C2.5,8,8,2.5,14.9,2.5h34.3C56,2.5,61.5,8,61.5,14.9v34.3
			C61.5,56,56,61.5,49.1,61.5z"/>
	</g>
	<linearGradient id="SVGID_3_" gradientUnits="userSpaceOnUse" x1="32" y1="0.5161" x2="32" y2="63.1365">
		<stop  offset="0" style="stop-color:#1498DE"/>
		<stop  offset="0.2915" style="stop-color:#1395DB"/>
		<stop  offset="0.5424" style="stop-color:#0F8DD0"/>
		<stop  offset="0.7774" style="stop-color:#097EBE"/>
		<stop  offset="1" style="stop-color:#006AA6"/>
	</linearGradient>
	<path class="st2" d="M50,1H14C6.8,1,1,6.8,1,14v36c0,7.2,5.8,13,13,13h36c7.2,0,13-5.8,13-13V14C63,6.8,57.2,1,50,1z M60,50
		c0,5.5-4.5,10-10,10H14C8.5,60,4,55.5,4,50V14C4,8.5,8.5,4,14,4h18.8c1.5,0,2.8,0.6,3.9,1.6l21.7,21.7c1,1,1.6,2.4,1.6,3.9V50z"/>
	<g id="Background_1_">
		<path class="st3" d="M-29.8,64.7H-64c-7.2,0-13-5.8-13-13V17.5c0-7.2,5.8-13,13-13h34.2c7.2,0,13,5.8,13,13v34.2
			C-16.8,58.9-22.6,64.7-29.8,64.7z"/>
		
			<linearGradient id="SVGID_4_" gradientUnits="userSpaceOnUse" x1="-46.871" y1="0.3871" x2="-46.871" y2="62.3871" gradientTransform="matrix(1 0 0 -1 0 66)">
			<stop  offset="0" style="stop-color:#9B9B9B"/>
			<stop  offset="0.3806" style="stop-color:#BBBBBB"/>
			<stop  offset="0.5907" style="stop-color:#D1D1D1"/>
			<stop  offset="0.8304" style="stop-color:#DEDEDE"/>
			<stop  offset="1" style="stop-color:#E3E3E3"/>
		</linearGradient>
		<path class="st4" d="M-28.9,6.1c5.8,0,10.5,4.7,10.5,10.5v36c0,5.8-4.7,10.5-10.5,10.5h-36c-5.8,0-10.5-4.7-10.5-10.5v-36
			c0-5.8,4.7-10.5,10.5-10.5H-28.9 M-28.9,3.6h-36c-7.2,0-13,5.8-13,13v36c0,7.2,5.8,13,13,13h36c7.2,0,13-5.8,13-13v-36
			C-15.9,9.4-21.7,3.6-28.9,3.6L-28.9,3.6z"/>
	</g>
	
		<image style="overflow:visible;" width="356" height="264" xlink:href="1A9CBB69.jpg"  transform="matrix(0.4836 0 0 0.4836 70.9238 -10.4839)">
	</image>
</g>
<g id="Guides" class="st5">
	<g class="st6">
		<g class="st7">
			<g>
			</g>
		</g>
	</g>
</g>
<g id="Icon">
</g>
<g id="Spacers">
	<linearGradient id="SVGID_5_" gradientUnits="userSpaceOnUse" x1="17.29" y1="1.0968" x2="17.29" y2="62.9315">
		<stop  offset="0" style="stop-color:#1498DE"/>
		<stop  offset="0.2915" style="stop-color:#1395DB"/>
		<stop  offset="0.5424" style="stop-color:#0F8DD0"/>
		<stop  offset="0.7774" style="stop-color:#097EBE"/>
		<stop  offset="1" style="stop-color:#006AA6"/>
	</linearGradient>
	<path class="st8" d="M27.6,7v17H7V14c0-3.9,3.1-7,7-7H27.6z"/>
	<linearGradient id="SVGID_6_" gradientUnits="userSpaceOnUse" x1="23.575" y1="0.5161" x2="23.575" y2="63.1365">
		<stop  offset="0" style="stop-color:#1498DE"/>
		<stop  offset="0.2915" style="stop-color:#1395DB"/>
		<stop  offset="0.5424" style="stop-color:#0F8DD0"/>
		<stop  offset="0.7774" style="stop-color:#097EBE"/>
		<stop  offset="1" style="stop-color:#006AA6"/>
	</linearGradient>
	<path class="st9" d="M40.1,51v3H8.3c-0.6-0.9-1-1.9-1.2-3H40.1z"/>
	<linearGradient id="SVGID_7_" gradientUnits="userSpaceOnUse" x1="32" y1="0.5161" x2="32" y2="63.1365">
		<stop  offset="0" style="stop-color:#1498DE"/>
		<stop  offset="0.2915" style="stop-color:#1395DB"/>
		<stop  offset="0.5424" style="stop-color:#0F8DD0"/>
		<stop  offset="0.7774" style="stop-color:#097EBE"/>
		<stop  offset="1" style="stop-color:#006AA6"/>
	</linearGradient>
	<rect x="7" y="45" class="st10" width="50" height="3"/>
	<linearGradient id="SVGID_8_" gradientUnits="userSpaceOnUse" x1="32" y1="0.5161" x2="32" y2="63.1365">
		<stop  offset="0" style="stop-color:#1498DE"/>
		<stop  offset="0.2915" style="stop-color:#1395DB"/>
		<stop  offset="0.5424" style="stop-color:#0F8DD0"/>
		<stop  offset="0.7774" style="stop-color:#097EBE"/>
		<stop  offset="1" style="stop-color:#006AA6"/>
	</linearGradient>
	<rect x="7" y="39" class="st11" width="50" height="3"/>
	<linearGradient id="SVGID_9_" gradientUnits="userSpaceOnUse" x1="32" y1="0.5161" x2="32" y2="63.1365">
		<stop  offset="0" style="stop-color:#1498DE"/>
		<stop  offset="0.2915" style="stop-color:#1395DB"/>
		<stop  offset="0.5424" style="stop-color:#0F8DD0"/>
		<stop  offset="0.7774" style="stop-color:#097EBE"/>
		<stop  offset="1" style="stop-color:#006AA6"/>
	</linearGradient>
	<rect x="7" y="33" class="st12" width="50" height="3"/>
	<linearGradient id="SVGID_10_" gradientUnits="userSpaceOnUse" x1="31.845" y1="0.5161" x2="31.845" y2="63.1365">
		<stop  offset="0" style="stop-color:#1498DE"/>
		<stop  offset="0.2915" style="stop-color:#1395DB"/>
		<stop  offset="0.5424" style="stop-color:#0F8DD0"/>
		<stop  offset="0.7774" style="stop-color:#097EBE"/>
		<stop  offset="1" style="stop-color:#006AA6"/>
	</linearGradient>
	<path class="st13" d="M56.7,30H7v-3h46.8l2.5,2.5C56.4,29.6,56.6,29.8,56.7,30z"/>
	<linearGradient id="SVGID_11_" gradientUnits="userSpaceOnUse" x1="40.705" y1="0.5161" x2="40.705" y2="63.1365">
		<stop  offset="0" style="stop-color:#1498DE"/>
		<stop  offset="0.2915" style="stop-color:#1395DB"/>
		<stop  offset="0.5424" style="stop-color:#0F8DD0"/>
		<stop  offset="0.7774" style="stop-color:#097EBE"/>
		<stop  offset="1" style="stop-color:#006AA6"/>
	</linearGradient>
	<polygon class="st14" points="50.8,24 30.6,24 30.6,21 47.8,21 	"/>
	<linearGradient id="SVGID_12_" gradientUnits="userSpaceOnUse" x1="37.705" y1="0.5161" x2="37.705" y2="63.1365">
		<stop  offset="0" style="stop-color:#1498DE"/>
		<stop  offset="0.2915" style="stop-color:#1395DB"/>
		<stop  offset="0.5424" style="stop-color:#0F8DD0"/>
		<stop  offset="0.7774" style="stop-color:#097EBE"/>
		<stop  offset="1" style="stop-color:#006AA6"/>
	</linearGradient>
	<polygon class="st15" points="44.8,18 30.6,18 30.6,15 41.8,15 	"/>
	<linearGradient id="SVGID_13_" gradientUnits="userSpaceOnUse" x1="34.705" y1="0.5161" x2="34.705" y2="63.1365">
		<stop  offset="0" style="stop-color:#1498DE"/>
		<stop  offset="0.2915" style="stop-color:#1395DB"/>
		<stop  offset="0.5424" style="stop-color:#0F8DD0"/>
		<stop  offset="0.7774" style="stop-color:#097EBE"/>
		<stop  offset="1" style="stop-color:#006AA6"/>
	</linearGradient>
	<polygon class="st16" points="38.8,12 30.6,12 30.6,9 35.8,9 	"/>
</g>
</svg>
