<?xml version="1.0" encoding="utf-8"?>
<!-- Generator: Adobe Illustrator 25.2.0, SVG Export Plug-In . SVG Version: 6.00 Build 0)  -->
<svg version="1.1" id="Layer_1" xmlns="http://www.w3.org/2000/svg" xmlns:xlink="http://www.w3.org/1999/xlink" x="0px" y="0px"
	 viewBox="0 0 64 64" style="enable-background:new 0 0 64 64;" xml:space="preserve">
<style type="text/css">
	.st0{fill:#CA64EA;}
	.st1{fill:#AD4AD4;}
	.st2{fill:#9332BF;}
	.st3{fill:#7718AA;}
	.st4{fill:#C4BDC6;}
	.st5{fill:url(#SVGID_1_);}
	.st6{fill:url(#SVGID_2_);}
	.st7{fill:#FFFFFF;}
	.st8{fill:#444444;}
	.st9{fill:url(#SVGID_3_);}
	.st10{fill:url(#Shadow_1_);}
	.st11{fill:url(#SVGID_4_);}
	.st12{opacity:0.14;stroke:#000000;stroke-width:0.5;stroke-miterlimit:10;enable-background:new    ;}
	.st13{opacity:0.14;stroke:#000000;stroke-width:1.5;stroke-miterlimit:10;enable-background:new    ;}
	.st14{opacity:0.14;stroke:#000000;stroke-width:1.1;stroke-miterlimit:10;enable-background:new    ;}
	.st15{fill:url(#SVGID_5_);}
</style>
<g id="Background">
	<g>
		<path class="st0" d="M63,14v2.5l-22.7,3V1H50C57.2,1,63,6.8,63,14z"/>
		<polygon class="st1" points="40.3,16.5 63,16.5 63,32 40.3,35 		"/>
		<polygon class="st2" points="40.3,32 63,32 63,47.5 40.3,49.5 		"/>
		<path class="st3" d="M63,47.5V50c0,7.2-5.8,13-13,13h-9.7V47.5H63z"/>
	</g>
	<g id="Document">
		<polygon class="st4" points="53.7,53.8 51.7,56 43.6,31.8 51.7,8 53.7,10.2 		"/>
		
			<linearGradient id="SVGID_1_" gradientUnits="userSpaceOnUse" x1="51.6667" y1="18" x2="55.9375" y2="18" gradientTransform="matrix(1 0 0 -1 0 66)">
			<stop  offset="0" style="stop-color:#C8C8C8"/>
			<stop  offset="9.178996e-02" style="stop-color:#D0D0D0"/>
			<stop  offset="0.3713" style="stop-color:#E2E2E2"/>
			<stop  offset="0.6664" style="stop-color:#ECECEC"/>
			<stop  offset="1" style="stop-color:#F0F0F0"/>
		</linearGradient>
		<path class="st5" d="M51.7,41H54c1.1,0,2,0.9,2,2v10c0,1.1-0.9,2-2,2h-2.3V41z"/>
		
			<linearGradient id="SVGID_2_" gradientUnits="userSpaceOnUse" x1="51.6667" y1="33.95" x2="55.9375" y2="33.95" gradientTransform="matrix(1 0 0 -1 0 66)">
			<stop  offset="0" style="stop-color:#C8C8C8"/>
			<stop  offset="9.178996e-02" style="stop-color:#D0D0D0"/>
			<stop  offset="0.3713" style="stop-color:#E2E2E2"/>
			<stop  offset="0.6664" style="stop-color:#ECECEC"/>
			<stop  offset="1" style="stop-color:#F0F0F0"/>
		</linearGradient>
		<path class="st6" d="M51.7,25H54c1.1,0,2,0.9,2,2v10.1c0,1.1-0.9,2-2,2h-2.3V25z"/>
		<rect x="36.7" y="8" class="st7" width="15" height="48"/>
		<g>
			<g>
				<rect x="39.2" y="31" class="st8" width="10.3" height="2"/>
				<rect x="39.2" y="36" class="st8" width="10.3" height="2"/>
				<rect x="39.2" y="51" class="st8" width="10.3" height="2"/>
				<rect x="39.2" y="41" class="st8" width="10.3" height="2"/>
				<rect x="39.2" y="46" class="st8" width="10.3" height="2"/>
			</g>
			<g>
				<rect x="39.2" y="11" class="st8" width="10.3" height="2"/>
				<rect x="39.2" y="16" class="st8" width="10.3" height="2"/>
				<rect x="39.2" y="31" class="st8" width="10.3" height="2"/>
				<rect x="39.2" y="20.9" class="st8" width="10.3" height="2"/>
				<rect x="39.2" y="26" class="st8" width="10.3" height="2"/>
			</g>
		</g>
		
			<linearGradient id="SVGID_3_" gradientUnits="userSpaceOnUse" x1="51.6667" y1="50" x2="55.9375" y2="50" gradientTransform="matrix(1 0 0 -1 0 66)">
			<stop  offset="0" style="stop-color:#FFFFFF"/>
			<stop  offset="0.453" style="stop-color:#FFFFFF"/>
		</linearGradient>
		<path class="st9" d="M51.7,9H54c1.1,0,2,0.9,2,2v10c0,1.1-0.9,2-2,2h-2.3V9z"/>
	</g>
	
		<linearGradient id="Shadow_1_" gradientUnits="userSpaceOnUse" x1="42.2703" y1="34" x2="46.8576" y2="34" gradientTransform="matrix(1 0 0 -1 0 66)">
		<stop  offset="0" style="stop-color:#0F003B;stop-opacity:0.2"/>
		<stop  offset="0.1274" style="stop-color:#0C002F;stop-opacity:0.1745"/>
		<stop  offset="0.4619" style="stop-color:#050015;stop-opacity:0.1076"/>
		<stop  offset="0.763" style="stop-color:#010006;stop-opacity:4.740168e-02"/>
		<stop  offset="1" style="stop-color:#000000;stop-opacity:0"/>
	</linearGradient>
	<rect id="Shadow" x="42.3" y="1" class="st10" width="4.5" height="62"/>
	
		<linearGradient id="SVGID_4_" gradientUnits="userSpaceOnUse" x1="21.65" y1="65" x2="21.65" y2="3" gradientTransform="matrix(1 0 0 -1 0 66)">
		<stop  offset="0" style="stop-color:#CA64EA"/>
		<stop  offset="1" style="stop-color:#8223B2"/>
	</linearGradient>
	<path class="st11" d="M42.3,1v62H14C6.8,63,1,57.2,1,50V14C1,6.8,6.8,1,14,1H42.3z"/>
</g>
<g id="Icon">
	<g>
		<polygon class="st12" points="27.4,22.5 25.8,22.5 25.2,35.1 23.7,32.2 18.2,22.5 14.5,22.5 13.9,42 18.2,42 18.2,29.3 19.7,32.3 
			24.9,42 29.5,42 29.1,22.5 		"/>
		<polygon class="st13" points="27.4,23.4 25.8,23.4 25.2,36 23.7,33.1 18.2,23.4 14.5,23.4 13.9,43 18.2,43 18.2,30.2 19.7,33.2 
			24.9,43 29.5,43 29.1,23.4 		"/>
		<polygon class="st14" points="27.4,22.8 25.8,22.8 25.2,35.4 23.7,32.5 18.2,22.8 14.5,22.8 13.9,42.3 18.2,42.3 18.2,29.6 
			19.7,32.6 24.9,42.3 29.5,42.3 29.1,22.8 		"/>
		
			<linearGradient id="SVGID_5_" gradientUnits="userSpaceOnUse" x1="21.7" y1="24.4" x2="21.7" y2="43.4384" gradientTransform="matrix(1 0 0 -1 0 66)">
			<stop  offset="0" style="stop-color:#E7C9F2"/>
			<stop  offset="3.306690e-04" style="stop-color:#E7C9F2"/>
			<stop  offset="7.846300e-02" style="stop-color:#F2E1F8"/>
			<stop  offset="0.1612" style="stop-color:#F9F2FC"/>
			<stop  offset="0.2517" style="stop-color:#FEFCFE"/>
			<stop  offset="0.3636" style="stop-color:#FFFFFF"/>
		</linearGradient>
		<polygon class="st15" points="27.8,22.1 25.2,22.1 25.2,34.7 23.7,31.8 18.5,22.1 13.9,22.1 13.9,41.6 18.2,41.6 18.2,28.9 
			19.7,31.9 24.9,41.6 29.5,41.6 29.5,22.1 		"/>
	</g>
</g>
</svg>
