<?xml version="1.0" encoding="utf-8"?>
<!-- Generator: Adobe Illustrator 25.2.0, SVG Export Plug-In . SVG Version: 6.00 Build 0)  -->
<svg version="1.1" id="Layer_1" xmlns="http://www.w3.org/2000/svg" xmlns:xlink="http://www.w3.org/1999/xlink" x="0px" y="0px"
	 viewBox="0 0 64 64" style="enable-background:new 0 0 64 64;" xml:space="preserve">
<style type="text/css">
	.st0{fill:#33C481;}
	.st1{fill:#21A265;}
	.st2{fill:#107C40;}
	.st3{fill:#185B36;}
	.st4{fill:#E4EBEF;}
	.st5{fill:#FFFFFF;}
	.st6{fill:none;stroke:#444444;stroke-width:2;stroke-miterlimit:10;}
	.st7{fill:url(#Shadow_2_);}
	.st8{fill:url(#SVGID_1_);}
	.st9{opacity:0.14;}
	.st10{stroke:#000000;stroke-width:0.5;stroke-miterlimit:10;}
	.st11{stroke:#000000;stroke-width:1.1;stroke-miterlimit:10;}
	.st12{stroke:#000000;stroke-width:1.5;stroke-miterlimit:10;}
	.st13{fill:url(#SVGID_2_);}
</style>
<g id="Background">
	<g id="Blocks">
		<path class="st0" d="M63,14v3.5l-23.7-1V1H50C57.2,1,63,6.8,63,14z"/>
		<polygon class="st1" points="39.3,16.5 63,16.5 63,32.5 39.3,32 		"/>
		<polygon class="st2" points="39.3,32 63,32 63,48.5 39.3,47.5 		"/>
		<path class="st3" d="M63,47.5V50c0,7.2-5.8,13-13,13H39.3V47.5H63z"/>
	</g>
	<g id="Document">
		<polygon class="st4" points="54.7,53.8 52.7,56 44.6,31.8 52.7,8 54.7,10.2 		"/>
		<rect x="37.7" y="8" class="st5" width="15" height="48"/>
		<rect x="30.5" y="12.9" class="st6" width="8.8" height="7.7"/>
		<rect x="39.3" y="12.9" class="st6" width="8.8" height="7.7"/>
		<rect x="30.5" y="20.7" class="st6" width="8.8" height="7.7"/>
		<rect x="39.3" y="20.7" class="st6" width="8.8" height="7.7"/>
		<rect x="30.5" y="28.4" class="st6" width="8.8" height="7.7"/>
		<rect x="39.3" y="28.4" class="st6" width="8.8" height="7.7"/>
		<rect x="30.5" y="36.1" class="st6" width="8.8" height="7.7"/>
		<rect x="39.3" y="36.1" class="st6" width="8.8" height="7.7"/>
		<rect x="30.5" y="43.9" class="st6" width="8.8" height="7.7"/>
		<rect x="39.3" y="43.9" class="st6" width="8.8" height="7.7"/>
	</g>
	
		<linearGradient id="Shadow_2_" gradientUnits="userSpaceOnUse" x1="42.2703" y1="34" x2="46.8576" y2="34" gradientTransform="matrix(1 0 0 -1 0 66)">
		<stop  offset="0" style="stop-color:#0F003B;stop-opacity:0.2"/>
		<stop  offset="0.1274" style="stop-color:#0C002F;stop-opacity:0.1745"/>
		<stop  offset="0.4619" style="stop-color:#050015;stop-opacity:0.1076"/>
		<stop  offset="0.763" style="stop-color:#010006;stop-opacity:4.740168e-02"/>
		<stop  offset="1" style="stop-color:#000000;stop-opacity:0"/>
	</linearGradient>
	<rect id="Shadow" x="42.3" y="1" class="st7" width="4.5" height="62"/>
	
		<linearGradient id="SVGID_1_" gradientUnits="userSpaceOnUse" x1="21.65" y1="65" x2="21.65" y2="3" gradientTransform="matrix(1 0 0 -1 0 66)">
		<stop  offset="0" style="stop-color:#33C481"/>
		<stop  offset="1" style="stop-color:#185B36"/>
	</linearGradient>
	<path class="st8" d="M42.3,1v62H14C6.8,63,1,57.2,1,50V14C1,6.8,6.8,1,14,1H42.3z"/>
</g>
<g id="Icon">
	<g id="Shadow_1_">
		<g class="st9">
			<path class="st10" d="M18.9,32l-4.1-9.5h4l1.7,3.7c0.4,0.9,0.9,1.9,1.4,3.1H22c0.5-1.2,0.9-2.2,1.3-3.1l1.6-3.7h3.7l-4.1,9.7
				L30,42h-5l-2-4c-0.5-1-1-2-1.5-3.2h-0.1C20.9,36,20.5,37,20,38l-1.9,4h-4.8L18.9,32z"/>
		</g>
		<g class="st9">
			<path class="st11" d="M18.9,32.2l-4.1-9.5h4l1.7,3.7c0.4,0.9,0.9,1.9,1.4,3.1H22c0.5-1.2,0.9-2.2,1.3-3.1l1.6-3.7h3.7l-4.1,9.7
				l5.5,9.8h-5l-2-4c-0.5-1-1-2-1.5-3.2h-0.1c-0.5,1.2-0.9,2.2-1.4,3.2l-1.9,4h-4.8L18.9,32.2z"/>
		</g>
		<g class="st9">
			<path class="st12" d="M18.9,32.9l-4.1-9.5h4l1.7,3.7c0.4,0.9,0.9,1.9,1.4,3.1H22c0.5-1.2,0.9-2.2,1.3-3.1l1.6-3.7h3.7l-4.1,9.7
				L30,43h-5l-2-4c-0.5-1-1-2-1.5-3.2h-0.1C20.9,37,20.5,38,20,39l-1.9,4h-4.8L18.9,32.9z"/>
		</g>
	</g>
	<g id="X">
		
			<linearGradient id="SVGID_2_" gradientUnits="userSpaceOnUse" x1="21.65" y1="24.4463" x2="21.65" y2="43.9463" gradientTransform="matrix(1 0 0 -1 0 66)">
			<stop  offset="0" style="stop-color:#DFF6EB"/>
			<stop  offset="0.1177" style="stop-color:#F4FCF8"/>
			<stop  offset="0.2123" style="stop-color:#FFFFFF"/>
		</linearGradient>
		<path class="st13" d="M18.9,31.5L13.7,22h5l1.7,3.7c0.4,0.9,0.9,1.9,1.4,3.1H22c0.5-1.2,0.9-2.2,1.3-3.1l1.6-3.7h4.8l-5.2,9.7
			l5.5,9.8h-5l-2-4c-0.5-1-1-2-1.5-3.2h-0.1c-0.5,1.2-0.9,2.2-1.4,3.2l-1.9,4h-4.8L18.9,31.5z"/>
	</g>
</g>
</svg>
