<?xml version="1.0" encoding="utf-8"?>
<!-- Generator: Adobe Illustrator 25.2.0, SVG Export Plug-In . SVG Version: 6.00 Build 0)  -->
<svg version="1.1" xmlns="http://www.w3.org/2000/svg" xmlns:xlink="http://www.w3.org/1999/xlink" x="0px" y="0px"
	 viewBox="0 0 64 64" style="enable-background:new 0 0 64 64;" xml:space="preserve">
<style type="text/css">
	.st0{fill:#41A5EE;}
	.st1{fill:#2A7BD2;}
	.st2{fill:#185ABD;}
	.st3{fill:#103F91;}
	.st4{fill:#E4EBEF;}
	.st5{fill:#FFFFFF;}
	.st6{fill:#444444;}
	.st7{fill:url(#Shadow_1_);}
	.st8{fill:url(#SVGID_1_);}
	.st9{opacity:0.14;}
	.st10{stroke:#000000;stroke-width:1.5;stroke-miterlimit:10;}
	.st11{stroke:#000000;stroke-width:1.1;stroke-miterlimit:10;}
	.st12{stroke:#000000;stroke-width:0.5;stroke-miterlimit:10;}
	.st13{fill:url(#SVGID_2_);}
</style>
<g id="Background">
	<g id="Blocks">
		<path class="st0" d="M63,14v2.5H42.3V1H50C57.2,1,63,6.8,63,14z"/>
		<rect x="42.3" y="16.5" class="st1" width="20.7" height="15.5"/>
		<rect x="42.3" y="32" class="st2" width="20.7" height="15.5"/>
		<path class="st3" d="M63,47.5V50c0,7.2-5.8,13-13,13h-7.7V47.5H63z"/>
	</g>
	<g id="Document">
		<polygon class="st4" points="54.7,53.8 52.7,56 44.6,31.8 52.7,8 54.7,10.2 		"/>
		<rect x="37.7" y="8" class="st5" width="15" height="48"/>
		<g>
			<rect x="38.1" y="10" class="st6" width="12.4" height="15.9"/>
			<rect x="40.2" y="30.1" class="st6" width="10.3" height="2"/>
			<rect x="40.2" y="35" class="st6" width="10.3" height="2"/>
			<rect x="40.2" y="50.1" class="st6" width="10.3" height="2"/>
			<rect x="40.2" y="40" class="st6" width="10.3" height="2"/>
			<rect x="40.2" y="45" class="st6" width="10.3" height="2"/>
		</g>
	</g>
	<linearGradient id="Shadow_1_" gradientUnits="userSpaceOnUse" x1="42.2703" y1="32" x2="46.8576" y2="32">
		<stop  offset="0" style="stop-color:#0F003B;stop-opacity:0.2"/>
		<stop  offset="0.1274" style="stop-color:#0C002F;stop-opacity:0.1745"/>
		<stop  offset="0.4619" style="stop-color:#050015;stop-opacity:0.1076"/>
		<stop  offset="0.763" style="stop-color:#010006;stop-opacity:4.740168e-02"/>
		<stop  offset="1" style="stop-color:#000000;stop-opacity:0"/>
	</linearGradient>
	<rect id="Shadow" x="42.3" y="1" class="st7" width="4.5" height="62"/>
	<linearGradient id="SVGID_1_" gradientUnits="userSpaceOnUse" x1="21.665" y1="1" x2="21.665" y2="63">
		<stop  offset="0" style="stop-color:#41A5ED"/>
		<stop  offset="1" style="stop-color:#103F91"/>
	</linearGradient>
	<path class="st8" d="M42.3,1v62H14C6.8,63,1,57.2,1,50V14C1,6.8,6.8,1,14,1H42.3z"/>
</g>
<g id="Icon">
	<g class="st9">
		<path class="st10" d="M11.7,25.1h3.1l1.3,7.4c0.2,2,0.5,3.9,0.8,5.9h0.1c0.4-2,0.7-3.9,1.1-5.9l2-7.4h3.6l2,7.4
			c0.4,1.9,0.7,3.9,1.1,5.9h0.1c0.2-2,0.5-4,0.7-5.9l1.3-7.4h2.8l-2.1,17.3h-5.3L22.5,34c-0.3-1.4-0.5-2.9-0.7-4.3h-0.1
			c-0.2,1.4-0.5,2.9-0.8,4.3l-1.8,8.4h-5.2L11.7,25.1z"/>
	</g>
	<g class="st9">
		<path class="st11" d="M11.7,24.4h3.1l1.3,7.4c0.2,2,0.5,3.9,0.8,5.9h0.1c0.4-2,0.7-3.9,1.1-5.9l2-7.4h3.6l2,7.4
			c0.4,1.9,0.7,3.9,1.1,5.9h0.1c0.2-2,0.5-4,0.7-5.9l1.3-7.4h2.8l-2.1,17.3h-5.3l-1.8-8.4c-0.3-1.4-0.5-2.9-0.7-4.3h-0.1
			c-0.2,1.4-0.5,2.9-0.8,4.3l-1.8,8.4h-5.2L11.7,24.4z"/>
	</g>
	<g class="st9">
		<path class="st12" d="M11.7,24.2h3.1l1.3,7.4c0.2,2,0.5,3.9,0.8,5.9h0.1c0.4-2,0.7-3.9,1.1-5.9l2-7.4h3.6l2,7.4
			c0.4,1.9,0.7,3.9,1.1,5.9h0.1c0.2-2,0.5-4,0.7-5.9l1.3-7.4h2.8l-2.1,17.3h-5.3l-1.8-8.4c-0.3-1.4-0.5-2.9-0.7-4.3h-0.1
			c-0.2,1.4-0.5,2.9-0.8,4.3l-1.8,8.4h-5.2L11.7,24.2z"/>
	</g>
	<g>
		<linearGradient id="SVGID_2_" gradientUnits="userSpaceOnUse" x1="21.665" y1="41.3548" x2="21.665" y2="22.5684">
			<stop  offset="0" style="stop-color:#D1EAFB"/>
			<stop  offset="0.2123" style="stop-color:#FFFFFF"/>
		</linearGradient>
		<path class="st13" d="M10.5,22.6h4.3l1.3,8.7c0.2,2,0.5,3.9,0.8,5.9h0.1c0.4-2,0.7-3.9,1.1-5.9l2-8.7h3.6l2,8.7
			c0.4,1.9,0.7,3.9,1.1,5.9h0.1c0.2-2,0.5-4,0.7-5.9l1.3-8.7h4l-3.3,18.5h-5.3l-1.8-8.4c-0.3-1.4-0.5-2.9-0.7-4.3h-0.1
			c-0.2,1.4-0.5,2.9-0.8,4.3l-1.8,8.4h-5.2L10.5,22.6z"/>
	</g>
</g>
</svg>
