<?xml version="1.0" encoding="utf-8"?>
<!-- Generator: Adobe Illustrator 25.2.0, SVG Export Plug-In . SVG Version: 6.00 Build 0)  -->
<svg version="1.1" xmlns="http://www.w3.org/2000/svg" xmlns:xlink="http://www.w3.org/1999/xlink" x="0px" y="0px"
	 viewBox="0 0 64 64" style="enable-background:new 0 0 64 64;" xml:space="preserve">
<style type="text/css">
	.st0{fill:#7C84E7;}
	.st1{fill:#6E76DD;}
	.st2{fill:#6169D2;}
	.st3{fill:#535BC8;}
	.st4{fill:url(#Shadow_1_);}
	.st5{fill:url(#SVGID_1_);}
	.st6{fill:url(#SVGID_2_);}
	.st7{fill:url(#SVGID_3_);}
	.st8{fill:url(#SVGID_4_);}
	.st9{fill:url(#SVGID_5_);}
	.st10{opacity:0.1;}
	.st11{stroke:#000000;stroke-width:0.5;stroke-miterlimit:10;}
	.st12{stroke:#000000;stroke-width:1.1;stroke-miterlimit:10;}
	.st13{stroke:#000000;stroke-width:1.5;stroke-miterlimit:10;}
	.st14{fill:url(#SVGID_6_);}
</style>
<g id="Layer_3">
	<g id="Background">
		<g id="Blocks">
			<path class="st0" d="M63,14v2.5l-23.7,1V1H50C57.2,1,63,6.8,63,14z"/>
			<polygon class="st1" points="39.3,16.5 63,16.5 63,32 39.3,35 			"/>
			<polygon class="st2" points="39.3,32 63,32 63,47.5 39.3,51.5 			"/>
			<path class="st3" d="M63,47.5V50c0,7.2-5.8,13-13,13H39.3V47.5H63z"/>
		</g>
		<g id="Document">
		</g>
		<linearGradient id="Shadow_1_" gradientUnits="userSpaceOnUse" x1="42.2703" y1="32" x2="46.8576" y2="32">
			<stop  offset="0" style="stop-color:#0F003B;stop-opacity:0.2"/>
			<stop  offset="0.1274" style="stop-color:#0C002F;stop-opacity:0.1745"/>
			<stop  offset="0.4619" style="stop-color:#050015;stop-opacity:0.1076"/>
			<stop  offset="0.763" style="stop-color:#010006;stop-opacity:4.740168e-02"/>
			<stop  offset="1" style="stop-color:#000000;stop-opacity:0"/>
		</linearGradient>
		<rect id="Shadow" x="42.3" y="1" class="st4" width="4.5" height="62"/>
		<g>
			<linearGradient id="SVGID_1_" gradientUnits="userSpaceOnUse" x1="56.5476" y1="38.0418" x2="48.1556" y2="38.0418">
				<stop  offset="0.3631" style="stop-color:#F0F0F0"/>
				<stop  offset="1" style="stop-color:#D2D2D2"/>
			</linearGradient>
			<path class="st5" d="M50.1,48.1L50.1,48.1c3.4,0,6.1-2.7,6.1-6.1V30.4c0-1.3-1.1-2.4-2.4-2.4h-6.3c-2,0-3.6,1.6-3.6,3.6V42
				C44,45.3,46.7,48.1,50.1,48.1z"/>
			<linearGradient id="SVGID_2_" gradientUnits="userSpaceOnUse" x1="56.5476" y1="20.3254" x2="48.1556" y2="20.3254">
				<stop  offset="0.3631" style="stop-color:#F0F0F0"/>
				<stop  offset="1" style="stop-color:#D2D2D2"/>
			</linearGradient>
			<path class="st6" d="M50.5,26L50.5,26c3.2,0,5.7-2.6,5.7-5.7v0c0-3.2-2.6-5.7-5.7-5.7h0c-3.2,0-5.7,2.6-5.7,5.7v0
				C44.7,23.5,47.3,26,50.5,26z"/>
			<linearGradient id="SVGID_3_" gradientUnits="userSpaceOnUse" x1="48.2566" y1="41.2571" x2="42.1707" y2="41.2571">
				<stop  offset="0.3631" style="stop-color:#FFFFFF"/>
				<stop  offset="1" style="stop-color:#D2D2D2"/>
			</linearGradient>
			<path class="st7" d="M42.6,54.5L42.6,54.5c4.2,0,7.5-3.4,7.5-7.5V31.2c0-1.8-1.4-3.2-3.2-3.2h-8.6c-1.8,0-3.2,1.4-3.2,3.2V47
				C35,51.1,38.4,54.5,42.6,54.5z"/>
			<linearGradient id="SVGID_4_" gradientUnits="userSpaceOnUse" x1="48.2566" y1="17.8322" x2="42.1707" y2="17.8322">
				<stop  offset="0.3631" style="stop-color:#FFFFFF"/>
				<stop  offset="1" style="stop-color:#D2D2D2"/>
			</linearGradient>
			<path class="st8" d="M42.6,25.4L42.6,25.4c4.2,0,7.5-3.4,7.5-7.5v0c0-4.2-3.4-7.5-7.5-7.5h0c-4.2,0-7.5,3.4-7.5,7.5v0
				C35,22,38.4,25.4,42.6,25.4z"/>
		</g>
		<linearGradient id="SVGID_5_" gradientUnits="userSpaceOnUse" x1="21.665" y1="1" x2="21.665" y2="63">
			<stop  offset="0" style="stop-color:#7C84E7"/>
			<stop  offset="1" style="stop-color:#535BC8"/>
		</linearGradient>
		<path class="st9" d="M42.3,1v62H14C6.8,63,1,57.2,1,50V14C1,6.8,6.8,1,14,1H42.3z"/>
	</g>
</g>
<g id="Icon">
	<g class="st10">
		<path class="st11" d="M19.3,25.9h-5.9l0.3-4h15.7l0.5,4h-5.9v16.9h-4.8V25.9z"/>
	</g>
	<g class="st10">
		<path class="st12" d="M19.3,26.1h-5.9l0.3-4h15.7l0.5,4h-5.9V43h-4.8V26.1z"/>
	</g>
	<g class="st10">
		<path class="st13" d="M19.3,26.8h-5.9l0.3-4h15.7l0.5,4h-5.9v16.9h-4.8V26.8z"/>
	</g>
	<g>
		<linearGradient id="SVGID_6_" gradientUnits="userSpaceOnUse" x1="21.665" y1="43.129" x2="21.665" y2="21.7741">
			<stop  offset="0" style="stop-color:#C2C6F4"/>
			<stop  offset="1.825081e-02" style="stop-color:#C9CDF5"/>
			<stop  offset="0.1046" style="stop-color:#E7E8FB"/>
			<stop  offset="0.1791" style="stop-color:#F9F9FE"/>
			<stop  offset="0.2326" style="stop-color:#FFFFFF"/>
		</linearGradient>
		<path class="st14" d="M19.3,25.5h-5.9v-4h16.5v4h-5.9v16.9h-4.8V25.5z"/>
	</g>
</g>
</svg>
