<?xml version="1.0" encoding="utf-8"?>
<!-- Generator: Adobe Illustrator 25.2.0, SVG Export Plug-In . SVG Version: 6.00 Build 0)  -->
<svg version="1.1" id="Layer_1" xmlns="http://www.w3.org/2000/svg" xmlns:xlink="http://www.w3.org/1999/xlink" x="0px" y="0px"
	 viewBox="0 0 64 64" style="enable-background:new 0 0 64 64;" xml:space="preserve">
<style type="text/css">
	.st0{fill:#D2522F;}
	.st1{fill:#FF8E6A;}
	.st2{fill:#E4EBEF;}
	.st3{fill:#FFFFFF;}
	.st4{fill:#444444;}
	.st5{fill:url(#Shadow_1_);}
	.st6{fill:url(#SVGID_1_);}
	.st7{opacity:0.14;}
	.st8{stroke:#000000;stroke-width:0.5;stroke-miterlimit:10;}
	.st9{stroke:#000000;stroke-width:1.1;stroke-miterlimit:10;}
	.st10{stroke:#000000;stroke-width:1.5;stroke-miterlimit:10;}
	.st11{fill:url(#SVGID_2_);}
</style>
<g id="Background">
	<path class="st0" d="M39.3,30v17.5l0,0V63H50c7.2,0,13-5.8,13-13v-2.5V30H39.3z"/>
	<path class="st1" d="M50,1H34.3v15.5l0,0V32H63V16.5V14C63,6.8,57.2,1,50,1z"/>
	<g id="Document">
		<polygon class="st2" points="54.7,51.3 52.7,53.5 44.6,29.3 52.7,10.5 54.7,12.7 		"/>
		<rect x="37.7" y="10.5" class="st3" width="15" height="43"/>
		<rect x="39.5" y="37.8" class="st4" width="10.3" height="2"/>
		<rect x="39.5" y="42.7" class="st4" width="10.3" height="2"/>
		<rect x="39.5" y="47.7" class="st4" width="10.3" height="2"/>
		<rect x="39.5" y="32.8" class="st4" width="10.3" height="2"/>
		<path class="st4" d="M39.9,18.2c-3.5,0-4,1.3-4,4.8s2.8,6.3,6.3,6.3s6.3-2.8,6.3-6.3h-6.3L39.9,18.2z"/>
		<path class="st4" d="M47.1,18.7"/>
		<path class="st4" d="M50.5,21.1c0-3.5-2.8-6.3-6.3-6.3v6.3H50.5z"/>
	</g>
	
		<linearGradient id="Shadow_1_" gradientUnits="userSpaceOnUse" x1="42.2703" y1="34" x2="46.8576" y2="34" gradientTransform="matrix(1 0 0 -1 0 66)">
		<stop  offset="0" style="stop-color:#0F003B;stop-opacity:0.2"/>
		<stop  offset="0.1274" style="stop-color:#0C002F;stop-opacity:0.1745"/>
		<stop  offset="0.4619" style="stop-color:#050015;stop-opacity:0.1076"/>
		<stop  offset="0.763" style="stop-color:#010006;stop-opacity:4.740168e-02"/>
		<stop  offset="1" style="stop-color:#000000;stop-opacity:0"/>
	</linearGradient>
	<rect id="Shadow" x="42.3" y="1" class="st5" width="4.5" height="62"/>
	
		<linearGradient id="SVGID_1_" gradientUnits="userSpaceOnUse" x1="21.65" y1="65" x2="21.65" y2="3" gradientTransform="matrix(1 0 0 -1 0 66)">
		<stop  offset="0" style="stop-color:#FE8F6B"/>
		<stop  offset="1" style="stop-color:#D35230"/>
	</linearGradient>
	<path class="st6" d="M42.3,1v62H14C6.8,63,1,57.2,1,50V14C1,6.8,6.8,1,14,1H42.3z"/>
</g>
<g id="Icon">
	<g class="st7">
		<path class="st8" d="M16.1,22.2l6.4,0.8c4.5,0,7.8,0.5,7.8,5.5c0,4.8-3.3,6.8-7.6,6.8h-2.6v6.8h-4.6L16.1,22.2z M22.4,31.6
			c2.6,0,3.7-1.1,3.7-3.2s-1.3-2.9-3.9-2.9H20v6.1H22.4z"/>
	</g>
	<g class="st7">
		<path class="st9" d="M15.9,22.4l6.5,0.9c4.5,0,7.8,0.5,7.8,5.5c0,4.8-3.3,6.8-7.6,6.8H20v6.8h-4.6L15.9,22.4z M22.3,32
			c2.6,0,3.7-1.1,3.7-3.2s-1.3-2.9-3.9-2.9h-2.2V32H22.3z"/>
	</g>
	<g class="st7">
		<path class="st10" d="M16,23l6.4,1c4.5,0,7.8,0.5,7.8,5.5c0,4.8-3.3,6.8-7.6,6.8H20v6.8h-4.6L16,23z M22.3,32.7
			c2.6,0,3.7-1.1,3.7-3.2s-1.3-2.9-3.9-2.9h-2.2v6.1H22.3z"/>
	</g>
	<g>
		
			<linearGradient id="SVGID_2_" gradientUnits="userSpaceOnUse" x1="26.314" y1="26.5121" x2="14.1194" y2="47.0362" gradientTransform="matrix(1 0 0 -1 0 66)">
			<stop  offset="6.281116e-02" style="stop-color:#FFCEBE"/>
			<stop  offset="0.2075" style="stop-color:#FFECE6"/>
			<stop  offset="0.3128" style="stop-color:#FFFFFF"/>
		</linearGradient>
		<path class="st11" d="M15.4,21.5h7c4.5,0,8.2,1.5,8.2,6.5c0,4.8-3.7,6.8-8.1,6.8h-2.6v6.8h-4.6V21.5H15.4z M22.3,31.2
			c2.6,0,3.7-1.1,3.7-3.2s-1.3-2.9-3.9-2.9h-2.2v6.1H22.3z"/>
	</g>
</g>
</svg>
