<?xml version="1.0" encoding="utf-8"?>
<!-- Generator: Adobe Illustrator 25.2.0, SVG Export Plug-In . SVG Version: 6.00 Build 0)  -->
<svg version="1.1" xmlns="http://www.w3.org/2000/svg" xmlns:xlink="http://www.w3.org/1999/xlink" x="0px" y="0px"
	 viewBox="0 0 64 64" style="enable-background:new 0 0 64 64;" xml:space="preserve">
<style type="text/css">
	.st0{fill:url(#SVGID_1_);}
	.st1{opacity:0.5;}
	.st2{opacity:0.1;}
	.st3{opacity:0.2;}
	.st4{fill:#FFFFFF;stroke:#FFFFFF;stroke-miterlimit:10;}
	.st5{fill:url(#SVGID_2_);}
	.st6{fill:url(#SVGID_3_);}
	.st7{fill:url(#SVGID_4_);}
</style>
<g id="Background">
	<linearGradient id="SVGID_1_" gradientUnits="userSpaceOnUse" x1="32" y1="0.2258" x2="32" y2="63.7521">
		<stop  offset="2.640510e-02" style="stop-color:#64D5F2"/>
		<stop  offset="6.804769e-02" style="stop-color:#51C5EB"/>
		<stop  offset="0.1239" style="stop-color:#3EB5E4"/>
		<stop  offset="0.1625" style="stop-color:#37AFE2"/>
		<stop  offset="0.8017" style="stop-color:#1C93D2"/>
		<stop  offset="0.8673" style="stop-color:#188CD0"/>
		<stop  offset="0.9632" style="stop-color:#0F78CC"/>
		<stop  offset="1" style="stop-color:#0A6FCA"/>
	</linearGradient>
	<path class="st0" d="M50,63H14C6.8,63,1,57.2,1,50V14C1,6.8,6.8,1,14,1h36c7.2,0,13,5.8,13,13v36C63,57.2,57.2,63,50,63z"/>
</g>
<g id="Shadow">
	<g class="st1">
		<g class="st2">
			<path d="M50.5,28.2c-1.1,0-2.3,0.8-2.3,2.2v10.1c0,4.7-3.7,4.8-4.2,4.8c-1.3,0-4.3-0.5-4.3-5.4l-0.1-3.6c0-6.4-4.2-9.3-8.3-9.3
				c-1.9,0-4.2,1-5.8,2.6c-1.6-1.5-3.8-2.4-6-2.4c-2,0-8.3,0.7-8.3,9.7v10.7c0,1.3,1,2.3,2.3,2.3s2.3-1,2.3-2.3V37
				c0-2.3,0.6-5.1,3.6-5.1c1.8,0,3.7,1.6,3.7,4.3v11.5c0,1.3,1,2.3,2.3,2.3c1.3,0,2.3-1,2.3-2.3V36.1c0-2.8,1.9-4.3,3.7-4.3
				c1.7,0,3.6,0.7,3.6,4.3l0.1,3.9c0,7.4,4.8,10.1,8.9,10.1c3.5,0,8.6-2.5,8.8-9.5V30.4C52.8,29,51.7,28.2,50.5,28.2z"/>
			<path d="M37.4,27c1.1,0,2.3-0.9,2.3-2.5c0-2.2,1.6-4.5,4.3-4.5c2.7,0,4.3,2.3,4.3,4.5c0,0.9,0.4,1.5,0.7,1.8
				c0.6,0.6,1.6,0.8,2.5,0.5c0.9-0.4,1.4-1.2,1.4-2.2c0-5.2-3.8-9.1-8.9-9.1c-5,0-8.9,4-8.9,9.1c0,0.9,0.4,1.5,0.7,1.8
				C36.2,26.8,36.8,27,37.4,27z"/>
			<path d="M41.5,24.6c0,1.5,1.2,2.7,2.7,2.7c1.5,0,2.7-1.2,2.7-2.7c0-1.5-1.2-2.7-2.7-2.7C42.7,21.9,41.5,23.1,41.5,24.6z"/>
		</g>
		<g class="st2">
			<path d="M48.5,29.9v10.1c0,4.9-4,5.1-4.4,5.1c-1.4,0-4.5-0.5-4.5-5.6l-0.1-3.6c0-6.3-4.1-9.1-8.1-9.1c-1.9,0-4.3,1.1-5.8,2.7
				C24,28,21.7,27,19.5,27c-1.9,0-8.1,0.7-8.1,9.5v10.7c0,1.2,0.9,2,2,2s2-0.9,2-2V36.5c0-2.5,0.7-5.4,3.9-5.4c2,0,4,1.7,4,4.5v11.5
				c0,1.2,0.9,2,2,2c1.2,0,2-0.9,2-2V35.6c0-2.9,2.1-4.5,4-4.5c1.5,0,3.9,0.6,3.9,4.6l0.1,3.9c0,7.2,4.6,9.8,8.6,9.8
				c3.4,0,8.4-2.5,8.5-9.3V29.9C52.6,27.3,48.5,27.3,48.5,29.9z"/>
			<path d="M37.4,26.3c1,0,2-0.8,2-2.3c0-2.3,1.7-4.7,4.5-4.7c2.8,0,4.5,2.4,4.5,4.7c0,0.8,0.3,1.3,0.6,1.6c0.6,0.6,1.4,0.7,2.2,0.4
				c0.8-0.3,1.2-1.1,1.2-2c0-5-3.7-8.8-8.6-8.8c-4.8,0-8.6,3.9-8.6,8.8c0,0.8,0.3,1.4,0.6,1.7C36.3,26.1,36.8,26.3,37.4,26.3z"/>
			<path d="M41.7,24.1c0,1.4,1.1,2.5,2.5,2.5s2.5-1.1,2.5-2.5c0-1.4-1.1-2.5-2.5-2.5S41.7,22.7,41.7,24.1z"/>
		</g>
		<g class="st3">
			<path d="M48.8,29.4v10.1c0,5.2-4.2,5.3-4.7,5.3c-1.4,0-4.8-0.6-4.8-5.9l-0.1-3.7c0-6.1-3.9-8.8-7.8-8.8c-1.9,0-4.3,1.2-5.8,2.8
				c-1.5-1.6-3.8-2.6-6-2.6c-1.8,0-7.8,0.7-7.8,9.2v10.7c0,1,0.8,1.8,1.8,1.8c1,0,1.8-0.8,1.8-1.8V36c0-3.7,1.4-5.6,4.1-5.6
				c2.1,0,4.2,1.8,4.2,4.8v11.5c0,1,0.8,1.8,1.8,1.8s1.8-0.8,1.8-1.8V35.1c0-3.1,2.2-4.8,4.2-4.8c1.2,0,4.1,0.5,4.1,4.8l0.1,3.9
				c0,7.1,4.5,9.6,8.4,9.6c3.3,0,8.2-2.4,8.3-9V29.4C52.3,27.1,48.8,27.1,48.8,29.4z"/>
			<path d="M37.4,25.5c0.9,0,1.8-0.7,1.8-2c0-2.4,1.8-5,4.8-5c3,0,4.8,2.5,4.8,5c0,0.7,0.3,1.2,0.6,1.4c1,0.9,3,0.5,3-1.4
				c0-4.9-3.6-8.6-8.4-8.6c-4.7,0-8.4,3.8-8.4,8.6c0,0.8,0.3,1.2,0.5,1.5C36.5,25.3,36.9,25.5,37.4,25.5z"/>
			<path d="M42,23.6c0,1.2,1,2.2,2.2,2.2c1.2,0,2.2-1,2.2-2.2c0-1.2-1-2.2-2.2-2.2C42.9,21.4,42,22.4,42,23.6z"/>
		</g>
	</g>
</g>
<g id="Icon">
	<g>
		<path class="st4" d="M25.5,29.4c-1.3-1.7-3.7-2.9-6-2.9c-3.8,0-7.3,2.4-7.3,8.7v10.7c0,0.8,0.5,1.3,1.3,1.3s1.3-0.5,1.3-1.3V35.3
			c0-4.9,2.4-6.1,4.6-6.1s4.7,1.9,4.7,5.3v11.5c0,0.8,0.5,1.3,1.3,1.3l0,0l0,0c0.8,0,1.3-0.5,1.3-1.3V34.4c0-3.3,2.4-5.3,4.7-5.3
			c1.5,0,4.6,0.6,4.6,5.3l0.1,3.9c0,7.2,4.9,9.1,7.9,9.1s7.7-2.2,7.8-8.5V28.7c0-1.7-2.6-1.7-2.6,0v10.1c0,4.9-3.6,5.8-5.2,5.8
			s-5.3-0.8-5.3-6.4l-0.1-3.7c0-5.5-3.5-8.3-7.3-8.3C29.3,26.3,26.8,27.7,25.5,29.4z"/>
		<path class="st4" d="M38.7,22.8c0-2.6,1.9-5.5,5.3-5.5c3.3,0,5.3,2.8,5.3,5.5c0,1.9,2.6,1.9,2.6,0c0-4.6-3.5-8.1-7.9-8.1
			s-7.9,3.6-7.9,8.1C36.1,24.8,38.7,24.8,38.7,22.8z"/>
		<path class="st4" d="M45.9,22.9c0-1-0.8-1.7-1.7-1.7c-1,0-1.7,0.8-1.7,1.7s0.8,1.7,1.7,1.7C45.2,24.6,45.9,23.8,45.9,22.9z"/>
	</g>
</g>
<g id="Glow">
	<linearGradient id="SVGID_2_" gradientUnits="userSpaceOnUse" x1="32" y1="26.0645" x2="32" y2="30.8104">
		<stop  offset="0" style="stop-color:#64D5F2;stop-opacity:0.2"/>
		<stop  offset="1" style="stop-color:#34ACE0;stop-opacity:0"/>
	</linearGradient>
	<path class="st5" d="M48.8,28.7v10.1c0,5.2-4.2,5.3-4.7,5.3c-1.4,0-4.8-0.6-4.8-5.9l-0.1-3.7c0-6.1-3.9-8.8-7.8-8.8
		c-1.9,0-4.3,1.2-5.8,2.8c-1.5-1.6-3.8-2.6-6-2.6c-1.8,0-7.8,0.7-7.8,9.2v10.7c0,1,0.8,1.8,1.8,1.8s1.8-0.8,1.8-1.8V35.3
		c0-3.7,1.4-5.6,4.1-5.6c2.1,0,4.2,1.8,4.2,4.8v11.5c0,1,0.8,1.8,1.8,1.8c1,0,1.8-0.8,1.8-1.8V34.4c0-3.1,2.2-4.8,4.2-4.8
		c1.2,0,4.1,0.5,4.1,4.8l0.1,3.9c0,7.1,4.5,9.6,8.4,9.6c3.3,0,8.2-2.4,8.3-9V28.7C52.3,26.3,48.8,26.3,48.8,28.7z"/>
	<linearGradient id="SVGID_3_" gradientUnits="userSpaceOnUse" x1="43.9678" y1="12.5161" x2="43.9678" y2="19.3878">
		<stop  offset="0" style="stop-color:#64D5F2;stop-opacity:0.2"/>
		<stop  offset="1" style="stop-color:#34ACE0;stop-opacity:0"/>
	</linearGradient>
	<path class="st6" d="M37.4,24.8c0.9,0,1.8-0.7,1.8-2c0-2.4,1.8-5,4.8-5c3,0,4.8,2.5,4.8,5c0,0.7,0.3,1.2,0.6,1.4c1,0.9,3,0.5,3-1.4
		c0-4.9-3.6-8.6-8.4-8.6c-4.7,0-8.4,3.8-8.4,8.6c0,0.8,0.3,1.2,0.5,1.5C36.5,24.6,36.9,24.8,37.4,24.8z"/>
	<linearGradient id="SVGID_4_" gradientUnits="userSpaceOnUse" x1="44.1831" y1="19.3871" x2="44.1831" y2="24.273">
		<stop  offset="0" style="stop-color:#64D5F2;stop-opacity:0.2"/>
		<stop  offset="1" style="stop-color:#34ACE0;stop-opacity:0"/>
	</linearGradient>
	<path class="st7" d="M42,22.9c0,1.2,1,2.2,2.2,2.2c1.2,0,2.2-1,2.2-2.2s-1-2.2-2.2-2.2C42.9,20.6,42,21.6,42,22.9z"/>
</g>
</svg>
