<?xml version="1.0" encoding="utf-8"?>
<!-- Generator: Adobe Illustrator 23.0.2, SVG Export Plug-In . SVG Version: 6.00 Build 0)  -->
<svg version="1.1" id="Layer_1" xmlns="http://www.w3.org/2000/svg" xmlns:xlink="http://www.w3.org/1999/xlink" x="0px" y="0px"
	 viewBox="0 0 64 64" style="enable-background:new 0 0 64 64;" xml:space="preserve">
<style type="text/css">
	.st0{fill:url(#SVGID_1_);}
	.st1{fill:#FFFFFF;}
</style>
<radialGradient id="SVGID_1_" cx="32.3548" cy="5.2581" r="70.9862" gradientUnits="userSpaceOnUse">
	<stop  offset="0" style="stop-color:#319FD5"/>
	<stop  offset="1" style="stop-color:#2C69C0"/>
</radialGradient>
<path class="st0" d="M61.1,24.4c-0.1-0.3-0.1-0.6-0.2-0.9c-0.2-0.6-0.3-1.1-0.5-1.7c-0.4-1.2-0.9-2.3-1.5-3.4
	c-0.2-0.5-0.5-1-0.8-1.4c-1.3-2.2-2.9-4.3-4.9-6.2c-4.6-4.6-10-7.4-16.1-8.4c-1-0.2-2.1-0.3-3.2-0.3C33.3,2,32.7,2,32,2
	c-0.6,0-1.2,0-1.8,0c-7.5,0.4-14,3.3-19.4,8.7C4.9,16.6,2,23.7,2,32c0,8.3,2.9,15.4,8.8,21.2c5.4,5.4,11.9,8.3,19.4,8.7h0
	c0.5,0,1.1,0,1.6,0H32c0.7,0,1.3,0,1.9-0.1c0.2,0,0.3,0,0.4,0c1.3-0.1,2.5-0.3,3.7-0.5c0.5-0.1,1-0.2,1.5-0.3
	c5.1-1.3,9.7-3.9,13.6-7.9c3.1-3.1,5.4-6.5,6.8-10.3c1.2-3,1.8-6.3,1.9-9.8c0-0.4,0-0.8,0-1.2v-0.2C62,29.2,61.7,26.8,61.1,24.4
	L61.1,24.4z"/>
<g>
	<path class="st1" d="M25.9,28.6c-1.2-1.6-3.4-2.7-5.6-2.7c-3.5,0-6.8,2.2-6.8,8.1v9.9c0,0.7,0.5,1.2,1.2,1.2c0.7,0,1.2-0.5,1.2-1.2
		V34c0-4.5,2.2-5.7,4.3-5.7s4.4,1.8,4.4,4.9v10.7c0,0.7,0.5,1.2,1.2,1.2h0h0c0.7,0,1.2-0.5,1.2-1.2V33.2c0-3.1,2.2-4.9,4.4-4.9
		c1.4,0,4.3,0.6,4.3,4.9l0.1,3.6c0,6.7,4.5,8.4,7.3,8.4s7.1-2,7.2-7.9v-9.4c0-1.6-2.4-1.6-2.4,0v9.4c0,4.5-3.3,5.4-4.8,5.4
		s-4.9-0.7-4.9-5.9l-0.1-3.4c0-5.1-3.2-7.7-6.8-7.7C29.4,25.7,27.1,27,25.9,28.6z"/>
	<path class="st1" d="M38.1,22.4c0-2.4,1.8-5.1,4.9-5.1c3.1,0,4.9,2.6,4.9,5.1c0,1.8,2.4,1.8,2.4,0c0-4.3-3.2-7.5-7.3-7.5
		c-4.1,0-7.3,3.3-7.3,7.5C35.7,24.3,38.1,24.3,38.1,22.4z"/>
	<path class="st1" d="M44.8,22.5c0-0.9-0.7-1.6-1.6-1.6c-0.9,0-1.6,0.7-1.6,1.6c0,0.9,0.7,1.6,1.6,1.6
		C44.1,24.1,44.8,23.4,44.8,22.5z"/>
</g>
</svg>
