<?xml version="1.0" encoding="utf-8"?>
<!-- Generator: Adobe Illustrator 25.2.0, SVG Export Plug-In . SVG Version: 6.00 Build 0)  -->
<svg version="1.1" xmlns="http://www.w3.org/2000/svg" xmlns:xlink="http://www.w3.org/1999/xlink" x="0px" y="0px"
	 viewBox="0 0 64 64" style="enable-background:new 0 0 64 64;" xml:space="preserve">
<style type="text/css">
	.st0{fill:url(#SVGID_1_);}
	.st1{fill:#FFFFFF;stroke:#FFFFFF;stroke-miterlimit:10;}
</style>
<g id="Background">
	<radialGradient id="SVGID_1_" cx="32.2258" cy="0.3548" r="74.0655" gradientUnits="userSpaceOnUse">
		<stop  offset="0" style="stop-color:#319FD5"/>
		<stop  offset="0.2787" style="stop-color:#319BD4"/>
		<stop  offset="0.5454" style="stop-color:#3090CF"/>
		<stop  offset="0.8064" style="stop-color:#2E7CC8"/>
		<stop  offset="1" style="stop-color:#2C69C0"/>
	</radialGradient>
	<path class="st0" d="M50,63H14C6.8,63,1,57.2,1,50V14C1,6.8,6.8,1,14,1h36c7.2,0,13,5.8,13,13v36C63,57.2,57.2,63,50,63z"/>
</g>
<g id="Icon">
	<g>
		<path class="st1" d="M25.5,30.4c-1.3-1.7-3.7-2.9-6-2.9c-3.8,0-7.3,2.4-7.3,8.7v10.7c0,0.8,0.5,1.3,1.3,1.3s1.3-0.5,1.3-1.3V36.3
			c0-4.9,2.4-6.1,4.6-6.1s4.7,1.9,4.7,5.3v11.5c0,0.8,0.5,1.3,1.3,1.3l0,0l0,0c0.8,0,1.3-0.5,1.3-1.3V35.4c0-3.3,2.4-5.3,4.7-5.3
			c1.5,0,4.6,0.6,4.6,5.3l0.1,3.9c0,7.2,4.9,9.1,7.9,9.1s7.7-2.2,7.8-8.5V29.7c0-1.7-2.6-1.7-2.6,0v10.1c0,4.9-3.6,5.8-5.2,5.8
			s-5.3-0.8-5.3-6.4l-0.1-3.7c0-5.5-3.5-8.3-7.3-8.3C29.3,27.3,26.8,28.7,25.5,30.4z"/>
		<path class="st1" d="M38.7,23.8c0-2.6,1.9-5.5,5.3-5.5c3.3,0,5.3,2.8,5.3,5.5c0,1.9,2.6,1.9,2.6,0c0-4.6-3.5-8.1-7.9-8.1
			s-7.9,3.6-7.9,8.1C36.1,25.8,38.7,25.8,38.7,23.8z"/>
		<path class="st1" d="M45.9,23.9c0-1-0.8-1.7-1.7-1.7c-1,0-1.7,0.8-1.7,1.7s0.8,1.7,1.7,1.7C45.2,25.6,45.9,24.8,45.9,23.9z"/>
	</g>
</g>
</svg>
