<?xml version="1.0" encoding="utf-8"?>
<!-- Generator: Adobe Illustrator 25.2.0, SVG Export Plug-In . SVG Version: 6.00 Build 0)  -->
<svg version="1.1" id="Layer_1" xmlns="http://www.w3.org/2000/svg" xmlns:xlink="http://www.w3.org/1999/xlink" x="0px" y="0px"
	 viewBox="0 0 64 64" style="enable-background:new 0 0 64 64;" xml:space="preserve">
<style type="text/css">
	.st0{fill:url(#SVGID_1_);}
	.st1{opacity:0.5;}
	.st2{opacity:0.1;}
	.st3{opacity:0.2;}
	.st4{fill:#FFFFFF;stroke:#FFFFFF;stroke-miterlimit:10;}
	.st5{fill:url(#SVGID_2_);}
	.st6{fill:url(#SVGID_3_);}
	.st7{fill:url(#SVGID_4_);}
</style>
<g id="Background">
	
		<linearGradient id="SVGID_1_" gradientUnits="userSpaceOnUse" x1="101.4839" y1="18.1742" x2="101.4839" y2="-45.3521" gradientTransform="matrix(1 0 0 -1 0 66)">
		<stop  offset="2.640510e-02" style="stop-color:#64D5F2"/>
		<stop  offset="6.804769e-02" style="stop-color:#51C5EB"/>
		<stop  offset="0.1239" style="stop-color:#3EB5E4"/>
		<stop  offset="0.1625" style="stop-color:#37AFE2"/>
		<stop  offset="0.8017" style="stop-color:#1C93D2"/>
		<stop  offset="0.8673" style="stop-color:#188CD0"/>
		<stop  offset="0.9632" style="stop-color:#0F78CC"/>
		<stop  offset="1" style="stop-color:#0A6FCA"/>
	</linearGradient>
	<path class="st0" d="M119.5,110.6h-36c-7.2,0-13-5.8-13-13v-36c0-7.2,5.8-13,13-13h36c7.2,0,13,5.8,13,13v36
		C132.5,104.8,126.7,110.6,119.5,110.6z"/>
</g>
<g id="Shadow">
	<g class="st1">
		<g class="st2">
			<path d="M120,75.8c-1.1,0-2.3,0.8-2.3,2.2v10.1c0,4.7-3.7,4.8-4.2,4.8c-1.3,0-4.3-0.5-4.3-5.4l-0.1-3.6c0-6.4-4.2-9.3-8.3-9.3
				c-1.9,0-4.2,1-5.8,2.6c-1.6-1.5-3.8-2.4-6-2.4c-2,0-8.3,0.7-8.3,9.7v10.7c0,1.3,1,2.3,2.3,2.3c1.3,0,2.3-1,2.3-2.3V84.6
				c0-2.3,0.6-5.1,3.6-5.1c1.8,0,3.7,1.6,3.7,4.3v11.5c0,1.3,1,2.3,2.3,2.3c1.3,0,2.3-1,2.3-2.3V83.7c0-2.8,1.9-4.3,3.7-4.3
				c1.7,0,3.6,0.7,3.6,4.3l0.1,3.9c0,7.4,4.8,10.1,8.9,10.1c3.5,0,8.6-2.5,8.8-9.5V78C122.3,76.6,121.2,75.8,120,75.8z"/>
			<path d="M106.9,74.6c1.1,0,2.3-0.9,2.3-2.5c0-2.2,1.6-4.5,4.3-4.5c2.7,0,4.3,2.3,4.3,4.5c0,0.9,0.4,1.5,0.7,1.8
				c0.6,0.6,1.6,0.8,2.5,0.5c0.9-0.4,1.4-1.2,1.4-2.2c0-5.2-3.8-9.1-8.9-9.1c-5,0-8.9,4-8.9,9.1c0,0.9,0.4,1.5,0.7,1.8
				C105.7,74.4,106.3,74.6,106.9,74.6z"/>
			<path d="M111,72.2c0,1.5,1.2,2.7,2.7,2.7s2.7-1.2,2.7-2.7s-1.2-2.7-2.7-2.7S111,70.7,111,72.2z"/>
		</g>
		<g class="st2">
			<path d="M118,77.5v10.1c0,4.9-4,5.1-4.4,5.1c-1.4,0-4.5-0.5-4.5-5.6l-0.1-3.6c0-6.3-4.1-9.1-8.1-9.1c-1.9,0-4.3,1.1-5.8,2.7
				c-1.6-1.5-3.9-2.5-6.1-2.5c-1.9,0-8.1,0.7-8.1,9.5v10.7c0,1.2,0.9,2,2,2c1.1,0,2-0.9,2-2V84.1c0-2.5,0.7-5.4,3.9-5.4
				c2,0,4,1.7,4,4.5v11.5c0,1.2,0.9,2,2,2c1.2,0,2-0.9,2-2V83.2c0-2.9,2.1-4.5,4-4.5c1.5,0,3.9,0.6,3.9,4.6l0.1,3.9
				c0,7.2,4.6,9.8,8.6,9.8c3.4,0,8.4-2.5,8.5-9.3V77.5C122.1,74.9,118,74.9,118,77.5z"/>
			<path d="M106.9,73.9c1,0,2-0.8,2-2.3c0-2.3,1.7-4.7,4.5-4.7c2.8,0,4.5,2.4,4.5,4.7c0,0.8,0.3,1.3,0.6,1.6
				c0.6,0.6,1.4,0.7,2.2,0.4c0.8-0.3,1.2-1.1,1.2-2c0-5-3.7-8.8-8.6-8.8c-4.8,0-8.6,3.9-8.6,8.8c0,0.8,0.3,1.4,0.6,1.7
				C105.8,73.7,106.3,73.9,106.9,73.9z"/>
			<path d="M111.2,71.7c0,1.4,1.1,2.5,2.5,2.5s2.5-1.1,2.5-2.5c0-1.4-1.1-2.5-2.5-2.5S111.2,70.3,111.2,71.7z"/>
		</g>
		<g class="st3">
			<path d="M118.3,77v10.1c0,5.2-4.2,5.3-4.7,5.3c-1.4,0-4.8-0.6-4.8-5.9l-0.1-3.7c0-6.1-3.9-8.8-7.8-8.8c-1.9,0-4.3,1.2-5.8,2.8
				c-1.5-1.6-3.8-2.6-6-2.6c-1.8,0-7.8,0.7-7.8,9.2v10.7c0,1,0.8,1.8,1.8,1.8s1.8-0.8,1.8-1.8V83.6c0-3.7,1.4-5.6,4.1-5.6
				c2.1,0,4.2,1.8,4.2,4.8v11.5c0,1,0.8,1.8,1.8,1.8s1.8-0.8,1.8-1.8V82.7c0-3.1,2.2-4.8,4.2-4.8c1.2,0,4.1,0.5,4.1,4.8l0.1,3.9
				c0,7.1,4.5,9.6,8.4,9.6c3.3,0,8.2-2.4,8.3-9V77C121.8,74.7,118.3,74.7,118.3,77z"/>
			<path d="M106.9,73.1c0.9,0,1.8-0.7,1.8-2c0-2.4,1.8-5,4.8-5s4.8,2.5,4.8,5c0,0.7,0.3,1.2,0.6,1.4c1,0.9,3,0.5,3-1.4
				c0-4.9-3.6-8.6-8.4-8.6c-4.7,0-8.4,3.8-8.4,8.6c0,0.8,0.3,1.2,0.5,1.5C106,72.9,106.4,73.1,106.9,73.1z"/>
			<path d="M111.5,71.2c0,1.2,1,2.2,2.2,2.2c1.2,0,2.2-1,2.2-2.2c0-1.2-1-2.2-2.2-2.2C112.4,69,111.5,70,111.5,71.2z"/>
		</g>
	</g>
</g>
<g id="Icon">
	<g>
		<path class="st4" d="M95,77c-1.3-1.7-3.7-2.9-6-2.9c-3.8,0-7.3,2.4-7.3,8.7v10.7c0,0.8,0.5,1.3,1.3,1.3s1.3-0.5,1.3-1.3V82.9
			c0-4.9,2.4-6.1,4.6-6.1c2.2,0,4.7,1.9,4.7,5.3v11.5c0,0.8,0.5,1.3,1.3,1.3l0,0l0,0c0.8,0,1.3-0.5,1.3-1.3V82
			c0-3.3,2.4-5.3,4.7-5.3c1.5,0,4.6,0.6,4.6,5.3l0.1,3.9c0,7.2,4.9,9.1,7.9,9.1s7.7-2.2,7.8-8.5V76.3c0-1.7-2.6-1.7-2.6,0v10.1
			c0,4.9-3.6,5.8-5.2,5.8c-1.6,0-5.3-0.8-5.3-6.4l-0.1-3.7c0-5.5-3.5-8.3-7.3-8.3C98.8,73.9,96.3,75.3,95,77z"/>
		<path class="st4" d="M108.2,70.4c0-2.6,1.9-5.5,5.3-5.5c3.3,0,5.3,2.8,5.3,5.5c0,1.9,2.6,1.9,2.6,0c0-4.6-3.5-8.1-7.9-8.1
			s-7.9,3.6-7.9,8.1C105.6,72.4,108.2,72.4,108.2,70.4z"/>
		<path class="st4" d="M115.4,70.5c0-1-0.8-1.7-1.7-1.7c-1,0-1.7,0.8-1.7,1.7s0.8,1.7,1.7,1.7C114.7,72.2,115.4,71.4,115.4,70.5z"/>
	</g>
</g>
<g id="Glow">
	
		<linearGradient id="SVGID_2_" gradientUnits="userSpaceOnUse" x1="101.5839" y1="-7.6645" x2="101.5839" y2="-12.4104" gradientTransform="matrix(1 0 0 -1 0 66)">
		<stop  offset="0" style="stop-color:#64D5F2;stop-opacity:0.2"/>
		<stop  offset="1" style="stop-color:#34ACE0;stop-opacity:0"/>
	</linearGradient>
	<path class="st5" d="M118.3,76.3v10.1c0,5.2-4.2,5.3-4.7,5.3c-1.4,0-4.8-0.6-4.8-5.9l-0.1-3.7c0-6.1-3.9-8.8-7.8-8.8
		c-1.9,0-4.3,1.2-5.8,2.8c-1.5-1.6-3.8-2.6-6-2.6c-1.8,0-7.8,0.7-7.8,9.2v10.7c0,1,0.8,1.8,1.8,1.8s1.8-0.8,1.8-1.8V82.9
		c0-3.7,1.4-5.6,4.1-5.6c2.1,0,4.2,1.8,4.2,4.8v11.5c0,1,0.8,1.8,1.8,1.8s1.8-0.8,1.8-1.8V82c0-3.1,2.2-4.8,4.2-4.8
		c1.2,0,4.1,0.5,4.1,4.8l0.1,3.9c0,7.1,4.5,9.6,8.4,9.6c3.3,0,8.2-2.4,8.3-9V76.3C121.8,73.9,118.3,73.9,118.3,76.3z"/>
	
		<linearGradient id="SVGID_3_" gradientUnits="userSpaceOnUse" x1="113.4839" y1="5.8839" x2="113.4839" y2="-0.9878" gradientTransform="matrix(1 0 0 -1 0 66)">
		<stop  offset="0" style="stop-color:#64D5F2;stop-opacity:0.2"/>
		<stop  offset="1" style="stop-color:#34ACE0;stop-opacity:0"/>
	</linearGradient>
	<path class="st6" d="M106.9,72.4c0.9,0,1.8-0.7,1.8-2c0-2.4,1.8-5,4.8-5s4.8,2.5,4.8,5c0,0.7,0.3,1.2,0.6,1.4c1,0.9,3,0.5,3-1.4
		c0-4.9-3.6-8.6-8.4-8.6c-4.7,0-8.4,3.8-8.4,8.6c0,0.8,0.3,1.2,0.5,1.5C106,72.2,106.4,72.4,106.9,72.4z"/>
	
		<linearGradient id="SVGID_4_" gradientUnits="userSpaceOnUse" x1="113.6839" y1="-0.9871" x2="113.6839" y2="-5.873" gradientTransform="matrix(1 0 0 -1 0 66)">
		<stop  offset="0" style="stop-color:#64D5F2;stop-opacity:0.2"/>
		<stop  offset="1" style="stop-color:#34ACE0;stop-opacity:0"/>
	</linearGradient>
	<path class="st7" d="M111.5,70.5c0,1.2,1,2.2,2.2,2.2c1.2,0,2.2-1,2.2-2.2c0-1.2-1-2.2-2.2-2.2C112.4,68.2,111.5,69.2,111.5,70.5z"
		/>
</g>
</svg>
