<?xml version="1.0" encoding="utf-8"?>
<!-- Generator: Adobe Illustrator 23.0.2, SVG Export Plug-In . SVG Version: 6.00 Build 0)  -->
<svg version="1.1"
	 id="photoshop" inkscape:version="0.92.4 5da689c313, 2019-01-14" sodipodi:docname="chrome.svg" xmlns:cc="http://creativecommons.org/ns#" xmlns:dc="http://purl.org/dc/elements/1.1/" xmlns:inkscape="http://www.inkscape.org/namespaces/inkscape" xmlns:rdf="http://www.w3.org/1999/02/22-rdf-syntax-ns#" xmlns:sodipodi="http://sodipodi.sourceforge.net/DTD/sodipodi-0.dtd" xmlns:svg="http://www.w3.org/2000/svg"
	 xmlns="http://www.w3.org/2000/svg" xmlns:xlink="http://www.w3.org/1999/xlink" x="0px" y="0px" viewBox="0 0 64 64"
	 style="enable-background:new 0 0 64 64;" xml:space="preserve">
<style type="text/css">
	.st0{display:none;}
	.st1{display:inline;fill:#08C9FF;}
	.st2{opacity:0.17;}
	.st3{opacity:0.36;}
	.st4{fill:url(#SVGID_1_);}
	.st5{fill:#08C9FF;}
	.st6{display:inline;fill:url(#SVGID_2_);}
	.st7{display:inline;fill:url(#SVGID_3_);}
	.st8{display:inline;}
	.st9{fill:#FFFFFF;}
	.st10{fill:url(#SVGID_4_);}
	.st11{fill:none;stroke:#F7914B;stroke-width:3;stroke-linecap:round;stroke-linejoin:round;stroke-miterlimit:10;}
</style>
<g class="st0">
	<path class="st1" d="M20.9,44.3h-4.2V17.5h6.9c5.7,0,9,3.2,9,8.5c0,5.2-4.2,8.9-8,8.9c-1.3,0-2.6,0-3.6,0L20.9,44.3L20.9,44.3z
		 M20.9,21.7v8.9c1,0,2.4,0,3.6,0c1.5,0,3.8-1.9,3.8-4.6c0-2-0.5-4.3-4.8-4.3H20.9z"/>
	<path class="st1" d="M42.4,28.1c1.4,0,3.4,0.4,5.3,1.2v-4.5c-1.9-0.6-3.8-0.9-5.3-0.9c-3.3,0-6.8,2.1-6.8,5.7
		c0,4.1,3.2,5.7,5.3,6.8c2,1.1,2.6,1.5,2.6,2.4c0,1.5-1.3,1.8-2.5,1.8c-2,0-3.9-0.6-5.4-1.4v4.6c1.7,0.6,3.5,1,5.4,1
		c3.2,0,6.7-1.9,6.7-6.1c0-3.6-2.8-5.1-4.9-6.2c-2.2-1.1-3-1.7-3-3.1C39.9,28.7,41.3,28.1,42.4,28.1z"/>
</g>
<g>
	<path class="st2" d="M58.8,10.9H5.2c-2.2,0-4,1.9-4,4.2v43.7c0,2.4,1.8,4.2,4,4.2h53.5c2.2,0,4-1.9,4-4.2V15.2
		C62.7,12.9,61,10.9,58.8,10.9z"/>
	<path class="st3" d="M57.3,61.8H6.7c-2.1,0-3.7-1.7-3.7-3.7v-2.6c0-3.6,2.9-6.6,6.6-6.6h45c3.6,0,6.6,2.9,6.6,6.6v2.6
		C61.1,60.2,59.4,61.8,57.3,61.8z"/>
</g>
<g>
	<g>
		
			<radialGradient id="SVGID_1_" cx="32" cy="34" r="35.5602" gradientTransform="matrix(1 0 0 -1 0 66)" gradientUnits="userSpaceOnUse">
			<stop  offset="0" style="stop-color:#0A1B30"/>
			<stop  offset="1" style="stop-color:#001D26"/>
		</radialGradient>
		<polygon class="st4" points="4.5,59.5 4.5,4.5 59.5,4.5 59.5,59.5 59.5,59.5 		"/>
		<path class="st5" d="M58.1,5.9v52.1H5.9V5.9H58.1 M59.5,3h-55C3.7,3,3,3.7,3,4.5v55C3,60.3,3.7,61,4.5,61h55
			c0.8,0,1.4-0.7,1.4-1.4v-55C61,3.7,60.3,3,59.5,3L59.5,3z"/>
	</g>
	<g>
		<path class="st5" d="M30.7,20.9c-1.6-1.4-3.8-2.1-6.5-2.1h-7.4v26h3.9v-9.5h2.8c2.9,0,5.2-0.8,7-2.4c1.7-1.6,2.6-3.7,2.6-6.2
			C33.1,24.2,32.3,22.3,30.7,20.9z M20.7,22.4h2.9c3.7,0,5.4,1.4,5.4,4.5c0,1.5-0.5,2.7-1.4,3.5c-1,0.8-2.4,1.3-4.3,1.3h-2.6V22.4z"
			/>
		<path class="st5" d="M46.8,37.4c-0.3-0.6-0.6-1.1-1.1-1.5c-0.5-0.4-1-0.8-1.7-1.2c-0.6-0.3-1.4-0.6-2.2-1
			c-0.6-0.2-1.1-0.4-1.6-0.6c-0.4-0.2-0.8-0.4-1.1-0.6c-0.3-0.2-0.5-0.4-0.6-0.7c-0.1-0.2-0.2-0.6-0.2-0.9c0-0.3,0.1-0.5,0.2-0.8
			c0.1-0.2,0.3-0.4,0.6-0.6c0.3-0.2,0.6-0.3,1-0.4c0.4-0.1,0.8-0.2,1.3-0.2c1.6,0,3,0.4,4.3,1.2l0.8,0.5v-4.1l-0.3-0.1
			c-1.3-0.6-2.7-0.8-4.4-0.8c-0.9,0-1.8,0.1-2.7,0.3c-0.9,0.2-1.7,0.6-2.3,1.1C36,27.4,35.4,28,35,28.7c-0.4,0.7-0.6,1.6-0.6,2.5
			c0,0.7,0.1,1.4,0.3,2c0.2,0.6,0.6,1.1,1,1.5c0.4,0.4,1,0.8,1.6,1.2c0.6,0.3,1.3,0.7,2.1,1c0.6,0.2,1.1,0.4,1.6,0.6
			c0.5,0.2,0.9,0.4,1.2,0.6c0.3,0.2,0.6,0.5,0.7,0.7c0.2,0.2,0.2,0.6,0.2,0.9c0,0.9-0.3,2-3.3,2c-1.8,0-3.4-0.5-4.8-1.6l-0.8-0.6
			v4.4l0.3,0.1c1.4,0.7,3.1,1.1,5,1.1c1,0,1.9-0.1,2.8-0.3c0.9-0.2,1.7-0.6,2.4-1c0.7-0.5,1.3-1.1,1.7-1.8c0.4-0.7,0.7-1.6,0.7-2.6
			C47.2,38.7,47.1,38,46.8,37.4z"/>
	</g>
</g>
<g class="st0">
	
		<linearGradient id="SVGID_2_" gradientUnits="userSpaceOnUse" x1="17.9609" y1="1074.652" x2="63.662" y2="1010.1135" gradientTransform="matrix(1 0 0 1 0 -1014)">
		<stop  offset="0" style="stop-color:#FDB15A"/>
		<stop  offset="1" style="stop-color:#F2723C"/>
	</linearGradient>
	<path class="st6" d="M61.4,19.3v38.3c0,2.1-1.7,3.8-3.8,3.8H18.9c-2.1,0-3.8-1.7-3.8-3.8V6.4c0-2.1,1.7-3.8,3.8-3.8h25.7L61.4,19.3
		L61.4,19.3z"/>
	
		<linearGradient id="SVGID_3_" gradientUnits="userSpaceOnUse" x1="41.1323" y1="-968.4747" x2="71.1968" y2="-944.3457" gradientTransform="matrix(1 0 0 -1 0 -948)">
		<stop  offset="0" style="stop-color:#FDB15A"/>
		<stop  offset="1" style="stop-color:#F2723C"/>
	</linearGradient>
	<path class="st7" d="M61.4,19.3H48.1c-1.9,0-3.5-1.6-3.5-3.5V2.6L61.4,19.3z"/>
	<g class="st8">
		<path class="st9" d="M46.7,33.8V25c-3.9,0.5-6.9,3.8-6.9,7.9c0,4.4,3.6,8,8,8c4.1,0,7.4-3,7.9-7h-9V33.8z"/>
		<path class="st9" d="M48.7,25v6.9h6.9C55.2,28.3,52.3,25.4,48.7,25z"/>
	</g>
	<g class="st8">
		<g>
			<rect x="25.5" y="24.9" class="st9" width="8.8" height="2"/>
			<rect x="25.5" y="31.9" class="st9" width="8.8" height="2"/>
			<rect x="25.5" y="38.8" class="st9" width="8.8" height="2"/>
			<rect x="25.5" y="45.8" class="st9" width="29.2" height="2"/>
			<rect x="20.8" y="52.6" class="st9" width="33.9" height="2.1"/>
		</g>
		<rect x="20.8" y="24.9" class="st9" width="2" height="2"/>
		<rect x="20.8" y="31.9" class="st9" width="2" height="2"/>
		<rect x="20.8" y="38.8" class="st9" width="2" height="2"/>
		<rect x="20.8" y="45.7" class="st9" width="2" height="2"/>
		<rect x="20.8" y="52.6" class="st9" width="2" height="2"/>
	</g>
	<g class="st8">
		
			<radialGradient id="SVGID_4_" cx="19.1935" cy="35.871" r="38.6712" gradientTransform="matrix(1 0 0 -1 0 66)" gradientUnits="userSpaceOnUse">
			<stop  offset="0.1508" style="stop-color:#FFFFFF"/>
			<stop  offset="0.3182" style="stop-color:#F4F5F5"/>
			<stop  offset="0.6089" style="stop-color:#D8D8DB"/>
			<stop  offset="0.9862" style="stop-color:#AAABB0"/>
			<stop  offset="0.9944" style="stop-color:#A9AAAF"/>
		</radialGradient>
		<path class="st10" d="M31.6,48.8H7.1c-2.5,0-4.5-2-4.5-4.5V19.8c0-2.5,2-4.5,4.5-4.5h24.5c2.5,0,4.5,2,4.5,4.5v24.5
			C36.1,46.7,34.1,48.8,31.6,48.8z"/>
		<path class="st11" d="M9.2,40.1V32h16.2c0,0,4,0,4-4s-4-4.1-4-4.1H9.2"/>
	</g>
</g>
<text transform="matrix(1 0 0 1 110.3345 25.5202)" style="display:none;fill:#08C9FF;stroke:#08C9FF;stroke-miterlimit:10; font-family:'Ebrima'; font-size:35.707px; letter-spacing:-1;">Ps</text>
</svg>
