<?xml version="1.0" encoding="utf-8"?>
<!-- Generator: Adobe Illustrator 25.2.0, SVG Export Plug-In . SVG Version: 6.00 Build 0)  -->
<svg version="1.1" xmlns="http://www.w3.org/2000/svg" xmlns:xlink="http://www.w3.org/1999/xlink" x="0px" y="0px"
	 viewBox="0 0 64 64" style="enable-background:new 0 0 64 64;" xml:space="preserve">
<style type="text/css">
	.st0{fill:url(#SVGID_1_);}
	.st1{fill:url(#SVGID_2_);}
	.st2{fill:url(#SVGID_3_);}
	.st3{fill:url(#SVGID_4_);}
	.st4{fill:url(#SVGID_5_);}
	.st5{fill:#FFFFFF;}
	.st6{fill:url(#SVGID_6_);}
</style>
<g id="Layer_1">
	<linearGradient id="SVGID_1_" gradientUnits="userSpaceOnUse" x1="5.6355" y1="56.3342" x2="19.1104" y2="44.0625">
		<stop  offset="0" style="stop-color:#37D884"/>
		<stop  offset="1" style="stop-color:#A4E36D"/>
	</linearGradient>
	<path class="st0" d="M26.2,63H14C6.8,63,1,57.2,1,50V35.2l8.6-0.6l2.1-0.2l0.6,16.1h12.5l0.2,1.4L26.2,63z"/>
	<linearGradient id="SVGID_2_" gradientUnits="userSpaceOnUse" x1="44.025" y1="3.7136" x2="41.4755" y2="10.8287">
		<stop  offset="0" style="stop-color:#A9E46C"/>
		<stop  offset="1" style="stop-color:#8EE172"/>
	</linearGradient>
	<path class="st1" d="M56.8,2.9l-3.3,11.2L33.7,9.4L29,8.5L40.4,1H50C52.5,1,54.8,1.7,56.8,2.9z"/>
	<linearGradient id="SVGID_3_" gradientUnits="userSpaceOnUse" x1="1.6895" y1="25.402" x2="33.0136" y2="-6.1542">
		<stop  offset="0" style="stop-color:#24D788"/>
		<stop  offset="1" style="stop-color:#1ED495"/>
	</linearGradient>
	<path class="st2" d="M41.7,1l-8,8.4L9.6,34.6l-8.6,9V14C1,6.8,6.8,1,14,1H41.7z"/>
	<linearGradient id="SVGID_4_" gradientUnits="userSpaceOnUse" x1="50.3566" y1="27.819" x2="62.4627" y2="12.0138">
		<stop  offset="0" style="stop-color:#0DC7DA"/>
		<stop  offset="1" style="stop-color:#07C3F2"/>
	</linearGradient>
	<path class="st3" d="M63,14v13.7l-3.8,3.5l-6.5-2.3l0.8-14.7l3.3-11.2C60.5,5.2,63,9.3,63,14z"/>
	<linearGradient id="SVGID_5_" gradientUnits="userSpaceOnUse" x1="29.2461" y1="64.5985" x2="64.4746" y2="32.5153">
		<stop  offset="0" style="stop-color:#BBE766"/>
		<stop  offset="1" style="stop-color:#FCF84A"/>
	</linearGradient>
	<path class="st4" d="M63,27.7V50c0,7.2-5.8,13-13,13H19.6l-4.1-3.6L18,53l7-1.1l17.4-2.8l10.3-20.3l7.6-4.8L63,27.7z"/>
	<path id="BackThing" d="M45.9,56H28H18c-5.5,0-10-4.5-10-10.1V25.8v-7.7C8,12.5,12.5,8,18.1,8h6.7H46c5.5,0,10,4.5,10,10.1V46
		C56,51.5,51.5,56,45.9,56z"/>
</g>
<g id="Layer_2">
	<g>
		<path class="st5" d="M16.5,46v-2.8h12.2v4.3H18C17.1,47.5,16.5,46.8,16.5,46z"/>
	</g>
	<path class="st5" d="M16.5,18c0-0.9,0.7-1.6,1.6-1.6h4.3c3.5,0,6.6,1.3,6.6,5.4c0,4-3.1,5.7-6.5,5.7h-1.7v5.1h-4.3V18z M22.3,24.1
		c1.7,0,2.5-0.9,2.5-2.3c0-1.4-0.9-2-2.6-2h-1.4v4.3H22.3z"/>
	<path class="st5" d="M31.7,16.4h10.5V20H36v2.5h5.3v3.6H36V29h6.4v3.6H31.7V16.4z"/>
	<linearGradient id="SVGID_6_" gradientUnits="userSpaceOnUse" x1="40.2903" y1="2.4516" x2="40.2903" y2="2.4516">
		<stop  offset="0" style="stop-color:#24D788"/>
		<stop  offset="1" style="stop-color:#1ED495"/>
	</linearGradient>
	<path class="st6" d="M40.3,2.5"/>
</g>
</svg>
