<?xml version="1.0" encoding="utf-8"?>
<!-- Generator: Adobe Illustrator 25.2.0, SVG Export Plug-In . SVG Version: 6.00 Build 0)  -->
<svg version="1.1" id="Layer_1" xmlns="http://www.w3.org/2000/svg" xmlns:xlink="http://www.w3.org/1999/xlink" x="0px" y="0px"
	 viewBox="0 0 64 64" style="enable-background:new 0 0 64 64;" xml:space="preserve">
<style type="text/css">
	.st0{fill:url(#SVGID_1_);}
	.st1{opacity:0.24;}
	.st2{fill:url(#SVGID_2_);}
	.st3{opacity:0.84;}
	.st4{fill:url(#SVGID_3_);}
	.st5{opacity:0.15;enable-background:new    ;}
	.st6{fill:url(#SVGID_4_);}
</style>
<g id="Background">
	
		<linearGradient id="SVGID_1_" gradientUnits="userSpaceOnUse" x1="32" y1="635.3871" x2="32" y2="696.6475" gradientTransform="matrix(1 0 0 1 0 -634)">
		<stop  offset="0" style="stop-color:#323232"/>
		<stop  offset="0.3146" style="stop-color:#2B2B2B"/>
		<stop  offset="0.8341" style="stop-color:#282828"/>
		<stop  offset="0.9668" style="stop-color:#212121"/>
		<stop  offset="1" style="stop-color:#1E1E1E"/>
	</linearGradient>
	<path class="st0" d="M50,63H14C6.8,63,1,57.2,1,50V14C1,6.8,6.8,1,14,1h36c7.2,0,13,5.8,13,13v36C63,57.2,57.2,63,50,63z"/>
</g>
<g id="Layer_2_1_">
	<g id="Background_2_" class="st1">
		
			<radialGradient id="SVGID_2_" cx="32" cy="666" r="46.6613" gradientTransform="matrix(1 0 0 1 0 -634)" gradientUnits="userSpaceOnUse">
			<stop  offset="0" style="stop-color:#4AB428;stop-opacity:0.37"/>
			<stop  offset="0.4665" style="stop-color:#52BC25;stop-opacity:0.8"/>
			<stop  offset="0.545" style="stop-color:#5AC422;stop-opacity:0.6171"/>
			<stop  offset="0.8496" style="stop-color:#71DD1B;stop-opacity:0"/>
		</radialGradient>
		<path class="st2" d="M50,63H14C6.8,63,1,57.2,1,50V14C1,6.8,6.8,1,14,1h36c7.2,0,13,5.8,13,13v36C63,57.2,57.2,63,50,63z"/>
	</g>
</g>
<g id="Background_1_" class="st3">
	
		<linearGradient id="SVGID_3_" gradientUnits="userSpaceOnUse" x1="32" y1="635.3871" x2="32" y2="696.6475" gradientTransform="matrix(1 0 0 1 0 -634)">
		<stop  offset="0" style="stop-color:#323232;stop-opacity:0"/>
		<stop  offset="0.6163" style="stop-color:#2B2B2B;stop-opacity:0"/>
		<stop  offset="0.8136" style="stop-color:#282828;stop-opacity:0.56"/>
		<stop  offset="0.9605" style="stop-color:#212121"/>
		<stop  offset="0.9826" style="stop-color:#1E1E1E"/>
	</linearGradient>
	<path class="st4" d="M50,63H14C6.8,63,1,57.2,1,50V14C1,6.8,6.8,1,14,1h36c7.2,0,13,5.8,13,13v36C63,57.2,57.2,63,50,63z"/>
</g>
<g id="Icon">
	<path id="Shadow_1_" class="st5" d="M32,9C18.8,9,8,19.8,8,33s10.8,24,24,24s24-10.8,24-24S45.2,9,32,9L32,9z M43,43.7
		c-0.5,0.7-1.3,1-2.1,0.5c-5.6-3.4-12.8-4.2-21.1-2.3C19,42,18.2,41.6,18,40.7c-0.2-0.8,0.3-1.6,1.1-1.8c9.2-2.1,17-1.2,23.3,2.7
		C43.2,42,43.4,42.9,43,43.7z M46,37.1c-0.6,0.9-1.7,1.1-2.6,0.6c-6.5-4-16.3-5.1-23.9-2.8c-1,0.3-2-0.3-2.4-1.2
		c-0.3-1,0.3-2,1.2-2.4c8.8-2.7,19.6-1.3,27,3.2C46.2,35.1,46.5,36.2,46,37.1L46,37.1z M46.2,30.2c-7.7-4.6-20.5-5-27.9-2.8
		c-1.1,0.4-2.5-0.3-2.8-1.5c-0.4-1.1,0.3-2.5,1.5-2.8c8.5-2.6,22.6-2.1,31.5,3.2c1,0.7,1.4,2,0.8,3C48.7,30.5,47.2,30.9,46.2,30.2
		L46.2,30.2z"/>
	<path id="Shadow_2_" class="st5" d="M32,10C18.6,10,7.6,20.7,7.6,34s11,24,24.4,24s24.4-10.8,24.4-24S45.4,10,32,10L32,10z
		 M43.2,44.6c-0.5,0.7-1.3,1-2.1,0.5c-5.7-3.4-13-4.2-21.5-2.3c-0.8,0.2-1.6-0.3-1.8-1.1c-0.2-0.8,0.3-1.6,1.1-1.8
		c9.4-2.1,17.3-1.2,23.7,2.7C43.4,42.9,43.6,43.9,43.2,44.6z M46.3,38c-0.6,0.9-1.7,1.1-2.6,0.6c-6.6-4-16.6-5.1-24.3-2.8
		c-1,0.3-2-0.3-2.4-1.2c-0.3-1,0.3-2,1.2-2.4c9-2.7,20-1.3,27.4,3.2C46.5,36,46.8,37.2,46.3,38L46.3,38z M46.5,31.2
		c-7.8-4.6-20.9-5-28.4-2.8c-1.1,0.4-2.5-0.3-2.9-1.5c-0.4-1.1,0.3-2.5,1.5-2.8c8.7-2.6,23-2.1,32.1,3.2c1,0.7,1.4,2,0.8,3
		C49,31.5,47.5,31.9,46.5,31.2L46.5,31.2z"/>
	
		<linearGradient id="SVGID_4_" gradientUnits="userSpaceOnUse" x1="32" y1="641.4814" x2="32" y2="690.1309" gradientTransform="matrix(1 0 0 1 0 -634)">
		<stop  offset="0" style="stop-color:#73DF1A"/>
		<stop  offset="3.538173e-02" style="stop-color:#71DD1B"/>
		<stop  offset="0.3236" style="stop-color:#68D41E"/>
		<stop  offset="0.7203" style="stop-color:#65D11F"/>
		<stop  offset="0.8097" style="stop-color:#61CC20"/>
		<stop  offset="0.913" style="stop-color:#54BE25"/>
		<stop  offset="0.9666" style="stop-color:#4AB428"/>
	</linearGradient>
	<path class="st6" d="M32,8C18.8,8,8,18.8,8,32s10.8,24,24,24s24-10.8,24-24S45.2,8,32,8L32,8z M43,42.7c-0.5,0.7-1.3,1-2.1,0.5
		c-5.6-3.4-12.8-4.2-21.1-2.3c-0.8,0.2-1.6-0.3-1.8-1.1c-0.2-0.8,0.3-1.6,1.1-1.8c9.2-2.1,17-1.2,23.3,2.7C43.2,41,43.4,42,43,42.7z
		 M46,36.1c-0.6,0.9-1.7,1.1-2.6,0.6c-6.5-4-16.3-5.1-23.9-2.8c-1,0.3-2-0.3-2.4-1.2c-0.3-1,0.3-2,1.2-2.4c8.8-2.7,19.6-1.3,27,3.2
		C46.2,34.1,46.5,35.3,46,36.1L46,36.1z M46.2,29.3c-7.7-4.6-20.5-5-27.9-2.8c-1.1,0.4-2.5-0.3-2.8-1.5c-0.4-1.1,0.3-2.5,1.5-2.8
		c8.5-2.6,22.6-2.1,31.5,3.2c1,0.7,1.4,2,0.8,3C48.7,29.6,47.2,30,46.2,29.3L46.2,29.3z"/>
</g>
</svg>
