<?xml version="1.0" encoding="utf-8"?>
<!-- Generator: Adobe Illustrator 25.2.0, SVG Export Plug-In . SVG Version: 6.00 Build 0)  -->
<svg version="1.1" xmlns="http://www.w3.org/2000/svg" xmlns:xlink="http://www.w3.org/1999/xlink" x="0px" y="0px"
	 viewBox="0 0 64 64" style="enable-background:new 0 0 64 64;" xml:space="preserve">
<style type="text/css">
	.st0{fill:url(#SVGID_1_);}
	.st1{display:none;}
	.st2{display:inline;}
	.st3{opacity:0.5;}
	.st4{opacity:0.15;}
	.st5{fill:url(#SVGID_2_);}
</style>
<g id="Background">
	<linearGradient id="SVGID_1_" gradientUnits="userSpaceOnUse" x1="32" y1="1.3871" x2="32" y2="62.6475">
		<stop  offset="0" style="stop-color:#323232"/>
		<stop  offset="0.3146" style="stop-color:#2B2B2B"/>
		<stop  offset="0.8341" style="stop-color:#282828"/>
		<stop  offset="0.9668" style="stop-color:#212121"/>
		<stop  offset="1" style="stop-color:#1E1E1E"/>
	</linearGradient>
	<path class="st0" d="M50,63H14C6.8,63,1,57.2,1,50V14C1,6.8,6.8,1,14,1h36c7.2,0,13,5.8,13,13v36C63,57.2,57.2,63,50,63z"/>
</g>
<g id="Guides" class="st1">
	<g class="st2">
		<g class="st3">
			<g>
			</g>
		</g>
	</g>
</g>
<g id="Icon">
	<path id="Shadow_1_" class="st4" d="M32,7.8C18.1,7.8,6.8,19.1,6.8,33c0,13.9,11.3,25.2,25.2,25.2c13.9,0,25.2-11.3,25.2-25.2
		C57.2,19.1,45.9,7.8,32,7.8C32,7.8,32,7.8,32,7.8z M43.6,44.2c-0.5,0.7-1.4,1-2.2,0.5c-5.9-3.6-13.4-4.4-22.2-2.4
		c-0.8,0.2-1.7-0.3-1.9-1.2c-0.2-0.8,0.3-1.7,1.2-1.9C28.2,37,36.4,37.9,43,42C43.8,42.4,44,43.4,43.6,44.2z M46.7,37.3
		c-0.6,0.9-1.8,1.2-2.7,0.6c-6.8-4.2-17.1-5.4-25.1-2.9c-1,0.3-2.1-0.3-2.5-1.3c-0.3-1,0.3-2.1,1.3-2.5c9.2-2.8,20.6-1.4,28.3,3.4
		C46.9,35.2,47.2,36.4,46.7,37.3L46.7,37.3z M46.9,30.1c-8.1-4.8-21.5-5.3-29.3-2.9c-1.2,0.4-2.6-0.3-2.9-1.6
		c-0.4-1.2,0.3-2.6,1.6-2.9c8.9-2.7,23.7-2.2,33.1,3.4c1.1,0.7,1.5,2.1,0.8,3.2C49.5,30.4,48,30.8,46.9,30.1L46.9,30.1z"/>
	<linearGradient id="SVGID_2_" gradientUnits="userSpaceOnUse" x1="32" y1="6.2047" x2="32" y2="57.2882">
		<stop  offset="0" style="stop-color:#73DF1A"/>
		<stop  offset="3.538173e-02" style="stop-color:#71DD1B"/>
		<stop  offset="0.3236" style="stop-color:#68D41E"/>
		<stop  offset="0.7203" style="stop-color:#65D11F"/>
		<stop  offset="0.8097" style="stop-color:#61CC20"/>
		<stop  offset="0.913" style="stop-color:#54BE25"/>
		<stop  offset="0.9666" style="stop-color:#4AB428"/>
	</linearGradient>
	<path class="st5" d="M32,6.8C18.1,6.8,6.8,18.1,6.8,32c0,13.9,11.3,25.2,25.2,25.2c13.9,0,25.2-11.3,25.2-25.2
		C57.2,18.1,45.9,6.8,32,6.8C32,6.8,32,6.8,32,6.8z M43.6,43.2c-0.5,0.7-1.4,1-2.2,0.5c-5.9-3.6-13.4-4.4-22.2-2.4
		c-0.8,0.2-1.7-0.3-1.9-1.2c-0.2-0.8,0.3-1.7,1.2-1.9C28.2,36,36.4,36.9,43,41C43.8,41.4,44,42.4,43.6,43.2z M46.7,36.3
		c-0.6,0.9-1.8,1.2-2.7,0.6c-6.8-4.2-17.1-5.4-25.1-2.9c-1,0.3-2.1-0.3-2.5-1.3c-0.3-1,0.3-2.1,1.3-2.5c9.2-2.8,20.6-1.4,28.3,3.4
		C46.9,34.2,47.2,35.4,46.7,36.3L46.7,36.3z M46.9,29.1c-8.1-4.8-21.5-5.3-29.3-2.9c-1.2,0.4-2.6-0.3-2.9-1.6
		c-0.4-1.2,0.3-2.6,1.6-2.9c8.9-2.7,23.7-2.2,33.1,3.4c1.1,0.7,1.5,2.1,0.8,3.2C49.5,29.4,48,29.8,46.9,29.1L46.9,29.1z"/>
</g>
</svg>
