<?xml version="1.0" encoding="utf-8"?>
<!-- Generator: Adobe Illustrator 25.2.0, SVG Export Plug-In . SVG Version: 6.00 Build 0)  -->
<svg version="1.1" xmlns="http://www.w3.org/2000/svg" xmlns:xlink="http://www.w3.org/1999/xlink" x="0px" y="0px"
	 viewBox="0 0 64 64" style="enable-background:new 0 0 64 64;" xml:space="preserve">
<style type="text/css">
	.st0{fill:url(#SVGID_1_);}
	.st1{display:none;}
	.st2{display:inline;}
	.st3{opacity:0.5;}
	.st4{opacity:0.15;}
	.st5{fill:#C8DAEA;}
	.st6{fill:#A9C9DD;}
	.st7{fill:url(#SVGID_2_);}
</style>
<g id="Background">
	<linearGradient id="SVGID_1_" gradientUnits="userSpaceOnUse" x1="32" y1="0.2258" x2="32" y2="63.7521">
		<stop  offset="4.062323e-02" style="stop-color:#37AFE2"/>
		<stop  offset="0.378" style="stop-color:#33ABE0"/>
		<stop  offset="0.7322" style="stop-color:#279ED8"/>
		<stop  offset="0.9587" style="stop-color:#1B92D1"/>
	</linearGradient>
	<path class="st0" d="M50,63H14C6.8,63,1,57.2,1,50V14C1,6.8,6.8,1,14,1h36c7.2,0,13,5.8,13,13v36C63,57.2,57.2,63,50,63z"/>
</g>
<g id="Guides" class="st1">
	<g class="st2">
		<g class="st3">
			<g>
			</g>
		</g>
	</g>
</g>
<g id="Icon">
	<path class="st4" d="M46.2,17.5L10.4,31.3C8,32.3,8,33.6,10,34.2l9,2.8l3.2,10.3c0.4,1.2,0.2,1.6,1.4,1.6c0.9,0,1.3-0.4,1.8-0.9
		l4.5-4.3l9.3,6.9c1.7,0.9,2.9,0.4,3.4-1.6l6.1-28.7C49.3,17.8,47.8,16.7,46.2,17.5z"/>
	<g>
		<path class="st5" d="M23.6,48c-1.2,0-1-0.4-1.4-1.6l-3.6-11.6l27.1-16.2"/>
		<path class="st6" d="M23.6,48c0.9,0,1.3-0.4,1.8-0.9l5-4.8l-6.1-3.8"/>
		
			<linearGradient id="SVGID_2_" gradientUnits="userSpaceOnUse" x1="3080.7307" y1="3539.583" x2="3108.991" y2="3593.5105" gradientTransform="matrix(0.273 0 0 0.229 -807.8985 -778.5149)">
			<stop  offset="0" style="stop-color:#EFF7FC"/>
			<stop  offset="1" style="stop-color:#FFFFFF"/>
		</linearGradient>
		<path class="st7" d="M24.3,38.6l14.9,11.1c1.7,0.9,2.9,0.4,3.4-1.6l6.1-28.7c0.6-2.5-0.9-3.7-2.5-2.8L10.4,30.4
			C8,31.4,8,32.7,10,33.3l9.1,2.8l21.1-13.4c1-0.6,1.9-0.3,1.1,0.4"/>
	</g>
</g>
</svg>
