<?xml version="1.0" encoding="utf-8"?>
<!-- Generator: Adobe Illustrator 25.2.0, SVG Export Plug-In . SVG Version: 6.00 Build 0)  -->
<svg version="1.1" xmlns="http://www.w3.org/2000/svg" xmlns:xlink="http://www.w3.org/1999/xlink" x="0px" y="0px"
	 viewBox="0 0 64 64" style="enable-background:new 0 0 64 64;" xml:space="preserve">
<style type="text/css">
	.st0{display:none;}
	.st1{display:inline;}
	.st2{opacity:0.1;}
	.st3{fill:url(#SVGID_1_);}
	.st4{opacity:0.5;}
	.st5{display:none;opacity:0.15;}
	.st6{fill:url(#SVGID_2_);}
	.st7{fill:url(#SVGID_3_);}
	.st8{fill:url(#SVGID_4_);}
	.st9{opacity:0.39;fill:url(#SVGID_5_);}
</style>
<g id="Layer_5" class="st0">
	<g class="st1">
		<path class="st2" d="M50.5,17.2c-0.8-0.6-1.9-0.7-3-0.2L11.7,30.8c-2.1,0.9-2.5,2-2.5,2.7c0,0.6,0.4,1.6,2.2,2.1l8.5,2.7l3,9.8
			c0.5,1.4,0.9,2.1,2.2,2.3l0.1,0c1.3,0,2-0.6,2.5-1.2l3.9-3.8l8.6,6.4l0.1,0.1c0.7,0.4,1.4,0.6,2,0.6c0.4,0,0.8-0.1,1.1-0.2
			c0.9-0.4,1.5-1.3,1.7-2.6L51.4,21C51.8,19.3,51.5,17.9,50.5,17.2z"/>
		<path class="st2" d="M50.4,16.9c-0.7-0.6-1.8-0.6-2.8-0.2L11.8,30.5c-2,0.8-2.4,1.8-2.3,2.5c0,0.5,0.3,1.4,2,1.9l8.7,2.7l3.1,9.9
			c0.4,1.3,0.9,2,2,2.1l0.1,0c1.2,0,1.8-0.6,2.3-1.1l4.1-3.9l8.8,6.5l0.1,0.1c0.7,0.4,1.3,0.5,1.8,0.5c0.4,0,0.7-0.1,1-0.2
			c0.8-0.4,1.3-1.2,1.6-2.4l6.1-28.6C51.5,18.9,51.3,17.6,50.4,16.9z"/>
		<path class="st2" d="M50.2,16.6c-0.7-0.5-1.6-0.6-2.5-0.1L11.9,30.2c-1.9,0.8-2.2,1.6-2.2,2.2c0,0.4,0.3,1.2,1.8,1.7l8.8,2.7
			l3.1,10.1c0.4,1.2,0.8,1.8,1.9,2c1.1,0,1.7-0.5,2.2-1.1l4.2-4.1l9,6.7c0.6,0.3,1.2,0.5,1.7,0.5c0.3,0,0.6-0.1,0.9-0.2
			c0.7-0.3,1.2-1.1,1.4-2.3l6.1-28.6C51.3,18.4,51,17.2,50.2,16.6z"/>
		<path class="st2" d="M50.1,16.2c-0.6-0.5-1.4-0.5-2.2-0.1L12,30c-1.4,0.6-2.1,1.3-2,2c0,0.6,0.6,1.1,1.7,1.4l8.9,2.8l3.1,10.2
			c0.4,1.3,0.8,1.7,1.7,1.8c1,0,1.5-0.5,2-1l4.4-4.2l9.2,6.8c0.6,0.3,1.1,0.5,1.6,0.5c0.3,0,0.6-0.1,0.8-0.2c0.7-0.3,1.1-1,1.3-2.1
			l6.1-28.7C51,17.9,50.8,16.8,50.1,16.2z"/>
		<path class="st2" d="M47.9,15.9L12.1,29.7c-2.4,1-2.4,2.3-0.4,2.9l9,2.8l3.2,10.3c0.4,1.2,0.7,1.5,1.4,1.6l0,0v0
			c0.9,0,1.3-0.4,1.8-0.9l4.5-4.3L41,49c1.7,0.9,2.9,0.4,3.4-1.6l6.1-28.7C51.1,16.2,49.5,15.1,47.9,15.9z"/>
	</g>
</g>
<g id="Background">
	<linearGradient id="SVGID_1_" gradientUnits="userSpaceOnUse" x1="32" y1="0.2258" x2="32" y2="63.7521">
		<stop  offset="2.640510e-02" style="stop-color:#64D5F2"/>
		<stop  offset="6.804769e-02" style="stop-color:#51C5EB"/>
		<stop  offset="0.1239" style="stop-color:#3EB5E4"/>
		<stop  offset="0.1625" style="stop-color:#37AFE2"/>
		<stop  offset="0.8017" style="stop-color:#1C93D2"/>
		<stop  offset="0.8673" style="stop-color:#188CD0"/>
		<stop  offset="0.9632" style="stop-color:#0F78CC"/>
		<stop  offset="1" style="stop-color:#0A6FCA"/>
	</linearGradient>
	<path class="st3" d="M50,63H14C6.8,63,1,57.2,1,50V14C1,6.8,6.8,1,14,1h36c7.2,0,13,5.8,13,13v36C63,57.2,57.2,63,50,63z"/>
</g>
<g id="Guides" class="st0">
	<g class="st1">
		<g class="st4">
			<g>
			</g>
		</g>
	</g>
</g>
<g id="Shadow">
	<g class="st4">
		<path class="st2" d="M48.8,19.3c-0.8-0.6-1.9-0.7-3-0.2L10,32.4c-2.1,0.9-2.5,1.9-2.5,2.6c0,0.5,0.4,1.5,2.2,2l8.5,2.5l3,9.4
			c0.5,1.3,0.9,2,2.2,2.2l0.1,0c1.3,0,2-0.6,2.5-1.1l3.9-3.6l8.6,6.1l0.1,0.1c0.7,0.4,1.4,0.5,2,0.5c0.4,0,0.8-0.1,1.1-0.2
			c0.9-0.4,1.5-1.2,1.7-2.5L49.7,23C50.1,21.4,49.8,20,48.8,19.3z"/>
		<path class="st2" d="M48.6,19c-0.7-0.6-1.8-0.6-2.8-0.2L10.1,32.1c-2,0.8-2.4,1.7-2.3,2.4c0,0.5,0.3,1.3,2,1.8l8.7,2.6l3.1,9.5
			c0.4,1.2,0.9,1.9,2,2l0.1,0c1.2,0,1.8-0.6,2.3-1.1l4.1-3.7l8.8,6.2l0.1,0.1c0.7,0.3,1.3,0.5,1.8,0.5c0.4,0,0.7-0.1,1-0.2
			c0.8-0.4,1.3-1.2,1.6-2.3l6.1-27.4C49.8,20.9,49.5,19.7,48.6,19z"/>
		<path class="st2" d="M48.5,18.7c-0.7-0.5-1.6-0.6-2.5-0.1L10.2,31.8C8.3,32.6,8,33.4,8,34c0,0.4,0.3,1.1,1.8,1.6l8.8,2.6l3.1,9.6
			c0.4,1.2,0.8,1.7,1.9,1.9c1.1,0,1.7-0.5,2.2-1l4.2-3.9l9,6.4c0.6,0.3,1.2,0.5,1.7,0.5c0.3,0,0.6-0.1,0.9-0.2
			c0.7-0.3,1.2-1.1,1.4-2.2l6.1-27.4C49.5,20.5,49.3,19.3,48.5,18.7z"/>
		<path class="st2" d="M48.3,18.4c-0.6-0.4-1.4-0.5-2.2-0.1L10.3,31.6c-1.4,0.5-2.1,1.2-2,1.9c0,0.6,0.6,1.1,1.7,1.4l8.9,2.7
			l3.1,9.7c0.4,1.2,0.8,1.6,1.7,1.7c1,0,1.5-0.5,2-0.9l4.4-4l9.2,6.5c0.6,0.3,1.1,0.4,1.6,0.4c0.3,0,0.6-0.1,0.8-0.2
			c0.7-0.3,1.1-1,1.3-2L49,21.3C49.3,20.1,49,19,48.3,18.4z"/>
		<path class="st2" d="M46.2,18.1L10.4,31.3C8,32.3,8,33.6,10,34.1l9,2.7l3.2,9.9c0.4,1.2,0.7,1.5,1.4,1.6l0,0v0
			c0.9,0,1.3-0.4,1.8-0.9l4.5-4.2l9.3,6.6c1.7,0.9,2.9,0.4,3.4-1.6l6.1-27.4C49.3,18.4,47.8,17.3,46.2,18.1z"/>
	</g>
</g>
<g id="Icon">
	<path class="st5" d="M46.2,17.5L10.4,31.3C8,32.3,8,33.6,10,34.2l9,2.8l3.2,10.3c0.4,1.2,0.2,1.6,1.4,1.6c0.9,0,1.3-0.4,1.8-0.9
		l4.5-4.3l9.3,6.9c1.7,0.9,2.9,0.4,3.4-1.6l6.1-28.7C49.3,17.8,47.8,16.7,46.2,17.5z"/>
	<linearGradient id="SVGID_2_" gradientUnits="userSpaceOnUse" x1="31.5056" y1="28.538" x2="38.0217" y2="39.5057">
		<stop  offset="0" style="stop-color:#E0EAF3"/>
		<stop  offset="0.538" style="stop-color:#C8DAEA"/>
	</linearGradient>
	<path class="st6" d="M23.6,48c-0.7-0.1-1-0.4-1.4-1.6l-3.6-11.6l27.1-16.2L23.6,48z"/>
	<linearGradient id="SVGID_3_" gradientUnits="userSpaceOnUse" x1="23.6105" y1="45.5486" x2="27.1912" y2="40.7099">
		<stop  offset="8.597285e-02" style="stop-color:#B3CEE1"/>
		<stop  offset="0.4903" style="stop-color:#ABCADD"/>
		<stop  offset="0.8801" style="stop-color:#9EC5D8"/>
	</linearGradient>
	<path class="st7" d="M23.6,48c0.9,0,1.3-0.4,1.8-0.9l5-4.8l-6.1-3.8L23.6,48z"/>
	<linearGradient id="SVGID_4_" gradientUnits="userSpaceOnUse" x1="26.0618" y1="22.39" x2="41.0296" y2="36.3255">
		<stop  offset="0.21" style="stop-color:#ECF4F8"/>
		<stop  offset="0.5056" style="stop-color:#FEFEFF"/>
		<stop  offset="0.8685" style="stop-color:#ECF4F8"/>
	</linearGradient>
	<path class="st8" d="M24.3,38.6l14.9,11.1c1.7,0.9,2.9,0.4,3.4-1.6l6.1-28.7c0.6-2.5-0.9-3.7-2.5-2.8L10.4,30.4
		C8,31.4,8,32.7,10,33.3l9.1,2.8l21.1-13.4c1-0.6,1.9-0.3,1.1,0.4L24.3,38.6z"/>
	<radialGradient id="SVGID_5_" cx="29.0645" cy="24.4194" r="31.6583" gradientUnits="userSpaceOnUse">
		<stop  offset="0" style="stop-color:#62D3F1;stop-opacity:0"/>
		<stop  offset="1" style="stop-color:#5BCEEF;stop-opacity:0.36"/>
	</radialGradient>
	<path class="st9" d="M46.2,16.5L10.4,30.4C8,31.4,8,32.7,10,33.3l9,2.8l3.2,10.3c0.4,1.2,0.7,1.5,1.4,1.6l0,0v0
		c0.9,0,1.3-0.4,1.8-0.9l4.5-4.3l9.3,6.9c1.7,0.9,2.9,0.4,3.4-1.6l6.1-28.7C49.3,16.8,47.8,15.7,46.2,16.5z"/>
</g>
</svg>
