<?xml version="1.0" encoding="utf-8"?>
<!-- Generator: Adobe Illustrator 25.2.0, SVG Export Plug-In . SVG Version: 6.00 Build 0)  -->
<svg version="1.1" xmlns="http://www.w3.org/2000/svg" xmlns:xlink="http://www.w3.org/1999/xlink" x="0px" y="0px"
	 viewBox="0 0 64 64" style="enable-background:new 0 0 64 64;" xml:space="preserve">
<style type="text/css">
	.st0{fill:url(#SVGID_1_);}
	.st1{display:none;}
	.st2{display:inline;}
	.st3{opacity:0.5;}
	.st4{opacity:0.2;enable-background:new    ;}
	.st5{fill:url(#SVGID_2_);}
</style>
<g id="Background">
	<linearGradient id="SVGID_1_" gradientUnits="userSpaceOnUse" x1="32" y1="-5.1935" x2="32" y2="82.972">
		<stop  offset="1.756226e-02" style="stop-color:#FFDA64"/>
		<stop  offset="6.073178e-02" style="stop-color:#FCB35C"/>
		<stop  offset="0.1149" style="stop-color:#F98A54"/>
		<stop  offset="0.1704" style="stop-color:#F6684E"/>
		<stop  offset="0.2267" style="stop-color:#F54E49"/>
		<stop  offset="0.2841" style="stop-color:#F33B45"/>
		<stop  offset="0.3432" style="stop-color:#F23043"/>
		<stop  offset="0.407" style="stop-color:#F22C42"/>
		<stop  offset="0.486" style="stop-color:#EC2D48"/>
		<stop  offset="0.589" style="stop-color:#DC2E57"/>
		<stop  offset="0.7053" style="stop-color:#C13171"/>
		<stop  offset="0.8304" style="stop-color:#9C3595"/>
		<stop  offset="0.9319" style="stop-color:#7839B7"/>
	</linearGradient>
	<path class="st0" d="M50,63H14C6.8,63,1,57.2,1,50V14C1,6.8,6.8,1,14,1h36c7.2,0,13,5.8,13,13v36C63,57.2,57.2,63,50,63z"/>
</g>
<g id="Guides" class="st1">
	<g class="st2">
		<g class="st3">
			<g>
			</g>
		</g>
	</g>
</g>
<g id="Icon">
	<g id="shadow" transform="matrix(.99609 0 0 .99609 2 2)">
	</g>
	<g transform="matrix(.98599 0 0 .98599 263.13 276.83)">
		<g>
			<path class="st4" d="M-217.2-254.8l-1.6,1.6l-9.4-9.4l1.6-1.6c1.7-1.7,4.5-1.7,6.3,0l3.1,3.1
				C-215.5-259.4-215.5-256.6-217.2-254.8L-217.2-254.8z M-239.2-236c-0.4,0.4-0.4,1.1,0,1.6c0.4,0.4,1.1,0.4,1.6,0l17.2-17.2
				l-1.6-1.6L-239.2-236z M-247-243.9c-0.4,0.4-0.4,1.1,0,1.6c0.4,0.4,1.1,0.4,1.6,0l17.2-17.2l-1.6-1.6L-247-243.9z M-226.6-258
				l-17.2,17.2c-0.9,0.9-0.9,2.3,0,3.1c0.9,0.9,2.3,0.9,3.1,0l17.2-17.2L-226.6-258z M-240.7-232.9c-0.5-0.5-0.8-1.2-0.9-1.9
				c-0.2,0-0.5,0.1-0.7,0.1c-1.2,0-2.3-0.5-3.1-1.3c-0.8-0.8-1.3-1.9-1.3-3.1c0-0.2,0-0.4,0.1-0.6c-0.7-0.1-1.4-0.4-1.9-0.9
				c0,0-0.1-0.1-0.1-0.2l-2.7,10.8l10.8-2.7C-240.6-232.8-240.7-232.9-240.7-232.9L-240.7-232.9z"/>
			
				<linearGradient id="SVGID_2_" gradientUnits="userSpaceOnUse" x1="2818.8545" y1="-4671.6968" x2="2818.8545" y2="-5866.4263" gradientTransform="matrix(6.262287e-02 0 0 -6.262287e-02 -410.1786 -578.6379)">
				<stop  offset="0" style="stop-color:#FFFFFF"/>
				<stop  offset="1" style="stop-color:#D7D7D7"/>
			</linearGradient>
			<path class="st5" d="M-217.2-255.5l-1.6,1.6l-9.4-9.4l1.6-1.6c1.7-1.7,4.5-1.7,6.3,0l3.1,3.1
				C-215.5-260.1-215.5-257.3-217.2-255.5L-217.2-255.5z M-239.2-236.7c-0.4,0.4-0.4,1.1,0,1.6c0.4,0.4,1.1,0.4,1.6,0l17.2-17.2
				l-1.6-1.6L-239.2-236.7z M-247-244.6c-0.4,0.4-0.4,1.1,0,1.6c0.4,0.4,1.1,0.4,1.6,0l17.2-17.2l-1.6-1.6L-247-244.6z
				 M-226.6-258.7l-17.2,17.2c-0.9,0.9-0.9,2.3,0,3.1c0.9,0.9,2.3,0.9,3.1,0l17.2-17.2L-226.6-258.7z M-240.7-233.6
				c-0.5-0.5-0.8-1.2-0.9-1.9c-0.2,0-0.5,0.1-0.7,0.1c-1.2,0-2.3-0.5-3.1-1.3c-0.8-0.8-1.3-1.9-1.3-3.1c0-0.2,0-0.4,0.1-0.6
				c-0.7-0.1-1.4-0.4-1.9-0.9c0,0-0.1-0.1-0.1-0.2l-2.7,10.8l10.8-2.7C-240.6-233.5-240.7-233.6-240.7-233.6L-240.7-233.6z"/>
		</g>
	</g>
</g>
</svg>
