<?xml version="1.0" encoding="utf-8"?>
<!-- Generator: Adobe Illustrator 25.2.0, SVG Export Plug-In . SVG Version: 6.00 Build 0)  -->
<svg version="1.1" xmlns="http://www.w3.org/2000/svg" xmlns:xlink="http://www.w3.org/1999/xlink" x="0px" y="0px"
	 viewBox="0 0 64 64" style="enable-background:new 0 0 64 64;" xml:space="preserve">
<style type="text/css">
	.st0{fill:url(#Background_2_);}
	.st1{opacity:0.1;}
	.st2{fill:url(#Logo_3_);}
</style>
<g id="Background_1_">
	<linearGradient id="Background_2_" gradientUnits="userSpaceOnUse" x1="32" y1="0.2258" x2="32" y2="63.7521">
		<stop  offset="2.640510e-02" style="stop-color:#64D5F2"/>
		<stop  offset="6.804769e-02" style="stop-color:#51C5EB"/>
		<stop  offset="0.1239" style="stop-color:#3EB5E4"/>
		<stop  offset="0.1625" style="stop-color:#37AFE2"/>
		<stop  offset="0.8017" style="stop-color:#1C93D2"/>
		<stop  offset="0.8673" style="stop-color:#188CD0"/>
		<stop  offset="0.9632" style="stop-color:#0F78CC"/>
		<stop  offset="1" style="stop-color:#0A6FCA"/>
	</linearGradient>
	<path id="Background" class="st0" d="M50,63H14C6.8,63,1,57.2,1,50V14C1,6.8,6.8,1,14,1h36c7.2,0,13,5.8,13,13v36
		C63,57.2,57.2,63,50,63z"/>
</g>
<g id="Shadow_1_" image-rendering="optimizeSpeed">
	<path class="st1" d="M54,22.3c-1.2,0.5-2.3,0.9-3.5,1.1c1.3-1,2.3-2.4,2.7-4.1l0.2-0.6l-0.5,0.3c-1.6,0.9-3.2,1.6-5,1.9
		c-1.6-1.7-3.7-2.6-6.1-2.6c-2.6,0-5,1.2-6.7,3.2c-1.6,2-2.2,4.5-1.7,6.9c-6.4-0.4-12.3-3.4-16.5-8.5l-0.2-0.3L16.4,20
		c-2.1,3.6-1.2,8.2,1.9,10.8c-1.1-0.1-2.1-0.5-2.8-0.9l-0.4-0.2l0,0.4c-0.1,3.7,2.3,7,5.8,8.2c-0.9,0.1-1.7,0.1-2.6-0.1L18,38.1
		l0.1,0.4c1.1,3.2,4,5.5,7.3,5.9c-3.3,2.4-7.4,3.4-11.5,2.9l-1.1-0.1l0.9,0.6c3.9,2.5,8.3,3.7,12.8,3.7c8.5,0,13.9-3.9,17-7.1
		c4.5-4.7,7-11.2,6.7-17.6c1.6-1.3,3-2.7,4-4.2l0.5-0.7L54,22.3z"/>
	<path class="st1" d="M54.2,21.5c-1.3,0.6-2.7,1-4.1,1.2c1.5-1,2.6-2.5,3.1-4.3l0.1-0.3l-0.3,0.2c-1.6,1-3.3,1.6-5.1,1.9
		c-1.6-1.7-3.7-2.6-6-2.6c-2.6,0-5,1.2-6.6,3.2c-1.6,2-2.2,4.5-1.6,6.9c-6.5-0.4-12.5-3.4-16.8-8.6L16.9,19l-0.1,0.2
		c-2.1,3.6-1.1,8.3,2.2,10.9c-1.3-0.1-2.5-0.6-3.3-1L15.6,29l0,0.2c-0.1,3.8,2.5,7.2,6.2,8.2c-1.1,0.2-2.1,0.2-3.1,0l-0.2-0.1
		l0.1,0.2c1.1,3.3,4.1,5.6,7.5,5.8c-3.4,2.6-7.6,3.7-11.8,3.1l-0.6-0.1l0.5,0.3c3.8,2.4,8.2,3.7,12.7,3.7c8.4,0,13.8-3.8,16.9-7.1
		c4.5-4.7,6.9-11.2,6.7-17.5c1.7-1.3,3-2.7,4-4.2l0.2-0.4L54.2,21.5z"/>
</g>
<g id="Logo_1_">
	
		<linearGradient id="Logo_3_" gradientUnits="userSpaceOnUse" x1="37.8803" y1="44.5156" x2="7.3711" y2="10.3696" gradientTransform="matrix(1 0 0 -1 0 66)">
		<stop  offset="0" style="stop-color:#FFFFFF"/>
		<stop  offset="0.6" style="stop-color:#EBEBEB"/>
		<stop  offset="1" style="stop-color:#D7D7D7"/>
	</linearGradient>
	<path id="Logo_2_" class="st2" d="M54.1,20.6c-1.5,0.7-3.1,1.1-4.7,1.3c1.7-1,3.1-2.6,3.6-4.6c-1.6,1-3.4,1.6-5.2,2
		c-1.5-1.6-3.6-2.6-6-2.6c-5.3,0-9.3,5-8.1,10.1c-6.9-0.3-12.9-3.6-17-8.6c-2.2,3.7-1.1,8.5,2.5,11c-1.3,0-2.6-0.4-3.7-1
		c-0.1,3.8,2.6,7.4,6.7,8.2c-1.2,0.3-2.4,0.4-3.7,0.1c1.1,3.3,4.1,5.7,7.7,5.8c-3.5,2.7-7.9,3.9-12.2,3.4c3.6,2.3,8,3.7,12.6,3.7
		c15.3,0,24-13,23.4-24.5C51.6,23.6,53,22.2,54.1,20.6z"/>
</g>
</svg>
