<?xml version="1.0" encoding="utf-8"?>
<!-- Generator: Adobe Illustrator 25.2.0, SVG Export Plug-In . SVG Version: 6.00 Build 0)  -->
<svg version="1.1" id="Layer_1" xmlns="http://www.w3.org/2000/svg" xmlns:xlink="http://www.w3.org/1999/xlink" x="0px" y="0px"
	 viewBox="0 0 64 64" style="enable-background:new 0 0 64 64;" xml:space="preserve">
<style type="text/css">
	.st0{fill:url(#SVGID_1_);}
	.st1{fill:url(#SVGID_2_);}
	.st2{opacity:0.1;}
	.st3{opacity:0.25;enable-background:new    ;}
	.st4{fill:url(#SVGID_3_);}
	.st5{fill:url(#SVGID_4_);}
	.st6{display:none;}
	.st7{display:inline;fill:url(#SVGID_5_);}
	.st8{display:inline;fill:url(#SVGID_6_);}
	.st9{display:inline;fill:url(#SVGID_7_);}
	.st10{display:inline;fill:url(#SVGID_8_);}
</style>
<g id="Background">
	
		<linearGradient id="SVGID_1_" gradientUnits="userSpaceOnUse" x1="32" y1="64.871" x2="32" y2="3.3139" gradientTransform="matrix(1 0 0 -1 0 66)">
		<stop  offset="0" style="stop-color:#67F98A"/>
		<stop  offset="6.830994e-02" style="stop-color:#4FED73"/>
		<stop  offset="0.1216" style="stop-color:#41E665"/>
		<stop  offset="0.329" style="stop-color:#3DE266"/>
		<stop  offset="0.5559" style="stop-color:#32D46A"/>
		<stop  offset="0.791" style="stop-color:#20BF70"/>
		<stop  offset="0.8994" style="stop-color:#16B273"/>
		<stop  offset="0.9395" style="stop-color:#13A76E"/>
		<stop  offset="1" style="stop-color:#0B8E63"/>
	</linearGradient>
	<path class="st0" d="M50,63H14C6.8,63,1,57.2,1,50V14C1,6.8,6.8,1,14,1h36c7.2,0,13,5.8,13,13v36C63,57.2,57.2,63,50,63z"/>
</g>
<g id="Layer_4">
	
		<radialGradient id="SVGID_2_" cx="32.4839" cy="34.6129" r="23.5492" gradientTransform="matrix(1 0 0 -1 0 66)" gradientUnits="userSpaceOnUse">
		<stop  offset="0" style="stop-color:#000000;stop-opacity:0.3"/>
		<stop  offset="1" style="stop-color:#000000;stop-opacity:0.1"/>
	</radialGradient>
	<path class="st1" d="M32,10.3L53.7,32L32,53.7L10.3,32L32,10.3z"/>
</g>
<g id="Shadow">
	<g class="st2">
		<polygon points="49.4,18.3 49.3,18.3 49.3,17.3 48.6,16.6 35.6,16.6 34.9,17.3 34.9,18.7 34.9,18.8 34.9,19.7 35.6,20.5 
			37.8,20.5 37.8,20.9 21.9,35.3 21.9,20.5 24.1,20.5 24.8,19.7 24.8,18.3 24.8,18.3 24.8,17.3 24,16.6 12.5,16.6 11.8,17.3 
			11.8,18.7 11.8,18.8 11.8,19.7 12.5,20.5 14.6,20.5 14.6,47.6 14.7,47.7 14.7,48.6 15.4,49.4 17.6,49.4 49.4,19.7 		"/>
		<polygon points="34.7,33.9 33.7,34.6 33.2,36.1 33.2,37.1 33.8,37.8 35.3,37.8 36.4,37.1 36.9,35.6 36.8,34.6 36.3,33.9 		"/>
		<polygon points="33.1,45.5 35.5,39.2 35.5,38.2 31,38.2 30.5,39.7 30.6,40.7 31.5,40.7 29.1,46.9 29.1,47.9 33.5,47.9 34,46.5 
			34,45.5 		"/>
		<polygon points="50.5,45.5 52.2,40.7 52.2,39.7 51.1,38.2 49.3,38.2 47.9,39.7 46.7,39.7 45.4,38.2 44.1,38.2 42.7,39.7 
			41.2,39.7 39.9,38.2 37.2,38.2 36.7,39.7 36.7,40.7 37.4,40.7 35,46.9 35,47.9 38.7,47.9 39.2,46.5 39.2,45.5 38.8,45.5 40,42.1 
			42.7,42.1 40.9,46.9 41,47.9 44.6,47.9 45.2,46.5 45.1,45.5 44.7,45.5 45.9,42.1 48.4,42.1 46.7,46.9 46.8,47.9 50.5,47.9 
			51.2,46.5 51.2,45.5 		"/>
	</g>
	<g class="st2">
		<polygon points="33.5,45.5 35.7,39.6 35.7,38.3 35.5,38.3 36.6,37.5 37.1,36 37.1,34.9 36.4,34 34.8,34 49.5,20.2 49.6,20.1 
			49.6,17.5 48.7,16.6 35.5,16.6 34.6,17.5 34.7,20.1 35.5,21 37.5,21 37.5,21.1 22.1,35.1 22.1,21 24.2,21 25,20.1 25,17.5 
			24.1,16.6 12.4,16.6 11.5,17.5 11.5,20.1 12.4,21 14.4,21 14.4,49 15.3,49.9 17.7,49.9 33.3,35.3 33,36.3 33,37.5 33.6,38.3 
			30.8,38.3 30.3,40 30.3,41.2 31.1,41.2 28.9,47.1 28.8,47.2 28.9,48.5 33.6,48.5 34.2,46.8 34.2,45.5 		"/>
		<polygon points="52.5,41 52.5,39.9 51.2,38.3 49.2,38.3 47.8,39.7 46.8,39.7 45.5,38.3 44,38.3 42.6,39.7 41.4,39.7 40.1,38.3 
			37,38.3 36.4,40 36.5,41.2 37,41.2 34.8,47.2 34.8,48.5 38.9,48.5 39.5,46.8 39.5,45.5 39.1,45.5 40.1,42.7 42.3,42.7 40.7,47.2 
			40.7,48.5 44.8,48.5 45.4,46.8 45.4,45.5 45.1,45.5 46.1,42.7 48.1,42.7 46.5,47.1 46.5,47.2 46.5,48.5 50.7,48.5 51.5,46.8 
			51.4,45.5 50.9,45.5 52.5,41.1 		"/>
	</g>
</g>
<path class="st3" d="M12.5,16.1l-0.7,0.7v1.4l0.7,0.7h2.2v28.2l0.7,0.7h2.2l31.8-29.6v-1.4l-0.7-0.7h-13L35,16.8v1.4l0.7,0.7h2.2
	v1.4l-16,14.6V19H24l0.7-0.7v-1.4L24,16.1H12.5z M34.7,33.4l-1,0.7l-0.5,1.4l0.5,0.7h1.6l1-0.7l0.5-1.4l-0.5-0.7 M31,37.7l-0.4,1.4
	h1.3l-2.7,7.2h4.3L34,45h-1.3l2.7-7.2 M37.2,37.7l-0.5,1.4h1.1L35,46.4h3.7l0.5-1.4h-0.8l1.5-4.3H43l-2.1,5.8h3.6l0.6-1.4h-0.8
	l1.5-4.3h2.9l-2,5.8h3.8l0.7-1.4h-1l2.1-5.8L51.1,38h-1.7L48,39.4h-1.2L45.6,38H44l-1.4,1.4h-1.4L39.9,38"/>
<linearGradient id="SVGID_3_" gradientUnits="userSpaceOnUse" x1="32" y1="39.0645" x2="32" y2="18.5544" gradientTransform="matrix(1 0 0 -1 0 66)">
	<stop  offset="0" style="stop-color:#C4E4DE"/>
	<stop  offset="1" style="stop-color:#C6CAD2"/>
</linearGradient>
<path class="st4" d="M12.5,17.1l-0.7,0.7v1.4l0.7,0.7h2.2v28.2l0.7,0.7h2.2l31.8-29.6v-1.4l-0.7-0.7h-13L35,17.8v1.4l0.7,0.7h2.2
	v1.4l-16,14.6V20h2.2l0.7-0.7v-1.4l-0.7-0.7L12.5,17.1z M34.7,34.4l-1.5,1.2v1l0.5,0.7h1.6l1-0.7l0.5-1.4v-1L34.7,34.4z M30.5,39.2
	v1h1.3l-2.2,5.9l-0.5,0.4v1h4.3L34,46v-1l-1.1,0.5l2.6-6.8v-1 M36.7,39.2v1h1.1l-2.2,5.7L35,46.4v1h3.7l0.5-1.4v-1l-0.6,0.5l1.3-3.8
	H43l-1.5,4.2l-0.6,0.6v1h3.6l0.6-1.4v-1l-0.5,0.2l1.2-3.5h2.9l-1.5,4.3l-0.5,0.5v1h3.8l0.7-1.4v-1l-0.7,0.1l1.7-4.9v-1l-0.6,0.3
	L51,39h-1.7l-1.4,1.4h-1.2L45.5,39h-1.4l-1.4,1.4h-1.4L40,39"/>
<linearGradient id="SVGID_4_" gradientUnits="userSpaceOnUse" x1="32.05" y1="50.5484" x2="32.05" y2="10.8056" gradientTransform="matrix(1 0 0 -1 0 66)">
	<stop  offset="0" style="stop-color:#FBFBFB"/>
	<stop  offset="0.2722" style="stop-color:#F1F7F6"/>
	<stop  offset="0.7321" style="stop-color:#D7ECE8"/>
	<stop  offset="1" style="stop-color:#C4E4DE"/>
</linearGradient>
<path class="st5" d="M12.5,16.1l-0.7,0.7v1.4l0.7,0.7h2.2v28.2l0.7,0.7h2.2l31.8-29.6v-1.4l-0.7-0.7h-13L35,16.8v1.4l0.7,0.7h2.2
	v1.4l-16,14.6V19H24l0.7-0.7v-1.4L24,16.1H12.5z M34.7,33.4l-1,0.7l-0.5,1.4l0.5,0.7h1.6l1-0.7l0.5-1.4l-0.5-0.7 M31,37.7l-0.4,1.4
	h1.3l-2.7,7.2h4.3L34,45h-1.3l2.7-7.2 M37.2,37.7l-0.5,1.4h1.1L35,46.4h3.7l0.5-1.4h-0.8l1.5-4.3H43l-2.1,5.8h3.6l0.6-1.4h-0.8
	l1.5-4.3h2.9l-2,5.8h3.8l0.7-1.4h-1l2.1-5.8L51.1,38h-1.7L48,39.4h-1.2L45.6,38H44l-1.4,1.4h-1.4L39.9,38"/>
<g class="st6">
	
		<radialGradient id="SVGID_5_" cx="31.9677" cy="49" r="42.4926" gradientTransform="matrix(1 0 0 -1 0 66)" gradientUnits="userSpaceOnUse">
		<stop  offset="0" style="stop-color:#45E869;stop-opacity:0"/>
		<stop  offset="1" style="stop-color:#3ADE67;stop-opacity:0.2"/>
	</radialGradient>
	<polygon class="st7" points="49.4,17.8 49.3,17.8 49.3,16.8 48.6,16.1 35.6,16.1 34.9,16.8 34.9,18.2 34.9,18.3 34.9,19.2 35.6,20 
		37.8,20 37.8,20.4 21.9,34.8 21.9,20 24.1,20 24.8,19.2 24.8,17.8 24.8,17.8 24.8,16.8 24,16.1 12.5,16.1 11.8,16.8 11.8,18.2 
		11.8,18.3 11.8,19.2 12.5,20 14.6,20 14.6,47.1 14.7,47.2 14.7,48.1 15.4,48.9 17.6,48.9 49.4,19.2 	"/>
	
		<radialGradient id="SVGID_6_" cx="31.9677" cy="49" r="42.4926" gradientTransform="matrix(1 0 0 -1 0 66)" gradientUnits="userSpaceOnUse">
		<stop  offset="0" style="stop-color:#45E869;stop-opacity:0"/>
		<stop  offset="1" style="stop-color:#3ADE67;stop-opacity:0.2"/>
	</radialGradient>
	<polygon class="st8" points="34.7,33.4 33.7,34.1 33.2,35.6 33.2,36.6 33.8,37.3 35.3,37.3 36.4,36.6 36.9,35.1 36.8,34.1 
		36.3,33.4 	"/>
	
		<radialGradient id="SVGID_7_" cx="31.9677" cy="49" r="42.4926" gradientTransform="matrix(1 0 0 -1 0 66)" gradientUnits="userSpaceOnUse">
		<stop  offset="0" style="stop-color:#45E869;stop-opacity:0"/>
		<stop  offset="1" style="stop-color:#3ADE67;stop-opacity:0.2"/>
	</radialGradient>
	<polygon class="st9" points="33.1,45 35.5,38.7 35.5,37.7 31,37.7 30.5,39.2 30.6,40.2 31.5,40.2 29.1,46.4 29.1,47.4 33.5,47.4 
		34,46 34,45 	"/>
	
		<radialGradient id="SVGID_8_" cx="31.9677" cy="49" r="42.4926" gradientTransform="matrix(1 0 0 -1 0 66)" gradientUnits="userSpaceOnUse">
		<stop  offset="0" style="stop-color:#45E869;stop-opacity:0"/>
		<stop  offset="1" style="stop-color:#3ADE67;stop-opacity:0.2"/>
	</radialGradient>
	<polygon class="st10" points="50.5,45 52.2,40.2 52.2,39.2 51.1,37.7 49.3,37.7 47.9,39.2 46.7,39.2 45.4,37.7 44.1,37.7 
		42.7,39.2 41.2,39.2 39.9,37.7 37.2,37.7 36.7,39.2 36.7,40.2 37.4,40.2 35,46.4 35,47.4 38.7,47.4 39.2,46 39.2,45 38.8,45 
		40,41.6 42.7,41.6 40.9,46.4 41,47.4 44.6,47.4 45.2,46 45.1,45 44.7,45 45.9,41.6 48.4,41.6 46.7,46.4 46.8,47.4 50.5,47.4 
		51.2,46 51.2,45 	"/>
</g>
</svg>
