<?xml version="1.0" encoding="utf-8"?>
<!-- Generator: Adobe Illustrator 25.2.0, SVG Export Plug-In . SVG Version: 6.00 Build 0)  -->
<svg version="1.1" id="Calculator" image-rendering="optimizeSpeed"
	 xmlns="http://www.w3.org/2000/svg" xmlns:xlink="http://www.w3.org/1999/xlink" x="0px" y="0px" viewBox="0 0 64 64"
	 style="enable-background:new 0 0 64 64;" xml:space="preserve">
<style type="text/css">
	.st0{opacity:0.25;enable-background:new    ;}
	.st1{fill:url(#SVGID_1_);}
	.st2{opacity:0.75;fill-rule:evenodd;clip-rule:evenodd;enable-background:new    ;}
	.st3{fill-rule:evenodd;clip-rule:evenodd;fill:url(#SVGID_2_);stroke:url(#SVGID_3_);stroke-width:12;}
	.st4{opacity:0.15;fill-rule:evenodd;clip-rule:evenodd;enable-background:new    ;}
	
		.st5{opacity:0.6;fill-rule:evenodd;clip-rule:evenodd;fill:url(#SVGID_4_);stroke:url(#SVGID_5_);stroke-width:6;enable-background:new    ;}
	.st6{fill-rule:evenodd;clip-rule:evenodd;fill:url(#SVGID_6_);}
	.st7{fill:url(#SVGID_7_);}
	.st8{fill:url(#SVGID_8_);}
	.st9{fill:url(#SVGID_9_);}
	.st10{fill:#FFFFFF;}
	.st11{fill:#FFFFFF;fill-opacity:0.801;}
	.st12{fill:none;stroke:#FFFFFF;stroke-width:3;stroke-linecap:round;stroke-linejoin:round;stroke-miterlimit:10;}
</style>
<circle class="st0" cx="-56.2" cy="-6.1" r="30"/>
<linearGradient id="SVGID_1_" gradientUnits="userSpaceOnUse" x1="1747.4702" y1="-3637.0364" x2="1747.4702" y2="-4657.0361" gradientTransform="matrix(6.945600e-02 0 0 -6.945600e-02 -177.5383 -293.9944)">
	<stop  offset="0" style="stop-color:#141414"/>
	<stop  offset="1" style="stop-color:#565656"/>
</linearGradient>
<circle class="st1" cx="-56.2" cy="-6.1" r="30"/>
<g>
	<path class="st2" d="M-56.9-28.5l-21,11.7l0,0v0l-0.1,0l0.1,0L-78,5.6L-57,17.5v-0.1l21.1-11.9L-36-16.7l0.1,0l-0.1,0v-0.1l-0.1,0
		L-56.9-28.5L-56.9-28.5z"/>
	
		<linearGradient id="SVGID_2_" gradientUnits="userSpaceOnUse" x1="2475.615" y1="-9255.1611" x2="2888.052" y2="-8566.2412" gradientTransform="matrix(3.527200e-02 0 0 -3.387800e-02 -151.2981 -307.8039)">
		<stop  offset="0" style="stop-color:#7CCBEA"/>
		<stop  offset="1" style="stop-color:#00B9FF"/>
	</linearGradient>
	
		<linearGradient id="SVGID_3_" gradientUnits="userSpaceOnUse" x1="-67.5381" y1="54.8948" x2="-46.5381" y2="87.8948" gradientTransform="matrix(1 0 0 -1 0 66)">
		<stop  offset="0" style="stop-color:#00B2ED"/>
		<stop  offset="1" style="stop-color:#009BDB"/>
	</linearGradient>
	<path class="st3" d="M-57-22.5l-15,9v16l15,9l15-9v-16L-57-22.5z"/>
	<path image-rendering="auto" color-rendering="auto" shape-rendering="auto" class="st4" d="M-57-26l-1.5,0.9L-75-15.2V4.2L-57,15
		l18-10.8v-19.4L-57-26z M-57-19l12,7.2V0.8L-57,8l-12-7.2v-12.6L-57-19z"/>
	
		<linearGradient id="SVGID_4_" gradientUnits="userSpaceOnUse" x1="2475.3967" y1="-9248.7061" x2="2872.3167" y2="-8599.2861" gradientTransform="matrix(3.527200e-02 0 0 -3.387800e-02 -151.2981 -307.8039)">
		<stop  offset="0" style="stop-color:#7CCBEA"/>
		<stop  offset="1" style="stop-color:#00B9FF"/>
	</linearGradient>
	
		<linearGradient id="SVGID_5_" gradientUnits="userSpaceOnUse" x1="2319.2473" y1="-5868.9019" x2="2336.2473" y2="-5841.9019" gradientTransform="matrix(4.938000e-02 0 0 -4.742900e-02 -149.8179 -316.9257)">
		<stop  offset="0" style="stop-color:#7CCBEA"/>
		<stop  offset="1" style="stop-color:#00B9FF"/>
	</linearGradient>
	<path class="st5" d="M-57-22.5l-15,9v16l15,9l15-9v-16L-57-22.5z"/>
	<path class="st4" d="M-57-22.5l-15,9v16l15,9l15-9v-16L-57-22.5z"/>
	
		<linearGradient id="SVGID_6_" gradientUnits="userSpaceOnUse" x1="2475.615" y1="-9255.1611" x2="2888.052" y2="-8566.2412" gradientTransform="matrix(3.527200e-02 0 0 -3.387800e-02 -151.2981 -307.8039)">
		<stop  offset="0" style="stop-color:#7CCBEA"/>
		<stop  offset="1" style="stop-color:#00B9FF"/>
	</linearGradient>
	<path class="st6" d="M-57-22.5l-15,9v16l15,9l15-9v-16L-57-22.5z"/>
</g>
<g id="Background">
	
		<linearGradient id="SVGID_7_" gradientUnits="userSpaceOnUse" x1="108.8387" y1="-1206.3871" x2="108.8387" y2="-1267.6475" gradientTransform="matrix(1 0 0 -1 0 -1202)">
		<stop  offset="0" style="stop-color:#FAFAFA"/>
		<stop  offset="0.1574" style="stop-color:#F5F5F5"/>
		<stop  offset="0.4487" style="stop-color:#F0F0F0"/>
		<stop  offset="0.7095" style="stop-color:#ECECEC"/>
		<stop  offset="0.8509" style="stop-color:#E6E6E6"/>
		<stop  offset="0.9055" style="stop-color:#E0E0E0"/>
		<stop  offset="0.982" style="stop-color:#CDCDCD"/>
		<stop  offset="1" style="stop-color:#C8C8C8"/>
	</linearGradient>
	<path class="st7" d="M126.8,66h-36c-7.2,0-13-5.8-13-13V17c0-7.2,5.8-13,13-13h36c7.2,0,13,5.8,13,13v36
		C139.8,60.2,134,66,126.8,66z"/>
</g>
<g id="Background_1_">
	
		<linearGradient id="SVGID_8_" gradientUnits="userSpaceOnUse" x1="32" y1="-1203.3871" x2="32" y2="-1264.6475" gradientTransform="matrix(1 0 0 -1 0 -1202)">
		<stop  offset="0" style="stop-color:#274771"/>
		<stop  offset="1" style="stop-color:#173761"/>
	</linearGradient>
	<path class="st8" d="M50,63H14C6.8,63,1,57.2,1,50V14C1,6.8,6.8,1,14,1h36c7.2,0,13,5.8,13,13v36C63,57.2,57.2,63,50,63z"/>
</g>
<g>
	<g>
		<linearGradient id="SVGID_9_" gradientUnits="userSpaceOnUse" x1="32" y1="58.6629" x2="32" y2="5.3071">
			<stop  offset="0" style="stop-color:#173761"/>
			<stop  offset="1" style="stop-color:#274771"/>
		</linearGradient>
		<path class="st9" d="M14,59c-5,0-9-4-9-9V14c0-5,4-9,9-9h36c5,0,9,4,9,9v36c0,5-4,9-9,9H14z"/>
		<path class="st10" d="M50,6c4.4,0,8,3.6,8,8v36c0,4.4-3.6,8-8,8H14c-4.4,0-8-3.6-8-8V14c0-4.4,3.6-8,8-8H50 M50,4H14
			C8.5,4,4,8.5,4,14v36c0,5.5,4.5,10,10,10h36c5.5,0,10-4.5,10-10V14C60,8.5,55.5,4,50,4L50,4z"/>
	</g>
</g>
<g transform="matrix(.1912 -.0030097 -.05155 .16848 23.448 21.591)">
	<path class="st11" d="M137.1-206.7c0,3.1-2.5,5.6-5.6,5.6l-34.6,0c-2.8,0-5.2-2.1-5.6-4.9l-6.1-43.9L72.8-136.9
		c-0.3,2.7-2.5,4.8-5.2,5c-0.2,0-0.3,0-0.5,0c-2.5,0-4.7-1.7-5.4-4.1l-18.4-65.4L25.3-167c-1.1,2.1-3.4,3.3-5.7,3
		c-2.3-0.3-4.2-2-4.8-4.2L6-203.5l-42.5,0c-3.1,0-5.6-2.5-5.6-5.6c0-3.1,2.5-5.6,5.6-5.6l46.9,0c2.6,0,4.9,1.8,5.5,4.3l6.3,25.2
		L40-219.2c1.1-2.1,3.3-3.3,5.6-3c2.3,0.2,4.2,1.9,4.9,4.1l14.3,51l14.1-129.1c0.3-2.8,2.7-5,5.5-5c3.2,0.3,5.3,2.1,5.7,4.9l11.7,84
		l29.7,0C134.5-212.4,137.1-209.8,137.1-206.7z M166.9-212.4l-17.9,0c-3.1,0-5.6,2.5-5.6,5.6c0,3.1,2.5,5.6,5.6,5.6l17.9,0
		c3.1,0,5.6-2.5,5.6-5.6C172.6-209.8,170-212.4,166.9-212.4z M205.4-212.4l-19,0c-3.1,0-5.6,2.5-5.6,5.6c0,3.1,2.5,5.6,5.6,5.6l19,0
		c3.1,0,5.6-2.5,5.6-5.6C211-209.8,208.5-212.4,205.4-212.4z"/>
</g>
<polyline class="st12" points="6.2,31.4 19,31.4 20.9,36 29.2,25 32.2,43.2 39.2,18.3 46.2,31.4 58.2,31.4 "/>
</svg>
