<?xml version="1.0" encoding="utf-8"?>
<!-- Generator: Adobe Illustrator 23.0.2, SVG Export Plug-In . SVG Version: 6.00 Build 0)  -->
<svg version="1.1" id="Layer_1" xmlns="http://www.w3.org/2000/svg" xmlns:xlink="http://www.w3.org/1999/xlink" x="0px" y="0px"
	 viewBox="0 0 64 64" style="enable-background:new 0 0 64 64;" xml:space="preserve">
<style type="text/css">
	.st0{display:none;}
	.st1{display:inline;fill:url(#SVGID_1_);}
	.st2{display:inline;}
	.st3{opacity:0.15;fill-rule:evenodd;clip-rule:evenodd;enable-background:new    ;}
	.st4{fill-rule:evenodd;clip-rule:evenodd;fill:#0D96DD;}
	.st5{fill-rule:evenodd;clip-rule:evenodd;fill:url(#SVGID_2_);}
	.st6{opacity:0.25;fill-rule:evenodd;clip-rule:evenodd;enable-background:new    ;}
	.st7{fill-rule:evenodd;clip-rule:evenodd;fill:url(#SVGID_3_);}
	.st8{opacity:0.15;fill-rule:evenodd;clip-rule:evenodd;fill:url(#SVGID_4_);enable-background:new    ;}
	.st9{opacity:0.15;fill-rule:evenodd;clip-rule:evenodd;fill:url(#SVGID_5_);enable-background:new    ;}
	.st10{display:none;fill-rule:evenodd;clip-rule:evenodd;fill:#0D96DD;}
	.st11{display:none;fill:url(#SVGID_6_);}
	.st12{display:inline;fill:url(#SVGID_7_);}
	.st13{fill-rule:evenodd;clip-rule:evenodd;fill:url(#SVGID_8_);}
	.st14{fill-rule:evenodd;clip-rule:evenodd;fill:url(#SVGID_9_);}
	.st15{opacity:0.15;fill-rule:evenodd;clip-rule:evenodd;fill:url(#SVGID_10_);enable-background:new    ;}
	.st16{opacity:0.15;fill-rule:evenodd;clip-rule:evenodd;fill:url(#SVGID_11_);enable-background:new    ;}
	.st17{opacity:0.17;fill:url(#SVGID_12_);enable-background:new    ;}
	.st18{opacity:0.36;enable-background:new    ;}
	.st19{fill-rule:evenodd;clip-rule:evenodd;fill:url(#SVGID_13_);}
	.st20{fill-rule:evenodd;clip-rule:evenodd;fill:url(#SVGID_14_);}
	.st21{fill-rule:evenodd;clip-rule:evenodd;fill:url(#SVGID_15_);}
	.st22{opacity:0.15;fill-rule:evenodd;clip-rule:evenodd;fill:url(#SVGID_16_);enable-background:new    ;}
	.st23{opacity:0.15;fill-rule:evenodd;clip-rule:evenodd;fill:url(#SVGID_17_);enable-background:new    ;}
	.st24{fill:url(#SVGID_18_);}
	.st25{display:inline;fill-rule:evenodd;clip-rule:evenodd;fill:url(#SVGID_19_);}
	.st26{fill-rule:evenodd;clip-rule:evenodd;fill:url(#SVGID_20_);}
	.st27{fill-rule:evenodd;clip-rule:evenodd;fill:url(#SVGID_21_);}
	.st28{opacity:0.15;fill-rule:evenodd;clip-rule:evenodd;fill:url(#SVGID_22_);enable-background:new    ;}
	.st29{opacity:0.15;fill-rule:evenodd;clip-rule:evenodd;fill:url(#SVGID_23_);enable-background:new    ;}
	.st30{fill:url(#SVGID_24_);}
	.st31{opacity:0.17;fill:url(#SVGID_25_);enable-background:new    ;}
	.st32{fill-rule:evenodd;clip-rule:evenodd;fill:url(#SVGID_26_);}
	.st33{fill-rule:evenodd;clip-rule:evenodd;fill:url(#SVGID_27_);}
	.st34{fill-rule:evenodd;clip-rule:evenodd;fill:url(#SVGID_28_);}
	.st35{opacity:0.15;fill-rule:evenodd;clip-rule:evenodd;fill:url(#SVGID_29_);enable-background:new    ;}
	.st36{opacity:0.15;fill-rule:evenodd;clip-rule:evenodd;fill:url(#SVGID_30_);enable-background:new    ;}
	.st37{fill:url(#SVGID_31_);}
</style>
<g class="st0">
	
		<linearGradient id="SVGID_1_" gradientUnits="userSpaceOnUse" x1="-150.5064" y1="3.9962" x2="-150.8935" y2="59.0927" gradientTransform="matrix(0.9977 -6.738108e-02 6.738108e-02 0.9977 -2.0835 2.2289)">
		<stop  offset="0" style="stop-color:#3B373B"/>
		<stop  offset="1" style="stop-color:#212121"/>
	</linearGradient>
	<path class="st1" d="M-128.1,70.5l-40.6,2.7c-1.7,0.1-3.1-1.2-3.2-2.8l-3.6-53.3c-0.1-1.7,1.2-3.1,2.8-3.2l40.6-2.7
		c1.7-0.1,3.1,1.2,3.2,2.8l3.6,53.3C-125.2,68.9-126.4,70.4-128.1,70.5z"/>
	<g transform="translate(-46.001 .0006897)" class="st2">
		<path class="st3" d="M-89.5,19.2c-0.5,0.1-0.9,0.3-1.3,0.5l0,0c-0.2,0.1-0.4,0.2-0.5,0.4L-120,47.9c-0.5,0.6-0.9,1.4-0.2,2.1
			l2.8,2.5c1.1,1,2.3,0.1,2.8-0.3l26.5-21.4l0.5,20.2l-2.2,1.7c-1.7,1.3,0.4,8.6-0.1,9.6c0.5,0.3,1.3,0.6,1.9,0.5
			c0.2,0,0.4-0.1,0.6-0.2l8.9-4.6c0.9-0.5,2-0.9,1.9-2l-0.7-30.5c0-1.1-1.1-1.5-2-1.9l-9.2-4.2c-0.2-0.1-0.4-0.1-0.6-0.1
			C-89.2,19.1-89.4,19.1-89.5,19.2L-89.5,19.2z"/>
		<path class="st4" d="M-89.5,19.2c-0.5,0.1-0.9,0.3-1.3,0.5c0.7,0.9-0.5,9.3,1.4,10.3l1.4,0.8l0.5,20.2l-2.2,1.7
			c-1.7,1.3,0.4,8.6-0.1,9.6c0.5,0.3,1.3,0.6,1.9,0.5c0.2,0,0.4-0.1,0.6-0.2l8.9-4.6c0.9-0.5,2-0.9,1.9-2l-0.7-30.5
			c0-1.1-1.1-1.5-2-1.9l-9.2-4.2c-0.2-0.1-0.4-0.1-0.6-0.1C-89.2,19.1-89.4,19.2-89.5,19.2L-89.5,19.2z"/>
		
			<linearGradient id="SVGID_2_" gradientUnits="userSpaceOnUse" x1="50.0411" y1="-912.1444" x2="18.5447" y2="-938.9055" gradientTransform="matrix(0.9997 -2.453074e-02 -2.453074e-02 -0.9997 -160.546 -886.5734)">
			<stop  offset="0" style="stop-color:#007ABB"/>
			<stop  offset="1" style="stop-color:#006CAF"/>
		</linearGradient>
		<path class="st5" d="M-120,47.9l28.6-27.7c1.3-1.3,3.1-0.9,3.1,1.7l0.2,9.1l-26.6,21.4c-0.5,0.4-1.7,1.3-2.8,0.3l-2.8-2.5
			C-121,49.4-120.6,48.4-120,47.9L-120,47.9z"/>
		<path class="st6" d="M-120.3,35.6l29.9,26.3c1.4,1.2,3.1,0.7,3-1.8l-0.2-9.1l-27.6-20c-0.5-0.4-1.8-1.2-2.8-0.2l-2.7,2.7
			C-121.4,34.2-120.9,35.2-120.3,35.6L-120.3,35.6z"/>
		
			<linearGradient id="SVGID_3_" gradientUnits="userSpaceOnUse" x1="51.775" y1="-947.6191" x2="18.9092" y2="-917.492" gradientTransform="matrix(0.9997 -2.453074e-02 -2.453074e-02 -0.9997 -160.546 -886.5734)">
			<stop  offset="0" style="stop-color:#0080CE"/>
			<stop  offset="1" style="stop-color:#008FD5"/>
		</linearGradient>
		<path class="st7" d="M-120.3,35.6l29.9,26.3c1.4,1.2,3.1,0.7,3-1.8l-0.2-9.1l-27.6-20c-0.5-0.4-1.8-1.2-2.8-0.2l-2.7,2.7
			C-121.4,34.2-120.9,35.2-120.3,35.6L-120.3,35.6z"/>
		
			<linearGradient id="SVGID_4_" gradientUnits="userSpaceOnUse" x1="49.8318" y1="-923.9177" x2="45.7236" y2="-923.9177" gradientTransform="matrix(0.9997 -2.453074e-02 -2.453074e-02 -0.9997 -160.546 -886.5734)">
			<stop  offset="0" style="stop-color:#000000"/>
			<stop  offset="1" style="stop-color:#000000;stop-opacity:0"/>
		</linearGradient>
		<path class="st8" d="M-120,47.9l28.6-27.7c1.3-1.3,3.1-0.9,3.1,1.7l0.2,9.1l-26.6,21.4c-0.5,0.4-1.7,1.3-2.8,0.3l-2.8-2.5
			C-121,49.4-120.6,48.4-120,47.9L-120,47.9z"/>
		
			<linearGradient id="SVGID_5_" gradientUnits="userSpaceOnUse" x1="49.8318" y1="-934.1887" x2="45.7236" y2="-934.1887" gradientTransform="matrix(0.9997 -2.453074e-02 -2.453074e-02 -0.9997 -160.546 -886.5734)">
			<stop  offset="0" style="stop-color:#000000"/>
			<stop  offset="1" style="stop-color:#000000;stop-opacity:0"/>
		</linearGradient>
		<path class="st9" d="M-120.3,35.6l29.9,26.3c1.4,1.2,3.1,0.7,3-1.8l-0.2-9.1l-27.6-20c-0.5-0.4-1.8-1.2-2.8-0.2l-2.7,2.7
			C-121.4,34.2-120.9,35.2-120.3,35.6L-120.3,35.6z"/>
	</g>
</g>
<polygon class="st10" points="-85.7,38.5 -85.7,85.3 -74.4,80.6 -74.4,42.9 "/>
<linearGradient id="SVGID_6_" gradientUnits="userSpaceOnUse" x1="-121.8149" y1="79.277" x2="-85.6859" y2="79.277">
	<stop  offset="0" style="stop-color:#0D96DD"/>
	<stop  offset="1" style="stop-color:#0072B6"/>
</linearGradient>
<polygon class="st11" points="-121.8,73.2 -85.7,85.3 -85.7,79.3 "/>
<g class="st0">
	<linearGradient id="SVGID_7_" gradientUnits="userSpaceOnUse" x1="-88.0501" y1="-27.0107" x2="-88.4372" y2="28.0858">
		<stop  offset="0" style="stop-color:#3B373B"/>
		<stop  offset="1" style="stop-color:#212121"/>
	</linearGradient>
	<path class="st12" d="M-67.9,28.6h-40.7c-1.7,0-3-1.4-3-3v-53.4c0-1.7,1.4-3,3-3h40.7c1.7,0,3,1.4,3,3v53.4
		C-64.9,27.2-66.2,28.6-67.9,28.6z"/>
	<g transform="translate(-46.001 .0006897)" class="st2">
		<path class="st3" d="M-25.9-22.1c-0.5,0.1-1,0.2-1.4,0.5l0,0c-0.2,0.1-0.4,0.2-0.6,0.4L-58.1,6.7c-0.6,0.6-1,1.5-0.2,2.2l2.9,2.7
			c1.1,1.1,2.4,0.2,2.9-0.2l27.9-21.4v20.8l-2.3,1.7c-1.8,1.3,0.2,8.9-0.3,9.9c0.5,0.3,1.3,0.7,2,0.6c0.2,0,0.4-0.1,0.7-0.2l9.3-4.6
			c1-0.5,2-0.9,2-2v-31.5c0-1.1-1.1-1.5-2-2l-9.4-4.6c-0.2-0.1-0.4-0.2-0.7-0.2C-25.6-22.2-25.8-22.2-25.9-22.1L-25.9-22.1z"/>
		<path class="st4" d="M-25.9-22.1c-0.5,0.1-1,0.2-1.4,0.5c0.7,0.9-0.7,9.5,1.1,10.7l1.5,0.9v20.8l-2.3,1.7
			c-1.8,1.3,0.2,8.9-0.3,9.9c0.5,0.3,1.3,0.7,2,0.6c0.2,0,0.4-0.1,0.7-0.2l9.3-4.6c1-0.5,2-0.9,2-2v-31.5c0-1.1-1.1-1.5-2-2
			l-9.4-4.6c-0.2-0.1-0.4-0.2-0.7-0.2C-25.6-22.2-25.8-22.1-25.9-22.1L-25.9-22.1z"/>
		
			<linearGradient id="SVGID_8_" gradientUnits="userSpaceOnUse" x1="113.3846" y1="-874.9261" x2="80.9119" y2="-902.5166" gradientTransform="matrix(1 0 0 -1 -138.003 -892.0007)">
			<stop  offset="0" style="stop-color:#007ABB"/>
			<stop  offset="1" style="stop-color:#006CAF"/>
		</linearGradient>
		<path class="st13" d="M-58.1,6.7l30.2-27.9c1.4-1.3,3.2-0.8,3.2,1.8v9.4l-28,21.4c-0.5,0.4-1.8,1.3-2.9,0.2l-2.9-2.7
			C-59.1,8.2-58.7,7.2-58.1,6.7L-58.1,6.7z"/>
		<path class="st6" d="M-58.1-6l30.2,27.9c1.4,1.3,3.2,0.8,3.2-1.8v-9.4l-28-21.3c-0.5-0.4-1.8-1.3-2.9-0.2l-2.9,2.7
			C-59.1-7.4-58.7-6.5-58.1-6L-58.1-6z"/>
		
			<linearGradient id="SVGID_9_" gradientUnits="userSpaceOnUse" x1="115.1723" y1="-911.5003" x2="81.2878" y2="-880.4395" gradientTransform="matrix(1 0 0 -1 -138.003 -892.0007)">
			<stop  offset="0" style="stop-color:#0080CE"/>
			<stop  offset="1" style="stop-color:#008FD5"/>
		</linearGradient>
		<path class="st14" d="M-58.1-6l30.2,27.9c1.4,1.3,3.2,0.8,3.2-1.8v-9.4l-28-21.3c-0.5-0.4-1.8-1.3-2.9-0.2l-2.9,2.7
			C-59.1-7.4-58.7-6.5-58.1-6L-58.1-6z"/>
		
			<linearGradient id="SVGID_10_" gradientUnits="userSpaceOnUse" x1="113.1688" y1="-887.0643" x2="108.9333" y2="-887.0643" gradientTransform="matrix(1 0 0 -1 -138.003 -892.0007)">
			<stop  offset="0" style="stop-color:#000000"/>
			<stop  offset="1" style="stop-color:#000000;stop-opacity:0"/>
		</linearGradient>
		<path class="st15" d="M-58.1,6.7l30.2-27.9c1.4-1.3,3.2-0.8,3.2,1.8v9.4l-28,21.4c-0.5,0.4-1.8,1.3-2.9,0.2l-2.9-2.7
			C-59.1,8.2-58.7,7.2-58.1,6.7L-58.1,6.7z"/>
		
			<linearGradient id="SVGID_11_" gradientUnits="userSpaceOnUse" x1="113.1688" y1="-897.6536" x2="108.9333" y2="-897.6536" gradientTransform="matrix(1 0 0 -1 -138.003 -892.0007)">
			<stop  offset="0" style="stop-color:#000000"/>
			<stop  offset="1" style="stop-color:#000000;stop-opacity:0"/>
		</linearGradient>
		<path class="st16" d="M-58.1-6l30.2,27.9c1.4,1.3,3.2,0.8,3.2-1.8v-9.4l-28-21.3c-0.5-0.4-1.8-1.3-2.9-0.2l-2.9,2.7
			C-59.1-7.4-58.7-6.5-58.1-6L-58.1-6z"/>
	</g>
</g>
<g class="st0">
	<g class="st2">
		<linearGradient id="SVGID_12_" gradientUnits="userSpaceOnUse" x1="-58.5577" y1="-94.546" x2="-58.5577" y2="-58.0558">
			<stop  offset="0" style="stop-color:#020202;stop-opacity:0"/>
			<stop  offset="1" style="stop-color:#000000"/>
		</linearGradient>
		<path class="st17" d="M-36.9-94.8l-43.2,0c-2.2,0-4,1.9-4,4.2v43.7c0,2.4,1.8,4.2,4,4.2l43.1,0c2.2,0,4-1.9,4-4.2v-43.6
			C-33-92.9-34.7-94.8-36.9-94.8z"/>
		<path class="st18" d="M-38.4-43.9l-40.2,0c-2.1,0-3.7-1.7-3.7-3.7v-2.6c0-3.6,2.9-6.6,6.6-6.6l37.6,0c3.6,0,3.6,2.9,3.6,6.6v2.6
			C-34.6-45.6-36.3-43.9-38.4-43.9z"/>
	</g>
	<g class="st2">
		<linearGradient id="SVGID_13_" gradientUnits="userSpaceOnUse" x1="-58.2925" y1="-100.7908" x2="-58.6811" y2="-45.4759">
			<stop  offset="0" style="stop-color:#3B373B"/>
			<stop  offset="1" style="stop-color:#212121"/>
		</linearGradient>
		<path class="st19" d="M-38.2-45h-40.6c-2.2,0-3.9-1.8-3.9-3.9v-51.8c0-2.2,1.8-3.9,3.9-3.9h40.6c2.2,0,3.9,1.8,3.9,3.9v51.8
			C-34.2-46.7-36-45-38.2-45z"/>
		<g>
			<g transform="translate(-46.001 .0006897)">
				<path class="st3" d="M-6.8-91.2c-0.3,0.1-0.6,0.2-0.9,0.3l0,0c-0.1,0.1-0.3,0.2-0.4,0.3l-19.7,18.2c-0.4,0.4-0.6,1-0.2,1.4
					l1.9,1.8c0.7,0.7,1.5,0.1,1.9-0.2l18.2-14v13.6l-1.5,1.1c-1.2,0.9,0.1,5.8-0.2,6.4c0.3,0.2,0.9,0.4,1.3,0.4
					c0.2,0,0.3-0.1,0.4-0.1l6.1-3c0.6-0.3,1.3-0.6,1.3-1.3v-20.6c0-0.7-0.7-1-1.3-1.3l-6.1-3c-0.2-0.1-0.3-0.1-0.4-0.1
					C-6.6-91.2-6.7-91.2-6.8-91.2L-6.8-91.2z"/>
				<path class="st4" d="M-6.8-91.2c-0.3,0.1-0.6,0.2-0.9,0.3c0.5,0.6-0.5,6.2,0.7,7l1,0.6v13.6l-1.5,1.1c-1.2,0.9,0.1,5.8-0.2,6.4
					c0.3,0.2,0.9,0.4,1.3,0.4c0.2,0,0.3-0.1,0.4-0.1l6.1-3c0.6-0.3,1.3-0.6,1.3-1.3v-20.6c0-0.7-0.7-1-1.3-1.3l-6.1-3
					c-0.2-0.1-0.3-0.1-0.4-0.1C-6.6-91.2-6.7-91.2-6.8-91.2L-6.8-91.2z"/>
				
					<linearGradient id="SVGID_14_" gradientUnits="userSpaceOnUse" x1="132.0227" y1="-804.1345" x2="110.8003" y2="-822.1662" gradientTransform="matrix(1 0 0 -1 -138.003 -892.0007)">
					<stop  offset="0" style="stop-color:#007ABB"/>
					<stop  offset="1" style="stop-color:#006CAF"/>
				</linearGradient>
				<path class="st20" d="M-27.8-72.4l19.7-18.2c0.9-0.9,2.1-0.5,2.1,1.2v6.1l-18.3,14c-0.3,0.3-1.2,0.9-1.9,0.2l-1.9-1.8
					C-28.5-71.3-28.3-72-27.8-72.4L-27.8-72.4z"/>
				<path class="st6" d="M-27.8-80.6l19.7,18.2c0.9,0.9,2.1,0.5,2.1-1.2v-6.1l-18.3-13.9c-0.3-0.3-1.2-0.9-1.9-0.2L-28-82
					C-28.5-81.6-28.3-80.9-27.8-80.6L-27.8-80.6z"/>
				
					<linearGradient id="SVGID_15_" gradientUnits="userSpaceOnUse" x1="133.1911" y1="-828.0375" x2="111.0459" y2="-807.7377" gradientTransform="matrix(1 0 0 -1 -138.003 -892.0007)">
					<stop  offset="0" style="stop-color:#0080CE"/>
					<stop  offset="1" style="stop-color:#008FD5"/>
				</linearGradient>
				<path class="st21" d="M-27.8-80.6l19.7,18.2c0.9,0.9,2.1,0.5,2.1-1.2v-6.1l-18.3-13.9c-0.3-0.3-1.2-0.9-1.9-0.2L-28-82
					C-28.5-81.6-28.3-80.9-27.8-80.6L-27.8-80.6z"/>
				
					<linearGradient id="SVGID_16_" gradientUnits="userSpaceOnUse" x1="131.8817" y1="-812.0674" x2="129.1136" y2="-812.0674" gradientTransform="matrix(1 0 0 -1 -138.003 -892.0007)">
					<stop  offset="0" style="stop-color:#000000"/>
					<stop  offset="1" style="stop-color:#000000;stop-opacity:0"/>
				</linearGradient>
				<path class="st22" d="M-27.8-72.4l19.7-18.2c0.9-0.9,2.1-0.5,2.1,1.2v6.1l-18.3,14c-0.3,0.3-1.2,0.9-1.9,0.2l-1.9-1.8
					C-28.5-71.3-28.3-72-27.8-72.4L-27.8-72.4z"/>
				
					<linearGradient id="SVGID_17_" gradientUnits="userSpaceOnUse" x1="131.8817" y1="-818.988" x2="129.1136" y2="-818.988" gradientTransform="matrix(1 0 0 -1 -138.003 -892.0007)">
					<stop  offset="0" style="stop-color:#000000"/>
					<stop  offset="1" style="stop-color:#000000;stop-opacity:0"/>
				</linearGradient>
				<path class="st23" d="M-27.8-80.6l19.7,18.2c0.9,0.9,2.1,0.5,2.1-1.2v-6.1l-18.3-13.9c-0.3-0.3-1.2-0.9-1.9-0.2L-28-82
					C-28.5-81.6-28.3-80.9-27.8-80.6L-27.8-80.6z"/>
			</g>
			<polygon class="st4" points="-40.6,-99.4 -40.6,-48.9 -28.4,-54 -28.4,-94.7 			"/>
			<linearGradient id="SVGID_18_" gradientUnits="userSpaceOnUse" x1="-79.5918" y1="-55.432" x2="-40.6139" y2="-55.432">
				<stop  offset="0" style="stop-color:#0D96DD"/>
				<stop  offset="1" style="stop-color:#0072B6"/>
			</linearGradient>
			<polygon class="st24" points="-79.6,-62 -40.6,-48.9 -40.6,-55.4 			"/>
		</g>
	</g>
</g>
<g class="st0">
	<linearGradient id="SVGID_19_" gradientUnits="userSpaceOnUse" x1="-148.7431" y1="-98.9684" x2="-149.1318" y2="-43.6358">
		<stop  offset="0" style="stop-color:#3B373B"/>
		<stop  offset="1" style="stop-color:#212121"/>
	</linearGradient>
	<path class="st25" d="M-127.2-43.1h-43.4c-1.4,0-2.6-1.2-2.6-2.6v-54.6c0-1.4,1.2-2.6,2.6-2.6h43.4c1.4,0,2.6,1.2,2.6,2.6v54.6
		C-124.7-44.3-125.8-43.1-127.2-43.1z"/>
	<g class="st2">
		<g transform="translate(-46.001 .0006897)">
			<path class="st3" d="M-97.3-89.3c-0.3,0.1-0.6,0.2-0.9,0.3l0,0c-0.1,0.1-0.3,0.2-0.4,0.3l-19.7,18.2c-0.4,0.4-0.6,1-0.2,1.4
				l1.9,1.8c0.7,0.7,1.5,0.1,1.9-0.2l18.2-14v13.6l-1.5,1.1c-1.2,0.9,0.1,5.8-0.2,6.4c0.3,0.2,0.9,0.4,1.3,0.4
				c0.2,0,0.3-0.1,0.4-0.1l6.1-3c0.6-0.3,1.3-0.6,1.3-1.3v-20.6c0-0.7-0.7-1-1.3-1.3l-6.1-3c-0.2-0.1-0.3-0.1-0.4-0.1
				C-97.1-89.4-97.2-89.4-97.3-89.3L-97.3-89.3z"/>
			<path class="st4" d="M-97.3-89.3c-0.3,0.1-0.6,0.2-0.9,0.3c0.5,0.6-0.5,6.2,0.7,7l1,0.6v13.6l-1.5,1.1c-1.2,0.9,0.1,5.8-0.2,6.4
				c0.3,0.2,0.9,0.4,1.3,0.4c0.2,0,0.3-0.1,0.4-0.1l6.1-3c0.6-0.3,1.3-0.6,1.3-1.3v-20.6c0-0.7-0.7-1-1.3-1.3l-6.1-3
				c-0.2-0.1-0.3-0.1-0.4-0.1C-97.1-89.4-97.2-89.3-97.3-89.3L-97.3-89.3z"/>
			
				<linearGradient id="SVGID_20_" gradientUnits="userSpaceOnUse" x1="41.5721" y1="-805.9652" x2="20.3497" y2="-823.9969" gradientTransform="matrix(1 0 0 -1 -138.003 -892.0007)">
				<stop  offset="0" style="stop-color:#007ABB"/>
				<stop  offset="1" style="stop-color:#006CAF"/>
			</linearGradient>
			<path class="st26" d="M-118.3-70.5l19.7-18.2c0.9-0.9,2.1-0.5,2.1,1.2v6.1l-18.3,14c-0.3,0.3-1.2,0.9-1.9,0.2l-1.9-1.8
				C-119-69.5-118.7-70.2-118.3-70.5L-118.3-70.5z"/>
			<path class="st6" d="M-118.3-78.8l19.7,18.2c0.9,0.9,2.1,0.5,2.1-1.2v-6.1l-18.3-13.9c-0.3-0.3-1.2-0.9-1.9-0.2l-1.9,1.8
				C-119-79.7-118.7-79.1-118.3-78.8L-118.3-78.8z"/>
			
				<linearGradient id="SVGID_21_" gradientUnits="userSpaceOnUse" x1="42.7404" y1="-829.8682" x2="20.5953" y2="-809.5685" gradientTransform="matrix(1 0 0 -1 -138.003 -892.0007)">
				<stop  offset="0" style="stop-color:#0080CE"/>
				<stop  offset="1" style="stop-color:#008FD5"/>
			</linearGradient>
			<path class="st27" d="M-118.3-78.8l19.7,18.2c0.9,0.9,2.1,0.5,2.1-1.2v-6.1l-18.3-13.9c-0.3-0.3-1.2-0.9-1.9-0.2l-1.9,1.8
				C-119-79.7-118.7-79.1-118.3-78.8L-118.3-78.8z"/>
			
				<linearGradient id="SVGID_22_" gradientUnits="userSpaceOnUse" x1="41.4311" y1="-813.8981" x2="38.663" y2="-813.8981" gradientTransform="matrix(1 0 0 -1 -138.003 -892.0007)">
				<stop  offset="0" style="stop-color:#000000"/>
				<stop  offset="1" style="stop-color:#000000;stop-opacity:0"/>
			</linearGradient>
			<path class="st28" d="M-118.3-70.5l19.7-18.2c0.9-0.9,2.1-0.5,2.1,1.2v6.1l-18.3,14c-0.3,0.3-1.2,0.9-1.9,0.2l-1.9-1.8
				C-119-69.5-118.7-70.2-118.3-70.5L-118.3-70.5z"/>
			
				<linearGradient id="SVGID_23_" gradientUnits="userSpaceOnUse" x1="41.4311" y1="-820.8188" x2="38.663" y2="-820.8188" gradientTransform="matrix(1 0 0 -1 -138.003 -892.0007)">
				<stop  offset="0" style="stop-color:#000000"/>
				<stop  offset="1" style="stop-color:#000000;stop-opacity:0"/>
			</linearGradient>
			<path class="st29" d="M-118.3-78.8l19.7,18.2c0.9,0.9,2.1,0.5,2.1-1.2v-6.1l-18.3-13.9c-0.3-0.3-1.2-0.9-1.9-0.2l-1.9,1.8
				C-119-79.7-118.7-79.1-118.3-78.8L-118.3-78.8z"/>
		</g>
		<polygon class="st4" points="-131.1,-97.6 -131.1,-47.1 -118.8,-52.2 -118.8,-92.9 		"/>
		<linearGradient id="SVGID_24_" gradientUnits="userSpaceOnUse" x1="-170.0424" y1="-53.6012" x2="-131.0645" y2="-53.6012">
			<stop  offset="0" style="stop-color:#0D96DD"/>
			<stop  offset="1" style="stop-color:#0072B6"/>
		</linearGradient>
		<polygon class="st30" points="-170,-60.1 -131.1,-47.1 -131.1,-53.6 		"/>
	</g>
</g>
<g>
	<g>
		
			<linearGradient id="SVGID_25_" gradientUnits="userSpaceOnUse" x1="29.6895" y1="11.1468" x2="29.6895" y2="47.637" gradientTransform="matrix(0.9993 -3.734824e-02 3.734824e-02 0.9993 -1.1728 1.2175)">
			<stop  offset="0" style="stop-color:#020202;stop-opacity:0"/>
			<stop  offset="1" style="stop-color:#000000"/>
		</linearGradient>
		<path class="st31" d="M50.5,10.2L7.4,11.8c-2.2,0.1-3.9,2-3.8,4.3l1.6,43.7c0.1,2.4,2,4.1,4.2,4l43.1-1.6c2.2-0.1,3.9-2,3.8-4.3
			l-1.6-43.6C54.5,12,52.7,10.1,50.5,10.2z"/>
		<path class="st18" d="M50.9,61.1l-40.2,1.5c-2.1,0.1-3.8-1.6-3.8-3.6l-0.1-2.6c-0.1-3.6,2.7-6.7,6.3-6.8l37.6-1.4
			c3.6-0.1,3.7,2.8,3.8,6.5l0.1,2.6C54.7,59.3,53,61,50.9,61.1z"/>
	</g>
	<g>
		
			<linearGradient id="SVGID_26_" gradientUnits="userSpaceOnUse" x1="29.9548" y1="4.9019" x2="29.5661" y2="60.2168" gradientTransform="matrix(0.9993 -3.734824e-02 3.734824e-02 0.9993 -1.1728 1.2175)">
			<stop  offset="0" style="stop-color:#3B373B"/>
			<stop  offset="1" style="stop-color:#212121"/>
		</linearGradient>
		<path class="st32" d="M51.1,60l-40.6,1.5c-2.2,0.1-4-1.6-4.1-3.8L4.5,5.9c-0.1-2.2,1.6-4,3.8-4.1l40.6-1.5c2.2-0.1,4,1.6,4.1,3.8
			l1.9,51.8C55,58.1,53.3,59.9,51.1,60z"/>
		<g>
			<g transform="translate(-46.001 .0006897)">
				<path class="st3" d="M80.7,14.4c-0.3,0.1-0.6,0.2-0.9,0.4l0,0c-0.1,0.1-0.3,0.2-0.4,0.3L60.5,34c-0.4,0.4-0.6,1-0.1,1.4l1.9,1.7
					c0.8,0.7,1.5,0,1.9-0.2l17.7-14.6l0.5,13.6L80.9,37c-1.1,0.9,0.3,5.8,0,6.4c0.3,0.2,0.9,0.4,1.3,0.3c0.2,0,0.3-0.1,0.4-0.1
					l6-3.2c0.6-0.3,1.3-0.6,1.3-1.4l-0.8-20.5c0-0.7-0.7-1-1.4-1.3l-6.2-2.8c-0.2,0-0.3-0.1-0.4-0.1C81,14.4,80.9,14.4,80.7,14.4
					L80.7,14.4z"/>
				<path class="st4" d="M80.7,14.4c-0.3,0.1-0.6,0.2-0.9,0.4c0.5,0.6-0.2,6.2,1,6.9l1,0.5l0.5,13.6L80.9,37c-1.1,0.9,0.3,5.8,0,6.4
					c0.3,0.2,0.9,0.4,1.3,0.3c0.2,0,0.3-0.1,0.4-0.1l6-3.2c0.6-0.3,1.3-0.6,1.3-1.4l-0.8-20.5c0-0.7-0.7-1-1.4-1.3l-6.2-2.8
					c-0.2,0-0.3-0.1-0.4-0.1C81,14.4,80.9,14.4,80.7,14.4L80.7,14.4z"/>
				
					<linearGradient id="SVGID_27_" gradientUnits="userSpaceOnUse" x1="220.27" y1="-909.8272" x2="199.0476" y2="-927.8589" gradientTransform="matrix(0.9993 -3.734824e-02 -3.734824e-02 -0.9993 -172.3621 -883.2886)">
					<stop  offset="0" style="stop-color:#007ABB"/>
					<stop  offset="1" style="stop-color:#006CAF"/>
				</linearGradient>
				<path class="st33" d="M60.5,34l19-18.9c0.9-0.9,2.1-0.6,2.1,1.1l0.2,6.1L64.1,36.9c-0.3,0.3-1.1,0.9-1.9,0.2l-1.9-1.7
					C59.8,35,60.1,34.4,60.5,34L60.5,34z"/>
				<path class="st6" d="M60.2,25.7l20.4,17.5c0.9,0.8,2.1,0.5,2-1.2l-0.2-6.1L63.6,22.6c-0.3-0.3-1.2-0.8-1.9-0.1l-1.8,1.8
					C59.4,24.8,59.7,25.4,60.2,25.7L60.2,25.7z"/>
				
					<linearGradient id="SVGID_28_" gradientUnits="userSpaceOnUse" x1="221.4383" y1="-933.7302" x2="199.2932" y2="-913.4305" gradientTransform="matrix(0.9993 -3.734824e-02 -3.734824e-02 -0.9993 -172.3621 -883.2886)">
					<stop  offset="0" style="stop-color:#0080CE"/>
					<stop  offset="1" style="stop-color:#008FD5"/>
				</linearGradient>
				<path class="st34" d="M60.2,25.7l20.4,17.5c0.9,0.8,2.1,0.5,2-1.2l-0.2-6.1L63.6,22.6c-0.3-0.3-1.2-0.8-1.9-0.1l-1.8,1.8
					C59.4,24.8,59.7,25.4,60.2,25.7L60.2,25.7z"/>
				
					<linearGradient id="SVGID_29_" gradientUnits="userSpaceOnUse" x1="220.129" y1="-917.7601" x2="217.3609" y2="-917.7601" gradientTransform="matrix(0.9993 -3.734824e-02 -3.734824e-02 -0.9993 -172.3621 -883.2886)">
					<stop  offset="0" style="stop-color:#000000"/>
					<stop  offset="1" style="stop-color:#000000;stop-opacity:0"/>
				</linearGradient>
				<path class="st35" d="M60.5,34l19-18.9c0.9-0.9,2.1-0.6,2.1,1.1l0.2,6.1L64.1,36.9c-0.3,0.3-1.1,0.9-1.9,0.2l-1.9-1.7
					C59.8,35,60.1,34.4,60.5,34L60.5,34z"/>
				
					<linearGradient id="SVGID_30_" gradientUnits="userSpaceOnUse" x1="220.129" y1="-924.6808" x2="217.3609" y2="-924.6808" gradientTransform="matrix(0.9993 -3.734824e-02 -3.734824e-02 -0.9993 -172.3621 -883.2886)">
					<stop  offset="0" style="stop-color:#000000"/>
					<stop  offset="1" style="stop-color:#000000;stop-opacity:0"/>
				</linearGradient>
				<path class="st36" d="M60.2,25.7l20.4,17.5c0.9,0.8,2.1,0.5,2-1.2l-0.2-6.1L63.6,22.6c-0.3-0.3-1.2-0.8-1.9-0.1l-1.8,1.8
					C59.4,24.8,59.7,25.4,60.2,25.7L60.2,25.7z"/>
			</g>
			<polygon class="st4" points="46.7,5.7 48.5,56.2 60.6,50.6 59.1,10 			"/>
			
				<linearGradient id="SVGID_31_" gradientUnits="userSpaceOnUse" x1="8.6555" y1="50.2608" x2="47.6334" y2="50.2608" gradientTransform="matrix(0.9993 -3.734824e-02 3.734824e-02 0.9993 -1.1728 1.2175)">
				<stop  offset="0" style="stop-color:#0D96DD"/>
				<stop  offset="1" style="stop-color:#0072B6"/>
			</linearGradient>
			<polygon class="st37" points="9.1,44.6 48.5,56.2 48.3,49.7 			"/>
		</g>
	</g>
</g>
</svg>
