<?xml version="1.0" encoding="utf-8"?>
<!-- Generator: Adobe Illustrator 25.2.0, SVG Export Plug-In . SVG Version: 6.00 Build 0)  -->
<svg version="1.1" xmlns="http://www.w3.org/2000/svg" xmlns:xlink="http://www.w3.org/1999/xlink" x="0px" y="0px"
	 viewBox="0 0 64 64" style="enable-background:new 0 0 64 64;" xml:space="preserve">
<style type="text/css">
	.st0{fill:url(#SVGID_1_);}
	.st1{display:none;}
	.st2{display:inline;}
	.st3{opacity:0.5;}
	.st4{opacity:0.2;fill-rule:evenodd;clip-rule:evenodd;stroke:#000000;stroke-width:4;stroke-miterlimit:10;}
	.st5{fill-rule:evenodd;clip-rule:evenodd;stroke:#FFFFFF;stroke-width:4;stroke-miterlimit:10;}
	.st6{opacity:0.15;fill-rule:evenodd;clip-rule:evenodd;enable-background:new    ;}
	.st7{fill-rule:evenodd;clip-rule:evenodd;fill:#32B968;}
	.st8{fill-rule:evenodd;clip-rule:evenodd;fill:url(#SVGID_2_);}
	.st9{opacity:0.15;fill-rule:evenodd;clip-rule:evenodd;fill:url(#SVGID_3_);enable-background:new    ;}
	.st10{opacity:0.25;fill-rule:evenodd;clip-rule:evenodd;enable-background:new    ;}
	.st11{fill-rule:evenodd;clip-rule:evenodd;fill:url(#SVGID_4_);}
	.st12{opacity:0.15;fill-rule:evenodd;clip-rule:evenodd;fill:url(#SVGID_5_);enable-background:new    ;}
</style>
<g id="Background">
	<g id="Background_1_">
		
			<linearGradient id="SVGID_1_" gradientUnits="userSpaceOnUse" x1="32" y1="64.6129" x2="32" y2="3.3525" gradientTransform="matrix(1 0 0 -1 0 66)">
			<stop  offset="0" style="stop-color:#323232"/>
			<stop  offset="0.3146" style="stop-color:#2B2B2B"/>
			<stop  offset="0.8341" style="stop-color:#282828"/>
			<stop  offset="0.9668" style="stop-color:#212121"/>
			<stop  offset="1" style="stop-color:#1E1E1E"/>
		</linearGradient>
		<path class="st0" d="M50,63H14C6.8,63,1,57.2,1,50V14C1,6.8,6.8,1,14,1h36c7.2,0,13,5.8,13,13v36C63,57.2,57.2,63,50,63z"/>
	</g>
</g>
<g id="Guides" class="st1">
	<g class="st2">
		<g class="st3">
			<g>
			</g>
		</g>
	</g>
</g>
<g id="Icon">
	<path class="st4" d="M51.3,15.5L42.2,11c-0.2-0.1-0.4-0.2-0.6-0.2c-0.2,0-0.3,0-0.5,0l0,0l0,0l0,0c-0.5,0.1-1,0.2-1.4,0.5
		c-0.2,0.1-0.3,0.2-0.6,0.4L24.9,24.9l-3,2.8l-7.1-5.5C14.3,21.9,13,21,11.9,22l-2.8,2.6c-0.7,0.7-0.3,1.6,0.2,2.2l0,0l6.7,6.2
		l-6.7,6.2l0,0c-0.6,0.6-1,1.4-0.2,2.2l2.8,2.6c1.1,1,2.3,0.2,2.8-0.2l7.1-5.5l17.2,15.9c0.2,0.2,0.4,0.3,0.6,0.5
		c0.5,0.3,1.2,0.6,1.8,0.5c0.2,0,0.4-0.1,0.6-0.2l0,0l0,0l9.1-4.5c1-0.5,2-0.9,2-2v-31C53.3,16.4,52.3,16,51.3,15.5z M28.9,33
		l13.3-10.2v20.5L28.9,33z"/>
	<path class="st5" d="M51.3,14.5L42.2,10c-0.2-0.1-0.4-0.2-0.6-0.2c-0.2,0-0.3,0-0.5,0l0,0l0,0l0,0c-0.5,0.1-1,0.2-1.4,0.5
		c-0.2,0.1-0.3,0.2-0.6,0.4L24.9,23.9l-3,2.8l-7.1-5.5C14.3,20.8,13,20,11.9,21l-2.8,2.6c-0.7,0.7-0.3,1.6,0.2,2.2l0,0l6.7,6.2
		l-6.7,6.2l0,0c-0.6,0.6-1,1.4-0.2,2.2l2.8,2.6c1.1,1,2.3,0.2,2.8-0.2l7.1-5.5l17.2,15.9c0.2,0.2,0.4,0.3,0.6,0.5
		c0.5,0.3,1.2,0.6,1.8,0.5c0.2,0,0.4-0.1,0.6-0.2l0,0l0,0l9.1-4.5c1-0.5,2-0.9,2-2v-31C53.3,15.4,52.3,15,51.3,14.5z M28.9,32
		l13.3-10.2v20.5L28.9,32z"/>
	<g>
		<path class="st5" d="M51.1,14.6L42,10.2c-0.2-0.1-0.4-0.2-0.6-0.2c-0.2,0-0.3,0-0.5,0l0,0l0,0l0,0c-0.5,0.1-1,0.2-1.4,0.5
			c-0.2,0.1-0.3,0.2-0.6,0.4L24.9,24l-3,2.8l-7.1-5.4c-0.5-0.4-1.8-1.3-2.8-0.2l-2.8,2.6c-0.7,0.7-0.3,1.6,0.2,2.1l0,0l6.7,6.1
			l-6.7,6.1l0,0c-0.6,0.6-1,1.4-0.2,2.1l2.8,2.6c1.1,1,2.3,0.2,2.8-0.2l7.1-5.4l17,15.8c0.2,0.2,0.4,0.3,0.6,0.5
			c0.5,0.3,1.2,0.6,1.8,0.5c0.2,0,0.4-0.1,0.6-0.2l0,0l0,0l9.1-4.5c1-0.5,2-0.9,2-2V16.6C53,15.5,52,15.1,51.1,14.6z M28.8,32
			L42,21.9v20.3L28.8,32z"/>
		<g id="Insiders" transform="translate(-46.001 .0006897)">
			<g>
				<path class="st6" d="M86.8,10c-0.5,0.1-1,0.2-1.4,0.5l0,0c-0.2,0.1-0.4,0.2-0.6,0.4L55.4,38.1c-0.6,0.6-1,1.4-0.2,2.1l2.8,2.6
					c1.1,1,2.3,0.2,2.8-0.2L88,21.8v20.3l-2.2,1.7c-1.8,1.3,0.2,8.7-0.3,9.6c0.5,0.3,1.3,0.6,1.9,0.6c0.2,0,0.4-0.1,0.6-0.2l9.1-4.5
					c1-0.5,2-0.9,2-2V16.7c0-1.1-1-1.5-2-2l-9.2-4.5c-0.2-0.1-0.4-0.2-0.6-0.2C87.1,10,87,10,86.8,10L86.8,10z"/>
				<path class="st7" d="M86.8,10c-0.5,0.1-1,0.2-1.4,0.5c0.7,0.9-0.7,9.3,1.1,10.4l1.4,0.9v20.3l-2.2,1.7c-1.8,1.3,0.2,8.7-0.3,9.6
					c0.5,0.3,1.3,0.6,1.9,0.6c0.2,0,0.4-0.1,0.6-0.2l9.1-4.5c1-0.5,2-0.9,2-2V16.7c0-1.1-1-1.5-2-2l-9.2-4.5
					c-0.2-0.1-0.4-0.2-0.6-0.2C87.1,10,87,10,86.8,10L86.8,10z"/>
				
					<linearGradient id="SVGID_2_" gradientUnits="userSpaceOnUse" x1="180.053" y1="648.9308" x2="148.3484" y2="675.8687" gradientTransform="matrix(1 0 0 1 -92.002 -634)">
					<stop  offset="0" style="stop-color:#138346"/>
					<stop  offset="1" style="stop-color:#30B063"/>
				</linearGradient>
				<path class="st8" d="M55.4,38.1l29.4-27.2c1.4-1.3,3.1-0.8,3.1,1.8v9.2L60.7,42.7c-0.5,0.4-1.8,1.3-2.8,0.2l-2.8-2.6
					C54.4,39.7,54.8,38.7,55.4,38.1L55.4,38.1z"/>
				
					<linearGradient id="SVGID_3_" gradientUnits="userSpaceOnUse" x1="179.876" y1="660.8211" x2="175.7406" y2="660.8211" gradientTransform="matrix(1 0 0 1 -92.002 -634)">
					<stop  offset="0" style="stop-color:#000000"/>
					<stop  offset="1" style="stop-color:#000000;stop-opacity:0"/>
				</linearGradient>
				<path class="st9" d="M55.4,38.1l29.4-27.2c1.4-1.3,3.1-0.8,3.1,1.8v9.2L60.7,42.7c-0.5,0.4-1.8,1.3-2.8,0.2l-2.8-2.6
					C54.4,39.7,54.8,38.7,55.4,38.1L55.4,38.1z"/>
				<path class="st10" d="M55.4,25.8L84.9,53c1.4,1.3,3.1,0.8,3.1-1.8v-9.2L60.7,21.3c-0.5-0.4-1.8-1.3-2.8-0.2l-2.8,2.6
					C54.4,24.4,54.8,25.3,55.4,25.8L55.4,25.8z"/>
			</g>
			
				<linearGradient id="SVGID_4_" gradientUnits="userSpaceOnUse" x1="181.8318" y1="684.6798" x2="148.7487" y2="654.3536" gradientTransform="matrix(1 0 0 1 -92.002 -634)">
				<stop  offset="0" style="stop-color:#138346"/>
				<stop  offset="1" style="stop-color:#30B063"/>
			</linearGradient>
			<path class="st11" d="M55.4,25.8L84.9,53c1.4,1.3,3.1,0.8,3.1-1.8v-9.2L60.7,21.3c-0.5-0.4-1.8-1.3-2.8-0.2l-2.8,2.6
				C54.4,24.4,54.8,25.3,55.4,25.8L55.4,25.8z"/>
			
				<linearGradient id="SVGID_5_" gradientUnits="userSpaceOnUse" x1="179.876" y1="671.1608" x2="175.7406" y2="671.1608" gradientTransform="matrix(1 0 0 1 -92.002 -634)">
				<stop  offset="0" style="stop-color:#000000"/>
				<stop  offset="1" style="stop-color:#000000;stop-opacity:0"/>
			</linearGradient>
			<path class="st12" d="M55.4,25.8L84.9,53c1.4,1.3,3.1,0.8,3.1-1.8v-9.2L60.7,21.3c-0.5-0.4-1.8-1.3-2.8-0.2l-2.8,2.6
				C54.4,24.4,54.8,25.3,55.4,25.8L55.4,25.8z"/>
		</g>
	</g>
</g>
</svg>
