<?xml version="1.0" encoding="utf-8"?>
<!-- Generator: Adobe Illustrator 25.2.0, SVG Export Plug-In . SVG Version: 6.00 Build 0)  -->
<svg version="1.1" id="Layer_1" xmlns="http://www.w3.org/2000/svg" xmlns:xlink="http://www.w3.org/1999/xlink" x="0px" y="0px"
	 viewBox="0 0 64 64" style="enable-background:new 0 0 64 64;" xml:space="preserve">
<style type="text/css">
	.st0{fill:url(#SVGID_1_);}
	.st1{fill:url(#SVGID_2_);}
	.st2{fill:url(#SVGID_3_);}
	.st3{opacity:0.15;fill:url(#SVGID_4_);enable-background:new    ;}
	.st4{opacity:0.3;enable-background:new    ;}
	.st5{fill:url(#SVGID_5_);}
	.st6{fill:url(#SVGID_6_);}
	.st7{opacity:0.2;fill:url(#SVGID_7_);enable-background:new    ;}
	.st8{fill:url(#SVGID_8_);}
	.st9{fill:url(#SVGID_9_);}
</style>
<g id="Background">
	<g id="Background_1_">
		
			<linearGradient id="SVGID_1_" gradientUnits="userSpaceOnUse" x1="32" y1="-569.3871" x2="32" y2="-630.6475" gradientTransform="matrix(1 0 0 -1 0 -568)">
			<stop  offset="0" style="stop-color:#323232"/>
			<stop  offset="0.3146" style="stop-color:#2B2B2B"/>
			<stop  offset="0.8341" style="stop-color:#282828"/>
			<stop  offset="0.9668" style="stop-color:#212121"/>
			<stop  offset="1" style="stop-color:#1E1E1E"/>
		</linearGradient>
		<path class="st0" d="M50,63H14C6.8,63,1,57.2,1,50V14C1,6.8,6.8,1,14,1h36c7.2,0,13,5.8,13,13v36C63,57.2,57.2,63,50,63z"/>
	</g>
</g>
<g id="Background_2_">
	<g id="Background_3_">
		<radialGradient id="SVGID_2_" cx="32.1613" cy="34.1936" r="35.752" gradientUnits="userSpaceOnUse">
			<stop  offset="0" style="stop-color:#FC9A46;stop-opacity:0.22"/>
			<stop  offset="1" style="stop-color:#FA7430;stop-opacity:0"/>
		</radialGradient>
		<path class="st1" d="M50,63H14C6.8,63,1,57.2,1,50V14C1,6.8,6.8,1,14,1h36c7.2,0,13,5.8,13,13v36C63,57.2,57.2,63,50,63z"/>
	</g>
</g>
<g id="Background_4_">
	<g id="Background_5_">
		
			<linearGradient id="SVGID_3_" gradientUnits="userSpaceOnUse" x1="32" y1="-569.3871" x2="32" y2="-630.6475" gradientTransform="matrix(1 0 0 -1 0 -568)">
			<stop  offset="0.5339" style="stop-color:#2B2B2B;stop-opacity:0"/>
			<stop  offset="0.7551" style="stop-color:#282828;stop-opacity:0.68"/>
			<stop  offset="0.8436" style="stop-color:#232323;stop-opacity:0.92"/>
			<stop  offset="0.9832" style="stop-color:#212121"/>
		</linearGradient>
		<path class="st2" d="M50,63H14C6.8,63,1,57.2,1,50V14C1,6.8,6.8,1,14,1h36c7.2,0,13,5.8,13,13v36C63,57.2,57.2,63,50,63z"/>
	</g>
</g>
<g id="vlc" image-rendering="optimizeSpeed">
	
		<linearGradient id="SVGID_4_" gradientUnits="userSpaceOnUse" x1="31.8948" y1="671.3683" x2="31.8948" y2="685.1211" gradientTransform="matrix(1 0 0 1 0 -634)">
		<stop  offset="0" style="stop-color:#000000;stop-opacity:8.556200e-02"/>
		<stop  offset="1" style="stop-color:#000000"/>
	</linearGradient>
	<path class="st3" d="M53.3,49.2l-2.6-9c-0.5-1.8-2.2-3-4.1-3h-3.1l-23.2-0.1h-3.1c-1.9,0-3.5,1.3-4.1,3l-2.7,9
		c-1.1,4.7,0.5,6.2,5.3,6.2h32.4C52.8,55.3,54.5,53.9,53.3,49.2z"/>
	<path class="st4" d="M52.1,49l-2.4-7.9c-0.5-1.6-2.1-2.7-3.9-2.7h-2.9l-22-0.1H18c-1.8,0-3.3,1-3.9,2.7l-2.7,8
		c-1,4.2,0.5,5.4,5,5.4h30.8C51.6,54.4,53.3,53.2,52.1,49z"/>
	<g>
		
			<linearGradient id="SVGID_5_" gradientUnits="userSpaceOnUse" x1="31.9243" y1="-639.9639" x2="31.9243" y2="-594.1659" gradientTransform="matrix(1 0 0 -1 0 -568)">
			<stop  offset="0" style="stop-color:#FFDA64"/>
			<stop  offset="0.546" style="stop-color:#FB7C38"/>
			<stop  offset="0.5863" style="stop-color:#FB7C38"/>
			<stop  offset="0.6981" style="stop-color:#FA7432"/>
			<stop  offset="0.8247" style="stop-color:#F5591E"/>
			<stop  offset="0.8995" style="stop-color:#F34F17"/>
		</linearGradient>
		<path class="st5" d="M51.5,47.8l-2.4-8.1c-0.5-1.6-2-2.8-3.7-2.8h-27c-1.7,0-3.2,1.1-3.7,2.8l-2.4,8.1c-1,4.2,0.5,5.6,4.8,5.6
			h29.6C51.1,53.3,52.6,52.1,51.5,47.8z"/>
		<g>
			
				<linearGradient id="SVGID_6_" gradientUnits="userSpaceOnUse" x1="31.9" y1="-577.8679" x2="31.9" y2="-621.0214" gradientTransform="matrix(1 0 0 -1 0 -568)">
				<stop  offset="0" style="stop-color:#FFDA64"/>
				<stop  offset="0.546" style="stop-color:#FB7C38"/>
				<stop  offset="0.6638" style="stop-color:#FB7C38"/>
				<stop  offset="0.6981" style="stop-color:#FA7432"/>
				<stop  offset="0.8247" style="stop-color:#F5591E"/>
				<stop  offset="0.8995" style="stop-color:#F34F17"/>
			</linearGradient>
			<path class="st6" d="M37,17.8c-0.9-3-1.6-5.6-2.1-7.2c-0.3-1-1.7-1.6-3-1.6c-1.2,0-2.7,0.6-3.1,1.6c-0.5,1.7-1.2,4.3-2,7.2v4.3
				L25,24.3l-2.3,7.8L22,36.5l-1.2,1.9l-1.4,4.5c0.1,3.6,5.8,6.4,12.5,6.4l0,0c6.7,0,12.5-2.8,12.5-6.4L43,38.4L41.8,37l-0.7-4.9
				L39,24.4l-1.4-2.3L37,17.8z"/>
		</g>
		
			<radialGradient id="SVGID_7_" cx="31.8678" cy="-602.8337" r="24.9173" gradientTransform="matrix(1 0 0 -1 0 -568)" gradientUnits="userSpaceOnUse">
			<stop  offset="0" style="stop-color:#FFDA64;stop-opacity:8.556200e-02"/>
			<stop  offset="0.9107" style="stop-color:#FB7C38"/>
			<stop  offset="1" style="stop-color:#F34F17"/>
		</radialGradient>
		<path class="st7" d="M51.5,47.8l-2.4-8.1c-0.5-1.6-2-2.8-3.7-2.8h-2.9l-1.1-1.1l-0.2-3.6L39,24.5l-1.9-2.2v-4.4
			c-0.9-3-1.6-5.6-2.1-7.2c-0.2-1-1.7-1.6-2.9-1.6s-2.7,0.6-3.1,1.6c-0.7,1.6-1.3,4.2-2.1,7.2v4.2L25,24.4l-2.3,7.8l-0.3,4l-1,0.7
			h-2.9c-1.7,0-3.2,1.1-3.7,2.8l-2.5,8.1c-1,4.2,0.5,5.6,4.8,5.6h29.6C51.1,53.3,52.6,52.1,51.5,47.8z"/>
		<g>
			
				<linearGradient id="SVGID_8_" gradientUnits="userSpaceOnUse" x1="32.1" y1="-583.8439" x2="32.1" y2="-614.7176" gradientTransform="matrix(1 0 0 -1 0 -568)">
				<stop  offset="0" style="stop-color:#FFFFFF"/>
				<stop  offset="0.6" style="stop-color:#EBEBEB"/>
				<stop  offset="1" style="stop-color:#D7D7D7"/>
			</linearGradient>
			<path class="st8" d="M41.2,32.1c-0.3,2.6-4.4,4.7-9.2,4.7s-9-2.1-9.2-4.7L21,38.5c0,3.2,5,5.7,11.1,5.7s11.1-2.6,11.1-5.7
				L41.2,32.1z"/>
			
				<linearGradient id="SVGID_9_" gradientUnits="userSpaceOnUse" x1="32" y1="-583.8439" x2="32" y2="-614.7176" gradientTransform="matrix(1 0 0 -1 0 -568)">
				<stop  offset="0" style="stop-color:#FFFFFF"/>
				<stop  offset="0.6" style="stop-color:#EBEBEB"/>
				<stop  offset="1" style="stop-color:#D7D7D7"/>
			</linearGradient>
			<path class="st9" d="M32,27.7c3.3,0,6.4-1.3,7-3.2l-1.9-6.6c-0.7,1.3-2.8,2.3-5.1,2.3s-4.5-0.8-5.1-2.3L25,24.4
				C25.5,26.2,28.7,27.7,32,27.7z"/>
		</g>
	</g>
</g>
</svg>
