<?xml version="1.0" encoding="utf-8"?>
<!-- Generator: Adobe Illustrator 25.2.0, SVG Export Plug-In . SVG Version: 6.00 Build 0)  -->
<svg version="1.1" id="Layer_1" xmlns="http://www.w3.org/2000/svg" xmlns:xlink="http://www.w3.org/1999/xlink" x="0px" y="0px"
	 viewBox="0 0 64 64" style="enable-background:new 0 0 64 64;" xml:space="preserve">
<style type="text/css">
	.st0{fill:url(#SVGID_1_);}
	.st1{display:none;}
	.st2{opacity:0.17;fill:url(#SVGID_2_);enable-background:new    ;}
	.st3{opacity:0.36;enable-background:new    ;}
	.st4{fill:url(#SVGID_3_);}
	.st5{fill:url(#SVGID_4_);}
	.st6{opacity:0.2;fill:url(#SVGID_5_);enable-background:new    ;}
	.st7{fill:url(#SVGID_6_);}
	.st8{fill:url(#SVGID_7_);}
</style>
<g id="Background">
	<g id="Background_1_">
		
			<linearGradient id="SVGID_1_" gradientUnits="userSpaceOnUse" x1="32" y1="635.3871" x2="32" y2="696.6475" gradientTransform="matrix(1 0 0 1 0 -634)">
			<stop  offset="0" style="stop-color:#323232"/>
			<stop  offset="0.3146" style="stop-color:#2B2B2B"/>
			<stop  offset="0.8341" style="stop-color:#282828"/>
			<stop  offset="0.9668" style="stop-color:#212121"/>
			<stop  offset="1" style="stop-color:#1E1E1E"/>
		</linearGradient>
		<path class="st0" d="M50,63H14C6.8,63,1,57.2,1,50V14C1,6.8,6.8,1,14,1h36c7.2,0,13,5.8,13,13v36C63,57.2,57.2,63,50,63z"/>
	</g>
</g>
<g id="Guides" class="st1">
</g>
<g id="vlc" image-rendering="optimizeSpeed">
	
		<linearGradient id="SVGID_2_" gradientUnits="userSpaceOnUse" x1="32" y1="28.2404" x2="32" y2="15.0969" gradientTransform="matrix(1 0 0 -1 0 66)">
		<stop  offset="0" style="stop-color:#000000;stop-opacity:8.556200e-02"/>
		<stop  offset="1" style="stop-color:#000000"/>
	</linearGradient>
	<path class="st2" d="M52.6,49.1l-2.5-8.6c-0.5-1.7-2.1-2.9-3.9-2.9h-3l-22.3-0.1h-3c-1.8,0-3.4,1.2-3.9,2.9l-2.6,8.6
		c-1.1,4.5,0.5,5.9,5.1,5.9h31.1C52.1,54.9,53.7,53.6,52.6,49.1z"/>
	<path class="st3" d="M51.5,48.9l-2.3-7.6c-0.5-1.5-2-2.6-3.7-2.6h-2.8l-21.1-0.1h-2.8c-1.7,0-3.2,1-3.7,2.6l-2.6,7.7
		c-1,4,0.5,5.2,4.8,5.2h29.5C51,54.1,52.6,52.9,51.5,48.9z"/>
	<g>
		
			<linearGradient id="SVGID_3_" gradientUnits="userSpaceOnUse" x1="32.0039" y1="705.9639" x2="32.0039" y2="660.1659" gradientTransform="matrix(1 0 0 1 0 -634)">
			<stop  offset="0" style="stop-color:#FFDA64"/>
			<stop  offset="0.546" style="stop-color:#FB7C38"/>
			<stop  offset="0.5863" style="stop-color:#FB7C38"/>
			<stop  offset="0.6981" style="stop-color:#FA7432"/>
			<stop  offset="0.8247" style="stop-color:#F5591E"/>
			<stop  offset="0.8995" style="stop-color:#F34F17"/>
		</linearGradient>
		<path class="st4" d="M51.5,47.8l-2.4-8.1c-0.5-1.6-2-2.8-3.7-2.8h-27c-1.7,0-3.2,1.1-3.7,2.8l-2.4,8.1c-1,4.2,0.5,5.6,4.8,5.6
			h29.6C51.1,53.3,52.6,52.1,51.5,47.8z"/>
		<g>
			
				<linearGradient id="SVGID_4_" gradientUnits="userSpaceOnUse" x1="31.9855" y1="643.8679" x2="31.9855" y2="687.0214" gradientTransform="matrix(1 0 0 1 0 -634)">
				<stop  offset="0" style="stop-color:#FFDA64"/>
				<stop  offset="0.546" style="stop-color:#FB7C38"/>
				<stop  offset="0.6638" style="stop-color:#FB7C38"/>
				<stop  offset="0.6981" style="stop-color:#FA7432"/>
				<stop  offset="0.8247" style="stop-color:#F5591E"/>
				<stop  offset="0.8995" style="stop-color:#F34F17"/>
			</linearGradient>
			<path class="st5" d="M37,17.8c-0.9-3-1.6-5.6-2.1-7.2c-0.3-1-1.7-1.6-3-1.6c-1.2,0-2.7,0.6-3.1,1.6c-0.5,1.7-1.2,4.3-2,7.2v4.3
				L25,24.3l-2.3,7.8L22,36.5l-1.2,1.9l-1.4,4.5c0.1,3.6,5.8,6.4,12.5,6.4l0,0c6.7,0,12.5-2.8,12.5-6.4l-1.4-4.5l-1.2-1.4l-0.7-4.9
				L39,24.4l-1.4-2.3L37,17.8z"/>
		</g>
		
			<radialGradient id="SVGID_5_" cx="31.8678" cy="668.8337" r="24.9173" gradientTransform="matrix(1 0 0 1 0 -634)" gradientUnits="userSpaceOnUse">
			<stop  offset="0" style="stop-color:#FFDA64;stop-opacity:8.556200e-02"/>
			<stop  offset="0.9107" style="stop-color:#FB7C38"/>
			<stop  offset="1" style="stop-color:#F34F17"/>
		</radialGradient>
		<path class="st6" d="M51.5,47.8l-2.4-8.1c-0.5-1.6-2-2.8-3.7-2.8h-2.9l-1.1-1.1l-0.2-3.6L39,24.5l-1.9-2.2v-4.4
			c-0.9-3-1.6-5.6-2.1-7.2c-0.2-1-1.7-1.6-2.9-1.6s-2.7,0.6-3.1,1.6c-0.7,1.6-1.3,4.2-2.1,7.2v4.2L25,24.4l-2.3,7.8l-0.3,4l-1,0.7
			h-2.9c-1.7,0-3.2,1.1-3.7,2.8l-2.5,8.1c-1,4.2,0.5,5.6,4.8,5.6h29.6C51.1,53.3,52.6,52.1,51.5,47.8z"/>
		<g>
			
				<linearGradient id="SVGID_6_" gradientUnits="userSpaceOnUse" x1="32.0221" y1="649.8439" x2="32.0221" y2="680.7176" gradientTransform="matrix(1 0 0 1 0 -634)">
				<stop  offset="0" style="stop-color:#FFFFFF"/>
				<stop  offset="0.6" style="stop-color:#EBEBEB"/>
				<stop  offset="1" style="stop-color:#D7D7D7"/>
			</linearGradient>
			<path class="st7" d="M41.2,32.1c-0.3,2.6-4.4,4.7-9.2,4.7s-9-2.1-9.2-4.7l-1.8,6.4c0,3.2,5,5.7,11.1,5.7s11.1-2.6,11.1-5.7
				L41.2,32.1z"/>
			
				<linearGradient id="SVGID_7_" gradientUnits="userSpaceOnUse" x1="32.0588" y1="649.8439" x2="32.0588" y2="680.7176" gradientTransform="matrix(1 0 0 1 0 -634)">
				<stop  offset="0" style="stop-color:#FFFFFF"/>
				<stop  offset="0.6" style="stop-color:#EBEBEB"/>
				<stop  offset="1" style="stop-color:#D7D7D7"/>
			</linearGradient>
			<path class="st8" d="M32,27.7c3.3,0,6.4-1.3,7-3.2l-1.9-6.6c-0.7,1.3-2.8,2.3-5.1,2.3s-4.5-0.8-5.1-2.3l-1.9,6.5
				C25.5,26.2,28.7,27.7,32,27.7z"/>
		</g>
	</g>
</g>
</svg>
