<?xml version="1.0" encoding="utf-8"?>
<!-- Generator: Adobe Illustrator 23.0.2, SVG Export Plug-In . SVG Version: 6.00 Build 0)  -->
<svg version="1.1" xmlns="http://www.w3.org/2000/svg" xmlns:xlink="http://www.w3.org/1999/xlink" x="0px" y="0px"
	 viewBox="0 0 64 64" style="enable-background:new 0 0 64 64;" xml:space="preserve">
<style type="text/css">
	.st0{opacity:0.17;fill:url(#SVGID_1_);enable-background:new    ;}
	.st1{opacity:0.36;enable-background:new    ;}
	.st2{fill:url(#SVGID_2_);}
	.st3{fill:url(#SVGID_3_);}
	.st4{opacity:0.2;fill:url(#SVGID_4_);enable-background:new    ;}
	.st5{fill:url(#SVGID_5_);}
	.st6{fill:url(#SVGID_6_);}
</style>
<g id="Layer_2">
</g>
<g id="vlc" image-rendering="optimizeSpeed">
	<linearGradient id="SVGID_1_" gradientUnits="userSpaceOnUse" x1="32" y1="40.1613" x2="32" y2="58.101">
		<stop  offset="0" style="stop-color:#000000;stop-opacity:8.556200e-02"/>
		<stop  offset="1" style="stop-color:#000000"/>
	</linearGradient>
	<path class="st0" d="M60.1,55.7L56.7,44c-0.7-2.3-2.8-4-5.3-4h-4.1l-30.5-0.1h-4.1c-2.4,0-4.6,1.6-5.3,4L3.9,55.7
		c-1.5,6.1,0.7,8,6.9,8h42.5C59.4,63.6,61.7,61.8,60.1,55.7z"/>
	<path class="st1" d="M58.6,55.4L55.4,45c-0.7-2.1-2.7-3.5-5-3.5h-3.8l-28.8-0.1h-3.8c-2.3,0-4.3,1.4-5,3.5L5.4,55.4
		c-1.4,5.4,0.7,7.1,6.5,7.1h40.2C57.9,62.4,60.1,60.8,58.6,55.4z"/>
	<g>
		
			<linearGradient id="SVGID_2_" gradientUnits="userSpaceOnUse" x1="32" y1="-20.8472" x2="32" y2="41.663" gradientTransform="matrix(1 0 0 -1 0 66)">
			<stop  offset="0" style="stop-color:#FFDA64"/>
			<stop  offset="0.546" style="stop-color:#FB7C38"/>
			<stop  offset="0.5863" style="stop-color:#FB7C38"/>
			<stop  offset="0.6981" style="stop-color:#FA7432"/>
			<stop  offset="0.8247" style="stop-color:#F5591E"/>
			<stop  offset="0.8995" style="stop-color:#F34F17"/>
		</linearGradient>
		<path class="st2" d="M58.7,53.9l-3.3-11.1c-0.7-2.2-2.7-3.8-5-3.8H13.6c-2.3,0-4.3,1.5-5,3.8L5.3,53.9c-1.4,5.8,0.7,7.6,6.6,7.6
			h40.4C58.1,61.4,60.2,59.7,58.7,53.9z"/>
		<g>
			
				<linearGradient id="SVGID_3_" gradientUnits="userSpaceOnUse" x1="32" y1="63.9083" x2="32" y2="5.0077" gradientTransform="matrix(1 0 0 -1 0 66)">
				<stop  offset="0" style="stop-color:#FFDA64"/>
				<stop  offset="0.546" style="stop-color:#FB7C38"/>
				<stop  offset="0.6638" style="stop-color:#FB7C38"/>
				<stop  offset="0.6981" style="stop-color:#FA7432"/>
				<stop  offset="0.8247" style="stop-color:#F5591E"/>
				<stop  offset="0.8995" style="stop-color:#F34F17"/>
			</linearGradient>
			<path class="st3" d="M38.9,12.9c-1.2-4.1-2.2-7.6-2.8-9.8c-0.4-1.4-2.3-2.2-4.1-2.2c-1.7,0-3.7,0.8-4.2,2.2
				c-0.7,2.3-1.6,5.9-2.7,9.8v5.9l-2.6,3l-3.1,10.6l-1,6.1l-1.6,2.6l-1.9,6.1c0.1,4.9,7.9,8.7,17.1,8.7l0,0c9.2,0,17-3.8,17.1-8.7
				l-1.9-6.1l-1.6-1.9l-0.9-6.7l-3.1-10.6l-1.9-3.1L38.9,12.9z"/>
		</g>
		
			<radialGradient id="SVGID_4_" cx="31.8393" cy="29.8323" r="34.0099" gradientTransform="matrix(1 0 0 -1 0 66)" gradientUnits="userSpaceOnUse">
			<stop  offset="0" style="stop-color:#FFDA64;stop-opacity:8.556200e-02"/>
			<stop  offset="0.9107" style="stop-color:#FB7C38"/>
			<stop  offset="1" style="stop-color:#F34F17"/>
		</radialGradient>
		<path class="st4" d="M58.7,53.9l-3.3-11.1c-0.7-2.2-2.7-3.8-5-3.8h-3.9L45,37.5l-0.3-4.9l-3.1-10.6l-2.6-3V13
			c-1.2-4.1-2.2-7.6-2.8-9.8C35.9,1.8,33.9,1,32.2,1c-1.7,0-3.7,0.8-4.2,2.2c-0.9,2.2-1.8,5.8-2.9,9.8v5.8l-2.6,3.1l-3.1,10.6
			l-0.4,5.5l-1.4,1h-3.9c-2.3,0-4.3,1.5-5,3.8L5.3,53.9c-1.4,5.8,0.7,7.6,6.6,7.6h40.4C58.1,61.4,60.2,59.7,58.7,53.9z"/>
		<g>
			
				<linearGradient id="SVGID_5_" gradientUnits="userSpaceOnUse" x1="32" y1="55.7516" x2="32" y2="13.6118" gradientTransform="matrix(1 0 0 -1 0 66)">
				<stop  offset="0" style="stop-color:#FFFFFF"/>
				<stop  offset="0.6" style="stop-color:#EBEBEB"/>
				<stop  offset="1" style="stop-color:#D7D7D7"/>
			</linearGradient>
			<path class="st5" d="M44.6,32.5c-0.4,3.6-6,6.4-12.6,6.4s-12.3-2.8-12.6-6.4l-2.5,8.7C16.9,45.6,23.7,49,32,49s15.2-3.5,15.2-7.8
				L44.6,32.5z"/>
			
				<linearGradient id="SVGID_6_" gradientUnits="userSpaceOnUse" x1="32.0965" y1="55.7516" x2="32.0965" y2="13.6118" gradientTransform="matrix(1 0 0 -1 0 66)">
				<stop  offset="0" style="stop-color:#FFFFFF"/>
				<stop  offset="0.6" style="stop-color:#EBEBEB"/>
				<stop  offset="1" style="stop-color:#D7D7D7"/>
			</linearGradient>
			<path class="st6" d="M32,26.4c4.5,0,8.8-1.8,9.6-4.4L39,13c-0.9,1.8-3.8,3.1-6.9,3.1S26,15,25.2,13l-2.6,8.9
				C23.2,24.4,27.5,26.4,32,26.4z"/>
		</g>
	</g>
</g>
</svg>
