<?xml version="1.0" encoding="utf-8"?>
<!-- Generator: Adobe Illustrator 23.0.2, SVG Export Plug-In . SVG Version: 6.00 Build 0)  -->
<svg version="1.1" id="vlc" image-rendering="optimizeSpeed"
	 xmlns="http://www.w3.org/2000/svg" xmlns:xlink="http://www.w3.org/1999/xlink" x="0px" y="0px" viewBox="0 0 64 64"
	 style="enable-background:new 0 0 64 64;" xml:space="preserve">
<style type="text/css">
	.st0{fill:url(#SVGID_1_);}
	.st1{fill:url(#SVGID_2_);}
	.st2{opacity:0.2;fill:url(#SVGID_3_);enable-background:new    ;}
	.st3{fill:url(#SVGID_4_);}
	.st4{fill:url(#SVGID_5_);}
</style>
<linearGradient id="SVGID_1_" gradientUnits="userSpaceOnUse" x1="32" y1="89.6543" x2="32" y2="24.907">
	<stop  offset="0" style="stop-color:#FFDA64"/>
	<stop  offset="0.546" style="stop-color:#FB7C38"/>
	<stop  offset="0.5863" style="stop-color:#FB7C38"/>
	<stop  offset="0.6981" style="stop-color:#FA7432"/>
	<stop  offset="0.8247" style="stop-color:#F5591E"/>
	<stop  offset="0.8995" style="stop-color:#F34F17"/>
</linearGradient>
<path class="st0" d="M59.7,55.5L56.3,44c-0.7-2.3-2.8-3.9-5.2-3.9H12.9c-2.4,0-4.5,1.6-5.2,3.9L4.3,55.5c-1.5,6,0.7,7.9,6.8,7.9
	h41.8C59,63.3,61.2,61.5,59.7,55.5z"/>
<g>
	<linearGradient id="SVGID_2_" gradientUnits="userSpaceOnUse" x1="32" y1="1.8656" x2="32" y2="62.8741">
		<stop  offset="0" style="stop-color:#FFDA64"/>
		<stop  offset="0.546" style="stop-color:#FB7C38"/>
		<stop  offset="0.6638" style="stop-color:#FB7C38"/>
		<stop  offset="0.6981" style="stop-color:#FA7432"/>
		<stop  offset="0.8247" style="stop-color:#F5591E"/>
		<stop  offset="0.8995" style="stop-color:#F34F17"/>
	</linearGradient>
	<path class="st1" d="M39.1,13.1c-1.2-4.2-2.3-7.9-2.9-10.2c-0.4-1.4-2.4-2.3-4.2-2.3c-1.8,0-3.8,0.8-4.3,2.3C27,5.3,26,9,24.9,13.1
		l0,6.1l-2.7,3.1l-3.2,11l-1,6.3l-1.7,2.7l-2,6.3c0.1,5.1,8.2,9,17.7,9l0,0c9.5,0,17.6-3.9,17.7-9l-2-6.3L46,40.3l-0.9-6.9l-3.2-11
		l-2-3.2L39.1,13.1z"/>
</g>
<radialGradient id="SVGID_3_" cx="31.8335" cy="37.1611" r="35.2271" gradientUnits="userSpaceOnUse">
	<stop  offset="0" style="stop-color:#FFDA64;stop-opacity:8.556200e-02"/>
	<stop  offset="0.9107" style="stop-color:#FB7C38"/>
	<stop  offset="1" style="stop-color:#F34F17"/>
</radialGradient>
<path class="st2" d="M59.7,55.5L56.3,44c-0.7-2.3-2.8-3.9-5.2-3.9h-4l-1.6-1.6l-0.3-5.1l-3.2-11l-2.7-3.1l0-6.1
	c-1.2-4.2-2.3-7.9-2.9-10.2c-0.4-1.4-2.4-2.3-4.2-2.3c-1.8,0-3.8,0.8-4.3,2.3C27,5.3,26,9,24.9,13.1l0,6l-2.7,3.2l-3.2,11l-0.4,5.7
	l-1.5,1h-4c-2.4,0-4.5,1.6-5.2,3.9L4.3,55.5c-1.5,6,0.7,7.9,6.8,7.9h41.8C59,63.3,61.2,61.5,59.7,55.5z"/>
<g>
	<linearGradient id="SVGID_4_" gradientUnits="userSpaceOnUse" x1="32" y1="10.3142" x2="32" y2="53.9621">
		<stop  offset="0" style="stop-color:#FFFFFF"/>
		<stop  offset="0.6" style="stop-color:#EBEBEB"/>
		<stop  offset="1" style="stop-color:#D7D7D7"/>
	</linearGradient>
	<path class="st3" d="M45.1,33.4C44.7,37.1,38.9,40,32,40s-12.7-2.9-13.1-6.6l-2.6,9c0.1,4.5,7.1,8.1,15.7,8.1s15.7-3.6,15.7-8.1
		L45.1,33.4z"/>
	<linearGradient id="SVGID_5_" gradientUnits="userSpaceOnUse" x1="32" y1="10.3142" x2="32" y2="53.9621">
		<stop  offset="0" style="stop-color:#FFFFFF"/>
		<stop  offset="0.6" style="stop-color:#EBEBEB"/>
		<stop  offset="1" style="stop-color:#D7D7D7"/>
	</linearGradient>
	<path class="st4" d="M32,27c4.7,0,9.1-1.9,9.9-4.6l-2.7-9.2c-0.9,1.9-3.9,3.2-7.1,3.2s-6.3-1.2-7.1-3.2l-2.7,9.2
		C22.9,25,27.3,27,32,27z"/>
</g>
</svg>
