<svg xmlns="http://www.w3.org/2000/svg" viewBox="0 0 24 24"><path d="M19.52,9.5c-.53.55-1.45,1.52-2.47,2.58a.019.019,0,0,0-.03,0,.757.757,0,0,0-.15-.01,2.817,2.817,0,0,0-2.73,2.16,1.787,1.787,0,0,0-1.07,1.64v.37c-.13.13-.24.25-.35.36a1,1,0,0,1-1.44,0L4.48,9.51a.7.7,0,0,1,.01-.99,10.953,10.953,0,0,1,15.02,0A.685.685,0,0,1,19.52,9.5Z" fill-rule="evenodd" opacity="0.35"/><path d="M17.35,11.73l-.33.35a.757.757,0,0,0-.15-.01,2.817,2.817,0,0,0-2.73,2.16,1.787,1.787,0,0,0-1.07,1.64v.32l-.35.37a1,1,0,0,1-1.44,0L6.65,11.73a.7.7,0,0,1,.02-1,7.983,7.983,0,0,1,10.66,0A.7.7,0,0,1,17.35,11.73Z" fill-rule="evenodd"/><path d="M16.868,12.874a2,2,0,0,0-2,2,1,1,0,0,0-1,1v2a1,1,0,0,0,1,1h4a1,1,0,0,0,1-1v-2a1,1,0,0,0-1-1A2,2,0,0,0,16.868,12.874Zm0,1a1,1,0,0,1,1,1h-2A1,1,0,0,1,16.868,13.874Z" fill-rule="evenodd"/></svg>