<svg xmlns="http://www.w3.org/2000/svg" viewBox="0 0 24 24"><path d="M10,4.5a1.5,1.5,0,0,0,0,3h1.5V6A1.5,1.5,0,0,0,10,4.5Zm4,0A1.5,1.5,0,0,0,12.5,6v4a1.5,1.5,0,0,0,3,0V8.732a2.988,2.988,0,0,1-.516-3.861A1.5,1.5,0,0,0,14,4.5Zm-8,4a1.5,1.5,0,0,0,0,3h4a1.5,1.5,0,0,0,0-3Zm13.131.516a2.983,2.983,0,0,1-2.49.357A1.492,1.492,0,0,0,16.5,10v1.5H18a1.5,1.5,0,0,0,1.131-2.484ZM6,12.5A1.5,1.5,0,1,0,7.5,14V12.5Zm4,0A1.5,1.5,0,0,0,8.5,14v4a1.5,1.5,0,0,0,3,0V14A1.5,1.5,0,0,0,10,12.5Zm4,0a1.5,1.5,0,0,0,0,3h4a1.5,1.5,0,0,0,0-3Zm-1.5,4V18A1.5,1.5,0,1,0,14,16.5Z" fill="#4285f4"/><circle cx="17.5" cy="6.5" r="2" fill="#4285f4"/></svg>