<?xml version="1.0" encoding="utf-8"?>
<!-- Generator: Adobe Illustrator 23.0.2, SVG Export Plug-In . SVG Version: 6.00 Build 0)  -->
<svg version="1.1" id="Layer_1" xmlns="http://www.w3.org/2000/svg" xmlns:xlink="http://www.w3.org/1999/xlink" x="0px" y="0px"
	 viewBox="0 0 64 64" style="enable-background:new 0 0 64 64;" xml:space="preserve">
<style type="text/css">
	.st0{opacity:0.17;fill:url(#SVGID_1_);enable-background:new    ;}
	.st1{opacity:0.36;enable-background:new    ;}
	.st2{fill:url(#SVGID_2_);}
	.st3{fill:url(#SVGID_3_);}
	.st4{fill:#FFFFFF;}
	.st5{fill:url(#SVGID_4_);}
	.st6{fill:none;stroke:#E26758;stroke-width:3;stroke-linecap:round;stroke-linejoin:round;stroke-miterlimit:10;}
</style>
<g>
	<linearGradient id="SVGID_1_" gradientUnits="userSpaceOnUse" x1="38.2363" y1="11.8387" x2="38.2363" y2="58.2968">
		<stop  offset="0" style="stop-color:#020202;stop-opacity:0"/>
		<stop  offset="1" style="stop-color:#000000"/>
	</linearGradient>
	<path class="st0" d="M58.7,11.5H17.8c-2.2,0-4,1.9-4,4.2v43.7c0,2.4,1.8,4.2,4,4.2h40.8c2.2,0,4-1.9,4-4.2V15.8
		C62.6,13.4,60.9,11.5,58.7,11.5z"/>
	<path class="st1" d="M57.2,62.4H19.3c-2.1,0-3.7-1.7-3.7-3.7v-2.6c0-3.6,2.9-6.6,6.6-6.6h32.3c3.6,0,6.6,2.9,6.6,6.6v2.6
		C61,60.7,59.3,62.4,57.2,62.4z"/>
</g>
<linearGradient id="SVGID_2_" gradientUnits="userSpaceOnUse" x1="25.6229" y1="-10.7814" x2="45.3648" y2="59.1541" gradientTransform="matrix(1 0 0 -1 0 66)">
	<stop  offset="0" style="stop-color:#DC4C3A"/>
	<stop  offset="1" style="stop-color:#E78275"/>
</linearGradient>
<path class="st2" d="M61.4,19.3v38.4c0,2.1-1.7,3.8-3.8,3.8H18.9c-2.1,0-3.8-1.7-3.8-3.8V6.4c0-2.1,1.7-3.8,3.8-3.8h25.7L61.4,19.3
	L61.4,19.3z"/>
<linearGradient id="SVGID_3_" gradientUnits="userSpaceOnUse" x1="56.9691" y1="65.2627" x2="45.4853" y2="35.7143" gradientTransform="matrix(1 0 0 -1 0 66)">
	<stop  offset="0" style="stop-color:#E78275"/>
	<stop  offset="1" style="stop-color:#DC4C3A"/>
</linearGradient>
<path class="st3" d="M61.4,19.3H48.1c-1.9,0-3.5-1.6-3.5-3.5V2.6L61.4,19.3z"/>
<g>
	<rect x="21.3" y="24.9" class="st4" width="33.9" height="2"/>
	<rect x="21.3" y="31.9" class="st4" width="33.9" height="2"/>
	<rect x="21.3" y="38.8" class="st4" width="33.9" height="2"/>
	<rect x="21.3" y="45.8" class="st4" width="33.9" height="2"/>
	<rect x="21.3" y="52.7" class="st4" width="33.9" height="2"/>
</g>
<radialGradient id="SVGID_4_" cx="19.1935" cy="-978.129" r="38.6712" gradientTransform="matrix(1 0 0 -1 0 -948)" gradientUnits="userSpaceOnUse">
	<stop  offset="0.1508" style="stop-color:#FFFFFF"/>
	<stop  offset="0.3182" style="stop-color:#F4F5F5"/>
	<stop  offset="0.6089" style="stop-color:#D8D8DB"/>
	<stop  offset="0.9862" style="stop-color:#AAABB0"/>
	<stop  offset="0.9944" style="stop-color:#A9AAAF"/>
</radialGradient>
<path class="st5" d="M31.6,48.8H7.1c-2.5,0-4.5-2-4.5-4.5V19.8c0-2.5,2-4.5,4.5-4.5h24.5c2.5,0,4.5,2,4.5,4.5v24.5
	C36.1,46.7,34.1,48.8,31.6,48.8z"/>
<path class="st6" d="M16.9,30.8V21h5.3c3.8,0,7,3.1,7,7l0,0c0,3.8-3.1,7-7,7h-8.6c-2.3,0-4.2,1.9-4.2,4.2l0,0c0,2.3,1.9,4.2,4.2,4.2
	h3.2v-4.1"/>
</svg>
