<?xml version="1.0" encoding="utf-8"?>
<!-- Generator: Adobe Illustrator 23.0.2, SVG Export Plug-In . SVG Version: 6.00 Build 0)  -->
<svg version="1.1" xmlns="http://www.w3.org/2000/svg" xmlns:xlink="http://www.w3.org/1999/xlink" x="0px" y="0px"
	 viewBox="0 0 64 64" style="enable-background:new 0 0 64 64;" xml:space="preserve">
<style type="text/css">
	.st0{opacity:0.17;fill:url(#SVGID_1_);enable-background:new    ;}
	.st1{opacity:0.36;enable-background:new    ;}
	.st2{fill:url(#SVGID_2_);}
	.st3{fill:url(#SVGID_3_);}
	.st4{fill:#FFFFFF;}
	.st5{fill:url(#SVGID_4_);}
	.st6{fill:none;stroke:#5C95E0;stroke-width:3;stroke-linecap:round;stroke-linejoin:round;stroke-miterlimit:10;}
</style>
<g id="shadow">
	<g>
		<linearGradient id="SVGID_1_" gradientUnits="userSpaceOnUse" x1="38.2363" y1="11.8387" x2="38.2363" y2="58.2968">
			<stop  offset="0" style="stop-color:#020202;stop-opacity:0"/>
			<stop  offset="1" style="stop-color:#000000"/>
		</linearGradient>
		<path class="st0" d="M58.7,11.5H17.8c-2.2,0-4,1.9-4,4.2v43.7c0,2.4,1.8,4.2,4,4.2h40.8c2.2,0,4-1.9,4-4.2V15.8
			C62.6,13.4,60.9,11.5,58.7,11.5z"/>
		<path class="st1" d="M57.2,62.4H19.3c-2.1,0-3.7-1.7-3.7-3.7v-2.6c0-3.6,2.9-6.6,6.6-6.6h32.3c3.6,0,6.6,2.9,6.6,6.6v2.6
			C61,60.7,59.3,62.4,57.2,62.4z"/>
	</g>
</g>
<g id="Layer_1">
	
		<linearGradient id="SVGID_2_" gradientUnits="userSpaceOnUse" x1="11.3316" y1="-1012.1891" x2="69.3666" y2="-942.7907" gradientTransform="matrix(1 0 0 -1 0 -948)">
		<stop  offset="7.738077e-03" style="stop-color:#5688CB"/>
		<stop  offset="0.3008" style="stop-color:#63A4F8"/>
		<stop  offset="1" style="stop-color:#6DA9F8"/>
	</linearGradient>
	<path class="st2" d="M61.4,19.3v38.3c0,2.1-1.7,3.8-3.8,3.8H18.9c-2.1,0-3.8-1.7-3.8-3.8V6.4c0-2.1,1.7-3.8,3.8-3.8h25.7L61.4,19.3
		z"/>
	
		<linearGradient id="SVGID_3_" gradientUnits="userSpaceOnUse" x1="46.0102" y1="46.3324" x2="68.978" y2="74.9776" gradientTransform="matrix(1 0 0 -1 0 66)">
		<stop  offset="0" style="stop-color:#5688CB"/>
		<stop  offset="0.131" style="stop-color:#5B94DE"/>
		<stop  offset="0.3048" style="stop-color:#61A0F1"/>
		<stop  offset="0.4253" style="stop-color:#63A4F8"/>
		<stop  offset="0.4341" style="stop-color:#64A4F8"/>
		<stop  offset="0.6082" style="stop-color:#6BA8F8"/>
		<stop  offset="1" style="stop-color:#6DA9F8"/>
	</linearGradient>
	<path class="st3" d="M61.4,19.3H48.1c-1.9,0-3.5-1.6-3.5-3.5V2.6L61.4,19.3z"/>
	<g>
		<rect x="21.3" y="24.9" class="st4" width="19.9" height="2"/>
		<rect x="21.3" y="31.9" class="st4" width="19.9" height="2"/>
		<rect x="21.3" y="38.8" class="st4" width="33.9" height="2"/>
		<rect x="21.3" y="45.8" class="st4" width="33.9" height="2"/>
		<rect x="21.3" y="52.7" class="st4" width="33.9" height="2"/>
	</g>
	<rect x="46.2" y="24.9" class="st4" width="9" height="9"/>
	
		<radialGradient id="SVGID_4_" cx="19.1935" cy="1044.129" r="38.6712" gradientTransform="matrix(1 0 0 1 0 -1014)" gradientUnits="userSpaceOnUse">
		<stop  offset="0.1508" style="stop-color:#FFFFFF"/>
		<stop  offset="0.3182" style="stop-color:#F4F5F5"/>
		<stop  offset="0.6089" style="stop-color:#D8D8DB"/>
		<stop  offset="0.9862" style="stop-color:#AAABB0"/>
		<stop  offset="0.9944" style="stop-color:#A9AAAF"/>
	</radialGradient>
	<path class="st5" d="M31.6,48.8H7.1c-2.5,0-4.5-2-4.5-4.5V19.8c0-2.5,2-4.5,4.5-4.5h24.5c2.5,0,4.5,2,4.5,4.5v24.5
		C36.1,46.7,34.1,48.8,31.6,48.8z"/>
	<path class="st6" d="M9.4,24.5v15l10-8.7l10,8.7v-15"/>
</g>
</svg>
