<?xml version="1.0" encoding="utf-8"?>
<!-- Generator: Adobe Illustrator 25.2.0, SVG Export Plug-In . SVG Version: 6.00 Build 0)  -->
<svg version="1.1" id="Layer_1" xmlns="http://www.w3.org/2000/svg" xmlns:xlink="http://www.w3.org/1999/xlink" x="0px" y="0px"
	 viewBox="0 0 64 64" style="enable-background:new 0 0 64 64;" xml:space="preserve">
<style type="text/css">
	.st0{fill:url(#SVGID_1_);}
	.st1{display:none;}
	.st2{opacity:0.2;fill:url(#SVGID_2_);enable-background:new    ;}
	.st3{opacity:0.33;enable-background:new    ;}
	.st4{fill:url(#SVGID_3_);}
	.st5{fill:url(#SVGID_4_);}
	.st6{fill:url(#SVGID_5_);}
	.st7{fill:url(#SVGID_6_);}
	.st8{fill:url(#SVGID_7_);}
	.st9{fill:url(#Border_1_);}
</style>
<g id="Background">
	
		<radialGradient id="SVGID_1_" cx="32" cy="34" r="37.5169" gradientTransform="matrix(1 0 0 -1 0 66)" gradientUnits="userSpaceOnUse">
		<stop  offset="0" style="stop-color:#353535"/>
		<stop  offset="1" style="stop-color:#000000"/>
	</radialGradient>
	<path class="st0" d="M49.4,62H14.6C7.6,62,2,56.4,2,49.4V14.6C2,7.6,7.6,2,14.6,2h34.9C56.4,2,62,7.6,62,14.6v34.9
		C62,56.4,56.4,62,49.4,62z"/>
</g>
<g id="Guides" class="st1">
</g>
<g id="Icon">
	
		<radialGradient id="SVGID_2_" cx="32.0011" cy="1679.9568" r="16.7577" gradientTransform="matrix(1 0 0 1 0 -1648)" gradientUnits="userSpaceOnUse">
		<stop  offset="0.4798" style="stop-color:#E3E3E3"/>
		<stop  offset="0.7736" style="stop-color:#6E6E6E"/>
	</radialGradient>
	<path class="st2" d="M43,31.1c0-0.1,0-0.1-0.1-0.1l-0.1-0.1l-1.5-0.2c-0.1-0.9-0.4-1.8-0.7-2.6l1.2-1c0.1-0.3,0.1-0.1,0.1-0.1
		c0-0.1,0-0.1,0-0.2l-0.1-0.1l0,0l0,0l-0.6-1l-0.1-0.1c-0.1,0-0.1,0-0.2,0l-1.4,0.6c-0.5-0.7-1.2-1.4-1.9-1.9l0.5-1.5
		c-0.1-0.3,0-0.1,0-0.2s0-0.1-0.1-0.1l-0.1-0.1l-1-0.5c-0.1,0-0.1,0-0.2,0c-0.1,0-0.1,0.1-0.1,0.1l-0.9,1.3
		c-0.8-0.3-1.6-0.6-2.5-0.7c-0.1,0-0.1,0-0.2,0L32.5,21c-0.2-0.2,0-0.1-0.1-0.1l-0.1-0.1l0,0h-1.2c-0.1,0-0.1,0-0.1,0.1L30.9,21
		l-0.2,1.5c-0.9,0.1-1.8,0.4-2.7,0.7L27,22l-0.1-0.1c-0.1,0-0.1,0-0.2,0l-0.9,0.9l-0.1,0.1c0,0.1,0,0.1,0,0.2l0.6,1.4
		c-0.7,0.6-1.4,1.2-1.9,2L22.9,26c-0.1,0-0.1,0-0.2,0s-0.1,0-0.1,0.1L22,27.2c0,0.1,0,0.1,0,0.2s0.1,0.1,0.1,0.1l1.2,0.9
		c-0.3,0.8-0.6,1.6-0.7,2.4c0,0.1,0,0.2,0,0.2l-1.5,0.2c-0.1,0-0.1,0-0.1,0.1l-0.1,0.1v1.2c0,0.1,0,0.1,0.1,0.1l0.1,0.1l1.5,0.2
		c0.1,0.9,0.4,1.8,0.7,2.6l-1.2,0.9L22,36.7c0,0.1,0,0.1,0,0.2l0.6,1.1l0.1,0.1c0.1,0,0.1,0,0.2,0l1.4-0.6c0.6,0.7,1.2,1.4,2,1.9
		l-0.6,1.4c0,0.1,0,0.1,0,0.2c0,0.1,0,0.1,0.1,0.1l1.1,0.6c0.1,0,0.1,0,0.2,0s0.1-0.1,0.1-0.1l0.9-1.2c0.8,0.3,1.6,0.6,2.4,0.7
		c0.1,0,0.2,0,0.2,0l0.2,1.5c0,0.1,0,0.1,0.1,0.1l0.1,0.1h1.2c0.1,0,0.1,0,0.1-0.1l0.1-0.1l0.2-1.5c0.9-0.1,1.8-0.4,2.6-0.7l1,1.2
		c0.3,0.1,0.1,0.1,0.1,0.1c0.1,0,0.1,0,0.2,0l1.1-0.6l0.1-0.1c0-0.1,0-0.1,0-0.2l-0.6-1.4c0.7-0.5,1.4-1.2,1.9-1.9l1.5,0.5
		c0.3-0.1,0.1,0,0.2,0c0.1,0,0.1,0,0.1-0.1l0.6-1.1c0-0.1,0-0.1,0-0.2c0-0.1-0.1-0.1-0.1-0.1l-1.3-0.9c0.3-0.8,0.6-1.6,0.7-2.4
		c0-0.1,0-0.1,0-0.2l1.5-0.3c0.2-0.2,0.1,0,0.1-0.1l0.1-0.1L43,31.1z M32,39.1c-4,0-7.1-3.3-7.1-7.1s3.3-7.1,7.1-7.1
		s7.1,3.3,7.1,7.1S36,39.1,32,39.1z"/>
	<g class="st3">
		
			<radialGradient id="SVGID_3_" cx="31.7046" cy="665.5508" r="34.0047" gradientTransform="matrix(1 0 0 1 0 -634)" gradientUnits="userSpaceOnUse">
			<stop  offset="0" style="stop-color:#E3E3E3"/>
			<stop  offset="1" style="stop-color:#6E6E6E"/>
		</radialGradient>
		<path class="st4" d="M21.6,27.2c-0.1-0.2-0.3-0.5-0.4-0.5l-3.8-0.1c-0.3,0-0.5-0.2-0.6-0.4l-0.5-1.8c-0.1-0.2,0-0.5,0.3-0.7
			l3.2-1.9c0.2-0.1,0.3-0.3,0.2-0.5l-0.6-1.6c-0.1-0.2-0.3-0.3-0.5-0.2l-3.7,0.7c-0.2,0.1-0.5,0-0.7-0.3L13.6,18
			c-0.1-0.2-0.1-0.5,0.2-0.7l2.6-2.6c0.3-0.2,0.2-0.4,0-0.7l-1-1.4c-0.1-0.2-0.4-0.2-0.6-0.1L11.4,14c-0.2,0.1-0.5,0.1-0.7-0.2
			l-1.3-1.4c-0.1-0.2-0.3-0.5,0-0.7l1.8-3.4c0.1-0.3,0-0.5-0.2-0.7L9.3,6.3C9,6.2,8.9,6.1,8.6,6.3L6,8.9C5.7,9,5.4,9,5.2,8.9l-1.6-1
			v6.8c1.5,1.2,3,2.6,4.1,4.3c3.6,4.7,4.8,10.4,4,15.9c-0.2,1.2-1.5,1.9-3,1.3c-1.4-0.6-3.3-1.3-5.2-2.1v6.5C4.4,41,5.2,41.4,6,41.8
			c1.4,0.6,1.6,2.2,0.8,3.4c0.1,0.1,0.5-0.4-0.2,0.4c-0.9,1.1-2,2.1-3.2,3.1V55l0.4-0.2C4,54.7,4.3,54.7,4.5,55l2.6,2.6
			c0.2,0,0.3,0.1,0.3,0.1h0.2c0.1,0,0.2-0.1,0.3-0.2l1.4-1c0.2-0.1,0.2-0.4,0.1-0.6L8,52.5c-0.1-0.2-0.1-0.5,0.2-0.7l1.4-1.3
			c0.2-0.1,0.5-0.3,0.7,0l3.4,1.8c0.3,0.1,0.5,0,0.7-0.2l1.1-1.5c0.1-0.3,0.2-0.4,0-0.7l-2.4-2.7c-0.1-0.2-0.1-0.5,0-0.7l1.1-1.7
			c0.1-0.3,0.5-0.3,0.6-0.2l3.6,0.9c0.3,0.1,0.5-0.1,0.6-0.2l0.7-1.6c0-0.5,0-0.7-0.2-0.7l-3.3-2c-0.3-0.1-0.3-0.5-0.2-0.6l0.6-2
			c0.1-0.3,0.3-0.4,0.5-0.4h3.8c0.2-0.1,0.4-0.2,0.5-0.4l0.3-1.8c0.1-0.3-0.1-0.5-0.4-0.6l-3.6-1c-0.3-0.1-0.3-0.3-0.4-0.5v-1.9
			c-0.1-0.2,0.2-0.5,0.4-0.6l3.7-1c0.2-0.1,0.5-0.3,0.4-0.5L21.6,27.2z"/>
		
			<radialGradient id="SVGID_4_" cx="3.6" cy="640.2" r="0" gradientTransform="matrix(1 0 0 1 0 -634)" gradientUnits="userSpaceOnUse">
			<stop  offset="0" style="stop-color:#E3E3E3"/>
			<stop  offset="1" style="stop-color:#6E6E6E"/>
		</radialGradient>
		<path class="st5" d="M3.6,6.2L3.6,6.2L3.6,6.2z"/>
	</g>
	<g class="st3">
		
			<radialGradient id="SVGID_5_" cx="-716.2971" cy="665.5303" r="35.7106" gradientTransform="matrix(-1 0 0 1 -683.901 -634)" gradientUnits="userSpaceOnUse">
			<stop  offset="0" style="stop-color:#E3E3E3"/>
			<stop  offset="1" style="stop-color:#6E6E6E"/>
		</radialGradient>
		<path class="st6" d="M42.5,27.2c0.1-0.2,0.3-0.5,0.4-0.5l3.8-0.1c0.3,0,0.5-0.2,0.6-0.4l0.5-1.8c0.1-0.2,0-0.5-0.3-0.7l-3.2-1.9
			c-0.2-0.1-0.3-0.3-0.2-0.5l0.6-1.6c0.1-0.2,0.3-0.3,0.5-0.2l3.7,0.7c0.2,0.1,0.5,0,0.7-0.3l0.9-1.7c0.1-0.2,0.1-0.5-0.2-0.7
			l-2.6-2.6c-0.3-0.2-0.2-0.4,0-0.7l1-1.4c0.1-0.2,0.4-0.2,0.6-0.1l3.4,1.6c0.2,0.1,0.5,0.1,0.7-0.2l1.3-1.4c0.1-0.2,0.3-0.5,0-0.7
			l-1.8-3.4c-0.1-0.3,0-0.5,0.2-0.7l1.5-1.1c0.3-0.1,0.4-0.2,0.7,0L58,9c0.2,0.1,0.5,0.1,0.7,0l1.6-1v6.8c-1.5,1.2-3,2.6-4.1,4.3
			c-3.6,4.7-4.8,10.4-4,15.9c0.2,1.2,1.5,1.9,3,1.3c1.4-0.6,3.3-1.3,5.2-2.1v6.5c-0.9,0.4-1.7,0.8-2.5,1.2c-1.4,0.6-1.6,2.2-0.8,3.4
			c-0.1,0.1-0.5-0.4,0.2,0.4c0.9,1.1,2,2.1,3.2,3.1v6.4L60.1,55c-0.2-0.1-0.5-0.1-0.7,0.2l-2.6,2.6c-0.1,0.1-0.1,0.1-0.2,0.1h-0.2
			c-0.1,0-0.2-0.1-0.3-0.2l-1.4-1c-0.2-0.1-0.2-0.4-0.1-0.6l1.6-3.4c0.1-0.2,0.1-0.5-0.2-0.7l-1.4-1.3c-0.2-0.1-0.5-0.3-0.7,0
			l-3.4,1.8c-0.3,0.1-0.5,0-0.7-0.2l-1.1-1.5c-0.1-0.3-0.2-0.4,0-0.7l2.4-2.7c0.1-0.2,0.1-0.5,0-0.7L50,45c-0.1-0.3-0.5-0.3-0.6-0.2
			l-3.6,0.9c-0.3,0.1-0.5-0.1-0.6-0.2l-0.7-1.6c0-0.5,0-0.7,0.2-0.7l3.3-2c0.3-0.1,0.3-0.5,0.2-0.6l-0.6-2c-0.1-0.3-0.3-0.4-0.5-0.4
			h-3.8c-0.2-0.1-0.4-0.2-0.5-0.4L42.5,36c-0.1-0.3,0.1-0.5,0.4-0.6l3.6-1c0.3-0.1,0.3-0.3,0.4-0.5V32c0.1-0.2-0.2-0.5-0.4-0.6
			l-3.7-1c-0.2-0.1-0.5-0.3-0.4-0.5L42.5,27.2z"/>
		
			<radialGradient id="SVGID_6_" cx="-744.401" cy="640.2" r="0" gradientTransform="matrix(-1 0 0 1 -683.901 -634)" gradientUnits="userSpaceOnUse">
			<stop  offset="0" style="stop-color:#E3E3E3"/>
			<stop  offset="1" style="stop-color:#6E6E6E"/>
		</radialGradient>
		<path class="st7" d="M60.5,6.2L60.5,6.2L60.5,6.2z"/>
	</g>
	
		<linearGradient id="SVGID_7_" gradientUnits="userSpaceOnUse" x1="32.1294" y1="1707.4873" x2="31.8827" y2="1655.9412" gradientTransform="matrix(1 0 0 1 0 -1648)">
		<stop  offset="0" style="stop-color:#6E6E6E"/>
		<stop  offset="2.772886e-02" style="stop-color:#747474"/>
		<stop  offset="0.2365" style="stop-color:#9B9B9B"/>
		<stop  offset="0.4421" style="stop-color:#BBBBBB"/>
		<stop  offset="0.641" style="stop-color:#D1D1D1"/>
		<stop  offset="0.8304" style="stop-color:#DEDEDE"/>
		<stop  offset="1" style="stop-color:#E3E3E3"/>
	</linearGradient>
	<path class="st8" d="M56.2,31.3l-2.9-0.4c-0.2,0-0.3-0.2-0.3-0.3l-0.2-1.7c0-0.2,0.1-0.3,0.2-0.4l2.7-1.2c0.1-0.1,0.2-0.2,0.2-0.4
		l-0.3-1.4c0-0.2-0.2-0.3-0.4-0.3l-2.8,0.3c-0.2,0-0.3-0.1-0.4-0.2l-0.6-1.4c-0.1-0.1,0-0.4,0.1-0.6l2.2-1.9
		c0.1-0.1,0.2-0.3,0.1-0.4l-0.7-1.2c-0.1-0.1-0.3-0.2-0.4-0.2L50,20.7c-0.2,0.1-0.4,0-0.6-0.1l-0.9-1.2c-0.1-0.1-0.1-0.3,0-0.6
		l1.7-2.3c0.1-0.1,0.1-0.3,0-0.4l-1.1-1.4c-0.1-0.1-0.3-0.1-0.4,0l-2.3,1.7c-0.1,0.1-0.3,0.1-0.6,0l-1.2-0.9
		c-0.1-0.1-0.2-0.3-0.1-0.6l1.1-2.7l0,0c0.1-0.2,0-0.3-0.2-0.4l-1.2-0.7c-0.1-0.1-0.3,0-0.4,0.1l-2,2.2c-0.1,0.1-0.3,0.2-0.6,0.1
		l-1.4-0.6c-0.1-0.1-0.3-0.2-0.2-0.4l0.2-2.9c0-0.2-0.1-0.3-0.3-0.4l-1.4-0.3c-0.2,0-0.3,0-0.4,0.2L36,11.3
		c-0.1,0.1-0.3,0.2-0.4,0.2L34,11.3c-0.2,0-0.3-0.2-0.3-0.3l-0.5-2.8c0-0.2-0.2-0.3-0.3-0.3h-1.4c-0.2,0-0.3,0.1-0.3,0.3l-0.6,2.9
		c0,0.2-0.2,0.3-0.3,0.3l-1.7,0.2c-0.2,0-0.3-0.1-0.4-0.2L27,8.7c-0.1-0.1-0.2-0.2-0.4-0.2l-1.4,0.3c-0.2,0-0.3,0.2-0.3,0.4l0.2,2.9
		c0,0.2-0.1,0.3-0.2,0.4l-1.4,0.6c-0.1,0.1-0.4,0-0.6-0.1L21,10.9c-0.1-0.1-0.3-0.2-0.4-0.1l-1.2,0.7c-0.1,0.1-0.2,0.3-0.2,0.4
		l1.1,2.7c0.1,0.2,0,0.4-0.1,0.6l-1.2,1c-0.1,0.1-0.3,0.1-0.6,0L16,14.5c-0.1-0.1-0.3-0.1-0.4,0l-0.9,0.9c-0.1,0.1-0.1,0.3,0,0.4
		l1.7,2.3c0.1,0.1,0.1,0.3,0,0.6l-1,1.3c-0.1,0.1-0.3,0.2-0.6,0.1l-2.6-0.9c-0.2-0.1-0.3,0-0.4,0.2l-1.2,1.4c-0.1,0.1,0,0.3,0.1,0.4
		l2.2,1.9c0.1,0.1,0.2,0.3,0.1,0.6l-0.6,1.4c-0.1,0.1-0.2,0.3-0.4,0.2l-3-0.2c-0.2,0-0.3,0.1-0.4,0.3l-0.3,1.4c0,0.2,0,0.3,0.2,0.4
		l2.6,1.2c0.1,0.1,0.2,0.3,0.2,0.4L11,30.5c0,0.2-0.2,0.3-0.3,0.3l-2.8,0.5c-0.2,0-0.3,0.2-0.3,0.3V33c0,0.2,0.1,0.3,0.3,0.3
		l2.8,0.4c0.2,0,0.3,0.2,0.3,0.3l0.2,1.6c0,0.2-0.1,0.3-0.2,0.4l-2.7,1.2C8.1,37.4,8,37.5,8,37.7L8.3,39c0,0.2,0.2,0.3,0.4,0.3
		l2.9-0.2c0.2,0,0.3,0.1,0.4,0.2l0.6,1.4c0.1,0.1,0,0.4-0.1,0.6l-2.2,1.9c-0.1,0.1-0.2,0.3-0.1,0.4l0.7,1.2c0.1,0.1,0.3,0.2,0.4,0.2
		l2.7-1.1c0.2-0.1,0.4,0,0.6,0.1l0.9,1.2c0.1,0.1,0.1,0.3,0,0.6l-1.7,2.3c-0.1,0.1-0.1,0.3,0,0.4l0.9,0.9c0.1,0.1,0.3,0.1,0.4,0
		l2.3-1.7c0.1-0.1,0.3-0.1,0.6,0l1.2,0.9c0.1,0.1,0.2,0.3,0.1,0.6l-0.8,2.6c-0.1,0.2,0,0.3,0.2,0.4l1.2,0.7c0.1,0.1,0.3,0,0.4-0.1
		l1.9-2.2c0.1-0.1,0.3-0.2,0.6-0.1l1.4,0.6c0.1,0.1,0.3,0.2,0.2,0.4l-0.2,2.9c0,0.2,0.1,0.3,0.3,0.4l1.4,0.3c0.2,0,0.3,0,0.4-0.2
		l1.2-2.6c0.1-0.1,0.3-0.2,0.4-0.2l1.6,0.2c0.2,0,0.3,0.2,0.3,0.3l0.4,2.8c0,0.2,0.2,0.3,0.3,0.3h1.4c0.2,0,0.3-0.1,0.3-0.3l0.4-2.8
		c0-0.2,0.2-0.3,0.3-0.3l1.6-0.2c0.2,0,0.3,0.1,0.4,0.2l1.2,2.7c0.1,0.1,0.2,0.2,0.4,0.2l1.4-0.3c0.2,0,0.3-0.2,0.3-0.4V52
		c0-0.2,0.1-0.3,0.2-0.4l1.4-0.6c0.1-0.1,0.4,0,0.6,0.1l1.9,2.2c0.1,0.1,0.3,0.2,0.4,0.1l1.2-0.7c0.1-0.1,0.2-0.3,0.2-0.4L43,49.5
		c-0.1-0.2,0-0.4,0.1-0.6l1.2-0.9c0.1-0.1,0.3-0.1,0.6,0l2.3,1.7c0.1,0.1,0.3,0.1,0.4,0l0.9-0.9c0.1-0.1,0.1-0.3,0-0.4l-1.7-2.3
		c-0.1-0.1-0.1-0.3,0-0.6l0.9-1.2c0.1-0.1,0.3-0.2,0.6-0.1l2.7,1.1c0.2,0.1,0.3,0,0.4-0.2l0.7-1.2c0.1-0.1,0-0.3-0.1-0.4L50.8,42
		c-0.1-0.1-0.2-0.3-0.1-0.6l0.6-1.4c0.1-0.1,0.2-0.3,0.4-0.2l2.9,0.2c0.2,0,0.3-0.1,0.4-0.3l0.3-1.4c0-0.2,0-0.3-0.2-0.4L53,36.3
		c-0.1-0.1-0.2-0.3-0.2-0.4l0.2-1.6c0-0.2,0.2-0.3,0.3-0.3l2.8-0.4c0.2,0,0.3-0.2,0.3-0.3v-1.4C56.4,31.4,56.3,31.3,56.2,31.3z
		 M22.6,44.1C22.5,44.2,22.6,44.1,22.6,44.1L22.6,44.1z M22.9,43.9L22.9,43.9L22.9,43.9c-0.6,0.9-1.8,1.2-2.6,0.4l0,0
		c-3-2.9-4.9-7-4.9-11.7c-0.1-4.5,1.6-8.7,4.6-11.8c0.6-0.6,0.2-0.2,0.2-0.2c0.8-0.8,2-0.6,2.7,0.3l0,0c1.8,2.8,5.5,8.6,5.5,8.6
		c0.8,1.3,0.8,3.5,0.1,4.8C28.2,34.4,24.5,40.7,22.9,43.9z M48,37.2c-1.2,4-3.9,7.7-7.9,9.8l0,0c-4,2.2-8.5,2.6-12.6,1.6
		c-1.1-0.3-1.4-1.4-0.9-2.3c1.8-3.2,5.5-9.5,5.5-9.5c0.8-1.3,2.6-2.3,4.1-2.3c0,0,6.8,0.2,10.3,0.3l0,0c1.2,0,1.9,1.1,1.7,2.1
		C48.2,36.8,48.3,36.3,48,37.2z M27.2,48.3L27.2,48.3L27.2,48.3z M27.3,48.5h0.1H27.3z M26.5,46.1L26.5,46.1L26.5,46.1z M30.2,32.3
		c0-0.9,0.8-1.8,1.8-1.8c0.9,0,1.8,0.8,1.8,1.8c0,0.9-0.8,1.8-1.8,1.8C31.1,34.1,30.2,33.3,30.2,32.3z M46.7,29.8
		C46.8,29.8,46.8,29.8,46.7,29.8L46.7,29.8z M46.5,29.8C46.5,29.8,46.6,29.8,46.5,29.8C46.6,29.8,46.6,29.8,46.5,29.8
		C42.8,29.9,35.7,30,35.7,30c-1.6,0-3.5-1.1-4.1-2.3c0,0-3.3-6-4.9-8.9l0,0c-0.6-1.1-0.1-2.1,0.9-2.5c0,0-0.4,0.1,0.3-0.1
		c4.1-1.1,8.6-0.6,12.5,1.8l0,0c4,2.2,6.6,5.9,7.8,10C48.4,28.8,47.7,29.8,46.5,29.8z"/>
	
		<linearGradient id="Border_1_" gradientUnits="userSpaceOnUse" x1="32" y1="3" x2="32" y2="65" gradientTransform="matrix(1 0 0 -1 0 66)">
		<stop  offset="0" style="stop-color:#9B9B9B"/>
		<stop  offset="0.3806" style="stop-color:#BBBBBB"/>
		<stop  offset="0.5907" style="stop-color:#D1D1D1"/>
		<stop  offset="0.8304" style="stop-color:#DEDEDE"/>
		<stop  offset="1" style="stop-color:#E3E3E3"/>
	</linearGradient>
	<path id="Border" class="st9" d="M50,3.5c5.8,0,10.5,4.7,10.5,10.5v36c0,5.8-4.7,10.5-10.5,10.5H14C8.2,60.5,3.5,55.8,3.5,50V14
		C3.5,8.2,8.2,3.5,14,3.5H50 M50,1H14C6.8,1,1,6.8,1,14v36c0,7.2,5.8,13,13,13h36c7.2,0,13-5.8,13-13V14C63,6.8,57.2,1,50,1L50,1z"
		/>
</g>
</svg>
