<?xml version="1.0" encoding="utf-8"?>
<!-- Generator: Adobe Illustrator 23.0.2, SVG Export Plug-In . SVG Version: 6.00 Build 0)  -->
<svg version="1.1" id="settings" image-rendering="optimizeSpeed"
	 xmlns="http://www.w3.org/2000/svg" xmlns:xlink="http://www.w3.org/1999/xlink" x="0px" y="0px" viewBox="0 0 64 64"
	 style="enable-background:new 0 0 64 64;" xml:space="preserve">
<style type="text/css">
	.st0{opacity:0.4;}
	.st1{opacity:0.5;}
	.st2{fill:#353535;}
	.st3{opacity:0.2;fill:url(#SVGID_1_);enable-background:new    ;}
	.st4{opacity:0.33;enable-background:new    ;}
	.st5{fill:url(#SVGID_2_);}
	.st6{fill:url(#SVGID_3_);}
	.st7{fill:url(#SVGID_4_);}
	.st8{fill:url(#SVGID_5_);}
	.st9{fill:url(#SVGID_6_);}
	.st10{fill:url(#SVGID_7_);}
</style>
<g>
	<path class="st0" d="M58.8,10.3H5.2c-2.2,0-4,1.8-4,4.1v42.3c0,2.3,1.8,4.1,4,4.1h53.5c2.2,0,4-1.8,4-4.1V14.5
		C62.7,12.2,61,10.3,58.8,10.3z"/>
	<path class="st1" d="M57.6,12H6.4c-2.1,0-3.8,1.7-3.8,3.9v40.5c0,2.2,1.7,3.9,3.8,3.9h51.2c2.1,0,3.8-1.7,3.8-3.9V16
		C61.4,13.8,59.7,12,57.6,12z"/>
</g>
<path class="st2" d="M56.8,57.7H7.2c-2.1,0-3.8-1.9-3.8-4.3V10.5c0-2.4,1.7-4.3,3.8-4.3h49.6c2.1,0,3.8,1.9,3.8,4.3v43
	C60.6,55.8,58.9,57.7,56.8,57.7z"/>
<g>
	<g>
		<g>
			
				<radialGradient id="SVGID_1_" cx="32.001" cy="-979.9998" r="14.6218" gradientTransform="matrix(1 0 0 -1 0 -948)" gradientUnits="userSpaceOnUse">
				<stop  offset="0.4798" style="stop-color:#E3E3E3"/>
				<stop  offset="0.7736" style="stop-color:#6E6E6E"/>
			</radialGradient>
			<path class="st3" d="M41.6,31.3C41.6,31.2,41.6,31.2,41.6,31.3l-0.2-0.2l-1.3-0.2c-0.1-0.8-0.4-1.6-0.6-2.3l1.1-0.9
				c0.1-0.3,0.1-0.1,0.1-0.1c0-0.1,0-0.1,0-0.2l-0.1-0.1l0,0l0,0L40,26.5l-0.1-0.1c-0.1,0-0.1,0-0.2,0l-1.2,0.5
				c-0.4-0.6-1.1-1.2-1.7-1.7l0.4-1.3c-0.1-0.3,0-0.1,0-0.2c0-0.1,0-0.1-0.1-0.1l-0.1-0.1l-0.9-0.4c-0.1,0-0.1,0-0.2,0
				s-0.1,0.1-0.1,0.1l-0.8,1.2c-0.7-0.3-1.4-0.5-2.2-0.6c-0.1,0-0.1,0-0.2,0l-0.3-1.3c-0.2-0.2,0-0.1-0.1-0.1l-0.1-0.1l0,0h-1.1
				c-0.1,0-0.1,0-0.1,0.1L31,22.4l-0.2,1.3c-0.8,0.1-1.6,0.4-2.4,0.6l-0.8-1.1l-0.1-0.1c-0.1,0-0.1,0-0.2,0L26.6,24l-0.1,0.1
				c0,0.1,0,0.1,0,0.2l0.5,1.2c-0.6,0.5-1.2,1.1-1.7,1.8l-1.2-0.5c-0.1,0-0.1,0-0.2,0s-0.1,0-0.1,0.1l-0.5,1c0,0.1,0,0.1,0,0.2
				s0.1,0.1,0.1,0.1l1.1,0.8c-0.3,0.7-0.5,1.4-0.6,2.1c0,0.1,0,0.2,0,0.2l-1.3,0.2c-0.1,0-0.1,0-0.1,0.1l-0.1,0.1v1.1
				c0,0.1,0,0.1,0.1,0.1l0.1,0.1l1.3,0.2c0.1,0.8,0.4,1.6,0.6,2.3l-1.1,0.8l-0.1,0.1c0,0.1,0,0.1,0,0.2l0.5,1l0.1,0.1
				c0.1,0,0.1,0,0.2,0l1.2-0.5c0.5,0.6,1.1,1.2,1.8,1.7l-0.5,1.2c0,0.1,0,0.1,0,0.2c0,0.1,0,0.1,0.1,0.1l1,0.5c0.1,0,0.1,0,0.2,0
				c0.1,0,0.1-0.1,0.1-0.1l0.8-1.1c0.7,0.3,1.4,0.5,2.1,0.6c0.1,0,0.2,0,0.2,0l0.2,1.3c0,0.1,0,0.1,0.1,0.1l0.1,0.1h1.1
				c0.1,0,0.1,0,0.1-0.1l0.1-0.1l0.2-1.3c0.8-0.1,1.6-0.4,2.3-0.6l0.9,1.1c0.3,0.1,0.1,0.1,0.1,0.1c0.1,0,0.1,0,0.2,0l1-0.5l0.1-0.1
				c0-0.1,0-0.1,0-0.2l-0.5-1.2c0.6-0.4,1.2-1.1,1.7-1.7l1.3,0.4c0.3-0.1,0.1,0,0.2,0c0.1,0,0.1,0,0.1-0.1l0.5-1c0-0.1,0-0.1,0-0.2
				S40.5,36,40.5,36l-1.2-0.8c0.3-0.7,0.5-1.4,0.6-2.1c0-0.1,0-0.1,0-0.2l1.3-0.3c0.2-0.2,0.1,0,0.1-0.1l0.1-0.1L41.6,31.3z
				 M32,38.2c-3.5,0-6.2-2.8-6.2-6.2s2.8-6.2,6.2-6.2s6.2,2.8,6.2,6.2S35.5,38.2,32,38.2z"/>
			<g class="st4">
				
					<radialGradient id="SVGID_2_" cx="31.7423" cy="34.3544" r="29.6705" gradientTransform="matrix(1 0 0 -1 0 66)" gradientUnits="userSpaceOnUse">
					<stop  offset="0" style="stop-color:#E3E3E3"/>
					<stop  offset="1" style="stop-color:#6E6E6E"/>
				</radialGradient>
				<path class="st5" d="M22.9,27.8c-0.1-0.2-0.3-0.4-0.4-0.4l-3.3-0.1c-0.3,0-0.4-0.2-0.5-0.4l-0.4-1.6c-0.1-0.2,0-0.4,0.3-0.6
					l2.8-1.7c0.2-0.1,0.3-0.3,0.2-0.4L21,21.2c-0.1-0.2-0.3-0.3-0.4-0.2l-3.2,0.6c-0.2,0.1-0.4,0-0.6-0.3l-0.8-1.5
					c-0.1-0.2-0.1-0.4,0.2-0.6l2.3-2.3c0.3-0.2,0.2-0.4,0-0.6L17.5,15c-0.1-0.2-0.4-0.2-0.5-0.1l-2.9,1.4c-0.2,0.1-0.4,0.1-0.6-0.2
					L12.3,15c-0.1-0.2-0.3-0.4,0-0.6l1.6-2.9c0.1-0.3,0-0.4-0.2-0.6l-1.5-1.2c-0.3-0.1-0.4-0.2-0.6,0l-2.3,2.2
					c-0.2,0.1-0.4,0.1-0.6,0L7.2,11v5.9c1.3,1.1,2.6,2.3,3.6,3.7c3.1,4.1,4.2,9.1,3.5,13.8c-0.2,1.1-1.3,1.7-2.6,1.2
					c-1.2-0.5-2.8-1.2-4.5-1.9v5.7c0.8,0.4,1.5,0.7,2.2,1.1c1.2,0.5,1.4,2,0.7,2.9c0.1,0.1,0.4-0.4-0.2,0.4c-0.8,1-1.8,1.9-2.8,2.7
					v5.6l0.4-0.2c0.2-0.1,0.4-0.1,0.6,0.2l2.3,2.3c0.2,0,0.3,0.1,0.3,0.1h0.2c0.1,0,0.2-0.1,0.3-0.2l1.2-0.9
					c0.2-0.1,0.2-0.4,0.1-0.5L11,49.9c-0.1-0.2-0.1-0.4,0.2-0.6l1.2-1.2c0.2-0.1,0.4-0.3,0.6,0l2.9,1.6c0.3,0.1,0.4,0,0.6-0.2l1-1.3
					c0.1-0.3,0.2-0.4,0-0.6l-2.1-2.4c-0.1-0.2-0.1-0.4,0-0.6l1-1.5c0.1-0.3,0.4-0.3,0.5-0.2l3.1,0.8c0.3,0.1,0.4-0.1,0.5-0.2
					l0.6-1.4c0-0.4,0-0.6-0.2-0.6l-2.8-1.8c-0.3-0.1-0.3-0.4-0.2-0.5l0.5-1.8c0.1-0.3,0.3-0.4,0.4-0.4h3.3c0.2-0.1,0.4-0.2,0.4-0.4
					l0.3-1.6c0.1-0.3-0.1-0.4-0.4-0.5l-3.1-0.9c-0.3-0.1-0.3-0.3-0.4-0.4v-1.7c-0.1-0.2,0.2-0.4,0.4-0.5l3.2-0.9
					c0.2-0.1,0.4-0.3,0.4-0.4L22.9,27.8z"/>
				
					<radialGradient id="SVGID_3_" cx="7.2305" cy="56.4613" r="0" gradientTransform="matrix(1 0 0 -1 0 66)" gradientUnits="userSpaceOnUse">
					<stop  offset="0" style="stop-color:#E3E3E3"/>
					<stop  offset="1" style="stop-color:#6E6E6E"/>
				</radialGradient>
				<path class="st6" d="M7.2,9.5L7.2,9.5L7.2,9.5z"/>
			</g>
			<g class="st4">
				
					<radialGradient id="SVGID_4_" cx="-1822.2466" cy="34.3723" r="31.159" gradientTransform="matrix(-1 0 0 -1 -1789.901 66)" gradientUnits="userSpaceOnUse">
					<stop  offset="0" style="stop-color:#E3E3E3"/>
					<stop  offset="1" style="stop-color:#6E6E6E"/>
				</radialGradient>
				<path class="st7" d="M41.1,27.8c0.1-0.2,0.3-0.4,0.4-0.4l3.3-0.1c0.3,0,0.4-0.2,0.5-0.4l0.4-1.6c0.1-0.2,0-0.4-0.3-0.6L42.7,23
					c-0.2-0.1-0.3-0.3-0.2-0.4l0.5-1.4c0.1-0.2,0.3-0.3,0.4-0.2l3.2,0.6c0.2,0.1,0.4,0,0.6-0.3l0.8-1.5c0.1-0.2,0.1-0.4-0.2-0.6
					l-2.3-2.3c-0.3-0.2-0.2-0.4,0-0.6l0.9-1.2c0.1-0.2,0.4-0.2,0.5-0.1l2.9,1.4c0.2,0.1,0.4,0.1,0.6-0.2l1.2-1.2
					c0.1-0.2,0.3-0.4,0-0.6l-1.6-2.9c-0.1-0.3,0-0.4,0.2-0.6l1.3-1c0.3-0.1,0.4-0.2,0.6,0l2.4,2.1c0.2,0.1,0.4,0.1,0.6,0l1.4-0.9V17
					c-1.3,1.1-2.6,2.3-3.6,3.7c-3.1,4.1-4.2,9.1-3.5,13.8c0.2,1.1,1.3,1.7,2.6,1.2c1.2-0.5,2.8-1.2,4.5-1.9v5.7
					c-0.8,0.4-1.5,0.7-2.2,1.1c-1.2,0.5-1.4,2-0.7,2.9c-0.1,0.1-0.4-0.4,0.2,0.4c0.8,1,1.8,1.9,2.8,2.7v5.6L56.5,52
					c-0.2-0.1-0.4-0.1-0.6,0.2l-2.3,2.3c-0.1,0.1-0.1,0.1-0.2,0.1h-0.2c-0.1,0-0.2-0.1-0.3-0.2l-1.2-0.9c-0.2-0.1-0.2-0.4-0.1-0.5
					L53,50c0.1-0.2,0.1-0.4-0.2-0.6l-1.2-1.2c-0.2-0.1-0.4-0.3-0.6,0l-2.9,1.6c-0.3,0.1-0.4,0-0.6-0.2l-1-1.3
					c-0.1-0.3-0.2-0.4,0-0.6l2.1-2.4c0.1-0.2,0.1-0.4,0-0.6l-1-1.5c-0.1-0.3-0.4-0.3-0.5-0.2L44,43.8c-0.3,0.1-0.4-0.1-0.5-0.2
					l-0.6-1.4c0-0.4,0-0.6,0.2-0.6l2.8-1.8c0.3-0.1,0.3-0.4,0.2-0.5l-0.5-1.8c-0.1-0.3-0.3-0.4-0.4-0.4h-3.3
					c-0.2-0.1-0.4-0.2-0.4-0.4l-0.3-1.6c-0.1-0.3,0.1-0.4,0.4-0.5l3.1-0.9c0.3-0.1,0.3-0.3,0.4-0.4v-1.7c0.1-0.2-0.2-0.4-0.4-0.5
					l-3.2-0.9c-0.2-0.1-0.4-0.3-0.4-0.4L41.1,27.8z"/>
				
					<radialGradient id="SVGID_5_" cx="-1846.7593" cy="56.4613" r="0" gradientTransform="matrix(-1 0 0 -1 -1789.901 66)" gradientUnits="userSpaceOnUse">
					<stop  offset="0" style="stop-color:#E3E3E3"/>
					<stop  offset="1" style="stop-color:#6E6E6E"/>
				</radialGradient>
				<path class="st8" d="M56.9,9.5L56.9,9.5L56.9,9.5z"/>
			</g>
			
				<linearGradient id="SVGID_6_" gradientUnits="userSpaceOnUse" x1="32.1091" y1="-1002.9392" x2="31.9009" y2="-959.4224" gradientTransform="matrix(1 0 0 -1 0 -948)">
				<stop  offset="0" style="stop-color:#6E6E6E"/>
				<stop  offset="2.772886e-02" style="stop-color:#747474"/>
				<stop  offset="0.2365" style="stop-color:#9B9B9B"/>
				<stop  offset="0.4421" style="stop-color:#BBBBBB"/>
				<stop  offset="0.641" style="stop-color:#D1D1D1"/>
				<stop  offset="0.8304" style="stop-color:#DEDEDE"/>
				<stop  offset="1" style="stop-color:#E3E3E3"/>
			</linearGradient>
			<path class="st9" d="M52.4,31.1l-2.5-0.4c-0.2,0-0.3-0.2-0.3-0.3l-0.2-1.4c0-0.2,0.1-0.3,0.2-0.4l2.3-1c0.1-0.1,0.2-0.2,0.2-0.4
				l-0.3-1.2c0-0.2-0.2-0.3-0.4-0.3l-2.4,0.3c-0.2,0-0.3-0.1-0.4-0.2l-0.5-1.2c-0.1-0.1,0-0.4,0.1-0.5l1.9-1.6
				c0.1-0.1,0.2-0.3,0.1-0.4l-0.6-1c-0.1-0.1-0.3-0.2-0.4-0.2L47,22.1c-0.2,0.1-0.4,0-0.5-0.1l-0.8-1c-0.1-0.1-0.1-0.3,0-0.5l1.4-2
				c0.1-0.1,0.1-0.3,0-0.4l-0.9-1.2c-0.1-0.1-0.3-0.1-0.4,0l-2,1.4c-0.1,0.1-0.3,0.1-0.5,0l-1-0.8c-0.1-0.1-0.2-0.3-0.1-0.5l0.9-2.3
				l0,0c0.1-0.2,0-0.3-0.2-0.4l-1-0.6c-0.1-0.1-0.3,0-0.4,0.1L40,15.8c-0.1,0.1-0.3,0.2-0.5,0.1l-1.2-0.5c-0.1-0.1-0.3-0.2-0.2-0.4
				l0.2-2.5c0-0.2-0.1-0.3-0.3-0.4l-1.2-0.3c-0.2,0-0.3,0-0.4,0.2l-1.2,2.1c-0.1,0.1-0.3,0.2-0.4,0.2l-1.3-0.2
				c-0.2,0-0.3-0.2-0.3-0.3L33,11.6c0-0.2-0.2-0.3-0.3-0.3h-1.2c-0.2,0-0.3,0.1-0.3,0.3l-0.5,2.5c0,0.2-0.2,0.3-0.3,0.3l-1.4,0.2
				c-0.2,0-0.3-0.1-0.4-0.2l-1-2.3c-0.1-0.1-0.2-0.2-0.4-0.2l-1.2,0.3c-0.2,0-0.3,0.2-0.3,0.4l0.2,2.5c0,0.2-0.1,0.3-0.2,0.4
				l-1.2,0.5c-0.1,0.1-0.4,0-0.5-0.1l-1.6-1.9c-0.1-0.1-0.3-0.2-0.4-0.1l-1,0.6c-0.1,0.1-0.2,0.3-0.2,0.4l0.9,2.3
				c0.1,0.2,0,0.4-0.1,0.5l-1,0.8c-0.1,0.1-0.3,0.1-0.5,0l-2-1.4c-0.1-0.1-0.3-0.1-0.4,0l-0.8,0.8c-0.1,0.1-0.1,0.3,0,0.4l1.4,2
				c0.1,0.1,0.1,0.3,0,0.5l-0.8,1c-0.1,0.1-0.3,0.2-0.5,0.1l-2.2-0.8c-0.2-0.1-0.3,0-0.4,0.2l-1,1.2c-0.1,0.1,0,0.3,0.1,0.4l1.9,1.6
				c0.1,0.1,0.2,0.3,0.1,0.5l-0.5,1.2c-0.1,0.1-0.2,0.3-0.4,0.2l-2.5-0.2c-0.2,0-0.3,0.1-0.4,0.3l-0.3,1.2c0,0.2,0,0.3,0.2,0.4
				l2.2,1c0.1,0.1,0.2,0.3,0.2,0.4l-0.3,1.5c0,0.2-0.2,0.3-0.3,0.3l-2.4,0.4c-0.2,0-0.3,0.2-0.3,0.3v1.2c0,0.2,0.1,0.3,0.3,0.3
				l2.4,0.4c0.2,0,0.3,0.2,0.3,0.3l0.2,1.3c0,0.2-0.1,0.3-0.2,0.4l-2.3,1c-0.1,0.1-0.2,0.2-0.2,0.4l0.3,1.2c0,0.2,0.2,0.3,0.4,0.3
				l2.5-0.2c0.2,0,0.3,0.1,0.4,0.2l0.5,1.2c0.1,0.1,0,0.4-0.1,0.5l-1.9,1.6c-0.1,0.1-0.2,0.3-0.1,0.4l0.6,1c0.1,0.1,0.3,0.2,0.4,0.2
				l2.3-0.9c0.2-0.1,0.4,0,0.5,0.1l0.8,1c0.1,0.1,0.1,0.3,0,0.5l-1.4,2c-0.1,0.1-0.1,0.3,0,0.4l0.8,0.8c0.1,0.1,0.3,0.1,0.4,0l2-1.4
				c0.1-0.1,0.3-0.1,0.5,0l1,0.8c0.1,0.1,0.2,0.3,0.1,0.5l-0.7,2.2c-0.1,0.2,0,0.3,0.2,0.4l1,0.6c0.1,0.1,0.3,0,0.4-0.1l1.6-1.9
				c0.1-0.1,0.3-0.2,0.5-0.1l1.2,0.5c0.1,0.1,0.3,0.2,0.2,0.4L25.7,51c0,0.2,0.1,0.3,0.3,0.4l1.2,0.3c0.2,0,0.3,0,0.4-0.2l1-2.2
				c0.1-0.1,0.3-0.2,0.4-0.2l1.3,0.2c0.2,0,0.3,0.2,0.3,0.3l0.4,2.4c0,0.2,0.2,0.3,0.3,0.3h1.2c0.2,0,0.3-0.1,0.3-0.3l0.4-2.4
				c0-0.2,0.2-0.3,0.3-0.3l1.3-0.2c0.2,0,0.3,0.1,0.4,0.2l1,2.3c0.1,0.1,0.2,0.2,0.4,0.2l1.2-0.3c0.2,0,0.3-0.2,0.3-0.4l-0.3-2.5
				c0-0.2,0.1-0.3,0.2-0.4l1.2-0.5c0.1-0.1,0.4,0,0.5,0.1l1.6,1.9c0.1,0.1,0.3,0.2,0.4,0.1l1-0.6c0.1-0.1,0.2-0.3,0.2-0.4l-0.9-2.3
				c-0.1-0.2,0-0.4,0.1-0.5l1-0.8c0.1-0.1,0.3-0.1,0.5,0l2,1.4c0.1,0.1,0.3,0.1,0.4,0l0.8-0.8c0.1-0.1,0.1-0.3,0-0.4l-1.4-2
				c-0.1-0.1-0.1-0.3,0-0.5l0.8-1c0.1-0.1,0.3-0.2,0.5-0.1l2.3,0.9c0.2,0.1,0.3,0,0.4-0.2l0.6-1c0.1-0.1,0-0.3-0.1-0.4l-1-1.2
				c-0.1-0.1-0.2-0.3-0.1-0.5l0.5-1.2c0.1-0.1,0.2-0.3,0.4-0.2l2.5,0.2c0.2,0,0.3-0.1,0.4-0.3l0.3-1.2c0-0.2,0-0.3-0.2-0.4l-2.1-1.2
				c-0.1-0.1-0.2-0.3-0.2-0.4l0.2-1.3c0-0.2,0.2-0.3,0.3-0.3l2.4-0.4c0.2,0,0.3-0.2,0.3-0.3v-1.2C52.6,31.2,52.5,31.1,52.4,31.1z
				 M24.1,41.9C24,42,24.1,41.9,24.1,41.9L24.1,41.9z M24.3,41.8L24.3,41.8L24.3,41.8c-0.5,0.8-1.5,1-2.2,0.4l0,0
				c-2.6-2.5-4.2-5.9-4.2-9.9c-0.1-3.8,1.3-7.4,3.9-9.9c0.5-0.5,0.2-0.2,0.2-0.2c0.7-0.7,1.7-0.5,2.3,0.3l0,0
				c1.5,2.4,4.6,7.3,4.6,7.3c0.7,1.1,0.7,2.9,0.1,4.1C28.8,33.8,25.7,39.1,24.3,41.8z M45.5,36.1c-1,3.4-3.3,6.5-6.7,8.3l0,0
				c-3.4,1.9-7.2,2.2-10.7,1.3c-0.9-0.3-1.2-1.2-0.8-2c1.5-2.7,4.6-8,4.6-8c0.7-1.1,2.2-2,3.5-2c0,0,5.8,0.2,8.7,0.3l0,0
				c1,0,1.6,0.9,1.4,1.8C45.7,35.8,45.8,35.4,45.5,36.1z M27.9,45.5L27.9,45.5L27.9,45.5z M28,45.7L28,45.7L28,45.7z M27.4,43.6
				L27.4,43.6L27.4,43.6z M30.5,32c0-0.8,0.7-1.5,1.5-1.5s1.5,0.7,1.5,1.5s-0.7,1.5-1.5,1.5S30.5,32.8,30.5,32z M44.4,29.9
				C44.5,29.9,44.5,29.9,44.4,29.9L44.4,29.9z M44.3,29.9C44.3,29.9,44.3,29.9,44.3,29.9C44.3,29.9,44.3,29.9,44.3,29.9
				C41.1,30,35.1,30,35.1,30c-1.3,0-2.9-0.9-3.5-2c0,0-2.8-5.1-4.2-7.5l0,0c-0.5-0.9-0.1-1.8,0.8-2.1c0,0-0.4,0.1,0.3-0.1
				c3.5-0.9,7.3-0.5,10.6,1.5l0,0c3.4,1.9,5.6,5,6.6,8.4C45.8,29.1,45.2,29.9,44.3,29.9z"/>
		</g>
	</g>
</g>
<linearGradient id="SVGID_7_" gradientUnits="userSpaceOnUse" x1="32" y1="58.0323" x2="32" y2="5.6582">
	<stop  offset="0" style="stop-color:#6E6E6E"/>
	<stop  offset="2.772886e-02" style="stop-color:#747474"/>
	<stop  offset="0.2365" style="stop-color:#9B9B9B"/>
	<stop  offset="0.4421" style="stop-color:#BBBBBB"/>
	<stop  offset="0.641" style="stop-color:#D1D1D1"/>
	<stop  offset="0.8304" style="stop-color:#DEDEDE"/>
	<stop  offset="1" style="stop-color:#E3E3E3"/>
</linearGradient>
<path class="st10" d="M57.6,5.3H6.4c-2.1,0-3.8,1.9-3.8,4.3v44.6c0,2.4,1.7,4.3,3.8,4.3h51.2c2.1,0,3.8-1.9,3.8-4.3V9.7
	C61.4,7.3,59.7,5.3,57.6,5.3z M32,56.2C18.6,56.2,7.8,45.4,7.8,32S18.6,7.8,32,7.8S56.2,18.6,56.2,32S45.4,56.2,32,56.2z"/>
</svg>
