<?xml version="1.0" encoding="utf-8"?>
<!-- Generator: Adobe Illustrator 25.2.0, SVG Export Plug-In . SVG Version: 6.00 Build 0)  -->
<svg version="1.1" xmlns="http://www.w3.org/2000/svg" xmlns:xlink="http://www.w3.org/1999/xlink" x="0px" y="0px"
	 viewBox="0 0 64 64" style="enable-background:new 0 0 64 64;" xml:space="preserve">
<style type="text/css">
	.st0{fill:url(#SVGID_1_);}
	.st1{display:none;}
	.st2{display:inline;}
	.st3{opacity:0.5;}
	.st4{opacity:0.2;fill:url(#SVGID_2_);enable-background:new    ;}
	.st5{opacity:0.33;enable-background:new    ;}
	.st6{fill:url(#SVGID_3_);}
	.st7{fill:url(#SVGID_4_);}
	.st8{fill:url(#SVGID_5_);}
	.st9{fill:url(#SVGID_6_);}
	.st10{fill:url(#SVGID_7_);}
	.st11{fill:url(#SVGID_8_);}
</style>
<g id="Background">
	<radialGradient id="SVGID_1_" cx="32" cy="32" r="37.5169" gradientUnits="userSpaceOnUse">
		<stop  offset="0" style="stop-color:#353535"/>
		<stop  offset="1" style="stop-color:#000000"/>
	</radialGradient>
	<path class="st0" d="M49,62H15C7.8,62,2,56.2,2,49V15C2,7.8,7.8,2,15,2H49c7.2,0,13,5.8,13,13V49C62,56.2,56.2,62,49,62z"/>
</g>
<g id="Guides" class="st1">
	<g class="st2">
		<g class="st3">
			<g>
			</g>
		</g>
	</g>
</g>
<g id="Icon">
	
		<radialGradient id="SVGID_2_" cx="32.0011" cy="-979.9585" r="16.0903" gradientTransform="matrix(1 0 0 -1 0 -948)" gradientUnits="userSpaceOnUse">
		<stop  offset="0.4798" style="stop-color:#E3E3E3"/>
		<stop  offset="0.7736" style="stop-color:#6E6E6E"/>
	</radialGradient>
	<path class="st4" d="M42.6,31.2C42.6,31.1,42.6,31.1,42.6,31.2L42.4,31l-1.5-0.2c-0.1-0.9-0.4-1.8-0.7-2.5l1.2-1
		c0.1-0.3,0.1-0.1,0.1-0.1c0-0.1,0-0.1,0-0.2l-0.1-0.1l0,0l0,0l-0.6-1l-0.1-0.1c-0.1,0-0.1,0-0.2,0l-1.4,0.6
		c-0.5-0.7-1.2-1.4-1.9-1.9l0.5-1.5c-0.1-0.3,0-0.1,0-0.2s0-0.1-0.1-0.1l-0.1-0.1l-1-0.5c-0.1,0-0.1,0-0.2,0c-0.1,0-0.1,0.1-0.1,0.1
		l-0.9,1.3c-0.8-0.3-1.6-0.6-2.4-0.7c-0.1,0-0.1,0-0.2,0l-0.3-1.5c-0.2-0.2,0-0.1-0.1-0.1l-0.1-0.1l0,0h-1.2c-0.1,0-0.1,0-0.1,0.1
		l-0.1,0.1l-0.2,1.5c-0.9,0.1-1.8,0.4-2.6,0.7l-0.9-1.2l-0.1-0.1c-0.1,0-0.1,0-0.2,0L26,23.2l-0.1,0.1c0,0.1,0,0.1,0,0.2l0.6,1.4
		c-0.7,0.6-1.4,1.2-1.9,2l-1.4-0.6c-0.1,0-0.1,0-0.2,0s-0.1,0-0.1,0.1l-0.6,1.1c0,0.1,0,0.1,0,0.2s0.1,0.1,0.1,0.1l1.2,0.9
		c-0.3,0.8-0.6,1.6-0.7,2.3c0,0.1,0,0.2,0,0.2l-1.5,0.2c-0.1,0-0.1,0-0.1,0.1l-0.1,0.1v1.2c0,0.1,0,0.1,0.1,0.1l0.1,0.1L23,33
		c0.1,0.9,0.4,1.8,0.7,2.5l-1.2,0.9l-0.1,0.1c0,0.1,0,0.1,0,0.2l0.6,1.1l0.1,0.1c0.1,0,0.1,0,0.2,0l1.4-0.6c0.6,0.7,1.2,1.4,2,1.9
		L26,40.6c0,0.1,0,0.1,0,0.2c0,0.1,0,0.1,0.1,0.1l1.1,0.6c0.1,0,0.1,0,0.2,0s0.1-0.1,0.1-0.1l0.9-1.2c0.8,0.3,1.6,0.6,2.3,0.7
		c0.1,0,0.2,0,0.2,0l0.2,1.5c0,0.1,0,0.1,0.1,0.1l0.1,0.1h1.2c0.1,0,0.1,0,0.1-0.1l0.1-0.1l0.2-1.5c0.9-0.1,1.8-0.4,2.5-0.7l1,1.2
		c0.3,0.1,0.1,0.1,0.1,0.1c0.1,0,0.1,0,0.2,0l1.1-0.6l0.1-0.1c0-0.1,0-0.1,0-0.2l-0.6-1.4c0.7-0.5,1.4-1.2,1.9-1.9l1.5,0.5
		c0.3-0.1,0.1,0,0.2,0s0.1,0,0.1-0.1l0.6-1.1c0-0.1,0-0.1,0-0.2c0-0.1-0.1-0.1-0.1-0.1l-1.3-0.9c0.3-0.8,0.6-1.6,0.7-2.3
		c0-0.1,0-0.1,0-0.2l1.5-0.3c0.2-0.2,0.1,0,0.1-0.1l0.1-0.1L42.6,31.2z M32,38.8c-3.8,0-6.8-3.1-6.8-6.8s3.1-6.8,6.8-6.8
		s6.8,3.1,6.8,6.8S35.8,38.8,32,38.8z"/>
	<g class="st5">
		
			<radialGradient id="SVGID_3_" cx="31.7164" cy="34.4313" r="32.6504" gradientTransform="matrix(1 0 0 -1 0 66)" gradientUnits="userSpaceOnUse">
			<stop  offset="0" style="stop-color:#E3E3E3"/>
			<stop  offset="1" style="stop-color:#6E6E6E"/>
		</radialGradient>
		<path class="st6" d="M22,27.4c-0.1-0.2-0.3-0.5-0.4-0.5L18,26.8c-0.3,0-0.5-0.2-0.6-0.4L17,24.6c-0.1-0.2,0-0.5,0.3-0.7l3-1.9
			c0.2-0.1,0.3-0.3,0.2-0.5L19.9,20c-0.1-0.2-0.3-0.3-0.5-0.2l-3.5,0.7c-0.2,0.1-0.5,0-0.7-0.3l-0.9-1.7c-0.1-0.2-0.1-0.5,0.2-0.7
			l2.5-2.5c0.3-0.2,0.2-0.4,0-0.7l-1-1.4c-0.1-0.2-0.4-0.2-0.6-0.1l-3.2,1.6c-0.2,0.1-0.5,0.1-0.7-0.2l-1.3-1.4
			c-0.1-0.2-0.3-0.5,0-0.7l1.8-3.2c0.1-0.3,0-0.5-0.2-0.7l-1.7-1.3c-0.3-0.1-0.4-0.2-0.7,0L7,9.8c-0.2,0.1-0.5,0.1-0.7,0l-1.6-1v6.5
			c1.5,1.2,2.8,2.5,3.9,4.1c3.4,4.5,4.6,10,3.8,15.2c-0.2,1.2-1.5,1.9-2.8,1.3c-1.4-0.6-3.1-1.3-5-2.1v6.3c0.9,0.4,1.7,0.8,2.4,1.2
			c1.4,0.6,1.6,2.1,0.8,3.2C8,44.7,8.4,44.2,7.7,45c-0.9,1.1-2,2.1-3,2.9V54L5,53.8c0.2-0.1,0.5-0.1,0.7,0.2l2.5,2.5
			c0.2,0,0.3,0.1,0.3,0.1h0.2c0.1,0,0.2-0.1,0.3-0.2l1.4-1c0.2-0.1,0.2-0.4,0.1-0.6l-1.6-3.2c-0.1-0.2-0.1-0.5,0.2-0.7l1.4-1.3
			c0.2-0.1,0.5-0.3,0.7,0l3.2,1.8c0.3,0.1,0.5,0,0.7-0.2l1.1-1.5c0.1-0.3,0.2-0.4,0-0.7l-2.3-2.6c-0.1-0.2-0.1-0.5,0-0.7l1.1-1.7
			c0.1-0.3,0.5-0.3,0.6-0.2l3.4,0.9c0.3,0.1,0.5-0.1,0.6-0.2l0.7-1.6c0-0.5,0-0.7-0.2-0.7l-3.1-2c-0.3-0.1-0.3-0.5-0.2-0.6l0.6-2
			c0.1-0.3,0.3-0.4,0.5-0.4h3.6c0.2-0.1,0.4-0.2,0.5-0.4l0.3-1.8c0.1-0.3-0.1-0.5-0.4-0.6l-3.4-1c-0.3-0.1-0.3-0.3-0.4-0.5v-1.9
			c-0.1-0.2,0.2-0.5,0.4-0.6l3.5-1c0.2-0.1,0.5-0.3,0.4-0.5L22,27.4z"/>
		
			<radialGradient id="SVGID_4_" cx="4.7428" cy="58.7584" r="0" gradientTransform="matrix(1 0 0 -1 0 66)" gradientUnits="userSpaceOnUse">
			<stop  offset="0" style="stop-color:#E3E3E3"/>
			<stop  offset="1" style="stop-color:#6E6E6E"/>
		</radialGradient>
		<path class="st7" d="M4.7,7.2L4.7,7.2L4.7,7.2z"/>
	</g>
	<g class="st5">
		
			<radialGradient id="SVGID_5_" cx="-342.2813" cy="34.451" r="34.2883" gradientTransform="matrix(-1 0 0 -1 -309.901 66)" gradientUnits="userSpaceOnUse">
			<stop  offset="0" style="stop-color:#E3E3E3"/>
			<stop  offset="1" style="stop-color:#6E6E6E"/>
		</radialGradient>
		<path class="st8" d="M42.1,27.4c0.1-0.2,0.3-0.5,0.4-0.5l3.6-0.1c0.3,0,0.5-0.2,0.6-0.4l0.5-1.8c0.1-0.2,0-0.5-0.3-0.7l-3-1.9
			c-0.2-0.1-0.3-0.3-0.2-0.5l0.6-1.6c0.1-0.2,0.3-0.3,0.5-0.2l3.5,0.7c0.2,0.1,0.5,0,0.7-0.3l0.9-1.7c0.1-0.2,0.1-0.5-0.2-0.7
			L47,15.4c-0.3-0.2-0.2-0.4,0-0.7l1-1.4c0.1-0.2,0.4-0.2,0.6-0.1l3.2,1.6c0.2,0.1,0.5,0.1,0.7-0.2l1.3-1.4c0.1-0.2,0.3-0.5,0-0.7
			L52,9.3c-0.1-0.3,0-0.5,0.2-0.7l1.5-1.1c0.3-0.1,0.4-0.2,0.7,0L57,9.9c0.2,0.1,0.5,0.1,0.7,0l1.6-1v6.5c-1.5,1.2-2.8,2.5-3.9,4.1
			c-3.4,4.5-4.6,10-3.8,15.2c0.2,1.2,1.5,1.9,2.8,1.3c1.4-0.6,3.1-1.3,5-2.1v6.3c-0.9,0.4-1.7,0.8-2.4,1.2c-1.4,0.6-1.6,2.1-0.8,3.2
			c-0.1,0.1-0.5-0.4,0.2,0.4c0.9,1.1,2,2.1,3,2.9v6.2L59,53.9c-0.2-0.1-0.5-0.1-0.7,0.2l-2.5,2.5c-0.1,0.1-0.1,0.1-0.2,0.1h-0.2
			c-0.1,0-0.2-0.1-0.3-0.2l-1.4-1c-0.2-0.1-0.2-0.4-0.1-0.6l1.6-3.2c0.1-0.2,0.1-0.5-0.2-0.7l-1.4-1.3c-0.2-0.1-0.5-0.3-0.7,0
			l-3.2,1.8c-0.3,0.1-0.5,0-0.7-0.2l-1.1-1.5c-0.1-0.3-0.2-0.4,0-0.7l2.3-2.6c0.1-0.2,0.1-0.5,0-0.7l-1.1-1.7
			c-0.1-0.3-0.5-0.3-0.6-0.2L45.2,45c-0.3,0.1-0.5-0.1-0.6-0.2l-0.7-1.6c0-0.5,0-0.7,0.2-0.7l3.1-2c0.3-0.1,0.3-0.5,0.2-0.6l-0.6-2
			c-0.1-0.3-0.3-0.4-0.5-0.4h-3.6c-0.2-0.1-0.4-0.2-0.5-0.4L42,35.5c-0.1-0.3,0.1-0.5,0.4-0.6l3.4-1c0.3-0.1,0.3-0.3,0.4-0.5v-1.9
			c0.1-0.2-0.2-0.5-0.4-0.6l-3.5-1c-0.2-0.1-0.5-0.3-0.4-0.5L42.1,27.4z"/>
		
			<radialGradient id="SVGID_6_" cx="-369.2559" cy="58.7584" r="0" gradientTransform="matrix(-1 0 0 -1 -309.901 66)" gradientUnits="userSpaceOnUse">
			<stop  offset="0" style="stop-color:#E3E3E3"/>
			<stop  offset="1" style="stop-color:#6E6E6E"/>
		</radialGradient>
		<path class="st9" d="M59.4,7.2L59.4,7.2L59.4,7.2z"/>
	</g>
	
		<linearGradient id="SVGID_7_" gradientUnits="userSpaceOnUse" x1="32.1265" y1="-1006.8875" x2="31.8851" y2="-956.4661" gradientTransform="matrix(1 0 0 -1 0 -948)">
		<stop  offset="0" style="stop-color:#6E6E6E"/>
		<stop  offset="2.772886e-02" style="stop-color:#747474"/>
		<stop  offset="0.2365" style="stop-color:#9B9B9B"/>
		<stop  offset="0.4421" style="stop-color:#BBBBBB"/>
		<stop  offset="0.641" style="stop-color:#D1D1D1"/>
		<stop  offset="0.8304" style="stop-color:#DEDEDE"/>
		<stop  offset="1" style="stop-color:#E3E3E3"/>
	</linearGradient>
	<path class="st10" d="M55.7,31.3l-2.9-0.4c-0.2,0-0.3-0.2-0.3-0.3l-0.2-1.6c0-0.2,0.1-0.3,0.2-0.4l2.7-1.1c0.1-0.1,0.2-0.2,0.2-0.4
		L55,25.6c0-0.2-0.2-0.3-0.4-0.3l-2.8,0.3c-0.2,0-0.3-0.1-0.4-0.2l-0.6-1.3c-0.1-0.1,0-0.4,0.1-0.6l2.2-1.9c0.1-0.1,0.2-0.3,0.1-0.4
		l-0.7-1.1c-0.1-0.1-0.3-0.2-0.4-0.2l-2.7,1c-0.2,0.1-0.4,0-0.6-0.1l-0.9-1.1c-0.1-0.1-0.1-0.3,0-0.6l1.6-2.3c0.1-0.1,0.1-0.3,0-0.4
		l-1-1.3c-0.1-0.1-0.3-0.1-0.4,0l-2.3,1.6c-0.1,0.1-0.3,0.1-0.6,0L44,15.7c-0.1-0.1-0.2-0.3-0.1-0.6l1-2.7l0,0
		c0.1-0.2,0-0.3-0.2-0.4l-1.1-0.7c-0.1-0.1-0.3,0-0.4,0.1l-2,2.2c-0.1,0.1-0.3,0.2-0.6,0.1l-1.3-0.6c-0.1-0.1-0.3-0.2-0.2-0.4
		l0.2-2.9c0-0.2-0.1-0.3-0.3-0.4l-1.3-0.3c-0.2,0-0.3,0-0.4,0.2l-1.3,2.5c-0.1,0.1-0.3,0.2-0.4,0.2L34,11.7c-0.2,0-0.3-0.2-0.3-0.3
		l-0.5-2.8c0-0.2-0.2-0.3-0.3-0.3h-1.3c-0.2,0-0.3,0.1-0.3,0.3l-0.6,2.9c0,0.2-0.2,0.3-0.3,0.3L28.6,12c-0.2,0-0.3-0.1-0.4-0.2
		l-1.1-2.7C27,9.1,26.9,9,26.7,9l-1.3,0.3c-0.2,0-0.3,0.2-0.3,0.4l0.2,2.9c0,0.2-0.1,0.3-0.2,0.4l-1.3,0.6c-0.1,0.1-0.4,0-0.6-0.1
		l-1.9-2.2c-0.1-0.1-0.3-0.2-0.4-0.1l-1.1,0.7c-0.1,0.1-0.2,0.3-0.2,0.4l1,2.7c0.1,0.2,0,0.4-0.1,0.6l-1.1,0.9
		c-0.1,0.1-0.3,0.1-0.6,0l-2.3-1.6c-0.1-0.1-0.3-0.1-0.4,0L15,15.9c-0.1,0.1-0.1,0.3,0,0.4l1.6,2.3c0.1,0.1,0.1,0.3,0,0.6l-0.9,1.1
		c-0.1,0.1-0.3,0.2-0.6,0.1l-2.6-0.9c-0.2-0.1-0.3,0-0.4,0.2L11,21c-0.1,0.1,0,0.3,0.1,0.4l2.2,1.9c0.1,0.1,0.2,0.3,0.1,0.6
		l-0.6,1.3c-0.1,0.1-0.2,0.3-0.4,0.2l-2.9-0.2c-0.2,0-0.3,0.1-0.4,0.3l-0.3,1.3c0,0.2,0,0.3,0.2,0.4l2.6,1.1
		c0.1,0.1,0.2,0.3,0.2,0.4l-0.3,1.7c0,0.2-0.2,0.3-0.3,0.3l-2.8,0.5c-0.2,0-0.3,0.2-0.3,0.3V33c0,0.2,0.1,0.3,0.3,0.3l2.8,0.4
		c0.2,0,0.3,0.2,0.3,0.3l0.2,1.5c0,0.2-0.1,0.3-0.2,0.4l-2.7,1.1c-0.1,0.1-0.2,0.2-0.2,0.4l0.3,1.3c0,0.2,0.2,0.3,0.4,0.3l2.9-0.2
		c0.2,0,0.3,0.1,0.4,0.2l0.6,1.3c0.1,0.1,0,0.4-0.1,0.6L10.9,43c-0.1,0.1-0.2,0.3-0.1,0.4l0.7,1.1c0.1,0.1,0.3,0.2,0.4,0.2l2.7-1
		c0.2-0.1,0.4,0,0.6,0.1l0.9,1.1c0.1,0.1,0.1,0.3,0,0.6l-1.6,2.3c-0.1,0.1-0.1,0.3,0,0.4l0.9,0.9c0.1,0.1,0.3,0.1,0.4,0l2.3-1.6
		c0.1-0.1,0.3-0.1,0.6,0l1.1,0.9c0.1,0.1,0.2,0.3,0.1,0.6l-0.8,2.6c-0.1,0.2,0,0.3,0.2,0.4l1.1,0.7c0.1,0.1,0.3,0,0.4-0.1l1.9-2.2
		c0.1-0.1,0.3-0.2,0.6-0.1l1.3,0.6c0.1,0.1,0.3,0.2,0.2,0.4l-0.2,2.9c0,0.2,0.1,0.3,0.3,0.4l1.3,0.3c0.2,0,0.3,0,0.4-0.2l1.1-2.6
		c0.1-0.1,0.3-0.2,0.4-0.2l1.5,0.2c0.2,0,0.3,0.2,0.3,0.3l0.4,2.8c0,0.2,0.2,0.3,0.3,0.3h1.3c0.2,0,0.3-0.1,0.3-0.3l0.4-2.8
		c0-0.2,0.2-0.3,0.3-0.3l1.5-0.2c0.2,0,0.3,0.1,0.4,0.2l1.1,2.7c0.1,0.1,0.2,0.2,0.4,0.2l1.3-0.3c0.2,0,0.3-0.2,0.3-0.4l-0.3-2.9
		c0-0.2,0.1-0.3,0.2-0.4l1.3-0.6c0.1-0.1,0.4,0,0.6,0.1l1.9,2.2c0.1,0.1,0.3,0.2,0.4,0.1l1.1-0.7c0.1-0.1,0.2-0.3,0.2-0.4l-1-2.7
		c-0.1-0.2,0-0.4,0.1-0.6l1.1-0.9c0.1-0.1,0.3-0.1,0.6,0l2.3,1.6c0.1,0.1,0.3,0.1,0.4,0l0.9-0.9c0.1-0.1,0.1-0.3,0-0.4l-1.6-2.3
		c-0.1-0.1-0.1-0.3,0-0.6l0.9-1.1c0.1-0.1,0.3-0.2,0.6-0.1l2.7,1c0.2,0.1,0.3,0,0.4-0.2l0.7-1.1c0.1-0.1,0-0.3-0.1-0.4l-1.1-1.4
		c-0.1-0.1-0.2-0.3-0.1-0.6l0.6-1.3c0.1-0.1,0.2-0.3,0.4-0.2l2.9,0.2c0.2,0,0.3-0.1,0.4-0.3l0.3-1.3c0-0.2,0-0.3-0.2-0.4l-2.5-1.3
		c-0.1-0.1-0.2-0.3-0.2-0.4l0.2-1.5c0-0.2,0.2-0.3,0.3-0.3l2.8-0.4c0.2,0,0.3-0.2,0.3-0.3v-1.3C55.9,31.4,55.8,31.3,55.7,31.3z
		 M22.8,43.8C22.7,43.9,22.8,43.8,22.8,43.8L22.8,43.8z M23.1,43.6L23.1,43.6L23.1,43.6c-0.6,0.9-1.7,1.1-2.6,0.4l0,0
		c-3-2.9-4.8-6.9-4.8-11.4c-0.1-4.4,1.5-8.5,4.5-11.5c0.6-0.6,0.2-0.2,0.2-0.2c0.8-0.8,2-0.6,2.7,0.3l0,0c1.7,2.8,5.3,8.4,5.3,8.4
		c0.8,1.2,0.8,3.4,0.1,4.7C28.3,34.4,24.7,40.5,23.1,43.6z M47.6,37c-1.1,3.9-3.8,7.5-7.7,9.6l0,0c-3.9,2.2-8.3,2.6-12.3,1.5
		c-1-0.3-1.3-1.3-0.9-2.3c1.7-3.1,5.3-9.3,5.3-9.3c0.8-1.2,2.6-2.3,4-2.3c0,0,6.7,0.2,10.1,0.3l0,0c1.1,0,1.9,1,1.6,2.1
		C47.8,36.7,47.9,36.2,47.6,37z M27.3,47.9L27.3,47.9L27.3,47.9z M27.4,48.1h0.1H27.4z M26.7,45.8L26.7,45.8L26.7,45.8z M30.3,32.3
		c0-0.9,0.8-1.7,1.7-1.7c0.9,0,1.7,0.8,1.7,1.7c0,0.9-0.8,1.7-1.7,1.7C31.1,34.1,30.3,33.2,30.3,32.3z M46.4,29.8
		C46.5,29.8,46.5,29.8,46.4,29.8L46.4,29.8z M46.2,29.8C46.2,29.8,46.3,29.8,46.2,29.8C46.3,29.8,46.3,29.8,46.2,29.8
		C42.6,29.9,35.6,30,35.6,30c-1.5,0-3.4-1-4-2.3c0,0-3.2-5.9-4.8-8.7l0,0c-0.6-1-0.1-2.1,0.9-2.5c0,0-0.4,0.1,0.3-0.1
		c4-1,8.4-0.6,12.2,1.7l0,0c3.9,2.2,6.5,5.8,7.6,9.8C48,28.9,47.3,29.8,46.2,29.8z"/>
</g>
<g id="Border_1_">
	<linearGradient id="SVGID_8_" gradientUnits="userSpaceOnUse" x1="32" y1="63" x2="32" y2="1">
		<stop  offset="0" style="stop-color:#9B9B9B"/>
		<stop  offset="0.3806" style="stop-color:#BBBBBB"/>
		<stop  offset="0.5907" style="stop-color:#D1D1D1"/>
		<stop  offset="0.8304" style="stop-color:#DEDEDE"/>
		<stop  offset="1" style="stop-color:#E3E3E3"/>
	</linearGradient>
	<path class="st11" d="M50,1H14C6.8,1,1,6.8,1,14v36c0,7.2,5.8,13,13,13h36c7.2,0,13-5.8,13-13V14C63,6.8,57.2,1,50,1z M32,59.4
		C16.9,59.4,4.6,47.1,4.6,32S16.9,4.6,32,4.6S59.4,16.9,59.4,32S47.1,59.4,32,59.4z"/>
</g>
</svg>
