<?xml version="1.0" encoding="utf-8"?>
<!-- Generator: Adobe Illustrator 25.2.0, SVG Export Plug-In . SVG Version: 6.00 Build 0)  -->
<svg version="1.1" xmlns="http://www.w3.org/2000/svg" xmlns:xlink="http://www.w3.org/1999/xlink" x="0px" y="0px"
	 viewBox="0 0 64 64" style="enable-background:new 0 0 64 64;" xml:space="preserve">
<style type="text/css">
	.st0{fill:#191919;}
	.st1{display:none;}
	.st2{display:inline;}
	.st3{opacity:0.5;}
	.st4{opacity:0.1;}
	.st5{fill:none;stroke:#DEFFDE;stroke-width:0.2;stroke-miterlimit:10;}
	.st6{fill:#FFFFFF;stroke:#000000;stroke-width:0.2;stroke-miterlimit:10;}
	.st7{opacity:0.15;fill:url(#SVGID_1_);enable-background:new    ;}
	.st8{opacity:0.7;}
	.st9{fill:none;stroke:#9BBC9B;stroke-width:0.8;stroke-linecap:round;stroke-linejoin:round;stroke-miterlimit:10;}
	.st10{fill:url(#SVGID_2_);}
</style>
<g id="Background">
	<path class="st0" d="M49.1,62.1H14.9c-7.2,0-13-5.8-13-13V14.9c0-7.2,5.8-13,13-13h34.2c7.2,0,13,5.8,13,13v34.2
		C62.1,56.3,56.3,62.1,49.1,62.1z"/>
</g>
<g id="Guides" class="st1">
	<g class="st2">
		<g class="st3">
			<g>
			</g>
		</g>
	</g>
</g>
<g id="Icon">
	<g>
		<g class="st4">
			<rect x="2.7" y="2.7" class="st5" width="4.5" height="4.5"/>
			<rect x="11.7" y="2.7" class="st5" width="4.5" height="4.5"/>
			<rect x="20.7" y="2.7" class="st5" width="4.5" height="4.5"/>
			<rect x="29.7" y="2.7" class="st5" width="4.5" height="4.5"/>
			<rect x="38.8" y="2.7" class="st5" width="4.5" height="4.5"/>
			<rect x="47.8" y="2.7" class="st5" width="4.5" height="4.5"/>
			<rect x="56.8" y="2.7" class="st5" width="4.5" height="4.5"/>
			<rect x="7.2" y="7.2" class="st5" width="4.5" height="4.5"/>
			<rect x="16.2" y="7.2" class="st5" width="4.5" height="4.5"/>
			<rect x="25.2" y="7.2" class="st5" width="4.5" height="4.5"/>
			<rect x="34.3" y="7.2" class="st5" width="4.5" height="4.5"/>
			<rect x="43.3" y="7.2" class="st5" width="4.5" height="4.5"/>
			<rect x="52.3" y="7.2" class="st5" width="4.5" height="4.5"/>
			<rect x="2.7" y="11.7" class="st5" width="4.5" height="4.5"/>
			<rect x="11.7" y="11.7" class="st5" width="4.5" height="4.5"/>
			<rect x="20.7" y="11.7" class="st5" width="4.5" height="4.5"/>
			<rect x="29.7" y="11.7" class="st5" width="4.5" height="4.5"/>
			<rect x="38.8" y="11.7" class="st5" width="4.5" height="4.5"/>
			<rect x="47.8" y="11.7" class="st5" width="4.5" height="4.5"/>
			<rect x="56.8" y="11.7" class="st5" width="4.5" height="4.5"/>
			<rect x="7.2" y="16.2" class="st5" width="4.5" height="4.5"/>
			<rect x="16.2" y="16.2" class="st5" width="4.5" height="4.5"/>
			<rect x="25.2" y="16.2" class="st5" width="4.5" height="4.5"/>
			<rect x="34.3" y="16.2" class="st5" width="4.5" height="4.5"/>
			<rect x="43.3" y="16.2" class="st5" width="4.5" height="4.5"/>
			<rect x="52.3" y="16.2" class="st5" width="4.5" height="4.5"/>
			<rect x="2.7" y="20.7" class="st5" width="4.5" height="4.5"/>
			<rect x="11.7" y="20.7" class="st5" width="4.5" height="4.5"/>
			<rect x="20.7" y="20.7" class="st5" width="4.5" height="4.5"/>
			<rect x="29.7" y="20.7" class="st5" width="4.5" height="4.5"/>
			<rect x="38.8" y="20.7" class="st5" width="4.5" height="4.5"/>
			<rect x="47.8" y="20.7" class="st5" width="4.5" height="4.5"/>
			<rect x="56.8" y="20.7" class="st5" width="4.5" height="4.5"/>
			<rect x="7.2" y="25.2" class="st5" width="4.5" height="4.5"/>
			<rect x="16.2" y="25.2" class="st5" width="4.5" height="4.5"/>
			<rect x="25.2" y="25.2" class="st5" width="4.5" height="4.5"/>
			<rect x="34.3" y="25.2" class="st5" width="4.5" height="4.5"/>
			<rect x="43.3" y="25.2" class="st5" width="4.5" height="4.5"/>
			<rect x="52.3" y="25.2" class="st5" width="4.5" height="4.5"/>
			<rect x="2.7" y="29.7" class="st5" width="4.5" height="4.5"/>
			<rect x="11.7" y="29.7" class="st5" width="4.5" height="4.5"/>
			<rect x="20.7" y="29.7" class="st5" width="4.5" height="4.5"/>
			<rect x="29.7" y="29.7" class="st5" width="4.5" height="4.5"/>
			<rect x="38.8" y="29.7" class="st5" width="4.5" height="4.5"/>
			<rect x="47.8" y="29.7" class="st5" width="4.5" height="4.5"/>
			<rect x="56.8" y="29.7" class="st5" width="4.5" height="4.5"/>
			<rect x="7.2" y="34.3" class="st5" width="4.5" height="4.5"/>
			<rect x="16.2" y="34.3" class="st5" width="4.5" height="4.5"/>
			<rect x="25.2" y="34.3" class="st5" width="4.5" height="4.5"/>
			<rect x="34.3" y="34.3" class="st5" width="4.5" height="4.5"/>
			<rect x="43.3" y="34.3" class="st5" width="4.5" height="4.5"/>
			<rect x="52.3" y="34.3" class="st5" width="4.5" height="4.5"/>
			<rect x="2.7" y="38.8" class="st5" width="4.5" height="4.5"/>
			<rect x="11.7" y="38.8" class="st5" width="4.5" height="4.5"/>
			<rect x="20.7" y="38.8" class="st5" width="4.5" height="4.5"/>
			<rect x="29.7" y="38.8" class="st5" width="4.5" height="4.5"/>
			<rect x="38.8" y="38.8" class="st5" width="4.5" height="4.5"/>
			<rect x="47.8" y="38.8" class="st5" width="4.5" height="4.5"/>
			<rect x="56.8" y="38.8" class="st5" width="4.5" height="4.5"/>
			<rect x="7.2" y="43.3" class="st5" width="4.5" height="4.5"/>
			<rect x="16.2" y="43.3" class="st5" width="4.5" height="4.5"/>
			<rect x="25.2" y="43.3" class="st5" width="4.5" height="4.5"/>
			<rect x="34.3" y="43.3" class="st5" width="4.5" height="4.5"/>
			<rect x="43.3" y="43.3" class="st5" width="4.5" height="4.5"/>
			<rect x="52.3" y="43.3" class="st5" width="4.5" height="4.5"/>
			<rect x="2.7" y="47.8" class="st5" width="4.5" height="4.5"/>
			<rect x="11.7" y="47.8" class="st5" width="4.5" height="4.5"/>
			<rect x="20.7" y="47.8" class="st5" width="4.5" height="4.5"/>
			<rect x="29.7" y="47.8" class="st5" width="4.5" height="4.5"/>
			<rect x="38.8" y="47.8" class="st5" width="4.5" height="4.5"/>
			<rect x="47.8" y="47.8" class="st5" width="4.5" height="4.5"/>
			<rect x="56.8" y="47.8" class="st5" width="4.5" height="4.5"/>
			<rect x="7.2" y="52.3" class="st5" width="4.5" height="4.5"/>
			<rect x="16.2" y="52.3" class="st5" width="4.5" height="4.5"/>
			<rect x="25.2" y="52.3" class="st5" width="4.5" height="4.5"/>
			<rect x="34.3" y="52.3" class="st5" width="4.5" height="4.5"/>
			<rect x="43.3" y="52.3" class="st5" width="4.5" height="4.5"/>
			<rect x="52.3" y="52.3" class="st5" width="4.5" height="4.5"/>
			<rect x="2.7" y="56.8" class="st5" width="4.5" height="4.5"/>
			<rect x="11.7" y="56.8" class="st5" width="4.5" height="4.5"/>
			<rect x="20.7" y="56.8" class="st5" width="4.5" height="4.5"/>
			<rect x="29.7" y="56.8" class="st5" width="4.5" height="4.5"/>
			<rect x="38.8" y="56.8" class="st5" width="4.5" height="4.5"/>
			<rect x="47.8" y="56.8" class="st5" width="4.5" height="4.5"/>
			<rect x="56.8" y="56.8" class="st5" width="4.5" height="4.5"/>
		</g>
		<g class="st3">
			<circle class="st6" cx="7.2" cy="56.8" r="0.2"/>
			<circle class="st6" cx="11.7" cy="56.8" r="0.2"/>
			<circle class="st6" cx="16.2" cy="56.8" r="0.2"/>
			<circle class="st6" cx="20.7" cy="56.8" r="0.2"/>
			<circle class="st6" cx="25.2" cy="56.8" r="0.2"/>
			<circle class="st6" cx="29.7" cy="56.8" r="0.2"/>
			<circle class="st6" cx="34.3" cy="56.8" r="0.2"/>
			<circle class="st6" cx="38.8" cy="56.8" r="0.2"/>
			<circle class="st6" cx="43.3" cy="56.8" r="0.2"/>
			<circle class="st6" cx="47.8" cy="56.8" r="0.2"/>
			<circle class="st6" cx="52.3" cy="56.8" r="0.2"/>
			<circle class="st6" cx="56.8" cy="56.8" r="0.2"/>
			<circle class="st6" cx="7.2" cy="52.3" r="0.2"/>
			<circle class="st6" cx="11.7" cy="52.3" r="0.2"/>
			<circle class="st6" cx="16.2" cy="52.3" r="0.2"/>
			<circle class="st6" cx="20.7" cy="52.3" r="0.2"/>
			<circle class="st6" cx="25.3" cy="52.3" r="0.2"/>
			<circle class="st6" cx="29.8" cy="52.3" r="0.2"/>
			<circle class="st6" cx="34.3" cy="52.3" r="0.2"/>
			<circle class="st6" cx="38.8" cy="52.3" r="0.2"/>
			<circle class="st6" cx="43.3" cy="52.3" r="0.2"/>
			<circle class="st6" cx="47.8" cy="52.3" r="0.2"/>
			<circle class="st6" cx="52.3" cy="52.3" r="0.2"/>
			<circle class="st6" cx="56.8" cy="52.3" r="0.2"/>
			<circle class="st6" cx="7.2" cy="47.8" r="0.2"/>
			<circle class="st6" cx="11.7" cy="47.8" r="0.2"/>
			<circle class="st6" cx="16.2" cy="47.8" r="0.2"/>
			<circle class="st6" cx="20.7" cy="47.8" r="0.2"/>
			<circle class="st6" cx="25.2" cy="47.8" r="0.2"/>
			<circle class="st6" cx="29.7" cy="47.8" r="0.2"/>
			<circle class="st6" cx="34.3" cy="47.8" r="0.2"/>
			<circle class="st6" cx="38.8" cy="47.8" r="0.2"/>
			<circle class="st6" cx="43.3" cy="47.8" r="0.2"/>
			<circle class="st6" cx="47.8" cy="47.8" r="0.2"/>
			<circle class="st6" cx="52.3" cy="47.8" r="0.2"/>
			<circle class="st6" cx="56.8" cy="47.8" r="0.2"/>
			<circle class="st6" cx="7.2" cy="43.3" r="0.2"/>
			<circle class="st6" cx="11.7" cy="43.3" r="0.2"/>
			<circle class="st6" cx="16.2" cy="43.3" r="0.2"/>
			<circle class="st6" cx="20.8" cy="43.3" r="0.2"/>
			<circle class="st6" cx="25.3" cy="43.3" r="0.2"/>
			<circle class="st6" cx="29.8" cy="43.3" r="0.2"/>
			<circle class="st6" cx="34.3" cy="43.3" r="0.2"/>
			<circle class="st6" cx="38.8" cy="43.3" r="0.2"/>
			<circle class="st6" cx="43.3" cy="43.3" r="0.2"/>
			<circle class="st6" cx="47.8" cy="43.3" r="0.2"/>
			<circle class="st6" cx="52.3" cy="43.3" r="0.2"/>
			<circle class="st6" cx="56.8" cy="43.3" r="0.2"/>
			<circle class="st6" cx="7.2" cy="38.8" r="0.2"/>
			<circle class="st6" cx="11.7" cy="38.8" r="0.2"/>
			<circle class="st6" cx="16.2" cy="38.8" r="0.2"/>
			<circle class="st6" cx="20.7" cy="38.8" r="0.2"/>
			<circle class="st6" cx="25.2" cy="38.8" r="0.2"/>
			<circle class="st6" cx="29.7" cy="38.8" r="0.2"/>
			<circle class="st6" cx="34.3" cy="38.8" r="0.2"/>
			<circle class="st6" cx="38.8" cy="38.8" r="0.2"/>
			<circle class="st6" cx="43.3" cy="38.8" r="0.2"/>
			<circle class="st6" cx="47.8" cy="38.8" r="0.2"/>
			<circle class="st6" cx="52.3" cy="38.8" r="0.2"/>
			<circle class="st6" cx="56.8" cy="38.8" r="0.2"/>
			<circle class="st6" cx="7.2" cy="34.3" r="0.2"/>
			<circle class="st6" cx="11.7" cy="34.3" r="0.2"/>
			<circle class="st6" cx="16.2" cy="34.3" r="0.2"/>
			<circle class="st6" cx="20.7" cy="34.3" r="0.2"/>
			<circle class="st6" cx="25.2" cy="34.3" r="0.2"/>
			<circle class="st6" cx="29.7" cy="34.3" r="0.2"/>
			<circle class="st6" cx="34.3" cy="34.3" r="0.2"/>
			<circle class="st6" cx="38.8" cy="34.3" r="0.2"/>
			<circle class="st6" cx="43.3" cy="34.3" r="0.2"/>
			<circle class="st6" cx="47.8" cy="34.3" r="0.2"/>
			<circle class="st6" cx="52.3" cy="34.3" r="0.2"/>
			<circle class="st6" cx="56.8" cy="34.3" r="0.2"/>
			<circle class="st6" cx="7.2" cy="29.8" r="0.2"/>
			<circle class="st6" cx="11.7" cy="29.8" r="0.2"/>
			<circle class="st6" cx="16.2" cy="29.8" r="0.2"/>
			<circle class="st6" cx="20.7" cy="29.8" r="0.2"/>
			<circle class="st6" cx="25.2" cy="29.8" r="0.2"/>
			<circle class="st6" cx="29.7" cy="29.8" r="0.2"/>
			<circle class="st6" cx="34.3" cy="29.8" r="0.2"/>
			<circle class="st6" cx="38.8" cy="29.8" r="0.2"/>
			<circle class="st6" cx="43.3" cy="29.8" r="0.2"/>
			<circle class="st6" cx="47.8" cy="29.8" r="0.2"/>
			<circle class="st6" cx="52.3" cy="29.8" r="0.2"/>
			<circle class="st6" cx="56.8" cy="29.8" r="0.2"/>
			<circle class="st6" cx="7.2" cy="25.3" r="0.2"/>
			<circle class="st6" cx="11.7" cy="25.3" r="0.2"/>
			<circle class="st6" cx="16.2" cy="25.3" r="0.2"/>
			<circle class="st6" cx="20.7" cy="25.3" r="0.2"/>
			<circle class="st6" cx="25.3" cy="25.3" r="0.2"/>
			<circle class="st6" cx="29.8" cy="25.3" r="0.2"/>
			<circle class="st6" cx="34.3" cy="25.3" r="0.2"/>
			<circle class="st6" cx="38.8" cy="25.3" r="0.2"/>
			<circle class="st6" cx="43.3" cy="25.3" r="0.2"/>
			<circle class="st6" cx="47.8" cy="25.3" r="0.2"/>
			<circle class="st6" cx="52.3" cy="25.3" r="0.2"/>
			<circle class="st6" cx="56.8" cy="25.3" r="0.2"/>
			<circle class="st6" cx="7.2" cy="20.7" r="0.2"/>
			<circle class="st6" cx="11.7" cy="20.7" r="0.2"/>
			<circle class="st6" cx="16.2" cy="20.7" r="0.2"/>
			<circle class="st6" cx="20.7" cy="20.7" r="0.2"/>
			<circle class="st6" cx="25.2" cy="20.7" r="0.2"/>
			<circle class="st6" cx="29.7" cy="20.7" r="0.2"/>
			<circle class="st6" cx="34.2" cy="20.7" r="0.2"/>
			<circle class="st6" cx="38.7" cy="20.7" r="0.2"/>
			<circle class="st6" cx="43.3" cy="20.7" r="0.2"/>
			<circle class="st6" cx="47.8" cy="20.7" r="0.2"/>
			<circle class="st6" cx="52.3" cy="20.7" r="0.2"/>
			<circle class="st6" cx="56.8" cy="20.7" r="0.2"/>
			<circle class="st6" cx="7.2" cy="16.2" r="0.2"/>
			<circle class="st6" cx="11.7" cy="16.2" r="0.2"/>
			<circle class="st6" cx="16.2" cy="16.2" r="0.2"/>
			<circle class="st6" cx="20.7" cy="16.2" r="0.2"/>
			<circle class="st6" cx="25.2" cy="16.2" r="0.2"/>
			<circle class="st6" cx="29.7" cy="16.2" r="0.2"/>
			<circle class="st6" cx="34.3" cy="16.2" r="0.2"/>
			<circle class="st6" cx="38.8" cy="16.2" r="0.2"/>
			<circle class="st6" cx="43.3" cy="16.2" r="0.2"/>
			<circle class="st6" cx="47.8" cy="16.2" r="0.2"/>
			<circle class="st6" cx="52.3" cy="16.2" r="0.2"/>
			<circle class="st6" cx="56.8" cy="16.2" r="0.2"/>
			<circle class="st6" cx="7.2" cy="11.7" r="0.2"/>
			<circle class="st6" cx="11.7" cy="11.7" r="0.2"/>
			<circle class="st6" cx="16.2" cy="11.7" r="0.2"/>
			<circle class="st6" cx="20.7" cy="11.7" r="0.2"/>
			<circle class="st6" cx="25.2" cy="11.7" r="0.2"/>
			<circle class="st6" cx="29.7" cy="11.7" r="0.2"/>
			<circle class="st6" cx="34.3" cy="11.7" r="0.2"/>
			<circle class="st6" cx="38.8" cy="11.7" r="0.2"/>
			<circle class="st6" cx="43.3" cy="11.7" r="0.2"/>
			<circle class="st6" cx="47.8" cy="11.7" r="0.2"/>
			<circle class="st6" cx="52.3" cy="11.7" r="0.2"/>
			<circle class="st6" cx="56.8" cy="11.7" r="0.2"/>
			<circle class="st6" cx="7.2" cy="7.2" r="0.2"/>
			<circle class="st6" cx="11.7" cy="7.2" r="0.2"/>
			<circle class="st6" cx="16.2" cy="7.2" r="0.2"/>
			<circle class="st6" cx="20.7" cy="7.2" r="0.2"/>
			<circle class="st6" cx="25.2" cy="7.2" r="0.2"/>
			<circle class="st6" cx="29.8" cy="7.2" r="0.2"/>
			<circle class="st6" cx="34.3" cy="7.2" r="0.2"/>
			<circle class="st6" cx="38.8" cy="7.2" r="0.2"/>
			<circle class="st6" cx="43.3" cy="7.2" r="0.2"/>
			<circle class="st6" cx="47.8" cy="7.2" r="0.2"/>
			<circle class="st6" cx="52.3" cy="7.2" r="0.2"/>
			<circle class="st6" cx="56.8" cy="7.2" r="0.2"/>
		</g>
	</g>
	<linearGradient id="SVGID_1_" gradientUnits="userSpaceOnUse" x1="31.8306" y1="25.2903" x2="31.8306" y2="58.7755">
		<stop  offset="0" style="stop-color:#B1FFB1"/>
		<stop  offset="0.1156" style="stop-color:#ACF7AC"/>
		<stop  offset="0.2904" style="stop-color:#9FE39F"/>
		<stop  offset="0.5028" style="stop-color:#89C088;stop-opacity:0.98"/>
		<stop  offset="0.7726" style="stop-color:#6B916A;stop-opacity:0.8"/>
		<stop  offset="1" style="stop-color:#465744;stop-opacity:0.6"/>
	</linearGradient>
	<polygon class="st7" points="61.1,33 54.2,34.6 46.7,33.1 41.9,28.3 37.6,30.3 34.5,39.9 31.4,41.9 29.1,38 27.1,28.2 22.2,24.6 
		19.6,31.5 16,35.2 9,32 3.1,33 2.4,53.8 5.7,58.7 12.2,62.1 52.8,61.9 58.4,58.3 61.3,53.2 	"/>
	<g class="st8">
		<polyline class="st9" points="61.2,33 54.2,34.6 46.8,33.1 42,28.3 37.6,30.3 34.5,39.9 31.4,41.9 29.1,38 27.1,28.2 22.2,24.6 
			19.6,31.5 16,35.2 9,32 3.2,33 		"/>
	</g>
</g>
<g id="Border">
	<linearGradient id="SVGID_2_" gradientUnits="userSpaceOnUse" x1="32" y1="63" x2="32" y2="1">
		<stop  offset="0" style="stop-color:#9B9B9B"/>
		<stop  offset="0.3806" style="stop-color:#BBBBBB"/>
		<stop  offset="0.5907" style="stop-color:#D1D1D1"/>
		<stop  offset="0.8304" style="stop-color:#DEDEDE"/>
		<stop  offset="1" style="stop-color:#E3E3E3"/>
	</linearGradient>
	<path class="st10" d="M50,3.5c5.8,0,10.5,4.7,10.5,10.5v36c0,5.8-4.7,10.5-10.5,10.5H14C8.2,60.5,3.5,55.8,3.5,50V14
		C3.5,8.2,8.2,3.5,14,3.5H50 M50,1H14C6.8,1,1,6.8,1,14v36c0,7.2,5.8,13,13,13h36c7.2,0,13-5.8,13-13V14C63,6.8,57.2,1,50,1L50,1z"
		/>
</g>
</svg>
