<?xml version="1.0" encoding="utf-8"?>
<!-- Generator: Adobe Illustrator 25.2.0, SVG Export Plug-In . SVG Version: 6.00 Build 0)  -->
<svg version="1.1" xmlns="http://www.w3.org/2000/svg" xmlns:xlink="http://www.w3.org/1999/xlink" x="0px" y="0px"
	 viewBox="0 0 64 64" style="enable-background:new 0 0 64 64;" xml:space="preserve">
<style type="text/css">
	.st0{fill:#191919;}
	.st1{fill:url(#SVGID_1_);}
	.st2{display:none;}
	.st3{display:inline;}
	.st4{opacity:0.5;}
	.st5{fill:url(#SVGID_2_);}
	.st6{fill:url(#SVGID_3_);}
</style>
<g id="Background">
	<path class="st0" d="M49.1,62.1H14.9c-7.2,0-13-5.8-13-13V14.9c0-7.2,5.8-13,13-13h34.2c7.2,0,13,5.8,13,13v34.2
		C62.1,56.3,56.3,62.1,49.1,62.1z"/>
	<linearGradient id="SVGID_1_" gradientUnits="userSpaceOnUse" x1="32" y1="63" x2="32" y2="1">
		<stop  offset="0" style="stop-color:#9B9B9B"/>
		<stop  offset="0.3806" style="stop-color:#BBBBBB"/>
		<stop  offset="0.5907" style="stop-color:#D1D1D1"/>
		<stop  offset="0.8304" style="stop-color:#DEDEDE"/>
		<stop  offset="1" style="stop-color:#E3E3E3"/>
	</linearGradient>
	<path class="st1" d="M50,3.5c5.8,0,10.5,4.7,10.5,10.5v36c0,5.8-4.7,10.5-10.5,10.5H14C8.2,60.5,3.5,55.8,3.5,50V14
		C3.5,8.2,8.2,3.5,14,3.5H50 M50,1H14C6.8,1,1,6.8,1,14v36c0,7.2,5.8,13,13,13h36c7.2,0,13-5.8,13-13V14C63,6.8,57.2,1,50,1L50,1z"
		/>
</g>
<g id="Guides" class="st2">
	<g class="st3">
		<g class="st4">
			<g>
			</g>
		</g>
	</g>
</g>
<g id="Icon">
	
		<linearGradient id="SVGID_2_" gradientUnits="userSpaceOnUse" x1="57340.5391" y1="-36522.3125" x2="57340.5391" y2="-36675.2734" gradientTransform="matrix(6.383000e-02 0 0 -6.383000e-02 -3645.5032 -2319.6316)">
		<stop  offset="0" style="stop-color:#FFFFFF"/>
		<stop  offset="1" style="stop-color:#D7D7D7"/>
	</linearGradient>
	<path class="st5" d="M12.8,11.9c-0.3,0-0.5,0.1-0.7,0.3s-0.3,0.4-0.3,0.6c0,0.3,0.1,0.5,0.3,0.7l3,3l-3,3c-0.2,0.1-0.3,0.3-0.3,0.6
		c0,0.3,0.1,0.5,0.3,0.7s0.4,0.3,0.7,0.3s0.5-0.1,0.7-0.3l3.3-3.3c0.7-0.7,0.7-1.4,0-2.1l-3.3-3.3C13.3,12,13.1,11.9,12.8,11.9
		L12.8,11.9z"/>
	
		<linearGradient id="SVGID_3_" gradientUnits="userSpaceOnUse" x1="33255.6875" y1="60802.8672" x2="33255.6875" y2="60660.8555" gradientTransform="matrix(3.908461e-18 6.383000e-02 6.383000e-02 -3.908461e-18 -3854.5376 -2099.1204)">
		<stop  offset="0" style="stop-color:#FFFFFF"/>
		<stop  offset="1" style="stop-color:#D7D7D7"/>
	</linearGradient>
	<path class="st6" d="M26.3,23.6L26.3,23.6c0,0.6-0.5,1.1-1.1,1.1h-6.4c-0.6,0-1.1-0.5-1.1-1.1l0,0c0-0.6,0.5-1.1,1.1-1.1h6.4
		C25.8,22.5,26.3,23,26.3,23.6z"/>
</g>
</svg>
