<?xml version="1.0" encoding="utf-8"?>
<!-- Generator: Adobe Illustrator 23.0.2, SVG Export Plug-In . SVG Version: 6.00 Build 0)  -->
<svg version="1.1" id="terminal" xmlns="http://www.w3.org/2000/svg" xmlns:xlink="http://www.w3.org/1999/xlink" x="0px" y="0px"
	 viewBox="0 0 64 64" style="enable-background:new 0 0 64 64;" xml:space="preserve">
<style type="text/css">
	.st0{opacity:0.17;fill:url(#SVGID_1_);enable-background:new    ;}
	.st1{opacity:0.36;enable-background:new    ;}
	.st2{fill:#191919;}
	.st3{fill:url(#SVGID_2_);}
	.st4{fill:url(#SVGID_3_);}
	.st5{fill:url(#SVGID_4_);}
</style>
<g>
	<linearGradient id="SVGID_1_" gradientUnits="userSpaceOnUse" x1="31.95" y1="8.9355" x2="31.95" y2="45.4233">
		<stop  offset="0" style="stop-color:#020202;stop-opacity:0"/>
		<stop  offset="1" style="stop-color:#000000"/>
	</linearGradient>
	<path class="st0" d="M58.8,8.7H5.2c-2.2,0-4,1.9-4,4.2v43.7c0,2.4,1.8,4.2,4,4.2h53.5c2.2,0,4-1.9,4-4.2V13
		C62.7,10.6,61,8.7,58.8,8.7z"/>
	<path class="st1" d="M57.3,59.6H6.7c-2.1,0-3.7-1.7-3.7-3.7v-2.6c0-3.6,2.9-6.6,6.6-6.6h45c3.6,0,6.6,2.9,6.6,6.6v2.6
		C61.1,57.9,59.4,59.6,57.3,59.6z"/>
</g>
<path class="st2" d="M56.8,57.4H7.2c-2.1,0-3.8-1.9-3.8-4.2V10.8c0-2.3,1.7-4.2,3.8-4.2h49.6c2.1,0,3.8,1.9,3.8,4.2v42.4
	C60.6,55.5,58.9,57.4,56.8,57.4z"/>
<linearGradient id="SVGID_2_" gradientUnits="userSpaceOnUse" x1="32" y1="-1006.1705" x2="32" y2="-953.2482" gradientTransform="matrix(1 0 0 -1 0 -948)">
	<stop  offset="0" style="stop-color:#9B9B9B"/>
	<stop  offset="0.3806" style="stop-color:#BBBBBB"/>
	<stop  offset="0.5907" style="stop-color:#D1D1D1"/>
	<stop  offset="0.8304" style="stop-color:#DEDEDE"/>
	<stop  offset="1" style="stop-color:#E3E3E3"/>
</linearGradient>
<path class="st3" d="M57.6,7.7c1,0,1.8,0.9,1.8,2.1v44.6c0,1.1-0.8,2.1-1.8,2.1H6.4c-1,0-1.8-0.9-1.8-2.1V9.7c0-1.1,0.8-2.1,1.8-2.1
	L57.6,7.7 M57.6,5.4H6.4c-2.1,0-3.8,1.9-3.8,4.3v44.6c0,2.4,1.7,4.3,3.8,4.3h51.2c2.1,0,3.8-1.9,3.8-4.3V9.7
	C61.4,7.3,59.7,5.4,57.6,5.4L57.6,5.4z"/>
<linearGradient id="SVGID_3_" gradientUnits="userSpaceOnUse" x1="54554.3125" y1="31940.7148" x2="54554.3125" y2="32093.6758" gradientTransform="matrix(6.383000e-02 0 0 6.383000e-02 -3470.4395 -2027.0785)">
	<stop  offset="0" style="stop-color:#FFFFFF"/>
	<stop  offset="1" style="stop-color:#D7D7D7"/>
</linearGradient>
<path class="st4" d="M10,12c-0.3,0-0.5,0.1-0.7,0.3S9,12.7,9,12.9c0,0.3,0.1,0.5,0.3,0.7l3,3l-3,3C9.1,19.7,9,19.9,9,20.2
	c0,0.3,0.1,0.5,0.3,0.7s0.4,0.3,0.7,0.3s0.5-0.1,0.7-0.3l3.3-3.3c0.7-0.7,0.7-1.4,0-2.1l-3.3-3.3C10.5,12.1,10.3,12,10,12L10,12z"/>
<linearGradient id="SVGID_4_" gradientUnits="userSpaceOnUse" x1="28478.0918" y1="-57446.6406" x2="28478.0918" y2="-57304.6289" gradientTransform="matrix(3.908461e-18 6.383000e-02 -6.383000e-02 3.908461e-18 -3643.0908 -1794.0566)">
	<stop  offset="0" style="stop-color:#FFFFFF"/>
	<stop  offset="1" style="stop-color:#D7D7D7"/>
</linearGradient>
<path class="st5" d="M23.5,23.7L23.5,23.7c0,0.6-0.5,1.1-1.1,1.1H16c-0.6,0-1.1-0.5-1.1-1.1l0,0c0-0.6,0.5-1.1,1.1-1.1h6.4
	C23,22.6,23.5,23.1,23.5,23.7z"/>
</svg>
