<svg xmlns="http://www.w3.org/2000/svg" viewBox="0 0 16 16"><path d="M15.58,5.44c-.52.54-1.47,1.53-2.52,2.63a1.548,1.548,0,0,0-.22-.01,2.817,2.817,0,0,0-2.73,2.16,1.629,1.629,0,0,0-.8.71,1.744,1.744,0,0,0-.27.93v.4l-.32.33a1,1,0,0,1-1.44,0l-.62-.65L.43,5.45a.631.631,0,0,1,.01-.89A11.064,11.064,0,0,1,8,1.53a11.034,11.034,0,0,1,7.57,3.04A.615.615,0,0,1,15.58,5.44Z" fill-rule="evenodd" opacity="0.35"/><path d="M9.31,10.93a1.744,1.744,0,0,0-.27.93v.4l-.32.33a1,1,0,0,1-1.44,0l-.62-.65a.662.662,0,0,1,.13-1.08A2.581,2.581,0,0,1,8,10.56a2.65,2.65,0,0,1,1.22.3A.55.55,0,0,1,9.31,10.93Z" fill-rule="evenodd"/><path d="M14.84,10.87a1.993,1.993,0,0,0-2-2,2.012,2.012,0,0,0-1.92,1.43,2.121,2.121,0,0,0-.08.57,1,1,0,0,0-1,1v2a1,1,0,0,0,1,1h4a1,1,0,0,0,1-1v-2A1,1,0,0,0,14.84,10.87Zm-3,0a1,1,0,0,1,2,0Z" fill-rule="evenodd"/></svg>