<svg xmlns="http://www.w3.org/2000/svg" viewBox="0 0 16 16"><path d="M6,.5a1.5,1.5,0,0,0,0,3H7.5V2A1.5,1.5,0,0,0,6,.5Zm4,0A1.5,1.5,0,0,0,8.5,2V6a1.5,1.5,0,0,0,3,0V4.732A2.988,2.988,0,0,1,10.984.871,1.5,1.5,0,0,0,10,.5Zm-8,4a1.5,1.5,0,0,0,0,3H6a1.5,1.5,0,0,0,0-3Zm13.131.516A3.008,3.008,0,0,1,13.5,5.5a2.978,2.978,0,0,1-.859-.127A1.492,1.492,0,0,0,12.5,6V7.5H14a1.5,1.5,0,0,0,1.131-2.484ZM2,8.5A1.5,1.5,0,1,0,3.5,10V8.5Zm4,0A1.5,1.5,0,0,0,4.5,10v4a1.5,1.5,0,0,0,3,0V10A1.5,1.5,0,0,0,6,8.5Zm4,0a1.5,1.5,0,0,0,0,3h4a1.5,1.5,0,0,0,0-3Zm-1.5,4V14A1.5,1.5,0,1,0,10,12.5Z"/><circle cx="13.5" cy="2.5" r="2" fill="#4285f4"/></svg>