<?xml version="1.0" encoding="UTF-8" standalone="no"?>
<svg
   viewBox="0 0 22 22"
   version="1.1"
   id="svg1"
   sodipodi:docname="temp.svg"
   inkscape:version="1.3.2 (091e20ef0f, 2023-11-25, custom)"
   xmlns:inkscape="http://www.inkscape.org/namespaces/inkscape"
   xmlns:sodipodi="http://sodipodi.sourceforge.net/DTD/sodipodi-0.dtd"
   xmlns="http://www.w3.org/2000/svg"
   xmlns:svg="http://www.w3.org/2000/svg">
  <defs
     id="defs1" />
  <sodipodi:namedview
     id="namedview1"
     pagecolor="#131722"
     bordercolor="#666666"
     borderopacity="1.0"
     inkscape:showpageshadow="2"
     inkscape:pageopacity="0.0"
     inkscape:pagecheckerboard="0"
     inkscape:deskcolor="#d1d1d1"
     inkscape:zoom="16"
     inkscape:cx="16.03125"
     inkscape:cy="13.34375"
     inkscape:window-width="1920"
     inkscape:window-height="1022"
     inkscape:window-x="0"
     inkscape:window-y="30"
     inkscape:window-maximized="1"
     inkscape:current-layer="svg1" />
  <path
     id="rect3-1"
     style="fill:#ffffff;fill-opacity:1;stroke:none;stroke-width:0.504424;stroke-linecap:round;stroke-linejoin:round;stroke-miterlimit:6.1;paint-order:markers stroke fill"
     d="M 3.46875 6.25 C 2.6553909 6.25 2 6.9053909 2 7.71875 L 2 14.28125 C 2 15.094609 2.6553909 15.75 3.46875 15.75 L 8.9472656 15.75 L 8.9472656 13.349609 L 8.03125 13.349609 A 1.2586409 1.2586409 0 0 1 6.90625 11.527344 L 9.5449219 6.25 C 9.5403232 6.249958 9.5358589 6.25 9.53125 6.25 L 3.46875 6.25 z " />
  <path
     id="rect2-8"
     style="display:inline;fill:#ffffff;fill-opacity:0.34902;stroke:none;stroke-width:0.697568;stroke-linecap:round;stroke-linejoin:round;stroke-miterlimit:6.1;paint-order:markers stroke fill"
     d="m 12.552734,6.2500004 v 2.4042969 h 0.914063 c 0.936697,-0.00116 1.54641,0.9847341 1.126953,1.8222647 L 11.957031,15.75 H 18.03125 C 18.844608,15.75 19.5,15.094608 19.5,14.28125 v -1.292969 h 0.833984 C 20.70323,12.988281 21,12.69151 21,12.322266 V 9.6777348 C 21,9.3084894 20.70323,9.0117192 20.333984,9.0117192 H 19.5 V 7.7187504 c 0,-0.8133583 -0.655392,-1.46875 -1.46875,-1.46875 z"
     sodipodi:nodetypes="cccccsscsssscssc" />
  <path
     id="rect5"
     style="display:inline;fill:#ffffff;fill-opacity:1;stroke:none;stroke-width:2.20353;stroke-linecap:round;stroke-linejoin:round;stroke-miterlimit:6.1;stroke-dasharray:none;stroke-opacity:1;paint-order:markers stroke fill"
     d="M 10.951172,6.2500004 8.0332034,12.085938 H 10.207031 V 15.75 h 0.341797 L 13.466797,9.9140629 H 11.292969 V 6.2500004 Z" />
  <path
     id="path1"
     style="color:#000000;fill:#00ff00;stroke-linecap:round;stroke-linejoin:round;-inkscape-stroke:none"
     d="m 17.375047,2.2007539 a 1.2586409,1.2586409 0 0 0 -1.080078,0.693359 l -3.261719,6.521485 a 1.2586409,1.2586409 0 0 0 1.125,1.8222651 h 0.916016 v 3.087891 a 1.2586409,1.2586409 0 0 0 2.384765,0.564453 l 3.259766,-6.5214851 a 1.2586409,1.2586409 0 0 0 -1.125,-1.822265 h -0.916016 v -3.089844 a 1.2586409,1.2586409 0 0 0 -0.96875,-1.222656 1.2586409,1.2586409 0 0 0 -0.333984,-0.0332 z" />
  <path
     d="M 18.769976,22.29582 V 17.948229 H 16.59618 l 3.260695,-6.52139 v 4.347594 h 2.173795 z"
     id="path1-3"
     sodipodi:nodetypes="ccccccc"
     style="display:inline;fill:#ff0000;stroke-width:0.0271725" />
  <path
     d="M 16.309351,14.43315 V 10.085559 H 14.135555 L 17.39625,3.5641699 v 4.347593 h 2.173795 z"
     id="path1-3-9"
     sodipodi:nodetypes="ccccccc"
     style="display:inline;fill:#ff0000;stroke-width:0.0271725" />
</svg>
