<svg xmlns="http://www.w3.org/2000/svg" viewBox="0 0 16 16"><g opacity="0.75"><path d="M.5,9.245.5,4.584V3.64l.005-.3.008-.217.01-.177L.533,2.8l.018-.131L.57,2.546.6,2.44l.025-.1.03-.088.033-.082L.72,2.1l.041-.07.044-.064L.854,1.9l.052-.055L.962,1.8l.062-.048L1.09,1.71l.071-.039.078-.036L1.325,1.6l.092-.027.1-.024.111-.022.127-.016L1.9,1.5l.168-.012.208-.008.287,0,.9,0h.863c3.207.006,1.794,1.017,4.841,1.017H12.54l.9,0,.287,0,.207.009.169.011.142.014.126.018.112.021.1.024.093.029.084.031.078.036.071.037.067.043.061.047.057.05.053.054.047.06.045.064.04.07.037.076.034.081.029.089.027.1.023.1.019.117.018.131.014.151.011.176.007.218.005.3V7.079" fill="none" stroke="#dedede" stroke-miterlimit="10"/><polygon points="15.498 7.532 15.5 10.383 15.498 11.287 15.498 11.323 15.495 11.623 15.487 11.84 15.476 12.017 15.462 12.167 15.445 12.298 15.425 12.415 15.401 12.52 15.375 12.617 15.345 12.706 15.312 12.787 15.275 12.862 15.234 12.932 15.19 12.996 15.142 13.056 15.089 13.11 15.033 13.16 14.972 13.207 14.905 13.25 14.834 13.288 14.756 13.323 14.671 13.355 14.579 13.382 14.477 13.406 14.365 13.427 14.24 13.445 14.097 13.459 13.929 13.471 13.721 13.479 13.434 13.484 12.534 13.485 3.467 13.485 2.568 13.484 2.281 13.479 2.074 13.471 1.905 13.459 1.763 13.445 1.637 13.427 1.525 13.406 1.424 13.382 1.332 13.355 1.247 13.323 1.169 13.288 1.097 13.25 1.03 13.207 0.969 13.16 0.912 13.11 0.86 13.056 0.812 12.996 0.768 12.932 0.728 12.862 0.691 12.787 0.657 12.706 0.627 12.617 0.601 12.52 0.577 12.415 0.557 12.298 0.54 12.167 0.527 12.017 0.516 11.84 0.508 11.623 0.503 11.323 0.503 11.287 0.502 10.383 0.5 7.532 0.502 6.647 0.505 6.347 0.513 6.13 0.524 5.954 0.538 5.804 0.555 5.673 0.575 5.556 0.599 5.45 0.625 5.353 0.655 5.265 0.688 5.183 0.725 5.108 0.766 5.038 0.81 4.975 0.858 4.915 0.911 4.86 0.967 4.81 1.028 4.763 1.095 4.721 1.166 4.683 1.244 4.647 1.329 4.616 1.421 4.588 1.523 4.564 1.635 4.543 1.76 4.526 1.903 4.511 2.071 4.5 2.279 4.492 2.566 4.487 3.466 4.485 12.533 4.485 13.432 4.487 13.719 4.492 13.926 4.5 14.095 4.511 14.237 4.526 14.363 4.543 14.475 4.564 14.576 4.588 14.668 4.616 14.753 4.647 14.831 4.683 14.903 4.721 14.97 4.763 15.031 4.81 15.088 4.86 15.14 4.915 15.188 4.975 15.232 5.038 15.272 5.108 15.309 5.183 15.343 5.265 15.373 5.353 15.399 5.45 15.423 5.556 15.443 5.673 15.46 5.804 15.473 5.954 15.484 6.13 15.492 6.347 15.497 6.647 15.498 7.532" fill="none" stroke="#dedede" stroke-miterlimit="10"/></g></svg>