<svg xmlns="http://www.w3.org/2000/svg" viewBox="0 0 16 16"><path d="M8.734.568,15.325,6.4A2,2,0,0,1,16,7.9v6.9A1.2,1.2,0,0,1,14.8,16H1.2A1.2,1.2,0,0,1,0,14.8V7.9A2,2,0,0,1,.675,6.4L7.266.568A1.2,1.2,0,0,1,8.734.568Z" fill="#fff" opacity="0.25"/><path d="M7.2,9H8.8A1.2,1.2,0,0,1,10,10.2V16a0,0,0,0,1,0,0H6a0,0,0,0,1,0,0V10.2A1.2,1.2,0,0,1,7.2,9Z" fill="#fff" opacity="0.4"/><rect x="2" y="8" width="2" height="2" rx="0.55" fill="#fff" opacity="0.2"/><rect x="12" y="8" width="2" height="2" rx="0.55" fill="#fff" opacity="0.2"/></svg>