<svg xmlns="http://www.w3.org/2000/svg" xmlns:xlink="http://www.w3.org/1999/xlink" viewBox="0 0 128 128"><defs><linearGradient id="a" x1="5.004" y1="60.163" x2="123" y2="60.163" gradientUnits="userSpaceOnUse"><stop offset="0" stop-color="#78c3fd"/><stop offset="1" stop-color="#7bc6ff"/></linearGradient><linearGradient id="b" x1="5" y1="73.69" x2="122.997" y2="73.69" gradientUnits="userSpaceOnUse"><stop offset="0" stop-color="#35a5fc"/><stop offset="0.5" stop-color="#45c0ff"/><stop offset="1" stop-color="#4dacf6"/></linearGradient></defs><path d="M123,66.527l-.02,11.337-.062,3.94-.112,2.844-.144,2.313-.194,1.964-.225,1.729-.276,1.535-.328,1.392-.358,1.268-.419,1.167-.451,1.074-.511.983-.553.91-.614.849-.655.778-.726.716-.778.666-.839.6-.91.563-.993.5-1.064.461-1.167.409-1.268.368-1.392.318-1.535.276-1.729.235-1.964.184-2.313.154-2.855.1-3.939.062-30.737.02-30.482-.02-3.939-.062-2.855-.1-2.312-.154-1.965-.184-1.719-.235-1.545-.276-1.391-.318-1.269-.368-1.156-.409-1.075-.461-.982-.5-.91-.563-.85-.6-.777-.666-.717-.716-.665-.778-.6-.849-.563-.91-.5-.983-.46-1.074-.409-1.167-.369-1.268-.317-1.392-.276-1.535-.235-1.729-.195-1.964-.143-2.313-.1-2.844-.062-3.94L5,66.527l.02-12.36.062-3.94.1-2.844.031-.542.01-4.38.061-3.939.1-2.845.153-2.312L5.73,31.4l.236-1.729.276-1.535.317-1.391.368-1.269.41-1.166.46-1.075.5-.982.563-.911.6-.849.665-.778L10.846,19l.778-.665.849-.6.911-.562.982-.5,1.074-.46,1.167-.41,1.258-.368,1.392-.317,1.545-.276,1.719-.236,1.975-.184,2.3-.153,2.855-.1,3.939-.061,4.9-.021,5.168.021,3.939.061,2.844.1,2.313.153,1.964.184,1.73.236,1.534.276,1.392.317,1.269.368,1.166.41,1.075.46.982.5.911.562.849.6.777.665.717.716.665.778.6.849.553.911.512.982.46,1.075h0a2.174,2.174,0,0,0,2.058,1.474l22.632.019,3.939.062,2.855.1,2.313.154,1.964.184,1.729.235,1.535.276,1.392.318,1.268.368,1.167.409,1.064.461.993.5.91.563.839.6.778.665.726.716.655.778.614.849.553.91.511.983.451,1.074.419,1.167.358,1.268.328,1.392.276,1.535.225,1.729.194,1.964.144,2.313.112,2.844.062,3.94Z" fill="url(#a)"/><path d="M123,74.2l-.021,11.334-.062,3.939-.105,2.853-.147,2.31-.19,1.967-.233,1.725-.276,1.539-.32,1.392-.365,1.268-.411,1.162-.459,1.07-.506.987-.556.912-.609.843-.662.779-.719.719-.779.663-.843.608-.912.556-.987.507-1.07.458-1.162.411-1.268.365-1.392.32-1.54.277-1.724.232-1.967.19-2.31.147-2.853.105-3.94.063-30.744.021h0L33.388,113.9l-3.94-.063-2.853-.105-2.309-.147-1.967-.19-1.725-.232-1.54-.277-1.391-.32L16.4,112.2l-1.163-.411-1.069-.458-.988-.507-.912-.556-.843-.608L10.641,109l-.719-.719L9.26,107.5l-.608-.843-.557-.912-.506-.987-.458-1.07-.411-1.162-.366-1.268-.32-1.392-.276-1.539L5.525,96.6l-.189-1.967-.147-2.31-.105-2.853-.063-3.939L5,74.2H5l.021-12.356.063-3.94.105-2.853.147-2.31.189-1.967.233-1.724.276-1.54.32-1.392.366-1.268.411-1.162.458-1.07.506-.987.557-.912.608-.843.662-.779.719-.719.779-.662.843-.609.912-.556.988-.507,1.069-.458,1.163-.411,1.268-.365,1.391-.32,1.54-.276,1.725-.233,1.967-.19,2.309-.147,2.853-.105,3.94-.062,30.477-.021h0l30.744.021,3.94.062,2.853.105,2.31.147,1.967.19,1.724.233,1.54.276,1.392.32,1.268.365,1.162.411,1.07.458.987.507.912.556.843.609.779.662.719.719.662.779.609.843.556.912.506.987.459,1.07.411,1.162.365,1.268.32,1.392.276,1.54.233,1.724.19,1.967.147,2.31.105,2.853.062,3.94Z" fill="url(#b)"/></svg>