<?xml version="1.0" encoding="UTF-8" standalone="no"?>
<svg
   viewBox="0 0 22 22"
   version="1.1"
   id="svg1"
   sodipodi:docname="battery-100-charging.svg"
   inkscape:version="1.3.2 (091e20ef0f, 2023-11-25, custom)"
   xmlns:inkscape="http://www.inkscape.org/namespaces/inkscape"
   xmlns:sodipodi="http://sodipodi.sourceforge.net/DTD/sodipodi-0.dtd"
   xmlns="http://www.w3.org/2000/svg"
   xmlns:svg="http://www.w3.org/2000/svg">
  <defs
     id="defs1" />
  <sodipodi:namedview
     id="namedview1"
     pagecolor="#ffffff"
     bordercolor="#666666"
     borderopacity="1.0"
     inkscape:showpageshadow="2"
     inkscape:pageopacity="0.0"
     inkscape:pagecheckerboard="0"
     inkscape:deskcolor="#d1d1d1"
     inkscape:zoom="13.579665"
     inkscape:cx="14.470166"
     inkscape:cy="13.218294"
     inkscape:window-width="1920"
     inkscape:window-height="1022"
     inkscape:window-x="0"
     inkscape:window-y="30"
     inkscape:window-maximized="1"
     inkscape:current-layer="svg1" />
  <path
     id="rect2"
     style="fill:#ffffff;fill-opacity:1;stroke:none;stroke-width:0.697568;stroke-linecap:round;stroke-linejoin:round;stroke-miterlimit:6.1;paint-order:markers stroke fill"
     d="M 3.46875,6.25 C 2.6553917,6.25 2,6.9053917 2,7.71875 v 6.5625 C 2,15.094608 2.6553917,15.75 3.46875,15.75 H 8.9472656 V 13.345703 H 8.0332031 A 1.2586409,1.2586409 0 0 1 6.90625,11.523438 L 9.5429688,6.25 Z m 9.083984,0 v 2.4042969 h 0.914063 A 1.2586409,1.2586409 0 0 1 14.59375,10.476562 L 11.957031,15.75 H 18.03125 C 18.844608,15.75 19.5,15.094608 19.5,14.28125 v -1.292969 h 0.833984 C 20.70323,12.988281 21,12.69151 21,12.322266 V 9.6777344 C 21,9.308489 20.70323,9.0117188 20.333984,9.0117188 H 19.5 V 7.71875 C 19.5,6.9053917 18.844608,6.25 18.03125,6.25 Z" />
  <path
     id="rect5"
     style="fill:#ffffff;stroke:none;stroke-width:2.20353;stroke-linecap:round;stroke-linejoin:round;stroke-miterlimit:6.1;stroke-dasharray:none;stroke-opacity:1;paint-order:markers stroke fill"
     d="M 10.951172 6.25 L 8.0332031 12.085938 L 10.207031 12.085938 L 10.207031 15.75 L 10.548828 15.75 L 13.466797 9.9140625 L 11.292969 9.9140625 L 11.292969 6.25 L 10.951172 6.25 z " />
</svg>
