<?xml version="1.0" encoding="UTF-8" standalone="no"?>
<svg
   viewBox="0 0 22 22"
   version="1.1"
   id="svg1"
   sodipodi:docname="battery-40-charging.svg"
   inkscape:version="1.3.2 (091e20ef0f, 2023-11-25, custom)"
   xmlns:inkscape="http://www.inkscape.org/namespaces/inkscape"
   xmlns:sodipodi="http://sodipodi.sourceforge.net/DTD/sodipodi-0.dtd"
   xmlns="http://www.w3.org/2000/svg"
   xmlns:svg="http://www.w3.org/2000/svg">
  <defs
     id="defs1" />
  <sodipodi:namedview
     id="namedview1"
     pagecolor="#232323"
     bordercolor="#666666"
     borderopacity="1.0"
     inkscape:showpageshadow="2"
     inkscape:pageopacity="0.0"
     inkscape:pagecheckerboard="0"
     inkscape:deskcolor="#d1d1d1"
     inkscape:zoom="32"
     inkscape:cx="13.875"
     inkscape:cy="11.890625"
     inkscape:window-width="1920"
     inkscape:window-height="1022"
     inkscape:window-x="0"
     inkscape:window-y="30"
     inkscape:window-maximized="1"
     inkscape:current-layer="svg1" />
  <path
     id="rect2"
     style="fill:#ffffff;fill-opacity:0.34901962;stroke:none;stroke-width:0.697568;stroke-linecap:round;stroke-linejoin:round;stroke-miterlimit:6.1;paint-order:markers stroke fill"
     d="M 3.46875 6.25 C 2.6553917 6.25 2 6.9053917 2 7.71875 L 2 14.28125 C 2 15.094608 2.6553917 15.75 3.46875 15.75 L 8.9492188 15.75 L 8.9492188 13.345703 L 8.0332031 13.345703 A 1.2586409 1.2586409 0 0 1 6.9082031 11.523438 L 9.5449219 6.25 L 3.46875 6.25 z M 12.552734 6.25 L 12.552734 8.6542969 L 13.466797 8.6542969 A 1.2586409 1.2586409 0 0 1 14.59375 10.476562 L 11.957031 15.75 L 18.03125 15.75 C 18.844608 15.75 19.5 15.094608 19.5 14.28125 L 19.5 12.988281 L 20.333984 12.988281 C 20.70323 12.988281 21 12.69151 21 12.322266 L 21 9.6777344 C 21 9.308489 20.70323 9.0117188 20.333984 9.0117188 L 19.5 9.0117188 L 19.5 7.71875 C 19.5 6.9053917 18.844608 6.25 18.03125 6.25 L 12.552734 6.25 z " />
  <path
     id="rect3-1"
     style="fill:#ffffff;fill-opacity:1;stroke:none;stroke-width:0.504424;stroke-linecap:round;stroke-linejoin:round;stroke-miterlimit:6.1;paint-order:markers stroke fill"
     d="M 3.46875,6.25 C 2.6553909,6.25 2,6.9053909 2,7.71875 v 6.5625 C 2,15.094609 2.6553909,15.75 3.46875,15.75 h 4.0625 c 0.68205,0 1.2515244,-0.46157 1.4179688,-1.089844 V 13.345703 H 8.0332031 C 7.09736,13.345412 6.489129,12.360205 6.9082031,11.523438 L 8.9667969,7.40625 C 8.8243218,6.7440026 8.2373102,6.25 7.53125,6.25 Z"
     sodipodi:nodetypes="ssssscccccss" />
  <path
     id="path1-3-9"
     style="display:inline;fill:#ffffff;stroke-width:0.0271725;fill-opacity:0.34901962"
     d="M 10.951172 6.25 L 8.0332031 12.085938 L 10.207031 12.085938 L 10.207031 15.75 L 10.548828 15.75 L 13.466797 9.9140625 L 11.292969 9.9140625 L 11.292969 6.25 L 10.951172 6.25 z " />
</svg>
