<?xml version="1.0" encoding="UTF-8" standalone="no"?>
<svg
   viewBox="0 0 22 22"
   version="1.1"
   id="svg1"
   sodipodi:docname="battery-70-charging.svg"
   inkscape:version="1.3.2 (091e20ef0f, 2023-11-25, custom)"
   xmlns:inkscape="http://www.inkscape.org/namespaces/inkscape"
   xmlns:sodipodi="http://sodipodi.sourceforge.net/DTD/sodipodi-0.dtd"
   xmlns="http://www.w3.org/2000/svg"
   xmlns:svg="http://www.w3.org/2000/svg">
  <defs
     id="defs1" />
  <sodipodi:namedview
     id="namedview1"
     pagecolor="#212020"
     bordercolor="#666666"
     borderopacity="1.0"
     inkscape:showpageshadow="2"
     inkscape:pageopacity="0.0"
     inkscape:pagecheckerboard="0"
     inkscape:deskcolor="#d1d1d1"
     inkscape:zoom="14.741445"
     inkscape:cx="8.5812485"
     inkscape:cy="20.384705"
     inkscape:window-width="1920"
     inkscape:window-height="1022"
     inkscape:window-x="0"
     inkscape:window-y="30"
     inkscape:window-maximized="1"
     inkscape:current-layer="svg1" />
  <path
     id="rect2-8"
     style="fill:#ffffff;fill-opacity:0.34902;stroke:none;stroke-width:0.697568;stroke-linecap:round;stroke-linejoin:round;stroke-miterlimit:6.1;paint-order:markers stroke fill"
     d="m 18.885987,-7.9152656 v 2.4042969 h 0.914063 c 0.936697,-0.00116 1.54641,0.9847344 1.126953,1.8222651 l -2.636719,5.273438 h 6.074219 c 0.813358,0 1.46875,-0.65539203 1.46875,-1.46875003 V -1.1769846 h 0.833984 c 0.369246,0 0.666016,-0.296771 0.666016,-0.666015 v -2.6445316 c 0,-0.3692454 -0.29677,-0.6660156 -0.666016,-0.6660156 h -0.833984 v -1.2929688 c 0,-0.8133583 -0.655392,-1.46875 -1.46875,-1.46875 z"
     sodipodi:nodetypes="cccccsscsssscssc"
     transform="translate(-6.3332526,14.165266)" />
  <path
     id="rect3-1"
     style="display:inline;fill:#ffffff;fill-opacity:1;stroke:none;stroke-width:0.504424;stroke-linecap:round;stroke-linejoin:round;stroke-miterlimit:6.1;paint-order:markers stroke fill"
     d="M 3.46875 6.25 C 3.2654102 6.25 3.0722503 6.2911383 2.8964844 6.3652344 C 2.8085737 6.4023102 2.7246009 6.4473008 2.6464844 6.5 C 2.4903206 6.6053288 2.3553288 6.7403206 2.25 6.8964844 C 2.1973008 6.9746009 2.1523102 7.0585737 2.1152344 7.1464844 C 2.0411383 7.3222503 2 7.5154102 2 7.71875 L 2 14.28125 C 2 14.48459 2.0411383 14.67775 2.1152344 14.853516 C 2.1523102 14.941426 2.1973008 15.025399 2.25 15.103516 C 2.3553288 15.259679 2.4903206 15.394671 2.6464844 15.5 C 2.7246009 15.552699 2.8085737 15.59769 2.8964844 15.634766 C 3.0722503 15.708862 3.2654102 15.75 3.46875 15.75 L 8.9472656 15.75 L 8.9472656 13.345703 L 8.0332031 13.345703 A 1.2586409 1.2586409 0 0 1 6.90625 11.523438 L 9.5429688 6.25 L 3.46875 6.25 z M 10.951172 6.25 L 8.0332031 12.085938 L 10.207031 12.085938 L 10.207031 15.75 L 10.548828 15.75 L 13.466797 9.9140625 L 11.292969 9.9140625 L 11.292969 6.25 L 10.951172 6.25 z M 12.552734 6.2519531 L 12.552734 8.6542969 L 13.466797 8.6542969 A 1.2586409 1.2586409 0 0 1 14 8.7753906 L 14 7.71875 C 14 6.9126677 13.355965 6.2635254 12.552734 6.2519531 z M 14 11.664062 L 11.957031 15.75 L 12.53125 15.75 C 13.344609 15.75 14 15.094609 14 14.28125 L 14 11.664062 z " />
</svg>
