<?xml version="1.0" encoding="UTF-8" standalone="no"?>
<svg
   viewBox="0 0 22 22"
   version="1.1"
   id="svg1"
   sodipodi:docname="battery-10-charging.svg"
   inkscape:version="1.3.2 (091e20ef0f, 2023-11-25, custom)"
   xmlns:inkscape="http://www.inkscape.org/namespaces/inkscape"
   xmlns:sodipodi="http://sodipodi.sourceforge.net/DTD/sodipodi-0.dtd"
   xmlns="http://www.w3.org/2000/svg"
   xmlns:svg="http://www.w3.org/2000/svg">
  <defs
     id="defs1" />
  <sodipodi:namedview
     id="namedview1"
     pagecolor="#00001f"
     bordercolor="#666666"
     borderopacity="1.0"
     inkscape:showpageshadow="2"
     inkscape:pageopacity="0.0"
     inkscape:pagecheckerboard="0"
     inkscape:deskcolor="#d1d1d1"
     inkscape:zoom="17.557786"
     inkscape:cx="3.9014031"
     inkscape:cy="12.90026"
     inkscape:window-width="1920"
     inkscape:window-height="1022"
     inkscape:window-x="0"
     inkscape:window-y="30"
     inkscape:window-maximized="1"
     inkscape:current-layer="svg1" />
  <path
     id="rect2-8"
     style="fill:#ffffff;fill-opacity:0.34902;stroke:none;stroke-width:0.697568;stroke-linecap:round;stroke-linejoin:round;stroke-miterlimit:6.1;paint-order:markers stroke fill"
     d="M 3.46875,6.2500004 C 2.655392,6.2500004 2,6.9053921 2,7.7187504 V 14.28125 C 2,15.094608 2.655392,15.75 3.46875,15.75 h 5.4785164 v -2.404297 h -0.914063 a 1.2586409,1.2586409 0 0 1 -1.126953,-1.822265 l 2.636719,-5.2734376 z m 9.083984,0 v 2.4042969 h 0.914063 A 1.2586409,1.2586409 0 0 1 14.59375,10.476562 L 11.957031,15.75 H 18.03125 C 18.844608,15.75 19.5,15.094608 19.5,14.28125 v -1.292969 h 0.833984 C 20.70323,12.988281 21,12.69151 21,12.322266 V 9.6777348 C 21,9.3084894 20.70323,9.0117192 20.333984,9.0117192 H 19.5 V 7.7187504 c 0,-0.8133583 -0.655392,-1.46875 -1.46875,-1.46875 z" />
  <path
     id="rect5"
     style="fill:#ffffff;fill-opacity:0.34902;stroke:none;stroke-width:2.20353;stroke-linecap:round;stroke-linejoin:round;stroke-miterlimit:6.1;stroke-dasharray:none;stroke-opacity:1;paint-order:markers stroke fill"
     d="M 10.951172,6.2500004 8.0332034,12.085938 H 10.207031 V 15.75 h 0.341797 L 13.466797,9.9140629 H 11.292969 V 6.2500004 Z" />
  <path
     id="rect3-1-5"
     style="fill:#ffffff;fill-opacity:0.996078;stroke:none;stroke-width:0.504424;stroke-linecap:round;stroke-linejoin:round;stroke-miterlimit:6.1;paint-order:markers stroke fill"
     d="M 3.2148438,6.2734377 C 2.5235363,6.3932095 2,6.9921715 2,7.7187502 V 14.28125 c 0,0.726579 0.5235363,1.325541 1.2148438,1.445312 C 3.6644391,15.628421 4,15.229872 4,14.75 V 7.2500002 C 4,6.7701285 3.6644391,6.3715796 3.2148438,6.2734377 Z" />
</svg>
