<?xml version="1.0" encoding="UTF-8" standalone="no"?>
<svg
   viewBox="0 0 22 22"
   version="1.1"
   id="svg1"
   sodipodi:docname="battery-10.svg"
   inkscape:version="1.3.2 (091e20ef0f, 2023-11-25, custom)"
   xmlns:inkscape="http://www.inkscape.org/namespaces/inkscape"
   xmlns:sodipodi="http://sodipodi.sourceforge.net/DTD/sodipodi-0.dtd"
   xmlns="http://www.w3.org/2000/svg"
   xmlns:svg="http://www.w3.org/2000/svg">
  <defs
     id="defs1" />
  <sodipodi:namedview
     id="namedview1"
     pagecolor="#ffffff"
     bordercolor="#666666"
     borderopacity="1.0"
     inkscape:showpageshadow="2"
     inkscape:pageopacity="0.0"
     inkscape:pagecheckerboard="0"
     inkscape:deskcolor="#d1d1d1"
     inkscape:zoom="15.436176"
     inkscape:cx="17.394204"
     inkscape:cy="12.859402"
     inkscape:window-width="1920"
     inkscape:window-height="1022"
     inkscape:window-x="0"
     inkscape:window-y="30"
     inkscape:window-maximized="1"
     inkscape:current-layer="svg1" />
  <path
     id="rect2"
     style="fill:#f64a6d;fill-opacity:0.34901962;stroke:none;stroke-width:0.697568;stroke-linecap:round;stroke-linejoin:round;stroke-miterlimit:6.1;paint-order:markers stroke fill"
     d="M 3.46875 6.25 C 2.6553909 6.25 2 6.9053909 2 7.71875 L 2 14.28125 C 2 15.094609 2.6553909 15.75 3.46875 15.75 L 18.03125 15.75 C 18.844609 15.75 19.5 15.094609 19.5 14.28125 L 19.5 12.988281 L 20.333984 12.988281 C 20.70323 12.988281 21 12.691511 21 12.322266 L 21 9.6777344 C 21 9.3084887 20.70323 9.0117188 20.333984 9.0117188 L 19.5 9.0117188 L 19.5 7.71875 C 19.5 6.9053909 18.844609 6.25 18.03125 6.25 L 3.46875 6.25 z " />
  <path
     id="rect3-1"
     style="fill:#ff929b;fill-opacity:1;stroke:none;stroke-width:0.504424;stroke-linecap:round;stroke-linejoin:round;stroke-miterlimit:6.1;paint-order:markers stroke fill"
     d="M 3.2148438 6.2734375 C 2.5235363 6.3932092 2 6.9921713 2 7.71875 L 2 14.28125 C 2 15.007829 2.5235363 15.606791 3.2148438 15.726562 C 3.6644391 15.628421 4 15.229872 4 14.75 L 4 7.25 C 4 6.7701283 3.6644391 6.3715794 3.2148438 6.2734375 z " />
</svg>
