<?xml version="1.0" encoding="UTF-8" standalone="no"?>
<svg
   viewBox="0 0 22 22"
   version="1.1"
   id="svg2"
   sodipodi:docname="nm-signal-25.svg"
   inkscape:version="1.3.2 (091e20ef0f, 2023-11-25, custom)"
   xmlns:inkscape="http://www.inkscape.org/namespaces/inkscape"
   xmlns:sodipodi="http://sodipodi.sourceforge.net/DTD/sodipodi-0.dtd"
   xmlns="http://www.w3.org/2000/svg"
   xmlns:svg="http://www.w3.org/2000/svg">
  <defs
     id="defs2" />
  <sodipodi:namedview
     id="namedview2"
     pagecolor="#ffffff"
     bordercolor="#666666"
     borderopacity="1.0"
     inkscape:showpageshadow="2"
     inkscape:pageopacity="0.0"
     inkscape:pagecheckerboard="0"
     inkscape:deskcolor="#d1d1d1"
     inkscape:zoom="38.409091"
     inkscape:cx="11"
     inkscape:cy="11.468639"
     inkscape:window-width="1920"
     inkscape:window-height="1022"
     inkscape:window-x="0"
     inkscape:window-y="30"
     inkscape:window-maximized="1"
     inkscape:current-layer="svg2" />
  <g
     id="g2"
     style="fill:#ffffff"
     transform="matrix(1.2902445,0,0,1.2902445,-3.0862716,-3.1847713)">
    <path
       d="m 18.582,9.216 -6.861,7.153 a 1,1 0 0 1 -1.443,0 L 3.43,9.229 a 0.628,0.628 0 0 1 0.012,-0.886 10.936,10.936 0 0 1 15.124,0.008 0.61,0.61 0 0 1 0.016,0.865 z"
       fill-rule="evenodd"
       opacity="0.35"
       id="path1"
       style="fill:#ffffff" />
    <path
       d="m 12.345,15.719 -0.622,0.649 a 1,1 0 0 1 -1.444,0 L 9.656,15.719 a 0.664,0.664 0 0 1 0.131,-1.078 2.569,2.569 0 0 1 2.428,0 0.689,0.689 0 0 1 0.13,1.078 z"
       fill-rule="evenodd"
       id="path2"
       style="fill:#ffffff" />
  </g>
</svg>
