<?xml version="1.0" encoding="UTF-8" standalone="no"?>
<svg
   viewBox="0 0 22 22"
   version="1.1"
   id="svg3"
   sodipodi:docname="nm-signal-50-secure.svg"
   inkscape:version="1.3.2 (091e20ef0f, 2023-11-25, custom)"
   xmlns:inkscape="http://www.inkscape.org/namespaces/inkscape"
   xmlns:sodipodi="http://sodipodi.sourceforge.net/DTD/sodipodi-0.dtd"
   xmlns="http://www.w3.org/2000/svg"
   xmlns:svg="http://www.w3.org/2000/svg">
  <defs
     id="defs3" />
  <sodipodi:namedview
     id="namedview3"
     pagecolor="#ffffff"
     bordercolor="#666666"
     borderopacity="1.0"
     inkscape:showpageshadow="2"
     inkscape:pageopacity="0.0"
     inkscape:pagecheckerboard="0"
     inkscape:deskcolor="#d1d1d1"
     inkscape:zoom="18.348735"
     inkscape:cx="3.2972301"
     inkscape:cy="19.265634"
     inkscape:window-width="1920"
     inkscape:window-height="1022"
     inkscape:window-x="0"
     inkscape:window-y="30"
     inkscape:window-maximized="1"
     inkscape:current-layer="svg3" />
  <g
     id="g3"
     style="fill:#f9f9f9"
     transform="matrix(1.2831477,0,0,1.2831477,-3.171936,-1.8043441)">
    <path
       d="m 18.58,8.22 c -0.52,0.55 -1.47,1.54 -2.53,2.64 h -0.03 a 1.087,1.087 0 0 0 -0.18,-0.01 2.769,2.769 0 0 0 -1.79,0.65 2.85,2.85 0 0 0 -0.94,1.51 1.787,1.787 0 0 0 -1.07,1.64 v 0.39 l -0.32,0.33 a 1,1 0 0 1 -1.44,0 L 7.69,12.68 C 7.66,12.64 7.63,12.61 7.6,12.57 L 3.43,8.23 a 0.619,0.619 0 0 1 0.01,-0.88 10.933,10.933 0 0 1 15.12,0.01 0.6,0.6 0 0 1 0.02,0.86 z"
       fill-rule="evenodd"
       opacity="0.35"
       id="path1"
       style="fill:#f9f9f9" />
    <path
       d="m 14.05,11.5 a 2.85,2.85 0 0 0 -0.94,1.51 1.787,1.787 0 0 0 -1.07,1.64 v 0.39 l -0.32,0.33 a 1,1 0 0 1 -1.44,0 L 7.69,12.68 C 7.66,12.64 7.63,12.61 7.6,12.57 a 0.7,0.7 0 0 1 0.18,-0.95 5.21,5.21 0 0 1 6.27,-0.12 z"
       fill-rule="evenodd"
       id="path2"
       style="fill:#f9f9f9" />
    <path
       d="m 15.838,11.652 a 2,2 0 0 0 -2,2 1,1 0 0 0 -1,1 v 2 a 1,1 0 0 0 1,1 h 4 a 1,1 0 0 0 1,-1 v -2 a 1,1 0 0 0 -1,-1 2,2 0 0 0 -2,-2 z m 0,1 a 1,1 0 0 1 1,1 h -2 a 1,1 0 0 1 1,-1 z"
       fill-rule="evenodd"
       id="path3"
       style="fill:#f9f9f9" />
  </g>
</svg>
