<svg xmlns="http://www.w3.org/2000/svg" viewBox="0 0 22 22"><path d="M9,3.5a1.5,1.5,0,0,0,0,3h1.5V5A1.5,1.5,0,0,0,9,3.5Zm4,0A1.5,1.5,0,0,0,11.5,5V9a1.5,1.5,0,0,0,3,0V7.732a2.988,2.988,0,0,1-.516-3.861A1.5,1.5,0,0,0,13,3.5Zm-8,4a1.5,1.5,0,0,0,0,3H9a1.5,1.5,0,0,0,0-3Zm13.131.516a2.983,2.983,0,0,1-2.49.357A1.492,1.492,0,0,0,15.5,9v1.5H17a1.5,1.5,0,0,0,1.131-2.484ZM5,11.5A1.5,1.5,0,1,0,6.5,13V11.5Zm4,0A1.5,1.5,0,0,0,7.5,13v4a1.5,1.5,0,0,0,3,0V13A1.5,1.5,0,0,0,9,11.5Zm4,0a1.5,1.5,0,0,0,0,3h4a1.5,1.5,0,0,0,0-3Zm-1.5,4V17A1.5,1.5,0,1,0,13,15.5Z" fill="#4285f4"/><circle cx="16.5" cy="5.5" r="2" fill="#4285f4"/></svg>