<?xml version="1.0" encoding="UTF-8" standalone="no"?>
<svg
   viewBox="0 0 22 22"
   version="1.1"
   id="svg1"
   sodipodi:docname="battery-30.svg"
   inkscape:version="1.3.2 (091e20ef0f, 2023-11-25, custom)"
   xmlns:inkscape="http://www.inkscape.org/namespaces/inkscape"
   xmlns:sodipodi="http://sodipodi.sourceforge.net/DTD/sodipodi-0.dtd"
   xmlns="http://www.w3.org/2000/svg"
   xmlns:svg="http://www.w3.org/2000/svg">
  <defs
     id="defs1" />
  <sodipodi:namedview
     id="namedview1"
     pagecolor="#201724"
     bordercolor="#666666"
     borderopacity="1.0"
     inkscape:showpageshadow="2"
     inkscape:pageopacity="0.0"
     inkscape:pagecheckerboard="0"
     inkscape:deskcolor="#d1d1d1"
     inkscape:zoom="19.204546"
     inkscape:cx="10.960946"
     inkscape:cy="17.573964"
     inkscape:window-width="1920"
     inkscape:window-height="1022"
     inkscape:window-x="0"
     inkscape:window-y="30"
     inkscape:window-maximized="1"
     inkscape:current-layer="g3" />
  <path
     id="rect2"
     style="fill:#ffffff;fill-opacity:0.34901962;stroke:none;stroke-width:0.697568;stroke-linecap:round;stroke-linejoin:round;stroke-miterlimit:6.1;paint-order:markers stroke fill"
     d="M 3.46875 6.25 C 2.6553909 6.25 2 6.9053909 2 7.71875 L 2 14.28125 C 2 15.094609 2.6553909 15.75 3.46875 15.75 L 18.03125 15.75 C 18.844609 15.75 19.5 15.094609 19.5 14.28125 L 19.5 12.988281 L 20.333984 12.988281 C 20.70323 12.988281 21 12.691511 21 12.322266 L 21 9.6777344 C 21 9.3084887 20.70323 9.0117188 20.333984 9.0117188 L 19.5 9.0117188 L 19.5 7.71875 C 19.5 6.9053909 18.844609 6.25 18.03125 6.25 L 3.46875 6.25 z " />
  <g
     id="g3"
     transform="translate(-5.8307691)"
     style="fill:#ff0000">
    <rect
       style="fill:#ffffff;fill-opacity:1;stroke:none;stroke-width:0.504424;stroke-linecap:round;stroke-linejoin:round;stroke-miterlimit:6.1;paint-order:markers stroke fill"
       id="rect3-1"
       width="5"
       height="9.5"
       x="7.8307691"
       y="6.25"
       ry="1.4681586" />
  </g>
</svg>
