<?xml version="1.0" encoding="UTF-8" standalone="no"?>
<svg
   viewBox="0 0 22 22"
   version="1.1"
   id="svg1"
   sodipodi:docname="battery-30-charging.svg"
   inkscape:version="1.3.2 (091e20ef0f, 2023-11-25, custom)"
   xmlns:inkscape="http://www.inkscape.org/namespaces/inkscape"
   xmlns:sodipodi="http://sodipodi.sourceforge.net/DTD/sodipodi-0.dtd"
   xmlns="http://www.w3.org/2000/svg"
   xmlns:svg="http://www.w3.org/2000/svg">
  <defs
     id="defs1" />
  <sodipodi:namedview
     id="namedview1"
     pagecolor="#201724"
     bordercolor="#666666"
     borderopacity="1.0"
     inkscape:showpageshadow="2"
     inkscape:pageopacity="0.0"
     inkscape:pagecheckerboard="0"
     inkscape:deskcolor="#d1d1d1"
     inkscape:zoom="11.895673"
     inkscape:cx="17.69551"
     inkscape:cy="7.6918727"
     inkscape:window-width="1920"
     inkscape:window-height="1022"
     inkscape:window-x="0"
     inkscape:window-y="30"
     inkscape:window-maximized="1"
     inkscape:current-layer="svg1" />
  <g
     id="g2"
     transform="translate(-6.3332526,14.165266)"
     style="fill:#ffffff;fill-opacity:0.34902">
    <path
       id="rect2-8"
       style="fill:#ffffff;fill-opacity:0.34902;stroke:none;stroke-width:0.697568;stroke-linecap:round;stroke-linejoin:round;stroke-miterlimit:6.1;paint-order:markers stroke fill"
       d="m 9.8020026,-7.9152656 c -0.813358,0 -1.46875,0.6553917 -1.46875,1.46875 v 6.56249997 c 0,0.813358 0.655392,1.46875003 1.46875,1.46875003 H 15.280519 V -0.81956263 H 14.366456 A 1.2586409,1.2586409 0 0 1 13.239503,-2.6418276 l 2.636719,-5.273438 z m 9.0839844,0 v 2.4042969 h 0.914063 a 1.2586409,1.2586409 0 0 1 1.126953,1.8222651 l -2.636719,5.273438 h 6.074219 c 0.813358,0 1.46875,-0.65539203 1.46875,-1.46875003 V -1.1769846 h 0.833984 c 0.369246,0 0.666016,-0.296771 0.666016,-0.666015 v -2.6445316 c 0,-0.3692454 -0.29677,-0.6660156 -0.666016,-0.6660156 h -0.833984 v -1.2929688 c 0,-0.8133583 -0.655392,-1.46875 -1.46875,-1.46875 z" />
    <path
       id="rect5"
       style="fill:#ffffff;fill-opacity:0.34902;stroke:none;stroke-width:2.20353;stroke-linecap:round;stroke-linejoin:round;stroke-miterlimit:6.1;stroke-dasharray:none;stroke-opacity:1;paint-order:markers stroke fill"
       d="m 17.284425,-7.9152656 -2.917969,5.835938 h 2.173828 v 3.664062 h 0.341797 l 2.917969,-5.8359375 h -2.173828 v -3.6640625 z" />
  </g>
  <path
     id="rect2-8-6"
     style="fill:#ffffff;fill-opacity:1;stroke:none;stroke-width:0.697568;stroke-linecap:round;stroke-linejoin:round;stroke-miterlimit:6.1;paint-order:markers stroke fill;opacity:1"
     d="M 3.46875 6.25 C 2.6553928 6.25 2 6.9053928 2 7.71875 L 2 14.28125 C 2 15.094607 2.6553928 15.75 3.46875 15.75 L 5.53125 15.75 C 6.3446091 15.75 7 15.094609 7 14.28125 L 7 12.794922 A 1.2586409 1.2586409 0 0 1 6.90625 11.523438 L 7 11.335938 L 7 7.71875 C 7 6.9053909 6.3446091 6.25 5.53125 6.25 L 3.46875 6.25 z " />
</svg>
