<svg xmlns="http://www.w3.org/2000/svg" viewBox="0 0 22 22"><path d="M18.456,8.5c-.53.55-1.45,1.52-2.47,2.58a1.275,1.275,0,0,0-.19-.01,2.817,2.817,0,0,0-2.73,2.16A1.787,1.787,0,0,0,12,14.868v.37c-.13.13-.24.25-.35.36a1,1,0,0,1-1.44,0l-6.8-7.09a.7.7,0,0,1,.01-.99,10.953,10.953,0,0,1,15.02,0A.694.694,0,0,1,18.456,8.5Z" fill-rule="evenodd"/><path d="M15.8,11.872a2,2,0,0,0-2,2,1,1,0,0,0-1,1v2a1,1,0,0,0,1,1h4a1,1,0,0,0,1-1v-2a1,1,0,0,0-1-1A2,2,0,0,0,15.8,11.872Zm0,1a1,1,0,0,1,1,1h-2A1,1,0,0,1,15.8,12.872Z" fill-rule="evenodd"/></svg>