<svg xmlns="http://www.w3.org/2000/svg" viewBox="0 0 22 22"><path d="M18.58,8.22c-.52.55-1.47,1.54-2.53,2.64h-.03a1.087,1.087,0,0,0-.18-.01,2.769,2.769,0,0,0-1.79.65,2.85,2.85,0,0,0-.94,1.51,1.787,1.787,0,0,0-1.07,1.64v.39l-.32.33a1,1,0,0,1-1.44,0L7.69,12.68c-.03-.04-.06-.07-.09-.11L3.43,8.23a.619.619,0,0,1,.01-.88,10.933,10.933,0,0,1,15.12.01A.6.6,0,0,1,18.58,8.22Z" fill-rule="evenodd" opacity="0.35"/><path d="M14.05,11.5a2.85,2.85,0,0,0-.94,1.51,1.787,1.787,0,0,0-1.07,1.64v.39l-.32.33a1,1,0,0,1-1.44,0L7.69,12.68c-.03-.04-.06-.07-.09-.11a.7.7,0,0,1,.18-.95,5.21,5.21,0,0,1,6.27-.12Z" fill-rule="evenodd"/><path d="M15.838,11.652a2,2,0,0,0-2,2,1,1,0,0,0-1,1v2a1,1,0,0,0,1,1h4a1,1,0,0,0,1-1v-2a1,1,0,0,0-1-1A2,2,0,0,0,15.838,11.652Zm0,1a1,1,0,0,1,1,1h-2A1,1,0,0,1,15.838,12.652Z" fill-rule="evenodd"/></svg>