<?xml version="1.0" encoding="UTF-8" standalone="no"?>
<svg
   viewBox="0 0 22 22"
   version="1.1"
   id="svg2"
   sodipodi:docname="nm-signal-75.svg"
   inkscape:version="1.3.2 (091e20ef0f, 2023-11-25, custom)"
   xmlns:inkscape="http://www.inkscape.org/namespaces/inkscape"
   xmlns:sodipodi="http://sodipodi.sourceforge.net/DTD/sodipodi-0.dtd"
   xmlns="http://www.w3.org/2000/svg"
   xmlns:svg="http://www.w3.org/2000/svg">
  <defs
     id="defs2" />
  <sodipodi:namedview
     id="namedview2"
     pagecolor="#ffffff"
     bordercolor="#666666"
     borderopacity="1.0"
     inkscape:showpageshadow="2"
     inkscape:pageopacity="0.0"
     inkscape:pagecheckerboard="0"
     inkscape:deskcolor="#d1d1d1"
     inkscape:zoom="14.990289"
     inkscape:cx="2.1013604"
     inkscape:cy="19.312502"
     inkscape:window-width="1920"
     inkscape:window-height="1022"
     inkscape:window-x="0"
     inkscape:window-y="30"
     inkscape:window-maximized="1"
     inkscape:current-layer="svg2" />
  <g
     id="g2"
     transform="matrix(1.2950506,0,0,1.2950506,-3.1178641,-3.2476669)">
    <path
       d="m 18.525,9.28 -6.806,7.1 a 1,1 0 0 1 -1.443,0 L 3.476,9.293 A 0.7,0.7 0 0 1 3.493,8.3 a 10.934,10.934 0 0 1 15.014,0 0.688,0.688 0 0 1 0.018,0.98 z"
       fill-rule="evenodd"
       opacity="0.35"
       id="path1"
       style="fill:#ffffff" />
    <path
       d="m 16.353,11.506 -4.632,4.829 a 1,1 0 0 1 -1.443,0 L 5.646,11.506 a 0.7,0.7 0 0 1 0.02,-0.994 7.975,7.975 0 0 1 10.667,0 0.7,0.7 0 0 1 0.02,0.994 z"
       fill-rule="evenodd"
       id="path2"
       style="fill:#ffffff" />
  </g>
</svg>
